<?xml version="1.0" encoding="UTF-8"?>
<svg version="1.1" xmlns="http://www.w3.org/2000/svg" width="192" height="256">
<path d="M0 0 C8.47068232 5.20066108 14.33987831 13.31211971 17.375 22.796875 C20.28266294 37.69864756 17.28899529 51.46907457 10.81640625 65.0234375 C9.58643635 68.00125936 9.2721826 70.80185442 9 74 C9.5775 73.360625 10.155 72.72125 10.75 72.0625 C13 70 13 70 15.125 69.5625 C15.74375 69.376875 16.3625 69.19125 17 69 C18.18391223 66.62374655 18.18391223 66.62374655 19 64 C19.66 63.01 20.32 62.02 21 61 C28.35403422 61.40855746 35.20105647 63.46125808 40.7109375 68.59375 C44.09811826 72.58788223 45.36295293 75.33744777 45.27734375 80.59765625 C44.27457643 89.28359849 39.64872989 96.80262434 35 104 C34.23857996 105.21030685 33.47823166 106.42128836 32.71875 107.6328125 C31.9174809 108.90155626 31.11540055 110.16978804 30.3125 111.4375 C29.93198486 112.04118408 29.55146973 112.64486816 29.15942383 113.2668457 C27.6498704 115.62142992 26.22078027 117.78500437 24.2109375 119.7421875 C23.81132812 120.15726562 23.41171875 120.57234375 23 121 C23.23043864 123.65466049 23.23043864 123.65466049 24 126 C22.90554162 126.86657116 21.79902219 127.71792724 20.6875 128.5625 C20.07261719 129.03816406 19.45773438 129.51382813 18.82421875 130.00390625 C18.22222656 130.33261719 17.62023437 130.66132813 17 131 C16.01 130.67 15.02 130.34 14 130 C11.33012174 131.36486326 11.33012174 131.36486326 8.5625 133.3125 C5.39406163 135.43772465 2.42431667 137.28784167 -1 139 C-0.67 142.96 -0.34 146.92 0 151 C-1.32 151.33 -2.64 151.66 -4 152 C-4.88028084 155.13648991 -5.2651152 158.15825061 -5.53515625 161.40234375 C-5.62313477 162.45147949 -5.71111328 163.50061523 -5.80175781 164.58154297 C-6.15027692 169.06725801 -6.46872412 173.55473301 -6.77587891 178.04345703 C-6.95645929 180.42562309 -7.19280297 182.78170785 -7.48046875 185.15234375 C-7.90386428 190.21468165 -7.8882086 192.8198627 -4.765625 196.96875 C-2.99037368 198.92358621 -1.17550583 200.60559345 0.8125 202.3671875 C3 205 3 205 3 212 C-8.88 212 -20.76 212 -33 212 C-33 200.12 -33 188.24 -33 176 C-34.32 176 -35.64 176 -37 176 C-37 187.88 -37 199.76 -37 212 C-48.88 212 -60.76 212 -73 212 C-73 205 -73 205 -71.57421875 202.92578125 C-70.95160156 202.39339844 -70.32898438 201.86101562 -69.6875 201.3125 C-64.69544619 197.07753289 -64.69544619 197.07753289 -62.6015625 191.08203125 C-62.64494818 185.0297288 -63.04002126 180.20416012 -65.26953125 174.59375 C-66.46736095 170.34049373 -66.53396201 165.97565888 -66.70874023 161.58276367 C-66.83089354 156.69878605 -66.83089354 156.69878605 -68 152 C-68.66 151.67 -69.32 151.34 -70 151 C-70 147.37 -70 143.74 -70 140 C-71.65 139.34 -73.3 138.68 -75 138 C-75.680625 137.443125 -76.36125 136.88625 -77.0625 136.3125 C-77.701875 135.879375 -78.34125 135.44625 -79 135 C-79.61875 135.20625 -80.2375 135.4125 -80.875 135.625 C-83 136 -83 136 -84.5859375 134.96484375 C-86.09829049 133.69034909 -87.55305253 132.34829196 -89 131 C-88.71125 130.319375 -88.4225 129.63875 -88.125 128.9375 C-87.70490988 126.09446793 -87.70490988 126.09446793 -89.05859375 124.49609375 C-90.11117298 123.36149536 -91.1689078 122.23166807 -92.23046875 121.10546875 C-95.44929722 117.27556026 -100 111.14990493 -100 106 C-100.99 105.67 -101.98 105.34 -103 105 C-109.10584209 96.98608225 -112.2473125 88.45803731 -112.49609375 78.45703125 C-111.77395515 74.88045503 -110.30325321 72.82008076 -108 70 C-105.66901538 68.47783896 -103.61184366 67.28658302 -101.125 66.125 C-100.52558594 65.81820312 -99.92617187 65.51140625 -99.30859375 65.1953125 C-95.39024993 63.29138839 -92.33362656 62.66868298 -88 63 C-87.0234375 64.79036458 -86.046875 66.58072917 -85.0703125 68.37109375 C-84.08589976 70.16618315 -84.08589976 70.16618315 -82 71 C-82.59663486 67.90106073 -83.5301314 65.99707826 -85.50390625 63.546875 C-85.99697266 62.928125 -86.49003906 62.309375 -86.99804688 61.671875 C-87.51431641 61.03765625 -88.03058594 60.4034375 -88.5625 59.75 C-89.34270508 58.77546875 -89.34270508 58.77546875 -90.13867188 57.78125 C-91.419844 56.18272331 -92.70914005 54.59071374 -94 53 C-83.50822255 39.38904547 -66.96001452 30.34441048 -50 28 C-40.41056925 27.08855478 -31.3286787 29.01114464 -22 31 C-21.47998413 30.23091309 -21.47998413 30.23091309 -20.94946289 29.44628906 C-14.18443819 19.45700147 -7.37682028 9.54983711 0 0 Z " fill="#FAD3AE" transform="translate(131,44)"/>
<path d="M0 0 C2.51823547 1.91385896 4.7109914 3.83553408 7 6 C8.81005237 7.62772592 10.62262614 9.25265166 12.4375 10.875 C13.95907486 12.24917938 15.48016736 13.62389399 17 15 C15.31567164 18.74898893 13.78913799 20.24405801 10 22 C8.515 21.505 8.515 21.505 7 21 C4.33012174 22.36486326 4.33012174 22.36486326 1.5625 24.3125 C-1.60593837 26.43772465 -4.57568333 28.28784167 -8 30 C-7.505 35.94 -7.505 35.94 -7 42 C-8.32 42.33 -9.64 42.66 -11 43 C-11.88028084 46.13648991 -12.2651152 49.15825061 -12.53515625 52.40234375 C-12.62313477 53.45147949 -12.71111328 54.50061523 -12.80175781 55.58154297 C-13.15027692 60.06725801 -13.46872412 64.55473301 -13.77587891 69.04345703 C-13.95645929 71.42562309 -14.19280297 73.78170785 -14.48046875 76.15234375 C-14.90386428 81.21468165 -14.8882086 83.8198627 -11.765625 87.96875 C-9.99037368 89.92358621 -8.17550583 91.60559345 -6.1875 93.3671875 C-4 96 -4 96 -4 103 C-15.88 103 -27.76 103 -40 103 C-40 91.12 -40 79.24 -40 67 C-41.32 67 -42.64 67 -44 67 C-44 78.88 -44 90.76 -44 103 C-55.88 103 -67.76 103 -80 103 C-80 96 -80 96 -78.57421875 93.92578125 C-77.64029297 93.12720703 -77.64029297 93.12720703 -76.6875 92.3125 C-71.69544619 88.07753289 -71.69544619 88.07753289 -69.6015625 82.08203125 C-69.64494818 76.0297288 -70.04002126 71.20416012 -72.26953125 65.59375 C-73.46736095 61.34049373 -73.53396201 56.97565888 -73.70874023 52.58276367 C-73.83089354 47.69878605 -73.83089354 47.69878605 -75 43 C-75.66 42.67 -76.32 42.34 -77 42 C-77 38.37 -77 34.74 -77 31 C-78.65 30.34 -80.3 29.68 -82 29 C-82.680625 28.443125 -83.36125 27.88625 -84.0625 27.3125 C-84.701875 26.879375 -85.34125 26.44625 -86 26 C-86.61875 26.20625 -87.2375 26.4125 -87.875 26.625 C-90 27 -90 27 -91.5859375 25.96484375 C-93.09829049 24.69034909 -94.55305253 23.34829196 -96 22 C-94.58911589 18.69346646 -92.94468631 16.8452183 -90.1875 14.5625 C-87.69078826 12.47139125 -85.52209553 10.47763931 -83.3125 8.0625 C-81 6 -81 6 -76 6 C-75.67 9.3 -75.34 12.6 -75 16 C-67.29691315 15.5453275 -59.59477458 15.07678224 -51.89359951 14.5908308 C-48.31704895 14.36557801 -44.74034099 14.14499666 -41.1628418 13.93530273 C-37.70615349 13.73251395 -34.2504492 13.51717826 -30.79506111 13.29335976 C-28.84423981 13.17021882 -26.89262478 13.05986597 -24.94102478 12.94975281 C-14.61065774 12.42668871 -14.61065774 12.42668871 -6.125 7.0625 C-5.01446604 5.02652108 -4.40654375 3.27664502 -4 1 C-2.1953125 0.3515625 -2.1953125 0.3515625 0 0 Z " fill="#E59B5E" transform="translate(138,153)"/>
<path d="M0 0 C8.47068232 5.20066108 14.33987831 13.31211971 17.375 22.796875 C20.07834568 36.65152159 17.84771615 49.97863781 11.875 62.6875 C7.79114313 71.47980361 7.68837869 81.00060658 7.5168457 90.53857422 C7.49195068 91.33021973 7.46705566 92.12186523 7.44140625 92.9375 C7.42795166 93.64777344 7.41449707 94.35804688 7.40063477 95.08984375 C6.87931274 97.57541568 6.02583698 98.50056628 4 100 C0.875 99.8125 0.875 99.8125 -2 99 C-6.68330694 89.63338612 -2.08908812 72.11751277 -1 62 C-8.87512273 61.49590253 -14.92271322 61.16660801 -21.60180664 65.63500977 C-29.74722566 70.27117364 -39.49141997 70.47623426 -48.625 70.375 C-49.67945313 70.38660156 -50.73390625 70.39820312 -51.8203125 70.41015625 C-58.69296419 70.38463898 -64.54685707 69.36801037 -71 67 C-70.78065796 68.05743408 -70.78065796 68.05743408 -70.55688477 69.13623047 C-69.88684814 72.38142967 -69.22463254 75.62817927 -68.5625 78.875 C-68.33240234 79.98359375 -68.10230469 81.0921875 -67.86523438 82.234375 C-64.83270579 97.17726948 -64.83270579 97.17726948 -65 102 C-67 104 -67 104 -70 104.25 C-73 104 -73 104 -75 102 C-75.51916301 99.62271117 -75.93815316 97.29569871 -76.3046875 94.89453125 C-79.98213312 71.50668961 -79.98213312 71.50668961 -94 53 C-83.00339246 39.54710556 -67.31388809 30.393327 -50 28 C-40.41056925 27.08855478 -31.3286787 29.01114464 -22 31 C-21.47998413 30.23091309 -21.47998413 30.23091309 -20.94946289 29.44628906 C-14.18443819 19.45700147 -7.37682028 9.54983711 0 0 Z " fill="#BE7958" transform="translate(131,44)"/>
<path d="M0 0 C2.51823547 1.91385896 4.7109914 3.83553408 7 6 C8.81005237 7.62772592 10.62262614 9.25265166 12.4375 10.875 C13.95907486 12.24917938 15.48016736 13.62389399 17 15 C15.31567164 18.74898893 13.78913799 20.24405801 10 22 C8.515 21.505 8.515 21.505 7 21 C4.33012174 22.36486326 4.33012174 22.36486326 1.5625 24.3125 C-1.60593837 26.43772465 -4.57568333 28.28784167 -8 30 C-7.505 35.94 -7.505 35.94 -7 42 C-8.32 42.33 -9.64 42.66 -11 43 C-11.33 44.32 -11.66 45.64 -12 47 C-32.46 47 -52.92 47 -74 47 C-74.33 45.68 -74.66 44.36 -75 43 C-75.66 42.67 -76.32 42.34 -77 42 C-77 38.37 -77 34.74 -77 31 C-78.65 30.34 -80.3 29.68 -82 29 C-82.680625 28.443125 -83.36125 27.88625 -84.0625 27.3125 C-84.701875 26.879375 -85.34125 26.44625 -86 26 C-86.61875 26.20625 -87.2375 26.4125 -87.875 26.625 C-90 27 -90 27 -91.5859375 25.96484375 C-93.09829049 24.69034909 -94.55305253 23.34829196 -96 22 C-94.58911589 18.69346646 -92.94468631 16.8452183 -90.1875 14.5625 C-87.69078826 12.47139125 -85.52209553 10.47763931 -83.3125 8.0625 C-81 6 -81 6 -76 6 C-75.67 9.3 -75.34 12.6 -75 16 C-67.29691315 15.5453275 -59.59477458 15.07678224 -51.89359951 14.5908308 C-48.31704895 14.36557801 -44.74034099 14.14499666 -41.1628418 13.93530273 C-37.70615349 13.73251395 -34.2504492 13.51717826 -30.79506111 13.29335976 C-28.84423981 13.17021882 -26.89262478 13.05986597 -24.94102478 12.94975281 C-14.61065774 12.42668871 -14.61065774 12.42668871 -6.125 7.0625 C-5.01446604 5.02652108 -4.40654375 3.27664502 -4 1 C-2.1953125 0.3515625 -2.1953125 0.3515625 0 0 Z " fill="#38AE70" transform="translate(138,153)"/>
<path d="M0 0 C8.88007659 5.45201283 14.17106396 13.57811631 17.390625 23.40625 C18.2525344 27.07489002 18.28304251 30.2496868 18 34 C16.44841712 31.94368534 14.91503919 29.88055014 13.421875 27.78125 C12.87015625 27.0284375 12.3184375 26.275625 11.75 25.5 C11.20859375 24.7471875 10.6671875 23.994375 10.109375 23.21875 C7.36240785 20.32934751 4.52305265 18.85423824 1 17 C-1.35648224 19.49782573 -3.70974016 21.99866815 -6.0625 24.5 C-6.71927734 25.19609375 -7.37605469 25.8921875 -8.05273438 26.609375 C-8.70693359 27.30546875 -9.36113281 28.0015625 -10.03515625 28.71875 C-10.70047363 29.41742188 -11.36579102 30.11609375 -12.05126953 30.8359375 C-14.03748808 32.97239899 -14.03748808 32.97239899 -15.74169922 35.3515625 C-17.38458549 37.52880168 -18.83857936 39.33350421 -21 41 C-24.16664456 41.43469562 -26.90867463 40.68336565 -30 40 C-50.06818633 38.51602755 -72.12384748 41.34428839 -88 55 C-88.66 55.99 -89.32 56.98 -90 58 C-91.32 56.02 -92.64 54.04 -94 52 C-81.74399924 38.64826407 -65.23253896 29.44780491 -47.08203125 27.72265625 C-38.53209697 27.43419693 -30.3167368 29.2268886 -22 31 C-21.47998413 30.23091309 -21.47998413 30.23091309 -20.94946289 29.44628906 C-14.18443819 19.45700147 -7.37682028 9.54983711 0 0 Z " fill="#D8845C" transform="translate(131,44)"/>
<path d="M0 0 C5.28 2.64 10.56 5.28 16 8 C16.66 6.68 17.32 5.36 18 4 C18.66 3.67 19.32 3.34 20 3 C20.66 4.65 21.32 6.3 22 8 C22.97582031 7.4946875 23.95164063 6.989375 24.95703125 6.46875 C26.2420258 5.81218344 27.52719101 5.1559508 28.8125 4.5 C29.45509766 4.16613281 30.09769531 3.83226562 30.75976562 3.48828125 C33.69547699 1.99760916 35.66126517 1 39 1 C39.83806616 3.93622464 40.67062444 6.87382067 41.5 9.8125 C41.73847656 10.64587891 41.97695312 11.47925781 42.22265625 12.33789062 C42.44824219 13.14033203 42.67382812 13.94277344 42.90625 14.76953125 C43.11572266 15.50792236 43.32519531 16.24631348 43.54101562 17.00708008 C44 19 44 19 44 22 C45.65 22 47.3 22 49 22 C49 23.32 49 24.64 49 26 C28.54 26 8.08 26 -13 26 C-13 24.35 -13 22.7 -13 21 C-10.69 21.33 -8.38 21.66 -6 22 C-5.5978125 20.14375 -5.5978125 20.14375 -5.1875 18.25 C-4.31204766 14.32297094 -3.3913107 10.40875364 -2.4375 6.5 C-2.18871094 5.4790625 -1.93992187 4.458125 -1.68359375 3.40625 C-1 1 -1 1 0 0 Z " fill="#3BB977" transform="translate(77,174)"/>
<path d="M0 0 C0.33 3.3 0.66 6.6 1 10 C1.75394043 9.93941406 2.50788086 9.87882813 3.28466797 9.81640625 C17.87787142 8.6612128 32.35741061 7.65136692 47 8 C44.72402354 10.49552403 42.39278822 12.06622986 39.4375 13.6875 C38.65246094 14.12449219 37.86742187 14.56148437 37.05859375 15.01171875 C35 16 35 16 33 16 C32.855625 16.78375 32.71125 17.5675 32.5625 18.375 C32 21 32 21 31 23 C27.28754093 22.42177629 24.55091692 21.39136744 21.3125 19.5 C20.54550781 19.0565625 19.77851562 18.613125 18.98828125 18.15625 C18.33214844 17.7746875 17.67601562 17.393125 17 17 C16.34 16.67 15.68 16.34 15 16 C14.65066406 17.26457031 14.30132812 18.52914062 13.94140625 19.83203125 C13.48181183 21.49219885 13.02217416 23.15235448 12.5625 24.8125 C12.33240234 25.64587891 12.10230469 26.47925781 11.86523438 27.33789062 C11.53168945 28.54155273 11.53168945 28.54155273 11.19140625 29.76953125 C10.88505249 30.87711792 10.88505249 30.87711792 10.57250977 32.00708008 C10.0907348 33.68415002 9.55178535 35.34464396 9 37 C1.25 37.125 1.25 37.125 -1 36 C-1 32.37 -1 28.74 -1 25 C-2.65 24.34 -4.3 23.68 -6 23 C-6.680625 22.443125 -7.36125 21.88625 -8.0625 21.3125 C-8.701875 20.879375 -9.34125 20.44625 -10 20 C-10.61875 20.20625 -11.2375 20.4125 -11.875 20.625 C-14 21 -14 21 -15.5859375 19.96484375 C-17.09829049 18.69034909 -18.55305253 17.34829196 -20 16 C-18.58911589 12.69346646 -16.94468631 10.8452183 -14.1875 8.5625 C-11.69078826 6.47139125 -9.52209553 4.47763931 -7.3125 2.0625 C-5 0 -5 0 0 0 Z " fill="#258E55" transform="translate(62,159)"/>
<path d="M0 0 C24.36634308 -1.76593555 24.36634308 -1.76593555 29.953125 2.203125 C35.17450033 7.79091264 36 10.07389672 36 18 C24.12 18 12.24 18 0 18 C0 12.06 0 6.12 0 0 Z " fill="#AC6F52" transform="translate(98,238)"/>
<path d="M0 0 C1.07354736 0.02094727 2.14709473 0.04189453 3.25317383 0.06347656 C4.41655273 0.07636719 5.57993164 0.08925781 6.77856445 0.10253906 C7.99350586 0.13605469 9.20844727 0.16957031 10.46020508 0.20410156 C11.68674805 0.22214844 12.91329102 0.24019531 14.17700195 0.25878906 C17.20923466 0.30598335 20.241067 0.3777272 23.27270508 0.45410156 C23.27270508 6.39410156 23.27270508 12.33410156 23.27270508 18.45410156 C11.39270508 18.45410156 -0.48729492 18.45410156 -12.72729492 18.45410156 C-12.72729492 11.45410156 -12.72729492 11.45410156 -11.30151367 9.37988281 C-10.67889648 8.8475 -10.0562793 8.31511719 -9.41479492 7.76660156 C-6.63563965 5.34042457 -6.63563965 5.34042457 -4.48706055 2.3737793 C-2.72729492 0.45410156 -2.72729492 0.45410156 0 0 Z " fill="#AC6F52" transform="translate(70.727294921875,237.5458984375)"/>
<path d="M0 0 C19.8 0 39.6 0 60 0 C60 2.97 60 5.94 60 9 C40.2 9.33 20.4 9.66 0 10 C0 6.7 0 3.4 0 0 Z " fill="#BC7757" transform="translate(65,200)"/>
<path d="M0 0 C0.33 3.3 0.66 6.6 1 10 C2.32 10 3.64 10 5 10 C4.46048934 16.68993219 3.11293829 22.63460728 1 29 C0.34 28.67 -0.32 28.34 -1 28 C-1 27.01 -1 26.02 -1 25 C-1.7425 24.731875 -2.485 24.46375 -3.25 24.1875 C-6 23 -6 23 -8.0625 21.3125 C-8.701875 20.879375 -9.34125 20.44625 -10 20 C-10.61875 20.20625 -11.2375 20.4125 -11.875 20.625 C-14 21 -14 21 -15.5859375 19.96484375 C-17.09829049 18.69034909 -18.55305253 17.34829196 -20 16 C-18.58911589 12.69346646 -16.94468631 10.8452183 -14.1875 8.5625 C-11.69078826 6.47139125 -9.52209553 4.47763931 -7.3125 2.0625 C-5 0 -5 0 0 0 Z " fill="#3DB272" transform="translate(62,159)"/>
<path d="M0 0 C4.39275568 2.6733056 7.22447332 5.12258651 10.25 9.375 C10.91515625 10.29023437 11.5803125 11.20546875 12.265625 12.1484375 C14.02804863 15.04611599 15.06087118 17.75138091 16 21 C13.22000234 18.42915577 11.13023428 15.51552512 8.9375 12.4375 C6.17456727 8.54408629 6.17456727 8.54408629 3 5 C0.48952515 4.93453102 0.48952515 4.93453102 -2 6 C-3.5578092 8.14751227 -3.5578092 8.14751227 -5 11 C-5.96053638 12.32619511 -6.9415038 13.63772495 -7.9375 14.9375 C-9.7039699 17.25951817 -11.37991007 19.56986511 -13 22 C-14.64011343 24.46017014 -16.28767571 26.90240356 -18 29.3125 C-18.474375 29.98925781 -18.94875 30.66601562 -19.4375 31.36328125 C-21.34565962 33.36207846 -22.25293954 33.77394494 -25 34 C-27.77734375 33.44140625 -27.77734375 33.44140625 -30.9375 32.5625 C-40.30559531 30.26784295 -49.8092899 29.76993159 -59 33 C-60.0209375 33.35320312 -61.041875 33.70640625 -62.09375 34.0703125 C-68.56084618 36.42872602 -74.41773193 38.9639406 -80 43 C-80.80824219 43.57105469 -81.61648437 44.14210937 -82.44921875 44.73046875 C-86.93717542 47.71966088 -86.93717542 47.71966088 -89.78125 52.07421875 C-90.03275537 54.28836424 -89.67806282 55.89047124 -89 58 C-90.65 56.35 -92.3 54.7 -94 53 C-83.50822255 39.38904547 -66.96001452 30.34441048 -50 28 C-40.41056925 27.08855478 -31.3286787 29.01114464 -22 31 C-21.47998413 30.23091309 -21.47998413 30.23091309 -20.94946289 29.44628906 C-14.18443819 19.45700147 -7.37682028 9.54983711 0 0 Z " fill="#D48B64" transform="translate(131,44)"/>
<path d="M0 0 C0.26554687 1.01320312 0.53109375 2.02640625 0.8046875 3.0703125 C1.16135689 4.42190177 1.51813343 5.77346278 1.875 7.125 C2.04902344 7.79015625 2.22304687 8.4553125 2.40234375 9.140625 C3.21464109 12.20930383 4.06613611 15.18563722 5.1328125 18.1796875 C6 21 6 21 6 26 C1.05 26.495 1.05 26.495 -4 27 C-6.57281882 19.77160428 -8.36695592 12.49347179 -10 5 C-8.71186658 4.16121545 -7.41936744 3.32913217 -6.125 2.5 C-5.40570313 2.0359375 -4.68640625 1.571875 -3.9453125 1.09375 C-2 0 -2 0 0 0 Z " fill="#AE7253" transform="translate(125,169)"/>
<path d="M0 0 C4.43090471 1.20842856 6.98112756 2.51668565 10 6 C9.18844632 8.93776444 8.37579766 11.87521836 7.5625 14.8125 C7.33240234 15.64587891 7.10230469 16.47925781 6.86523438 17.33789062 C6.64287109 18.14033203 6.42050781 18.94277344 6.19140625 19.76953125 C5.98717041 20.50792236 5.78293457 21.24631348 5.57250977 22.00708008 C5.0907348 23.68415002 4.55178535 25.34464396 4 27 C-3.75 27.125 -3.75 27.125 -6 26 C-5.31465992 20.194303 -3.96776988 14.69920838 -2.4375 9.0625 C-2.20353516 8.18787109 -1.96957031 7.31324219 -1.72851562 6.41210938 C-1.15594751 4.27374275 -0.57970405 2.13644097 0 0 Z " fill="#B17554" transform="translate(67,169)"/>
<path d="M0 0 C7.92 0 15.84 0 24 0 C24 3.3 24 6.6 24 10 C15.75 10 7.5 10 -1 10 C-0.67 6.7 -0.34 3.4 0 0 Z " fill="#D3894A" transform="translate(99,228)"/>
<path d="M0 0 C7.92 0 15.84 0 24 0 C24.33 3.3 24.66 6.6 25 10 C16.75 10 8.5 10 0 10 C0 6.7 0 3.4 0 0 Z " fill="#D3894A" transform="translate(69,228)"/>
<path d="M0 0 C-1.4501489 4.3504467 -4.78441779 5.3871357 -8.625 7.4375 C-10.03395504 8.20684654 -11.44280997 8.97637646 -12.8515625 9.74609375 C-13.54411133 10.11847168 -14.23666016 10.49084961 -14.95019531 10.87451172 C-16.94109517 11.96765707 -18.8862446 13.12057114 -20.8359375 14.28515625 C-24 16 -24 16 -27 16 C-29.1875 14.1875 -29.1875 14.1875 -31 12 C-31 11.01 -31 10.02 -31 9 C-20.40128092 1.9806118 -12.86072136 -1.49672188 0 0 Z " fill="#228E54" transform="translate(126,166)"/>
<path d="M0 0 C2.51823547 1.91385896 4.7109914 3.83553408 7 6 C8.81005237 7.62772592 10.62262614 9.25265166 12.4375 10.875 C13.95907486 12.24917938 15.48016736 13.62389399 17 15 C15.54744301 18.82946843 13.57104439 20.12050295 10 22 C6.96971928 19.02913655 3.9732507 16.0279426 1 13 C0.43539062 12.43152344 -0.12921875 11.86304688 -0.7109375 11.27734375 C-3.13720071 8.64772322 -3.97791677 7.23849893 -4.3125 3.625 C-4.209375 2.75875 -4.10625 1.8925 -4 1 C-2.1953125 0.3515625 -2.1953125 0.3515625 0 0 Z " fill="#26A461" transform="translate(138,153)"/>
<path d="M0 0 C2.17012128 0.72337376 4.32600947 1.47163348 6.47265625 2.26171875 C4.96352667 7.24184636 1.91603776 10.50431817 -1.52734375 14.26171875 C-5.43020142 12.67504297 -7.86255357 10.12821394 -10.77734375 7.13671875 C-11.669375 6.22664062 -12.56140625 5.3165625 -13.48046875 4.37890625 C-14.49367187 3.33089844 -14.49367187 3.33089844 -15.52734375 2.26171875 C-10.72863391 -2.75511426 -6.33848218 -1.85158135 0 0 Z " fill="#E2E2E1" transform="translate(154.52734375,151.73828125)"/>
<path d="M0 0 C0.99 0.33 1.98 0.66 3 1 C1.46356148 4.68069887 -0.78150945 6.98775204 -3.625 9.75 C-4.44226562 10.54921875 -5.25953125 11.3484375 -6.1015625 12.171875 C-6.72804688 12.77515625 -7.35453125 13.3784375 -8 14 C-11.39187279 12.58426179 -13.09697541 10.95769034 -15.25 8 C-15.77078125 7.29875 -16.2915625 6.5975 -16.828125 5.875 C-18 4 -18 4 -18 2 C-15.94447045 1.27168645 -13.88018467 0.56805302 -11.8125 -0.125 C-10.66394531 -0.51945313 -9.51539063 -0.91390625 -8.33203125 -1.3203125 C-4.61508467 -2.07851731 -3.29532547 -1.71880534 0 0 Z " fill="#E2E2E1" transform="translate(54,157)"/>
<path d="M0 0 C-1.49238163 9.55124246 -4.90528947 14.66363145 -12 21 C-14.31 19.35 -16.62 17.7 -19 16 C-17.58911589 12.69346646 -15.94468631 10.8452183 -13.1875 8.5625 C-10.72196811 6.49377161 -8.41799373 4.43986385 -6.25 2.0625 C-4 0 -4 0 0 0 Z " fill="#219357" transform="translate(61,159)"/>
<path d="M0 0 C2.60452271 0.14086602 5.20850197 0.28748464 7.8125 0.4375 C8.91948242 0.49647461 8.91948242 0.49647461 10.04882812 0.55664062 C13.23071342 0.74381035 15.96162378 0.98720793 19 2 C19 3.98 19 5.96 19 8 C15.17189179 9.27603607 11.76524893 8.86283987 7.8125 8.5625 C7.06291016 8.51029297 6.31332031 8.45808594 5.54101562 8.40429688 C3.69362918 8.27486216 1.84675629 8.13813482 0 8 C0 5.36 0 2.72 0 0 Z " fill="#C37E5D" transform="translate(105,120)"/>
<path d="M0 0 C2.64 0 5.28 0 8 0 C8.33 0.99 8.66 1.98 9 3 C6.49356948 7.81234659 4.13737279 10.22167865 -1 12 C-5.39249026 12.71158342 -8.71401966 12.5091005 -12.5 10.0625 C-13.325 9.381875 -14.15 8.70125 -15 8 C-15 7.67 -15 7.34 -15 7 C-10.05 6.67 -5.1 6.34 0 6 C0 4.02 0 2.04 0 0 Z " fill="#C2805F" transform="translate(103,151)"/>
<path d="M0 0 C0.33 2.31 0.66 4.62 1 7 C-1.24561282 7.86762314 -3.49526255 8.7192103 -5.75 9.5625 C-6.38421875 9.80935547 -7.0184375 10.05621094 -7.671875 10.31054688 C-11.11009179 11.58197079 -13.52168882 12.46686355 -17 11 C-17.33 9.02 -17.66 7.04 -18 5 C-15.56427941 4.16112944 -13.12666783 3.32873471 -10.6875 2.5 C-9.65206055 2.14228516 -9.65206055 2.14228516 -8.59570312 1.77734375 C-5.61068511 0.76791737 -3.17341086 0 0 0 Z " fill="#C27E5D" transform="translate(87,116)"/>
<path d="M0 0 C1.8046875 0.70703125 1.8046875 0.70703125 3.8046875 2.89453125 C4.91362041 6.01340507 5.03396922 8.42065989 4.8046875 11.70703125 C4.4746875 11.70703125 4.1446875 11.70703125 3.8046875 11.70703125 C2.8146875 8.73703125 1.8246875 5.76703125 0.8046875 2.70703125 C-0.8453125 2.70703125 -2.4953125 2.70703125 -4.1953125 2.70703125 C-5.70465467 5.72571559 -5.37041922 8.38000354 -5.1953125 11.70703125 C-3.1880217 14.71796745 -2.35647026 15.33719622 0.8046875 16.70703125 C-2.79625215 17.62820186 -4.58159021 17.99343499 -8.0078125 16.39453125 C-10.1953125 14.70703125 -10.1953125 14.70703125 -11.1953125 12.70703125 C-11.87919496 5.75422626 -11.87919496 5.75422626 -9.1953125 1.64453125 C-5.68025118 -0.62561252 -4.01090843 -0.80974944 0 0 Z " fill="#FCF6F1" transform="translate(83.1953125,129.29296875)"/>
<path d="M0 0 C0.83144531 0.00451172 1.66289063 0.00902344 2.51953125 0.01367188 C4.55471897 0.02536836 6.58986923 0.04330065 8.625 0.0625 C5.11375177 3.66873128 1.33356674 6.21790684 -3.375 8.0625 C-8.10653823 7.41307318 -11.56433572 4.87513316 -15.375 2.0625 C-15.375 1.7325 -15.375 1.4025 -15.375 1.0625 C-10.20182579 -0.00059567 -5.25130664 -0.05443938 0 0 Z " fill="#B09372" transform="translate(100.375,166.9375)"/>
<path d="M0 0 C2.5 -0.375 2.5 -0.375 5 0 C6.99825961 2.99738941 7.27550398 3.63347508 7.25 7 C7.25515625 7.680625 7.2603125 8.36125 7.265625 9.0625 C7 11 7 11 5 14 C2.625 13.6875 2.625 13.6875 0 13 C-2.45811625 9.31282562 -2.31118164 7.35654296 -2 3 C-1.34 2.01 -0.68 1.02 0 0 Z " fill="#C07B5A" transform="translate(79,131)"/>
<path d="M0 0 C4.75 0.75 4.75 0.75 7 3 C7.46376812 10.30434783 7.46376812 10.30434783 5 14 C0.25 13.25 0.25 13.25 -2 11 C-2.46376812 3.69565217 -2.46376812 3.69565217 0 0 Z " fill="#C07C5B" transform="translate(109,129)"/>
<path d="M0 0 C0 1.98 0 3.96 0 6 C-5.38490641 6.91657981 -10.54230189 7.11138159 -16 7 C-16.33 5.02 -16.66 3.04 -17 1 C-11.29014022 0.25983299 -5.75813575 -0.10469338 0 0 Z " fill="#FEFCFB" transform="translate(103,151)"/>
<path d="M0 0 C0.99 0.66 1.98 1.32 3 2 C0.69 4.64 -1.62 7.28 -4 10 C-8.53786224 7.73106888 -9.94678157 5.90133466 -13 2 C-8.35477557 -1.62908159 -5.51463179 -1.15629376 0 0 Z " fill="#F7F8F7" transform="translate(152,151)"/>
<path d="M0 0 C1.19109375 0.00773438 1.19109375 0.00773438 2.40625 0.015625 C3.2003125 0.01046875 3.994375 0.0053125 4.8125 0 C6.90625 0.265625 6.90625 0.265625 8.90625 2.265625 C8.71875 4.765625 8.71875 4.765625 7.90625 7.265625 C4.90625 9.265625 4.90625 9.265625 1.34375 8.953125 C-2.09375 8.265625 -2.09375 8.265625 -4.09375 7.265625 C-4.21875 4.890625 -4.21875 4.890625 -4.09375 2.265625 C-2.09375 0.265625 -2.09375 0.265625 0 0 Z " fill="#E7B687" transform="translate(95.09375,138.734375)"/>
<path d="M0 0 C4.40544297 -0.2986741 7.0439982 -0.44873554 11.0625 1.4375 C13.62680429 4.82899922 13.23833797 6.79581982 12.6875 10.87890625 C11.87617727 13.38202126 11.12648814 14.4552408 9 16 C6.27492202 16.39078556 3.76878044 16.13616953 1 16 C1.639375 15.71125 2.27875 15.4225 2.9375 15.125 C5.15206079 14.17176549 5.15206079 14.17176549 6 12 C6.19668734 10.08596924 6.19668734 10.08596924 6.1875 8 C6.20876953 6.948125 6.20876953 6.948125 6.23046875 5.875 C6.16512323 3.75475062 6.16512323 3.75475062 4 2 C2.68252676 1.30251417 1.35085807 0.63040043 0 0 Z " fill="#FCF8F6" transform="translate(109,128)"/>
<path d="M0 0 C0.99 0.33 1.98 0.66 3 1 C1.55746343 4.36591866 -0.33264727 6.51047079 -3 9 C-7.20626034 7.49776416 -8.73900021 4.71449966 -11 1 C-10 -1 -10 -1 -7.75 -1.75 C-4.53626675 -2.04215757 -2.88651173 -1.36729503 0 0 Z " fill="#F7F7F6" transform="translate(54,157)"/>
<path d="M0 0 C2.3125 1.5625 2.3125 1.5625 4 3 C2.54744301 6.82946843 0.57104439 8.12050295 -3 10 C-4.00894372 9.07213211 -5.00690907 8.13231567 -6 7.1875 C-6.8353125 6.40439453 -6.8353125 6.40439453 -7.6875 5.60546875 C-9 4 -9 4 -9 1 C-5.64846558 -1.11022538 -3.75933548 -1.22178403 0 0 Z " fill="#239258" transform="translate(151,165)"/>
<path d="M0 0 C-0.70228051 4.49459524 -2.00087613 8.90610041 -4 13 C-4.99 13.495 -4.99 13.495 -6 14 C-6 13.34 -6 12.68 -6 12 C-8.31 11.34 -10.62 10.68 -13 10 C-12.06409496 8.8944811 -11.12620142 7.79064547 -10.1875 6.6875 C-9.66542969 6.07261719 -9.14335938 5.45773438 -8.60546875 4.82421875 C-8.07566406 4.22222656 -7.54585937 3.62023437 -7 3 C-6.52175781 2.42894531 -6.04351562 1.85789063 -5.55078125 1.26953125 C-4 0 -4 0 0 0 Z " fill="#25A360" transform="translate(61,159)"/>
<path d="M0 0 C0.66 0.33 1.32 0.66 2 1 C2.6328125 3.28515625 2.6328125 3.28515625 3.125 6.0625 C3.29257812 6.98160156 3.46015625 7.90070313 3.6328125 8.84765625 C3.75398438 9.55792969 3.87515625 10.26820313 4 11 C5.98 11.66 7.96 12.32 10 13 C9.01 13.33 8.02 13.66 7 14 C7 14.99 7 15.98 7 17 C4.06214703 16.67357189 2.18123741 16.1175594 -0.3125 14.5 C-2.77297306 10.85485473 -2.67883158 7.28611103 -2 3 C-1.34 2.01 -0.68 1.02 0 0 Z " fill="#E5B386" transform="translate(53,135)"/>
<path d="M0 0 C5 4 5 4 5.6640625 6.18359375 C5.58831393 10.55428611 5.40933607 12.45790628 2.6875 16.0625 C0 18 0 18 -3 18 C-3 16.68 -3 15.36 -3 14 C-2.34 14 -1.68 14 -1 14 C-0.67 9.38 -0.34 4.76 0 0 Z " fill="#E6B587" transform="translate(138,129)"/>
<path d="M0 0 C1.65 0 3.3 0 5 0 C5 1.32 5 2.64 5 4 C-15.46 4 -35.92 4 -57 4 C-57 3.67 -57 3.34 -57 3 C-37.53 2.67 -18.06 2.34 2 2 C1.34 1.34 0.68 0.68 0 0 Z " fill="#5BAB70" transform="translate(121,196)"/>
<path d="M0 0 C2.0625 0.4375 2.0625 0.4375 4 1 C-1.80376964 5.23389752 -7.47477953 8.9790646 -14 12 C-14.33 10.68 -14.66 9.36 -15 8 C-14.0409375 7.6596875 -14.0409375 7.6596875 -13.0625 7.3125 C-6.05593227 4.40811434 -6.05593227 4.40811434 0 0 Z " fill="#45A670" transform="translate(142,172)"/>
<path d="M0 0 C-0.44909061 1.48199902 -0.90956564 2.96055236 -1.375 4.4375 C-1.63023437 5.26121094 -1.88546875 6.08492188 -2.1484375 6.93359375 C-3 9 -3 9 -5 10 C-5.99 9.67 -6.98 9.34 -8 9 C-8 10.65 -8 12.3 -8 14 C-8.33 14 -8.66 14 -9 14 C-9 12.02 -9 10.04 -9 8 C-8.34 8 -7.68 8 -7 8 C-6.896875 7.05125 -6.79375 6.1025 -6.6875 5.125 C-5.74681109 0.8491413 -4.33513467 0 0 0 Z " fill="#ECC19A" transform="translate(147,114)"/>
<path d="M0 0 C0.66 0.33 1.32 0.66 2 1 C0.93844996 1.9177666 -0.12429679 2.83414905 -1.1875 3.75 C-2.14076172 4.57371094 -2.14076172 4.57371094 -3.11328125 5.4140625 C-4.65368747 6.70889671 -6.25673724 7.92889274 -7.875 9.125 C-10.08350341 10.80800004 -10.08350341 10.80800004 -10.875 13 C-11.01333743 15.21339885 -10.67615589 16.89640391 -10 19 C-11.65 17.35 -13.3 15.7 -15 14 C-10.55487173 8.41509524 -5.75545909 4.20788009 0 0 Z " fill="#CD8B65" transform="translate(52,83)"/>
<path d="M0 0 C0.33 0.99 0.66 1.98 1 3 C-3.61012242 5.95047835 -6.36529617 7.5497272 -12 7 C-8.8380314 3.47318887 -4.98182478 0 0 0 Z " fill="#1F834D" transform="translate(110,168)"/>
<path d="M0 0 C5.7097955 0.41778991 8.60957142 2.57546571 13 6 C12.67 7.65 12.34 9.3 12 11 C11.34 10.67 10.68 10.34 10 10 C10 9.01 10 8.02 10 7 C9.278125 6.773125 8.55625 6.54625 7.8125 6.3125 C4.46790687 4.75168987 2.48396041 2.6968713 0 0 Z " fill="#44A870" transform="translate(51,177)"/>
<path d="M0 0 C0.66 0 1.32 0 2 0 C2.2475 0.61875 2.495 1.2375 2.75 1.875 C4.20628639 4.35068687 5.37812506 4.95125002 8 6 C6.68 6.99 5.36 7.98 4 9 C2.02 7.35 0.04 5.7 -2 4 C-1.34 2.68 -0.68 1.36 0 0 Z " fill="#3A9560" transform="translate(44,171)"/>
<path d="M0 0 C0.99 0.66 1.98 1.32 3 2 C1.54744301 5.82946843 -0.42895561 7.12050295 -4 9 C-4.33 8.34 -4.66 7.68 -5 7 C-4.34 7 -3.68 7 -3 7 C-1.79371992 4.66785852 -0.8345262 2.50357861 0 0 Z " fill="#429663" transform="translate(152,166)"/>
<path d="M0 0 C0.66 0.33 1.32 0.66 2 1 C1.814375 1.5775 1.62875 2.155 1.4375 2.75 C0.95976454 5.20692525 1.24270636 6.64397534 2 9 C0.35 7.35 -1.3 5.7 -3 4 C-2.01 2.68 -1.02 1.36 0 0 Z " fill="#C68462" transform="translate(40,93)"/>
<path d="M0 0 C0.99 0 1.98 0 3 0 C3.33 3.63 3.66 7.26 4 11 C2.16163081 7.32326162 1.06348187 3.95007553 0 0 Z " fill="#EFC49A" transform="translate(48,116)"/>
</svg>
