<?xml version="1.0" encoding="UTF-8"?>
<svg version="1.1" xmlns="http://www.w3.org/2000/svg" width="349" height="203">
<path d="M0 0 C115.17 0 230.34 0 349 0 C349 66.99 349 133.98 349 203 C233.83 203 118.66 203 0 203 C0 136.01 0 69.02 0 0 Z " fill="#DBE3ED" transform="translate(0,0)"/>
<path d="M0 0 C24.75 0 49.5 0 75 0 C75 0.99 75 1.98 75 3 C76.98 3 78.96 3 81 3 C81 3.66 81 4.32 81 5 C83.64 5 86.28 5 89 5 C89 5.99 89 6.98 89 8 C90.65 8 92.3 8 94 8 C94 8.99 94 9.98 94 11 C94.99 11 95.98 11 97 11 C97 11.99 97 12.98 97 14 C97.99 14 98.98 14 100 14 C100 14.66 100 15.32 100 16 C100.66 16 101.32 16 102 16 C102 16.99 102 17.98 102 19 C102.99 19 103.98 19 105 19 C105 19.99 105 20.98 105 22 C105.99 22 106.98 22 108 22 C108 23.65 108 25.3 108 27 C108.66 27 109.32 27 110 27 C110 28.65 110 30.3 110 32 C110.99 32 111.98 32 113 32 C113 35.63 113 39.26 113 43 C113.99 43 114.98 43 116 43 C116 50.26 116 57.52 116 65 C116.66 65 117.32 65 118 65 C118 73.91 118 82.82 118 92 C117.34 92 116.68 92 116 92 C116 100.91 116 109.82 116 119 C115.01 119 114.02 119 113 119 C113 120.65 113 122.3 113 124 C112.01 124 111.02 124 110 124 C110 126.64 110 129.28 110 132 C109.34 132 108.68 132 108 132 C108 133.98 108 135.96 108 138 C107.01 138 106.02 138 105 138 C105 138.66 105 139.32 105 140 C104.01 140 103.02 140 102 140 C102 140.99 102 141.98 102 143 C101.34 143 100.68 143 100 143 C100 143.99 100 144.98 100 146 C99.01 146 98.02 146 97 146 C97 146.66 97 147.32 97 148 C95.35 148 93.7 148 92 148 C92 148.99 92 149.98 92 151 C90.02 151 88.04 151 86 151 C86 151.99 86 152.98 86 154 C84.35 154 82.7 154 81 154 C81 154.66 81 155.32 81 156 C74.73 156 68.46 156 62 156 C62 156.99 62 157.98 62 159 C44.18 159 26.36 159 8 159 C8 158.01 8 157.02 8 156 C2.72 156 -2.56 156 -8 156 C-8 155.34 -8 154.68 -8 154 C-9.98 154 -11.96 154 -14 154 C-14 153.01 -14 152.02 -14 151 C-15.65 151 -17.3 151 -19 151 C-19 150.01 -19 149.02 -19 148 C-19.99 148 -20.98 148 -22 148 C-22 147.34 -22 146.68 -22 146 C-23.65 146 -25.3 146 -27 146 C-27 145.01 -27 144.02 -27 143 C-27.99 143 -28.98 143 -30 143 C-30 141.35 -30 139.7 -30 138 C-30.99 138 -31.98 138 -33 138 C-33 137.01 -33 136.02 -33 135 C-33.66 135 -34.32 135 -35 135 C-35 133.02 -35 131.04 -35 129 C-35.99 129 -36.98 129 -38 129 C-38 127.35 -38 125.7 -38 124 C-38.99 124 -39.98 124 -41 124 C-41 120.37 -41 116.74 -41 113 C-41.66 113 -42.32 113 -43 113 C-43 91.88 -43 70.76 -43 49 C-42.34 49 -41.68 49 -41 49 C-41 45.37 -41 41.74 -41 38 C-40.01 38 -39.02 38 -38 38 C-38 35.36 -38 32.72 -38 30 C-37.01 30 -36.02 30 -35 30 C-35 28.02 -35 26.04 -35 24 C-34.34 24 -33.68 24 -33 24 C-33 22.35 -33 20.7 -33 19 C-32.01 19 -31.02 19 -30 19 C-30 18.01 -30 17.02 -30 16 C-29.01 16 -28.02 16 -27 16 C-27 15.34 -27 14.68 -27 14 C-26.01 14 -25.02 14 -24 14 C-24 13.01 -24 12.02 -24 11 C-22.35 11 -20.7 11 -19 11 C-19 10.01 -19 9.02 -19 8 C-18.01 8 -17.02 8 -16 8 C-16 7.01 -16 6.02 -16 5 C-13.36 5 -10.72 5 -8 5 C-8 4.34 -8 3.68 -8 3 C-5.36 3 -2.72 3 0 3 C0 2.01 0 1.02 0 0 Z " fill="#FE78B2" transform="translate(132,34)"/>
<path d="M0 0 C24.75 0 49.5 0 75 0 C75 0.99 75 1.98 75 3 C76.98 3 78.96 3 81 3 C81 3.66 81 4.32 81 5 C83.64 5 86.28 5 89 5 C89 5.99 89 6.98 89 8 C90.65 8 92.3 8 94 8 C94 8.99 94 9.98 94 11 C94.99 11 95.98 11 97 11 C97 11.99 97 12.98 97 14 C97.99 14 98.98 14 100 14 C100 14.66 100 15.32 100 16 C100.66 16 101.32 16 102 16 C102 16.99 102 17.98 102 19 C102.99 19 103.98 19 105 19 C105 19.99 105 20.98 105 22 C105.99 22 106.98 22 108 22 C108 23.65 108 25.3 108 27 C108.66 27 109.32 27 110 27 C110 28.65 110 30.3 110 32 C110.99 32 111.98 32 113 32 C113 35.63 113 39.26 113 43 C113.99 43 114.98 43 116 43 C116 47.62 116 52.24 116 57 C115.01 57 114.02 57 113 57 C113 56.01 113 55.02 113 54 C112.01 54 111.02 54 110 54 C110 53.01 110 52.02 110 51 C109.34 51 108.68 51 108 51 C108 51.99 108 52.98 108 54 C107.01 54 106.02 54 105 54 C105 53.01 105 52.02 105 51 C104.01 51 103.02 51 102 51 C102 51.99 102 52.98 102 54 C101.34 54 100.68 54 100 54 C100 53.01 100 52.02 100 51 C99.01 51 98.02 51 97 51 C97 51.99 97 52.98 97 54 C96.01 54 95.02 54 94 54 C94 53.01 94 52.02 94 51 C92.35 51 90.7 51 89 51 C89 50.34 89 49.68 89 49 C86.36 49 83.72 49 81 49 C81 48.01 81 47.02 81 46 C78.36 46 75.72 46 73 46 C73 45.01 73 44.02 73 43 C69.37 43 65.74 43 62 43 C62 42.34 62 41.68 62 41 C57.38 41 52.76 41 48 41 C48 43.64 48 46.28 48 49 C47.34 49 46.68 49 46 49 C46 50.65 46 52.3 46 54 C45.01 54 44.02 54 43 54 C43 52.35 43 50.7 43 49 C42.01 49 41.02 49 40 49 C40 50.65 40 52.3 40 54 C39.34 54 38.68 54 38 54 C38 52.35 38 50.7 38 49 C37.01 49 36.02 49 35 49 C35 50.65 35 52.3 35 54 C34.01 54 33.02 54 32 54 C32 52.35 32 50.7 32 49 C31.01 49 30.02 49 29 49 C29 47.02 29 45.04 29 43 C28.34 43 27.68 43 27 43 C27 42.34 27 41.68 27 41 C22.38 41 17.76 41 13 41 C13 41.66 13 42.32 13 43 C9.7 43 6.4 43 3 43 C3 43.99 3 44.98 3 46 C-0.63 46 -4.26 46 -8 46 C-8 46.99 -8 47.98 -8 49 C-8.99 49 -9.98 49 -11 49 C-11 49.66 -11 50.32 -11 51 C-11.99 51 -12.98 51 -14 51 C-14 50.34 -14 49.68 -14 49 C-14.66 49 -15.32 49 -16 49 C-16 50.65 -16 52.3 -16 54 C-16.99 54 -17.98 54 -19 54 C-19 52.35 -19 50.7 -19 49 C-19.99 49 -20.98 49 -22 49 C-22 50.65 -22 52.3 -22 54 C-22.66 54 -23.32 54 -24 54 C-24 52.35 -24 50.7 -24 49 C-24.99 49 -25.98 49 -27 49 C-27 50.65 -27 52.3 -27 54 C-27.99 54 -28.98 54 -30 54 C-30 52.35 -30 50.7 -30 49 C-31.65 49 -33.3 49 -35 49 C-35 49.66 -35 50.32 -35 51 C-36.98 51 -38.96 51 -41 51 C-41 55.62 -41 60.24 -41 65 C-41.66 65 -42.32 65 -43 65 C-43 59.72 -43 54.44 -43 49 C-42.34 49 -41.68 49 -41 49 C-41 45.37 -41 41.74 -41 38 C-40.01 38 -39.02 38 -38 38 C-38 35.36 -38 32.72 -38 30 C-37.01 30 -36.02 30 -35 30 C-35 28.02 -35 26.04 -35 24 C-34.34 24 -33.68 24 -33 24 C-33 22.35 -33 20.7 -33 19 C-32.01 19 -31.02 19 -30 19 C-30 18.01 -30 17.02 -30 16 C-29.01 16 -28.02 16 -27 16 C-27 15.34 -27 14.68 -27 14 C-26.01 14 -25.02 14 -24 14 C-24 13.01 -24 12.02 -24 11 C-22.35 11 -20.7 11 -19 11 C-19 10.01 -19 9.02 -19 8 C-18.01 8 -17.02 8 -16 8 C-16 7.01 -16 6.02 -16 5 C-13.36 5 -10.72 5 -8 5 C-8 4.34 -8 3.68 -8 3 C-5.36 3 -2.72 3 0 3 C0 2.01 0 1.02 0 0 Z " fill="#FE93DE" transform="translate(132,34)"/>
<path d="M0 0 C4.62 0 9.24 0 14 0 C14 0.66 14 1.32 14 2 C14.66 2 15.32 2 16 2 C16 3.98 16 5.96 16 8 C16.99 8 17.98 8 19 8 C19 9.65 19 11.3 19 13 C19.99 13 20.98 13 22 13 C22 11.35 22 9.7 22 8 C22.99 8 23.98 8 25 8 C25 9.65 25 11.3 25 13 C25.66 13 26.32 13 27 13 C27 11.35 27 9.7 27 8 C27.99 8 28.98 8 30 8 C30 9.65 30 11.3 30 13 C30.99 13 31.98 13 33 13 C33 11.35 33 9.7 33 8 C33.66 8 34.32 8 35 8 C35 5.36 35 2.72 35 0 C39.62 0 44.24 0 49 0 C49 0.66 49 1.32 49 2 C52.63 2 56.26 2 60 2 C60 2.99 60 3.98 60 5 C62.64 5 65.28 5 68 5 C68 5.99 68 6.98 68 8 C70.64 8 73.28 8 76 8 C76 8.66 76 9.32 76 10 C77.65 10 79.3 10 81 10 C81 10.99 81 11.98 81 13 C81.99 13 82.98 13 84 13 C84 12.01 84 11.02 84 10 C84.99 10 85.98 10 87 10 C87 10.99 87 11.98 87 13 C87.66 13 88.32 13 89 13 C89 12.01 89 11.02 89 10 C89.99 10 90.98 10 92 10 C92 10.99 92 11.98 92 13 C92.99 13 93.98 13 95 13 C95 12.01 95 11.02 95 10 C95.66 10 96.32 10 97 10 C97 10.99 97 11.98 97 13 C97.99 13 98.98 13 100 13 C100 13.99 100 14.98 100 16 C100.99 16 101.98 16 103 16 C103 18.64 103 21.28 103 24 C103.66 24 104.32 24 105 24 C105 32.91 105 41.82 105 51 C104.34 51 103.68 51 103 51 C103 50.01 103 49.02 103 48 C102.01 48 101.02 48 100 48 C100 47.01 100 46.02 100 45 C99.01 45 98.02 45 97 45 C97 45.99 97 46.98 97 48 C96.34 48 95.68 48 95 48 C95 47.01 95 46.02 95 45 C94.01 45 93.02 45 92 45 C92 45.99 92 46.98 92 48 C91.01 48 90.02 48 89 48 C89 46.35 89 44.7 89 43 C88.34 43 87.68 43 87 43 C87 44.65 87 46.3 87 48 C86.01 48 85.02 48 84 48 C84 47.01 84 46.02 84 45 C83.01 45 82.02 45 81 45 C81 45.99 81 46.98 81 48 C80.34 48 79.68 48 79 48 C79 46.35 79 44.7 79 43 C78.01 43 77.02 43 76 43 C76 43.66 76 44.32 76 45 C74.02 45 72.04 45 70 45 C70 44.34 70 43.68 70 43 C69.34 43 68.68 43 68 43 C68 41.02 68 39.04 68 37 C67.01 37 66.02 37 65 37 C65 36.34 65 35.68 65 35 C64.01 35 63.02 35 62 35 C62 34.01 62 33.02 62 32 C56.72 32 51.44 32 46 32 C46 32.99 46 33.98 46 35 C45.01 35 44.02 35 43 35 C43 35.66 43 36.32 43 37 C42.34 37 41.68 37 41 37 C41 38.98 41 40.96 41 43 C40.01 43 39.02 43 38 43 C38 43.66 38 44.32 38 45 C31.73 45 25.46 45 19 45 C19 45.99 19 46.98 19 48 C18.01 48 17.02 48 16 48 C16 47.01 16 46.02 16 45 C13.36 45 10.72 45 8 45 C8 43.35 8 41.7 8 40 C7.34 40 6.68 40 6 40 C6 38.35 6 36.7 6 35 C4.02 35 2.04 35 0 35 C0 34.01 0 33.02 0 32 C-4.29 32 -8.58 32 -13 32 C-13 32.99 -13 33.98 -13 35 C-13.99 35 -14.98 35 -16 35 C-16 35.66 -16 36.32 -16 37 C-16.99 37 -17.98 37 -19 37 C-19 37.99 -19 38.98 -19 40 C-19.66 40 -20.32 40 -21 40 C-21 41.65 -21 43.3 -21 45 C-23.64 45 -26.28 45 -29 45 C-29 45.99 -29 46.98 -29 48 C-29.99 48 -30.98 48 -32 48 C-32 46.35 -32 44.7 -32 43 C-32.99 43 -33.98 43 -35 43 C-35 44.65 -35 46.3 -35 48 C-35.66 48 -36.32 48 -37 48 C-37 47.01 -37 46.02 -37 45 C-37.99 45 -38.98 45 -40 45 C-40 45.99 -40 46.98 -40 48 C-40.99 48 -41.98 48 -43 48 C-43 47.01 -43 46.02 -43 45 C-43.99 45 -44.98 45 -46 45 C-46 45.99 -46 46.98 -46 48 C-46.66 48 -47.32 48 -48 48 C-48 46.35 -48 44.7 -48 43 C-48.99 43 -49.98 43 -51 43 C-51 44.65 -51 46.3 -51 48 C-51.99 48 -52.98 48 -54 48 C-54 47.01 -54 46.02 -54 45 C-54.66 45 -55.32 45 -56 45 C-56 38.07 -56 31.14 -56 24 C-55.34 24 -54.68 24 -54 24 C-54 19.38 -54 14.76 -54 10 C-52.02 10 -50.04 10 -48 10 C-48 9.34 -48 8.68 -48 8 C-46.35 8 -44.7 8 -43 8 C-43 9.65 -43 11.3 -43 13 C-42.01 13 -41.02 13 -40 13 C-40 11.35 -40 9.7 -40 8 C-39.01 8 -38.02 8 -37 8 C-37 9.65 -37 11.3 -37 13 C-36.34 13 -35.68 13 -35 13 C-35 11.35 -35 9.7 -35 8 C-34.01 8 -33.02 8 -32 8 C-32 9.65 -32 11.3 -32 13 C-31.01 13 -30.02 13 -29 13 C-29 11.35 -29 9.7 -29 8 C-28.34 8 -27.68 8 -27 8 C-27 8.66 -27 9.32 -27 10 C-26.01 10 -25.02 10 -24 10 C-24 9.34 -24 8.68 -24 8 C-23.01 8 -22.02 8 -21 8 C-21 7.01 -21 6.02 -21 5 C-17.37 5 -13.74 5 -10 5 C-10 4.01 -10 3.02 -10 2 C-6.7 2 -3.4 2 0 2 C0 1.34 0 0.68 0 0 Z " fill="#FC87CB" transform="translate(145,75)"/>
<path d="M0 0 C4.29 0 8.58 0 13 0 C13 0.99 13 1.98 13 3 C14.98 3 16.96 3 19 3 C19 4.65 19 6.3 19 8 C19.66 8 20.32 8 21 8 C21 9.65 21 11.3 21 13 C23.64 13 26.28 13 29 13 C29 13.99 29 14.98 29 16 C29.99 16 30.98 16 32 16 C32 15.01 32 14.02 32 13 C38.27 13 44.54 13 51 13 C51 12.34 51 11.68 51 11 C51.99 11 52.98 11 54 11 C54 9.02 54 7.04 54 5 C54.66 5 55.32 5 56 5 C56 4.34 56 3.68 56 3 C56.99 3 57.98 3 59 3 C59 2.01 59 1.02 59 0 C64.28 0 69.56 0 75 0 C75 0.99 75 1.98 75 3 C75.99 3 76.98 3 78 3 C78 3.66 78 4.32 78 5 C78.99 5 79.98 5 81 5 C81 6.98 81 8.96 81 11 C81.66 11 82.32 11 83 11 C83 11.66 83 12.32 83 13 C84.98 13 86.96 13 89 13 C89 12.34 89 11.68 89 11 C89.99 11 90.98 11 92 11 C92 12.65 92 14.3 92 16 C92.66 16 93.32 16 94 16 C94 15.01 94 14.02 94 13 C94.99 13 95.98 13 97 13 C97 13.99 97 14.98 97 16 C97.99 16 98.98 16 100 16 C100 14.35 100 12.7 100 11 C100.66 11 101.32 11 102 11 C102 12.65 102 14.3 102 16 C102.99 16 103.98 16 105 16 C105 15.01 105 14.02 105 13 C105.99 13 106.98 13 108 13 C108 13.99 108 14.98 108 16 C108.66 16 109.32 16 110 16 C110 15.01 110 14.02 110 13 C110.99 13 111.98 13 113 13 C113 13.99 113 14.98 113 16 C113.99 16 114.98 16 116 16 C116 25.9 116 35.8 116 46 C115.01 46 114.02 46 113 46 C113 44.02 113 42.04 113 40 C112.01 40 111.02 40 110 40 C110 41.98 110 43.96 110 46 C109.34 46 108.68 46 108 46 C108 44.02 108 42.04 108 40 C107.01 40 106.02 40 105 40 C105 41.98 105 43.96 105 46 C104.01 46 103.02 46 102 46 C102 45.01 102 44.02 102 43 C101.34 43 100.68 43 100 43 C100 43.99 100 44.98 100 46 C99.01 46 98.02 46 97 46 C97 45.01 97 44.02 97 43 C96.01 43 95.02 43 94 43 C94 43.99 94 44.98 94 46 C93.34 46 92.68 46 92 46 C92 44.02 92 42.04 92 40 C91.01 40 90.02 40 89 40 C89 41.98 89 43.96 89 46 C88.01 46 87.02 46 86 46 C86 45.01 86 44.02 86 43 C84.35 43 82.7 43 81 43 C81 43.99 81 44.98 81 46 C80.01 46 79.02 46 78 46 C78 45.01 78 44.02 78 43 C76.35 43 74.7 43 73 43 C73 43.99 73 44.98 73 46 C72.01 46 71.02 46 70 46 C70 44.02 70 42.04 70 40 C69.01 40 68.02 40 67 40 C67 41.98 67 43.96 67 46 C66.34 46 65.68 46 65 46 C65 45.01 65 44.02 65 43 C64.01 43 63.02 43 62 43 C62 42.01 62 41.02 62 40 C61.01 40 60.02 40 59 40 C59 40.99 59 41.98 59 43 C58.01 43 57.02 43 56 43 C56 42.01 56 41.02 56 40 C55.34 40 54.68 40 54 40 C54 40.99 54 41.98 54 43 C53.01 43 52.02 43 51 43 C51 43.99 51 44.98 51 46 C50.01 46 49.02 46 48 46 C48 46.66 48 47.32 48 48 C47.34 48 46.68 48 46 48 C46 47.34 46 46.68 46 46 C45.01 46 44.02 46 43 46 C43 44.02 43 42.04 43 40 C43.99 40 44.98 40 46 40 C46 39.34 46 38.68 46 38 C46.66 38 47.32 38 48 38 C48 37.01 48 36.02 48 35 C49.98 35 51.96 35 54 35 C54 34.01 54 33.02 54 32 C54.66 32 55.32 32 56 32 C56 31.34 56 30.68 56 30 C56.99 30 57.98 30 59 30 C59 29.01 59 28.02 59 27 C58.01 27 57.02 27 56 27 C56 26.01 56 25.02 56 24 C54.35 24 52.7 24 51 24 C51 24.99 51 25.98 51 27 C49.35 27 47.7 27 46 27 C46 27.99 46 28.98 46 30 C40.39 30 34.78 30 29 30 C29 29.01 29 28.02 29 27 C28.34 27 27.68 27 27 27 C27 26.01 27 25.02 27 24 C24.36 24 21.72 24 19 24 C19 26.64 19 29.28 19 32 C19.66 32 20.32 32 21 32 C21 32.99 21 33.98 21 35 C22.98 35 24.96 35 27 35 C27 35.99 27 36.98 27 38 C27.66 38 28.32 38 29 38 C29 38.66 29 39.32 29 40 C32.63 40 36.26 40 40 40 C40 41.98 40 43.96 40 46 C39.34 46 38.68 46 38 46 C38 46.66 38 47.32 38 48 C37.01 48 36.02 48 35 48 C35 47.34 35 46.68 35 46 C34.01 46 33.02 46 32 46 C32 45.01 32 44.02 32 43 C30.35 43 28.7 43 27 43 C27 43.99 27 44.98 27 46 C26.01 46 25.02 46 24 46 C24 45.01 24 44.02 24 43 C23.01 43 22.02 43 21 43 C21 42.01 21 41.02 21 40 C20.34 40 19.68 40 19 40 C19 40.99 19 41.98 19 43 C18.01 43 17.02 43 16 43 C16 42.01 16 41.02 16 40 C15.01 40 14.02 40 13 40 C13 40.99 13 41.98 13 43 C12.34 43 11.68 43 11 43 C11 43.99 11 44.98 11 46 C10.01 46 9.02 46 8 46 C8 45.01 8 44.02 8 43 C7.01 43 6.02 43 5 43 C5 43.99 5 44.98 5 46 C4.34 46 3.68 46 3 46 C3 44.02 3 42.04 3 40 C2.01 40 1.02 40 0 40 C0 41.98 0 43.96 0 46 C-0.99 46 -1.98 46 -3 46 C-3 44.02 -3 42.04 -3 40 C-3.99 40 -4.98 40 -6 40 C-6 41.98 -6 43.96 -6 46 C-6.66 46 -7.32 46 -8 46 C-8 44.02 -8 42.04 -8 40 C-8.99 40 -9.98 40 -11 40 C-11 41.98 -11 43.96 -11 46 C-11.99 46 -12.98 46 -14 46 C-14 44.02 -14 42.04 -14 40 C-14.66 40 -15.32 40 -16 40 C-16 41.98 -16 43.96 -16 46 C-16.99 46 -17.98 46 -19 46 C-19 45.01 -19 44.02 -19 43 C-19.99 43 -20.98 43 -22 43 C-22 44.65 -22 46.3 -22 48 C-22.66 48 -23.32 48 -24 48 C-24 46.35 -24 44.7 -24 43 C-24.99 43 -25.98 43 -27 43 C-27 42.01 -27 41.02 -27 40 C-27.99 40 -28.98 40 -30 40 C-30 40.99 -30 41.98 -30 43 C-30.99 43 -31.98 43 -33 43 C-33 42.01 -33 41.02 -33 40 C-33.66 40 -34.32 40 -35 40 C-35 40.99 -35 41.98 -35 43 C-35.99 43 -36.98 43 -38 43 C-38 45.64 -38 48.28 -38 51 C-38.99 51 -39.98 51 -41 51 C-41 47.37 -41 43.74 -41 40 C-41.66 40 -42.32 40 -43 40 C-43 31.09 -43 22.18 -43 13 C-42.34 13 -41.68 13 -41 13 C-41 13.99 -41 14.98 -41 16 C-40.01 16 -39.02 16 -38 16 C-38 14.35 -38 12.7 -38 11 C-37.01 11 -36.02 11 -35 11 C-35 12.65 -35 14.3 -35 16 C-34.34 16 -33.68 16 -33 16 C-33 15.01 -33 14.02 -33 13 C-32.01 13 -31.02 13 -30 13 C-30 13.99 -30 14.98 -30 16 C-29.01 16 -28.02 16 -27 16 C-27 15.01 -27 14.02 -27 13 C-26.01 13 -25.02 13 -24 13 C-24 13.99 -24 14.98 -24 16 C-23.34 16 -22.68 16 -22 16 C-22 14.35 -22 12.7 -22 11 C-21.01 11 -20.02 11 -19 11 C-19 12.65 -19 14.3 -19 16 C-18.01 16 -17.02 16 -16 16 C-16 15.01 -16 14.02 -16 13 C-13.36 13 -10.72 13 -8 13 C-8 11.35 -8 9.7 -8 8 C-7.34 8 -6.68 8 -6 8 C-6 7.01 -6 6.02 -6 5 C-5.01 5 -4.02 5 -3 5 C-3 4.34 -3 3.68 -3 3 C-2.01 3 -1.02 3 0 3 C0 2.01 0 1.02 0 0 Z " fill="#FD80BF" transform="translate(132,107)"/>
<path d="M0 0 C3.3 0 6.6 0 10 0 C10 0.66 10 1.32 10 2 C10.99 2 11.98 2 13 2 C13 3.98 13 5.96 13 8 C13.99 8 14.98 8 16 8 C16 9.65 16 11.3 16 13 C16.66 13 17.32 13 18 13 C18 15.64 18 18.28 18 21 C24.27 21 30.54 21 37 21 C37 21.99 37 22.98 37 24 C37.99 24 38.98 24 40 24 C40 24.99 40 25.98 40 27 C40.99 27 41.98 27 43 27 C43 28.65 43 30.3 43 32 C43.66 32 44.32 32 45 32 C45 33.65 45 35.3 45 37 C45.99 37 46.98 37 48 37 C48 44.26 48 51.52 48 59 C47.01 59 46.02 59 45 59 C45 60.65 45 62.3 45 64 C44.34 64 43.68 64 43 64 C43 64.99 43 65.98 43 67 C42.01 67 41.02 67 40 67 C40 67.99 40 68.98 40 70 C39.01 70 38.02 70 37 70 C37 70.66 37 71.32 37 72 C36.34 72 35.68 72 35 72 C35 72.99 35 73.98 35 75 C26.75 75 18.5 75 10 75 C10 74.01 10 73.02 10 72 C8.35 72 6.7 72 5 72 C5 71.34 5 70.68 5 70 C4.01 70 3.02 70 2 70 C2 69.01 2 68.02 2 67 C1.34 67 0.68 67 0 67 C0 66.01 0 65.02 0 64 C-0.99 64 -1.98 64 -3 64 C-3 61.36 -3 58.72 -3 56 C-3.99 56 -4.98 56 -6 56 C-6 53.36 -6 50.72 -6 48 C-5.01 48 -4.02 48 -3 48 C-3 46.35 -3 44.7 -3 43 C-3.99 43 -4.98 43 -6 43 C-6 42.01 -6 41.02 -6 40 C-6.99 40 -7.98 40 -9 40 C-9 39.01 -9 38.02 -9 37 C-9.66 37 -10.32 37 -11 37 C-11 35.35 -11 33.7 -11 32 C-11.99 32 -12.98 32 -14 32 C-14 31.01 -14 30.02 -14 29 C-14.99 29 -15.98 29 -17 29 C-17 28.34 -17 27.68 -17 27 C-17.66 27 -18.32 27 -19 27 C-19 26.01 -19 25.02 -19 24 C-19.99 24 -20.98 24 -22 24 C-22 20.37 -22 16.74 -22 13 C-21.01 13 -20.02 13 -19 13 C-19 12.01 -19 11.02 -19 10 C-15.7 10 -12.4 10 -9 10 C-9 10.99 -9 11.98 -9 13 C-8.01 13 -7.02 13 -6 13 C-6 13.99 -6 14.98 -6 16 C-5.01 16 -4.02 16 -3 16 C-3 11.38 -3 6.76 -3 2 C-2.01 2 -1.02 2 0 2 C0 1.34 0 0.68 0 0 Z " fill="#FE87CB" transform="translate(286,91)"/>
<path d="M0 0 C3.63 0 7.26 0 11 0 C11 0.99 11 1.98 11 3 C11.99 3 12.98 3 14 3 C14 5.64 14 8.28 14 11 C13.01 11 12.02 11 11 11 C11 12.65 11 14.3 11 16 C11.99 16 12.98 16 14 16 C14 15.01 14 14.02 14 13 C17.63 13 21.26 13 25 13 C25 13.99 25 14.98 25 16 C25.66 16 26.32 16 27 16 C27 19.63 27 23.26 27 27 C26.34 27 25.68 27 25 27 C25 27.99 25 28.98 25 30 C24.01 30 23.02 30 22 30 C22 30.66 22 31.32 22 32 C21.01 32 20.02 32 19 32 C19 32.99 19 33.98 19 35 C17.35 35 15.7 35 14 35 C14 35.99 14 36.98 14 38 C13.01 38 12.02 38 11 38 C11 38.66 11 39.32 11 40 C9.35 40 7.7 40 6 40 C6 40.99 6 41.98 6 43 C5.01 43 4.02 43 3 43 C3 43.99 3 44.98 3 46 C2.01 46 1.02 46 0 46 C0 46.66 0 47.32 0 48 C0.99 48 1.98 48 3 48 C3 49.98 3 51.96 3 54 C2.01 54 1.02 54 0 54 C0 55.65 0 57.3 0 59 C-0.66 59 -1.32 59 -2 59 C-2 59.99 -2 60.98 -2 62 C-2.99 62 -3.98 62 -5 62 C-5 62.99 -5 63.98 -5 65 C-5.99 65 -6.98 65 -8 65 C-8 65.66 -8 66.32 -8 67 C-9.65 67 -11.3 67 -13 67 C-13 67.99 -13 68.98 -13 70 C-19.27 70 -25.54 70 -32 70 C-32 69.01 -32 68.02 -32 67 C-33.98 67 -35.96 67 -38 67 C-38 66.34 -38 65.68 -38 65 C-38.66 65 -39.32 65 -40 65 C-40 64.01 -40 63.02 -40 62 C-40.99 62 -41.98 62 -43 62 C-43 61.01 -43 60.02 -43 59 C-43.99 59 -44.98 59 -46 59 C-46 57.35 -46 55.7 -46 54 C-46.66 54 -47.32 54 -48 54 C-48 46.08 -48 38.16 -48 30 C-47.34 30 -46.68 30 -46 30 C-46 29.01 -46 28.02 -46 27 C-45.01 27 -44.02 27 -43 27 C-43 25.02 -43 23.04 -43 21 C-42.01 21 -41.02 21 -40 21 C-40 20.34 -40 19.68 -40 19 C-39.34 19 -38.68 19 -38 19 C-38 18.01 -38 17.02 -38 16 C-37.01 16 -36.02 16 -35 16 C-35 15.01 -35 14.02 -35 13 C-31.37 13 -27.74 13 -24 13 C-24 13.99 -24 14.98 -24 16 C-20.37 16 -16.74 16 -13 16 C-13 15.01 -13 14.02 -13 13 C-12.34 13 -11.68 13 -11 13 C-11 12.34 -11 11.68 -11 11 C-10.01 11 -9.02 11 -8 11 C-8 10.01 -8 9.02 -8 8 C-7.01 8 -6.02 8 -5 8 C-5 7.01 -5 6.02 -5 5 C-4.01 5 -3.02 5 -2 5 C-2 4.34 -2 3.68 -2 3 C-1.34 3 -0.68 3 0 3 C0 2.01 0 1.02 0 0 Z " fill="#FE87CB" transform="translate(48,80)"/>
<path d="M0 0 C15.18 0 30.36 0 46 0 C46 4.62 46 9.24 46 14 C46.66 14 47.32 14 48 14 C48 17.63 48 21.26 48 25 C48.99 25 49.98 25 51 25 C51 28.3 51 31.6 51 35 C51.99 35 52.98 35 54 35 C54 37.97 54 40.94 54 44 C65.55 44 77.1 44 89 44 C89 44.66 89 45.32 89 46 C112.76 46 136.52 46 161 46 C161 46.66 161 47.32 161 48 C98.96 48 36.92 48 -27 48 C-27 45.69 -27 43.38 -27 41 C-19.08 41 -11.16 41 -3 41 C-3 32.42 -3 23.84 -3 15 C-2.01 14.67 -1.02 14.34 0 14 C0 9.38 0 4.76 0 0 Z " fill="#C9D6E5" transform="translate(27,155)"/>
<path d="M0 0 C0.99 0 1.98 0 3 0 C3 1.65 3 3.3 3 5 C3.66 5 4.32 5 5 5 C5 3.35 5 1.7 5 0 C5.99 0 6.98 0 8 0 C8 1.65 8 3.3 8 5 C8.99 5 9.98 5 11 5 C11 3.35 11 1.7 11 0 C11.66 0 12.32 0 13 0 C13 1.65 13 3.3 13 5 C13.99 5 14.98 5 16 5 C16 3.35 16 1.7 16 0 C16.99 0 17.98 0 19 0 C19 1.65 19 3.3 19 5 C19.66 5 20.32 5 21 5 C21 3.35 21 1.7 21 0 C21.99 0 22.98 0 24 0 C24 1.65 24 3.3 24 5 C24.99 5 25.98 5 27 5 C27 3.35 27 1.7 27 0 C27.99 0 28.98 0 30 0 C30 1.65 30 3.3 30 5 C30.66 5 31.32 5 32 5 C32 3.35 32 1.7 32 0 C32.99 0 33.98 0 35 0 C35 1.65 35 3.3 35 5 C35.99 5 36.98 5 38 5 C38 3.35 38 1.7 38 0 C38.66 0 39.32 0 40 0 C40 1.65 40 3.3 40 5 C40.99 5 41.98 5 43 5 C43 3.35 43 1.7 43 0 C43.99 0 44.98 0 46 0 C46 1.65 46 3.3 46 5 C46.66 5 47.32 5 48 5 C48 3.35 48 1.7 48 0 C48.99 0 49.98 0 51 0 C51 1.65 51 3.3 51 5 C51.99 5 52.98 5 54 5 C54 3.35 54 1.7 54 0 C54.66 0 55.32 0 56 0 C56 1.65 56 3.3 56 5 C56.99 5 57.98 5 59 5 C59 3.35 59 1.7 59 0 C59.99 0 60.98 0 62 0 C62 1.65 62 3.3 62 5 C62.99 5 63.98 5 65 5 C65 3.35 65 1.7 65 0 C65.66 0 66.32 0 67 0 C67 1.65 67 3.3 67 5 C67.99 5 68.98 5 70 5 C70 3.35 70 1.7 70 0 C70.99 0 71.98 0 73 0 C73 1.65 73 3.3 73 5 C73.66 5 74.32 5 75 5 C75 3.35 75 1.7 75 0 C75.99 0 76.98 0 78 0 C78 1.65 78 3.3 78 5 C78.99 5 79.98 5 81 5 C81 3.35 81 1.7 81 0 C81.66 0 82.32 0 83 0 C83 1.65 83 3.3 83 5 C83.99 5 84.98 5 86 5 C86 3.35 86 1.7 86 0 C86.99 0 87.98 0 89 0 C89 1.65 89 3.3 89 5 C89.99 5 90.98 5 92 5 C92 3.35 92 1.7 92 0 C92.66 0 93.32 0 94 0 C94 1.65 94 3.3 94 5 C94.99 5 95.98 5 97 5 C97 3.35 97 1.7 97 0 C97.99 0 98.98 0 100 0 C100 1.65 100 3.3 100 5 C100.66 5 101.32 5 102 5 C102 3.35 102 1.7 102 0 C102.99 0 103.98 0 105 0 C105 1.65 105 3.3 105 5 C105.99 5 106.98 5 108 5 C108 3.35 108 1.7 108 0 C108.66 0 109.32 0 110 0 C110 1.65 110 3.3 110 5 C110.99 5 111.98 5 113 5 C113 3.35 113 1.7 113 0 C113.99 0 114.98 0 116 0 C116 1.65 116 3.3 116 5 C116.99 5 117.98 5 119 5 C119 3.35 119 1.7 119 0 C119.66 0 120.32 0 121 0 C121 1.65 121 3.3 121 5 C121.99 5 122.98 5 124 5 C124 3.35 124 1.7 124 0 C124.99 0 125.98 0 127 0 C127 1.65 127 3.3 127 5 C127.66 5 128.32 5 129 5 C129 3.35 129 1.7 129 0 C130.98 0 132.96 0 135 0 C135 0.66 135 1.32 135 2 C136.65 2 138.3 2 140 2 C140 5.63 140 9.26 140 13 C140.99 13 141.98 13 143 13 C143 17.62 143 22.24 143 27 C142.01 27 141.02 27 140 27 C140 26.01 140 25.02 140 24 C139.01 24 138.02 24 137 24 C137 23.01 137 22.02 137 21 C136.34 21 135.68 21 135 21 C135 21.99 135 22.98 135 24 C134.01 24 133.02 24 132 24 C132 23.01 132 22.02 132 21 C131.01 21 130.02 21 129 21 C129 21.99 129 22.98 129 24 C128.34 24 127.68 24 127 24 C127 23.01 127 22.02 127 21 C126.01 21 125.02 21 124 21 C124 21.99 124 22.98 124 24 C123.01 24 122.02 24 121 24 C121 23.01 121 22.02 121 21 C119.35 21 117.7 21 116 21 C116 20.34 116 19.68 116 19 C113.36 19 110.72 19 108 19 C108 18.01 108 17.02 108 16 C105.36 16 102.72 16 100 16 C100 15.01 100 14.02 100 13 C96.37 13 92.74 13 89 13 C89 12.34 89 11.68 89 11 C84.38 11 79.76 11 75 11 C75 13.64 75 16.28 75 19 C74.34 19 73.68 19 73 19 C73 20.65 73 22.3 73 24 C72.01 24 71.02 24 70 24 C70 22.35 70 20.7 70 19 C69.01 19 68.02 19 67 19 C67 20.65 67 22.3 67 24 C66.34 24 65.68 24 65 24 C65 22.35 65 20.7 65 19 C64.01 19 63.02 19 62 19 C62 20.65 62 22.3 62 24 C61.01 24 60.02 24 59 24 C59 22.35 59 20.7 59 19 C58.01 19 57.02 19 56 19 C56 17.02 56 15.04 56 13 C55.34 13 54.68 13 54 13 C54 12.34 54 11.68 54 11 C49.38 11 44.76 11 40 11 C40 11.66 40 12.32 40 13 C36.7 13 33.4 13 30 13 C30 13.99 30 14.98 30 16 C26.37 16 22.74 16 19 16 C19 16.99 19 17.98 19 19 C18.01 19 17.02 19 16 19 C16 19.66 16 20.32 16 21 C15.01 21 14.02 21 13 21 C13 20.34 13 19.68 13 19 C12.34 19 11.68 19 11 19 C11 20.65 11 22.3 11 24 C10.01 24 9.02 24 8 24 C8 22.35 8 20.7 8 19 C7.01 19 6.02 19 5 19 C5 20.65 5 22.3 5 24 C4.34 24 3.68 24 3 24 C3 22.35 3 20.7 3 19 C2.01 19 1.02 19 0 19 C0 20.65 0 22.3 0 24 C-0.99 24 -1.98 24 -3 24 C-3 22.35 -3 20.7 -3 19 C-4.65 19 -6.3 19 -8 19 C-8 19.66 -8 20.32 -8 21 C-9.98 21 -11.96 21 -14 21 C-14 25.62 -14 30.24 -14 35 C-14.66 35 -15.32 35 -16 35 C-16 29.72 -16 24.44 -16 19 C-15.34 19 -14.68 19 -14 19 C-14 18.01 -14 17.02 -14 16 C-13.01 16 -12.02 16 -11 16 C-11 14.35 -11 12.7 -11 11 C-10.01 11 -9.02 11 -8 11 C-8 9.02 -8 7.04 -8 5 C-7.34 5 -6.68 5 -6 5 C-6 4.01 -6 3.02 -6 2 C-5.01 2 -4.02 2 -3 2 C-3 2.99 -3 3.98 -3 5 C-2.01 5 -1.02 5 0 5 C0 3.35 0 1.7 0 0 Z " fill="#FC8DD4" transform="translate(105,64)"/>
<path d="M0 0 C1.65 0 3.3 0 5 0 C5 0.66 5 1.32 5 2 C5.99 2 6.98 2 8 2 C8 2.99 8 3.98 8 5 C9.65 5 11.3 5 13 5 C13 5.99 13 6.98 13 8 C12.34 8 11.68 8 11 8 C11 8.99 11 9.98 11 11 C11.66 11 12.32 11 13 11 C13 11.66 13 12.32 13 13 C13.99 13 14.98 13 16 13 C16 12.34 16 11.68 16 11 C16.99 11 17.98 11 19 11 C19 12.65 19 14.3 19 16 C20.65 16 22.3 16 24 16 C24 16.99 24 17.98 24 19 C24.99 19 25.98 19 27 19 C27 19.66 27 20.32 27 21 C27.66 21 28.32 21 29 21 C29 21.99 29 22.98 29 24 C28.34 24 27.68 24 27 24 C27 24.99 27 25.98 27 27 C27.66 27 28.32 27 29 27 C29 27.66 29 28.32 29 29 C29.99 29 30.98 29 32 29 C32 28.34 32 27.68 32 27 C32.99 27 33.98 27 35 27 C35 27.66 35 28.32 35 29 C37.64 29 40.28 29 43 29 C43 30.98 43 32.96 43 35 C42.01 35 41.02 35 40 35 C40 36.65 40 38.3 40 40 C39.34 40 38.68 40 38 40 C38 40.99 38 41.98 38 43 C37.01 43 36.02 43 35 43 C35 43.99 35 44.98 35 46 C34.01 46 33.02 46 32 46 C32 46.66 32 47.32 32 48 C30.35 48 28.7 48 27 48 C27 48.99 27 49.98 27 51 C20.73 51 14.46 51 8 51 C8 50.01 8 49.02 8 48 C6.02 48 4.04 48 2 48 C2 47.34 2 46.68 2 46 C1.34 46 0.68 46 0 46 C0 45.01 0 44.02 0 43 C-0.99 43 -1.98 43 -3 43 C-3 42.01 -3 41.02 -3 40 C-3.99 40 -4.98 40 -6 40 C-6 38.35 -6 36.7 -6 35 C-6.66 35 -7.32 35 -8 35 C-8 27.08 -8 19.16 -8 11 C-7.34 11 -6.68 11 -6 11 C-6 10.01 -6 9.02 -6 8 C-5.01 8 -4.02 8 -3 8 C-3 6.02 -3 4.04 -3 2 C-2.01 2 -1.02 2 0 2 C0 1.34 0 0.68 0 0 Z " fill="#FE7FBF" transform="translate(8,99)"/>
<path d="M0 0 C0.99 0 1.98 0 3 0 C3 0.99 3 1.98 3 3 C3.66 3 4.32 3 5 3 C5 4.65 5 6.3 5 8 C5.99 8 6.98 8 8 8 C8 15.26 8 22.52 8 30 C7.01 30 6.02 30 5 30 C5 31.65 5 33.3 5 35 C4.34 35 3.68 35 3 35 C3 35.99 3 36.98 3 38 C2.01 38 1.02 38 0 38 C0 38.99 0 39.98 0 41 C-0.99 41 -1.98 41 -3 41 C-3 41.66 -3 42.32 -3 43 C-3.66 43 -4.32 43 -5 43 C-5 43.99 -5 44.98 -5 46 C-13.25 46 -21.5 46 -30 46 C-30 45.01 -30 44.02 -30 43 C-31.65 43 -33.3 43 -35 43 C-35 42.34 -35 41.68 -35 41 C-35.99 41 -36.98 41 -38 41 C-38 40.01 -38 39.02 -38 38 C-38.66 38 -39.32 38 -40 38 C-40 37.01 -40 36.02 -40 35 C-40.99 35 -41.98 35 -43 35 C-43 32.36 -43 29.72 -43 27 C-43.99 27 -44.98 27 -46 27 C-46 24.36 -46 21.72 -46 19 C-45.01 19 -44.02 19 -43 19 C-43 18.34 -43 17.68 -43 17 C-42.01 17 -41.02 17 -40 17 C-40 17.66 -40 18.32 -40 19 C-39.34 19 -38.68 19 -38 19 C-38 19.99 -38 20.98 -38 22 C-36.02 22 -34.04 22 -32 22 C-32 21.01 -32 20.02 -32 19 C-30.35 19 -28.7 19 -27 19 C-27 18.34 -27 17.68 -27 17 C-26.01 17 -25.02 17 -24 17 C-24 16.01 -24 15.02 -24 14 C-22.35 14 -20.7 14 -19 14 C-19 13.01 -19 12.02 -19 11 C-18.01 11 -17.02 11 -16 11 C-16 10.01 -16 9.02 -16 8 C-14.35 8 -12.7 8 -11 8 C-11 7.34 -11 6.68 -11 6 C-9.02 6 -7.04 6 -5 6 C-5 5.01 -5 4.02 -5 3 C-3.35 3 -1.7 3 0 3 C0 2.01 0 1.02 0 0 Z " fill="#FE80BF" transform="translate(326,120)"/>
<path d="M0 0 C24.75 0 49.5 0 75 0 C75 0.99 75 1.98 75 3 C76.98 3 78.96 3 81 3 C81 3.66 81 4.32 81 5 C83.64 5 86.28 5 89 5 C89 5.99 89 6.98 89 8 C90.65 8 92.3 8 94 8 C94 8.99 94 9.98 94 11 C94.99 11 95.98 11 97 11 C97 11.99 97 12.98 97 14 C97.99 14 98.98 14 100 14 C100 14.66 100 15.32 100 16 C100.66 16 101.32 16 102 16 C102 16.99 102 17.98 102 19 C102.99 19 103.98 19 105 19 C105 19.99 105 20.98 105 22 C105.99 22 106.98 22 108 22 C108 23.65 108 25.3 108 27 C108.66 27 109.32 27 110 27 C110 28.65 110 30.3 110 32 C109.34 32 108.68 32 108 32 C108 31.34 108 30.68 108 30 C107.01 30 106.02 30 105 30 C105 28.02 105 26.04 105 24 C104.01 24 103.02 24 102 24 C102 23.34 102 22.68 102 22 C101.34 22 100.68 22 100 22 C100 21.01 100 20.02 100 19 C98.02 19 96.04 19 94 19 C94 18.01 94 17.02 94 16 C92.35 16 90.7 16 89 16 C89 15.34 89 14.68 89 14 C87.02 14 85.04 14 83 14 C83 13.01 83 12.02 83 11 C80.36 11 77.72 11 75 11 C75 10.01 75 9.02 75 8 C49.26 8 23.52 8 -3 8 C-3 8.99 -3 9.98 -3 11 C-4.65 11 -6.3 11 -8 11 C-8 11.99 -8 12.98 -8 14 C-10.64 14 -13.28 14 -16 14 C-16 14.66 -16 15.32 -16 16 C-17.98 16 -19.96 16 -22 16 C-22 16.99 -22 17.98 -22 19 C-22.66 19 -23.32 19 -24 19 C-24 19.99 -24 20.98 -24 22 C-24.99 22 -25.98 22 -27 22 C-27 22.66 -27 23.32 -27 24 C-27.99 24 -28.98 24 -30 24 C-30 24.99 -30 25.98 -30 27 C-30.99 27 -31.98 27 -33 27 C-33 27.99 -33 28.98 -33 30 C-33.66 30 -34.32 30 -35 30 C-35 28.02 -35 26.04 -35 24 C-34.34 24 -33.68 24 -33 24 C-33 22.35 -33 20.7 -33 19 C-32.01 19 -31.02 19 -30 19 C-30 18.01 -30 17.02 -30 16 C-29.01 16 -28.02 16 -27 16 C-27 15.34 -27 14.68 -27 14 C-26.01 14 -25.02 14 -24 14 C-24 13.01 -24 12.02 -24 11 C-22.35 11 -20.7 11 -19 11 C-19 10.01 -19 9.02 -19 8 C-18.01 8 -17.02 8 -16 8 C-16 7.01 -16 6.02 -16 5 C-13.36 5 -10.72 5 -8 5 C-8 4.34 -8 3.68 -8 3 C-5.36 3 -2.72 3 0 3 C0 2.01 0 1.02 0 0 Z " fill="#FDB2E8" transform="translate(132,34)"/>
<path d="M0 0 C0.66 0 1.32 0 2 0 C2 0.99 2 1.98 2 3 C2.99 3 3.98 3 5 3 C5 3.66 5 4.32 5 5 C5.99 5 6.98 5 8 5 C8 6.98 8 8.96 8 11 C9.65 11 11.3 11 13 11 C13 12.65 13 14.3 13 16 C13.99 16 14.98 16 16 16 C16 15.01 16 14.02 16 13 C16.99 13 17.98 13 19 13 C19 14.98 19 16.96 19 19 C19.66 19 20.32 19 21 19 C21 19.99 21 20.98 21 22 C21.99 22 22.98 22 24 22 C24 22.66 24 23.32 24 24 C26.64 24 29.28 24 32 24 C32 23.34 32 22.68 32 22 C32.99 22 33.98 22 35 22 C35 21.01 35 20.02 35 19 C36.65 19 38.3 19 40 19 C40 18.01 40 17.02 40 16 C40.99 16 41.98 16 43 16 C43 15.01 43 14.02 43 13 C45.64 13 48.28 13 51 13 C51 14.98 51 16.96 51 19 C50.01 19 49.02 19 48 19 C48 20.65 48 22.3 48 24 C47.34 24 46.68 24 46 24 C46 24.99 46 25.98 46 27 C45.01 27 44.02 27 43 27 C43 27.99 43 28.98 43 30 C42.01 30 41.02 30 40 30 C40 30.66 40 31.32 40 32 C38.35 32 36.7 32 35 32 C35 32.99 35 33.98 35 35 C28.73 35 22.46 35 16 35 C16 34.01 16 33.02 16 32 C14.02 32 12.04 32 10 32 C10 31.34 10 30.68 10 30 C9.34 30 8.68 30 8 30 C8 29.01 8 28.02 8 27 C7.01 27 6.02 27 5 27 C5 26.01 5 25.02 5 24 C4.01 24 3.02 24 2 24 C2 22.35 2 20.7 2 19 C1.34 19 0.68 19 0 19 C0 12.73 0 6.46 0 0 Z " fill="#FE7AB6" transform="translate(0,115)"/>
<path d="M0 0 C0.99 0 1.98 0 3 0 C3 0.66 3 1.32 3 2 C3.66 2 4.32 2 5 2 C5 2.99 5 3.98 5 5 C5.99 5 6.98 5 8 5 C8 5.99 8 6.98 8 8 C8.99 8 9.98 8 11 8 C11 9.65 11 11.3 11 13 C11.66 13 12.32 13 13 13 C13 13.99 13 14.98 13 16 C13.99 16 14.98 16 16 16 C16 16.66 16 17.32 16 18 C16.99 18 17.98 18 19 18 C19 18.99 19 19.98 19 21 C20.65 21 22.3 21 24 21 C24 20.01 24 19.02 24 18 C24.99 18 25.98 18 27 18 C27 17.34 27 16.68 27 16 C27.99 16 28.98 16 30 16 C30 16.66 30 17.32 30 18 C30.66 18 31.32 18 32 18 C32 16.35 32 14.7 32 13 C32.99 13 33.98 13 35 13 C35 13.99 35 14.98 35 16 C35.99 16 36.98 16 38 16 C38 14.02 38 12.04 38 10 C38.66 10 39.32 10 40 10 C40 9.34 40 8.68 40 8 C40.99 8 41.98 8 43 8 C43 8.66 43 9.32 43 10 C43.99 10 44.98 10 46 10 C46 9.34 46 8.68 46 8 C46.66 8 47.32 8 48 8 C48 7.01 48 6.02 48 5 C48.99 5 49.98 5 51 5 C51 7.64 51 10.28 51 13 C50.01 13 49.02 13 48 13 C48 14.65 48 16.3 48 18 C47.34 18 46.68 18 46 18 C46 18.99 46 19.98 46 21 C45.01 21 44.02 21 43 21 C43 21.99 43 22.98 43 24 C42.01 24 41.02 24 40 24 C40 24.66 40 25.32 40 26 C39.34 26 38.68 26 38 26 C38 26.99 38 27.98 38 29 C29.75 29 21.5 29 13 29 C13 28.01 13 27.02 13 26 C11.35 26 9.7 26 8 26 C8 25.34 8 24.68 8 24 C7.01 24 6.02 24 5 24 C5 23.01 5 22.02 5 21 C4.34 21 3.68 21 3 21 C3 20.01 3 19.02 3 18 C2.01 18 1.02 18 0 18 C0 15.36 0 12.72 0 10 C-0.99 10 -1.98 10 -3 10 C-3 7.36 -3 4.72 -3 2 C-2.01 2 -1.02 2 0 2 C0 1.34 0 0.68 0 0 Z " fill="#FF79B5" transform="translate(283,137)"/>
<path d="M0 0 C3.3 0 6.6 0 10 0 C10 0.66 10 1.32 10 2 C10.99 2 11.98 2 13 2 C13 3.98 13 5.96 13 8 C13.99 8 14.98 8 16 8 C16 9.65 16 11.3 16 13 C16.66 13 17.32 13 18 13 C18 13.99 18 14.98 18 16 C17.34 16 16.68 16 16 16 C16 16.99 16 17.98 16 19 C15.01 19 14.02 19 13 19 C13 18.01 13 17.02 13 16 C12.01 16 11.02 16 10 16 C10 16.99 10 17.98 10 19 C9.34 19 8.68 19 8 19 C8 19.66 8 20.32 8 21 C7.01 21 6.02 21 5 21 C5 21.99 5 22.98 5 24 C2.36 24 -0.28 24 -3 24 C-3 25.65 -3 27.3 -3 29 C-3.99 29 -4.98 29 -6 29 C-6 29.99 -6 30.98 -6 32 C-8.64 32 -11.28 32 -14 32 C-14 31.01 -14 30.02 -14 29 C-14.99 29 -15.98 29 -17 29 C-17 28.34 -17 27.68 -17 27 C-17.66 27 -18.32 27 -19 27 C-19 26.01 -19 25.02 -19 24 C-19.99 24 -20.98 24 -22 24 C-22 20.37 -22 16.74 -22 13 C-21.01 13 -20.02 13 -19 13 C-19 12.01 -19 11.02 -19 10 C-15.7 10 -12.4 10 -9 10 C-9 10.99 -9 11.98 -9 13 C-8.01 13 -7.02 13 -6 13 C-6 13.99 -6 14.98 -6 16 C-5.01 16 -4.02 16 -3 16 C-3 11.38 -3 6.76 -3 2 C-2.01 2 -1.02 2 0 2 C0 1.34 0 0.68 0 0 Z " fill="#FD92D7" transform="translate(286,91)"/>
<path d="M0 0 C9.57 0 19.14 0 29 0 C29 0.99 29 1.98 29 3 C57.71 3 86.42 3 116 3 C116 3.66 116 4.32 116 5 C139.76 5 163.52 5 188 5 C188 5.66 188 6.32 188 7 C125.96 7 63.92 7 0 7 C0 4.69 0 2.38 0 0 Z " fill="#C393EE" transform="translate(0,196)"/>
<path d="M0 0 C2.64 0 5.28 0 8 0 C8 0.99 8 1.98 8 3 C8.99 3 9.98 3 11 3 C11 3.99 11 4.98 11 6 C12.65 6 14.3 6 16 6 C16 6.66 16 7.32 16 8 C17.98 8 19.96 8 22 8 C22 8.99 22 9.98 22 11 C22.66 11 23.32 11 24 11 C24 12.98 24 14.96 24 17 C23.34 17 22.68 17 22 17 C22 17.66 22 18.32 22 19 C21.01 19 20.02 19 19 19 C19 19.99 19 20.98 19 22 C18.01 22 17.02 22 16 22 C16 25.63 16 29.26 16 33 C13.36 33 10.72 33 8 33 C8 32.01 8 31.02 8 30 C6.35 30 4.7 30 3 30 C3 29.01 3 28.02 3 27 C0.36 27 -2.28 27 -5 27 C-5 26.34 -5 25.68 -5 25 C-5.99 25 -6.98 25 -8 25 C-8 22.36 -8 19.72 -8 17 C-7.01 17 -6.02 17 -5 17 C-5 16.01 -5 15.02 -5 14 C-4.34 14 -3.68 14 -3 14 C-3 10.37 -3 6.74 -3 3 C-2.01 3 -1.02 3 0 3 C0 2.01 0 1.02 0 0 Z " fill="#FDFDFD" transform="translate(253,4)"/>
<path d="M0 0 C3.63 0 7.26 0 11 0 C11 0.99 11 1.98 11 3 C11.99 3 12.98 3 14 3 C14 5.64 14 8.28 14 11 C13.01 11 12.02 11 11 11 C11 12.65 11 14.3 11 16 C11.99 16 12.98 16 14 16 C14 15.01 14 14.02 14 13 C17.63 13 21.26 13 25 13 C25 13.99 25 14.98 25 16 C25.66 16 26.32 16 27 16 C27 19.63 27 23.26 27 27 C26.34 27 25.68 27 25 27 C25 27.99 25 28.98 25 30 C24.01 30 23.02 30 22 30 C22 30.66 22 31.32 22 32 C21.01 32 20.02 32 19 32 C19 32.99 19 33.98 19 35 C17.35 35 15.7 35 14 35 C14 33.35 14 31.7 14 30 C13.01 30 12.02 30 11 30 C11 29.01 11 28.02 11 27 C10.01 27 9.02 27 8 27 C8 27.99 8 28.98 8 30 C7.34 30 6.68 30 6 30 C6 29.01 6 28.02 6 27 C5.01 27 4.02 27 3 27 C3 24.36 3 21.72 3 19 C1.35 19 -0.3 19 -2 19 C-2 18.01 -2 17.02 -2 16 C-2.99 16 -3.98 16 -5 16 C-5 14.35 -5 12.7 -5 11 C-5.99 11 -6.98 11 -8 11 C-8 10.01 -8 9.02 -8 8 C-7.01 8 -6.02 8 -5 8 C-5 7.01 -5 6.02 -5 5 C-4.01 5 -3.02 5 -2 5 C-2 4.34 -2 3.68 -2 3 C-1.34 3 -0.68 3 0 3 C0 2.01 0 1.02 0 0 Z " fill="#FD93D8" transform="translate(48,80)"/>
<path d="M0 0 C6.27 0 12.54 0 19 0 C19 0.66 19 1.32 19 2 C20.65 2 22.3 2 24 2 C24 2.99 24 3.98 24 5 C24.99 5 25.98 5 27 5 C27 6.98 27 8.96 27 11 C27.99 11 28.98 11 30 11 C30 11.66 30 12.32 30 13 C30.66 13 31.32 13 32 13 C32 15.64 32 18.28 32 21 C29.36 21 26.72 21 24 21 C24 19.35 24 17.7 24 16 C23.34 16 22.68 16 22 16 C22 14.35 22 12.7 22 11 C20.02 11 18.04 11 16 11 C16 10.01 16 9.02 16 8 C11.71 8 7.42 8 3 8 C3 8.99 3 9.98 3 11 C2.01 11 1.02 11 0 11 C0 11.66 0 12.32 0 13 C-0.99 13 -1.98 13 -3 13 C-3 13.99 -3 14.98 -3 16 C-3.66 16 -4.32 16 -5 16 C-5 17.65 -5 19.3 -5 21 C-7.64 21 -10.28 21 -13 21 C-13 18.36 -13 15.72 -13 13 C-12.34 13 -11.68 13 -11 13 C-11 12.34 -11 11.68 -11 11 C-10.01 11 -9.02 11 -8 11 C-8 9.02 -8 7.04 -8 5 C-6.35 5 -4.7 5 -3 5 C-3 4.01 -3 3.02 -3 2 C-2.01 2 -1.02 2 0 2 C0 1.34 0 0.68 0 0 Z " fill="#4D4C66" transform="translate(129,99)"/>
<path d="M0 0 C5.28 0 10.56 0 16 0 C16 0.66 16 1.32 16 2 C17.98 2 19.96 2 22 2 C22 2.99 22 3.98 22 5 C22.66 5 23.32 5 24 5 C24 5.99 24 6.98 24 8 C24.99 8 25.98 8 27 8 C27 8.99 27 9.98 27 11 C27.99 11 28.98 11 30 11 C30 12.65 30 14.3 30 16 C30.99 16 31.98 16 33 16 C33 16.99 33 17.98 33 19 C32.01 19 31.02 19 30 19 C30 19.66 30 20.32 30 21 C28.02 21 26.04 21 24 21 C24 20.34 24 19.68 24 19 C23.34 19 22.68 19 22 19 C22 17.02 22 15.04 22 13 C21.01 13 20.02 13 19 13 C19 12.34 19 11.68 19 11 C18.01 11 17.02 11 16 11 C16 10.01 16 9.02 16 8 C10.72 8 5.44 8 0 8 C0 8.99 0 9.98 0 11 C-0.99 11 -1.98 11 -3 11 C-3 11.66 -3 12.32 -3 13 C-3.66 13 -4.32 13 -5 13 C-5 14.98 -5 16.96 -5 19 C-5.99 19 -6.98 19 -8 19 C-8 19.66 -8 20.32 -8 21 C-10.64 21 -13.28 21 -16 21 C-16 19.35 -16 17.7 -16 16 C-15.01 16 -14.02 16 -13 16 C-13 14.35 -13 12.7 -13 11 C-12.34 11 -11.68 11 -11 11 C-11 10.01 -11 9.02 -11 8 C-10.01 8 -9.02 8 -8 8 C-8 7.01 -8 6.02 -8 5 C-7.01 5 -6.02 5 -5 5 C-5 4.01 -5 3.02 -5 2 C-3.35 2 -1.7 2 0 2 C0 1.34 0 0.68 0 0 Z " fill="#4C4B65" transform="translate(191,99)"/>
<path d="M0 0 C4.62 0 9.24 0 14 0 C14 2.64 14 5.28 14 8 C11.36 8 8.72 8 6 8 C6 8.66 6 9.32 6 10 C4.02 10 2.04 10 0 10 C0 10.99 0 11.98 0 13 C-4.29 13 -8.58 13 -13 13 C-13 13.99 -13 14.98 -13 16 C-16.63 16 -20.26 16 -24 16 C-24 13.36 -24 10.72 -24 8 C-23.01 8 -22.02 8 -21 8 C-21 7.01 -21 6.02 -21 5 C-17.37 5 -13.74 5 -10 5 C-10 4.01 -10 3.02 -10 2 C-6.7 2 -3.4 2 0 2 C0 1.34 0 0.68 0 0 Z " fill="#474963" transform="translate(145,75)"/>
<path d="M0 0 C4.62 0 9.24 0 14 0 C14 0.66 14 1.32 14 2 C17.63 2 21.26 2 25 2 C25 2.99 25 3.98 25 5 C27.64 5 30.28 5 33 5 C33 5.99 33 6.98 33 8 C34.65 8 36.3 8 38 8 C38 10.64 38 13.28 38 16 C33.71 16 29.42 16 25 16 C25 15.01 25 14.02 25 13 C22.36 13 19.72 13 17 13 C17 12.01 17 11.02 17 10 C14.03 10 11.06 10 8 10 C8 9.34 8 8.68 8 8 C5.36 8 2.72 8 0 8 C0 5.36 0 2.72 0 0 Z " fill="#494A63" transform="translate(180,75)"/>
<path d="M0 0 C2.64 0 5.28 0 8 0 C8 0.99 8 1.98 8 3 C8.66 3 9.32 3 10 3 C10 3.99 10 4.98 10 6 C15.61 6 21.22 6 27 6 C27 5.01 27 4.02 27 3 C28.65 3 30.3 3 32 3 C32 2.01 32 1.02 32 0 C33.65 0 35.3 0 37 0 C37 0.99 37 1.98 37 3 C37.99 3 38.98 3 40 3 C40 3.99 40 4.98 40 6 C39.01 6 38.02 6 37 6 C37 6.66 37 7.32 37 8 C36.34 8 35.68 8 35 8 C35 8.99 35 9.98 35 11 C33.02 11 31.04 11 29 11 C29 11.99 29 12.98 29 14 C22.07 14 15.14 14 8 14 C8 13.01 8 12.02 8 11 C6.02 11 4.04 11 2 11 C2 10.01 2 9.02 2 8 C1.34 8 0.68 8 0 8 C0 5.36 0 2.72 0 0 Z " fill="#4B4B65" transform="translate(151,131)"/>
<path d="M0 0 C0.99 0 1.98 0 3 0 C3 0.66 3 1.32 3 2 C3.66 2 4.32 2 5 2 C5 2.99 5 3.98 5 5 C5.99 5 6.98 5 8 5 C8 5.99 8 6.98 8 8 C8.99 8 9.98 8 11 8 C11 9.65 11 11.3 11 13 C11.66 13 12.32 13 13 13 C13 13.99 13 14.98 13 16 C13.99 16 14.98 16 16 16 C16 16.66 16 17.32 16 18 C16.99 18 17.98 18 19 18 C19 18.99 19 19.98 19 21 C19.66 21 20.32 21 21 21 C21 22.65 21 24.3 21 26 C20.34 26 19.68 26 19 26 C19 26.99 19 27.98 19 29 C17.02 29 15.04 29 13 29 C13 28.01 13 27.02 13 26 C11.35 26 9.7 26 8 26 C8 25.34 8 24.68 8 24 C7.01 24 6.02 24 5 24 C5 23.01 5 22.02 5 21 C4.34 21 3.68 21 3 21 C3 20.01 3 19.02 3 18 C2.01 18 1.02 18 0 18 C0 15.36 0 12.72 0 10 C-0.99 10 -1.98 10 -3 10 C-3 7.36 -3 4.72 -3 2 C-2.01 2 -1.02 2 0 2 C0 1.34 0 0.68 0 0 Z " fill="#E376AF" transform="translate(283,137)"/>
<path d="M0 0 C2.64 0 5.28 0 8 0 C8 3.63 8 7.26 8 11 C8.99 11 9.98 11 11 11 C11 13.64 11 16.28 11 19 C7.37 19 3.74 19 0 19 C0 19.99 0 20.98 0 22 C-1.65 22 -3.3 22 -5 22 C-5 21.01 -5 20.02 -5 19 C-5.99 19 -6.98 19 -8 19 C-8 15.37 -8 11.74 -8 8 C-8.99 8 -9.98 8 -11 8 C-11 7.01 -11 6.02 -11 5 C-10.01 5 -9.02 5 -8 5 C-8 4.34 -8 3.68 -8 3 C-5.36 3 -2.72 3 0 3 C0 2.01 0 1.02 0 0 Z " fill="#FCFCFC" transform="translate(291,34)"/>
<path d="M0 0 C2.64 0 5.28 0 8 0 C8 1.98 8 3.96 8 6 C7.01 6 6.02 6 5 6 C5 7.65 5 9.3 5 11 C4.34 11 3.68 11 3 11 C3 11.99 3 12.98 3 14 C2.01 14 1.02 14 0 14 C0 14.99 0 15.98 0 17 C-0.99 17 -1.98 17 -3 17 C-3 17.66 -3 18.32 -3 19 C-4.65 19 -6.3 19 -8 19 C-8 19.99 -8 20.98 -8 22 C-10.64 22 -13.28 22 -16 22 C-16 21.01 -16 20.02 -16 19 C-16.99 19 -17.98 19 -19 19 C-19 17.35 -19 15.7 -19 14 C-18.01 14 -17.02 14 -16 14 C-16 13.01 -16 12.02 -16 11 C-14.35 11 -12.7 11 -11 11 C-11 10.34 -11 9.68 -11 9 C-10.01 9 -9.02 9 -8 9 C-8 8.01 -8 7.02 -8 6 C-6.35 6 -4.7 6 -3 6 C-3 5.01 -3 4.02 -3 3 C-2.01 3 -1.02 3 0 3 C0 2.01 0 1.02 0 0 Z " fill="#EF78B1" transform="translate(43,128)"/>
<path d="M0 0 C2.64 0 5.28 0 8 0 C8 1.98 8 3.96 8 6 C7.01 6 6.02 6 5 6 C5 7.65 5 9.3 5 11 C4.34 11 3.68 11 3 11 C3 11.99 3 12.98 3 14 C0.03 14 -2.94 14 -6 14 C-6 13.01 -6 12.02 -6 11 C-6.66 11 -7.32 11 -8 11 C-8 9.35 -8 7.7 -8 6 C-6.35 6 -4.7 6 -3 6 C-3 5.01 -3 4.02 -3 3 C-2.01 3 -1.02 3 0 3 C0 2.01 0 1.02 0 0 Z " fill="#E273AD" transform="translate(43,128)"/>
<path d="M0 0 C1.65 0 3.3 0 5 0 C5 0.66 5 1.32 5 2 C5.99 2 6.98 2 8 2 C8 2.99 8 3.98 8 5 C8.66 5 9.32 5 10 5 C10 6.65 10 8.3 10 10 C9.34 10 8.68 10 8 10 C8 10.99 8 11.98 8 13 C6.02 13 4.04 13 2 13 C2 12.01 2 11.02 2 10 C0.35 10 -1.3 10 -3 10 C-3 9.34 -3 8.68 -3 8 C-3.99 8 -4.98 8 -6 8 C-6 6.02 -6 4.04 -6 2 C-4.02 2 -2.04 2 0 2 C0 1.34 0 0.68 0 0 Z " fill="#F079B2" transform="translate(294,153)"/>
<path d="M0 0 C15.18 0 30.36 0 46 0 C46 0.99 46 1.98 46 3 C30.82 3 15.64 3 0 3 C0 2.01 0 1.02 0 0 Z " fill="#E9D8ED" transform="translate(145,31)"/>
<path d="M0 0 C3.3 0 6.6 0 10 0 C10 0.99 10 1.98 10 3 C10.99 3 11.98 3 13 3 C13 3.99 13 4.98 13 6 C9.37 6 5.74 6 2 6 C2 7.65 2 9.3 2 11 C1.34 11 0.68 11 0 11 C0 11.99 0 12.98 0 14 C-0.99 14 -1.98 14 -3 14 C-3 10.37 -3 6.74 -3 3 C-2.01 3 -1.02 3 0 3 C0 2.01 0 1.02 0 0 Z " fill="#FE99E0" transform="translate(267,101)"/>
<path d="M0 0 C3.3 0 6.6 0 10 0 C10 0.66 10 1.32 10 2 C10.99 2 11.98 2 13 2 C13 3.98 13 5.96 13 8 C12.01 8 11.02 8 10 8 C10 7.01 10 6.02 10 5 C9.34 5 8.68 5 8 5 C8 5.99 8 6.98 8 8 C7.01 8 6.02 8 5 8 C5 7.01 5 6.02 5 5 C4.01 5 3.02 5 2 5 C2 6.65 2 8.3 2 10 C0.35 10 -1.3 10 -3 10 C-3 7.36 -3 4.72 -3 2 C-2.01 2 -1.02 2 0 2 C0 1.34 0 0.68 0 0 Z " fill="#FE9AE0" transform="translate(286,91)"/>
<path d="M0 0 C10.89 0 21.78 0 33 0 C33 0.99 33 1.98 33 3 C22.11 3 11.22 3 0 3 C0 2.01 0 1.02 0 0 Z " fill="#CABBEB" transform="translate(29,196)"/>
<path d="M0 0 C6.27 0 12.54 0 19 0 C19 0.99 19 1.98 19 3 C12.73 3 6.46 3 0 3 C0 2.01 0 1.02 0 0 Z " fill="#C8A4EE" transform="translate(10,196)"/>
<path d="M0 0 C0.99 0 1.98 0 3 0 C3 3.63 3 7.26 3 11 C2.01 11 1.02 11 0 11 C0 12.65 0 14.3 0 16 C-0.99 16 -1.98 16 -3 16 C-3 13.36 -3 10.72 -3 8 C-2.01 8 -1.02 8 0 8 C0 5.36 0 2.72 0 0 Z " fill="#FDA3E2" transform="translate(94,64)"/>
<path d="M0 0 C0.99 0 1.98 0 3 0 C3 4.62 3 9.24 3 14 C2.01 14 1.02 14 0 14 C0 13.01 0 12.02 0 11 C-0.99 11 -1.98 11 -3 11 C-3 10.01 -3 9.02 -3 8 C-2.01 8 -1.02 8 0 8 C0 5.36 0 2.72 0 0 Z " fill="#E8D4E5" transform="translate(280,93)"/>
<path d="M0 0 C0.99 0 1.98 0 3 0 C3 4.62 3 9.24 3 14 C2.01 14 1.02 14 0 14 C0 13.01 0 12.02 0 11 C-0.99 11 -1.98 11 -3 11 C-3 10.01 -3 9.02 -3 8 C-2.01 8 -1.02 8 0 8 C0 5.36 0 2.72 0 0 Z " fill="#FF8ED7" transform="translate(245,77)"/>
<path d="M0 0 C5.28 0 10.56 0 16 0 C16 0.99 16 1.98 16 3 C10.72 3 5.44 3 0 3 C0 2.01 0 1.02 0 0 Z " fill="#D0C8EA" transform="translate(46,196)"/>
<path d="M0 0 C5.28 0 10.56 0 16 0 C16 0.99 16 1.98 16 3 C10.72 3 5.44 3 0 3 C0 2.01 0 1.02 0 0 Z " fill="#F7A4DD" transform="translate(307,112)"/>
<path d="M0 0 C5.28 0 10.56 0 16 0 C16 0.99 16 1.98 16 3 C10.72 3 5.44 3 0 3 C0 2.01 0 1.02 0 0 Z " fill="#B86EA2" transform="translate(191,107)"/>
<path d="M0 0 C0.99 0 1.98 0 3 0 C3 4.29 3 8.58 3 13 C2.01 13 1.02 13 0 13 C0 8.71 0 4.42 0 0 Z " fill="#EBBDDA" transform="translate(334,134)"/>
<path d="M0 0 C4.29 0 8.58 0 13 0 C13 0.99 13 1.98 13 3 C8.71 3 4.42 3 0 3 C0 2.01 0 1.02 0 0 Z " fill="#BF71A7" transform="translate(132,107)"/>
<path d="M0 0 C0.99 0 1.98 0 3 0 C3 0.99 3 1.98 3 3 C3.66 3 4.32 3 5 3 C5 3.99 5 4.98 5 6 C4.34 6 3.68 6 3 6 C3 6.66 3 7.32 3 8 C2.01 8 1.02 8 0 8 C0 7.34 0 6.68 0 6 C-0.99 6 -1.98 6 -3 6 C-3 5.01 -3 4.02 -3 3 C-2.01 3 -1.02 3 0 3 C0 2.01 0 1.02 0 0 Z " fill="#000000" transform="translate(167,93)"/>
<path d="M0 0 C1.65 0 3.3 0 5 0 C5 0.99 5 1.98 5 3 C4.01 3 3.02 3 2 3 C2 3.66 2 4.32 2 5 C1.34 5 0.68 5 0 5 C0 5.99 0 6.98 0 8 C-0.99 8 -1.98 8 -3 8 C-3 6.35 -3 4.7 -3 3 C-2.01 3 -1.02 3 0 3 C0 2.01 0 1.02 0 0 Z " fill="#E3BADD" transform="translate(54,96)"/>
<path d="M0 0 C3.63 0 7.26 0 11 0 C11 0.99 11 1.98 11 3 C7.37 3 3.74 3 0 3 C0 2.01 0 1.02 0 0 Z " fill="#EBBCD7" transform="translate(194,190)"/>
<path d="M0 0 C3.63 0 7.26 0 11 0 C11 0.99 11 1.98 11 3 C7.37 3 3.74 3 0 3 C0 2.01 0 1.02 0 0 Z " fill="#E8D0DE" transform="translate(302,166)"/>
<path d="M0 0 C0.99 0 1.98 0 3 0 C3 3.63 3 7.26 3 11 C2.01 11 1.02 11 0 11 C0 7.37 0 3.74 0 0 Z " fill="#EFA7D1" transform="translate(245,142)"/>
<path d="M0 0 C0.99 0 1.98 0 3 0 C3 2.97 3 5.94 3 9 C2.01 9 1.02 9 0 9 C0 6.03 0 3.06 0 0 Z " fill="#FDABE5" transform="translate(242,66)"/>
<path d="M0 0 C0.99 0 1.98 0 3 0 C3 0.66 3 1.32 3 2 C3.66 2 4.32 2 5 2 C5 3.98 5 5.96 5 8 C4.34 8 3.68 8 3 8 C3 7.01 3 6.02 3 5 C2.01 5 1.02 5 0 5 C0 3.35 0 1.7 0 0 Z " fill="#FE95DE" transform="translate(237,64)"/>
<path d="M0 0 C2.64 0 5.28 0 8 0 C8 0.99 8 1.98 8 3 C5.36 3 2.72 3 0 3 C0 2.01 0 1.02 0 0 Z " fill="#FA86BD" transform="translate(140,190)"/>
<path d="M0 0 C2.64 0 5.28 0 8 0 C8 0.99 8 1.98 8 3 C5.36 3 2.72 3 0 3 C0 2.01 0 1.02 0 0 Z " fill="#E9C4DC" transform="translate(132,190)"/>
<path d="M0 0 C2.64 0 5.28 0 8 0 C8 0.99 8 1.98 8 3 C5.36 3 2.72 3 0 3 C0 2.01 0 1.02 0 0 Z " fill="#8F618B" transform="translate(151,131)"/>
<path d="M0 0 C2.64 0 5.28 0 8 0 C8 0.99 8 1.98 8 3 C5.36 3 2.72 3 0 3 C0 2.01 0 1.02 0 0 Z " fill="#DEC0DE" transform="translate(24,93)"/>
<path d="M0 0 C2.64 0 5.28 0 8 0 C8 0.99 8 1.98 8 3 C5.36 3 2.72 3 0 3 C0 2.01 0 1.02 0 0 Z " fill="#D5C8E2" transform="translate(48,77)"/>
<path d="M0 0 C2.64 0 5.28 0 8 0 C8 0.99 8 1.98 8 3 C5.36 3 2.72 3 0 3 C0 2.01 0 1.02 0 0 Z " fill="#BF72A7" transform="translate(180,72)"/>
<path d="M0 0 C2.64 0 5.28 0 8 0 C8 0.99 8 1.98 8 3 C5.36 3 2.72 3 0 3 C0 2.01 0 1.02 0 0 Z " fill="#AD6D9E" transform="translate(151,72)"/>
<path d="M0 0 C0.99 0 1.98 0 3 0 C3 2.64 3 5.28 3 8 C2.01 8 1.02 8 0 8 C0 5.36 0 2.72 0 0 Z " fill="#F2F3F3" transform="translate(283,45)"/>
<path d="M0 0 C0.99 0 1.98 0 3 0 C3 2.64 3 5.28 3 8 C2.01 8 1.02 8 0 8 C0 5.36 0 2.72 0 0 Z " fill="#F1F2F2" transform="translate(250,7)"/>
<path d="M0 0 C1.98 0 3.96 0 6 0 C6 0.99 6 1.98 6 3 C4.02 3 2.04 3 0 3 C0 2.01 0 1.02 0 0 Z " fill="#E7CADF" transform="translate(218,185)"/>
<path d="M0 0 C1.98 0 3.96 0 6 0 C6 0.99 6 1.98 6 3 C4.02 3 2.04 3 0 3 C0 2.01 0 1.02 0 0 Z " fill="#F0A6D0" transform="translate(315,163)"/>
<path d="M0 0 C0.99 0 1.98 0 3 0 C3 1.98 3 3.96 3 6 C2.01 6 1.02 6 0 6 C0 4.02 0 2.04 0 0 Z " fill="#DFB3BF" transform="translate(280,139)"/>
<path d="M0 0 C0.99 0 1.98 0 3 0 C3 1.98 3 3.96 3 6 C2.01 6 1.02 6 0 6 C0 4.02 0 2.04 0 0 Z " fill="#E383BD" transform="translate(48,128)"/>
<path d="M0 0 C1.98 0 3.96 0 6 0 C6 0.99 6 1.98 6 3 C4.02 3 2.04 3 0 3 C0 2.01 0 1.02 0 0 Z " fill="#E273AD" transform="translate(215,120)"/>
<path d="M0 0 C0.99 0 1.98 0 3 0 C3 1.98 3 3.96 3 6 C2.01 6 1.02 6 0 6 C0 4.02 0 2.04 0 0 Z " fill="#FDB1E8" transform="translate(245,77)"/>
</svg>
