<?xml version="1.0" encoding="iso-8859-1"?>
<!-- Uploaded to: SVG Repo, www.svgrepo.com, Generator: SVG Repo Mixer Tools -->
<svg fill="#000000" version="1.1" id="Layer_1" xmlns="http://www.w3.org/2000/svg" xmlns:xlink="http://www.w3.org/1999/xlink" 
	 viewBox="0 0 290.627 290.627" xml:space="preserve">
<g>
	<g>
		<g>
			<path d="M253.126,229.689L253.126,229.689v-18.751h-14.063v-18.75h-18.75v-64.519l12.272-24.544h-16.959v-18.75h-14.063v-18.75
				h-51.562V0h-9.375v4.688h-56.25v46.875h56.25v14.063H98.439v18.75h-18.75v18.75H58.042l12.272,24.544v64.519h-18.75v18.75H37.501
				v18.75h-37.5v60.938h290.625v-60.938H253.126z M150.001,75h42.188v9.375h-42.188V75z M150.001,93.75h56.25v9.375h-56.25V93.75z
				 M150.001,112.5h67.416l-4.688,9.375h-62.728V112.5z M210.939,131.25v60.938h-18.75V131.25H210.939z M182.814,131.25v60.938
				h-18.75V131.25H182.814z M150.001,131.25h4.688v60.938h-4.688V131.25z M150.001,201.563h70.313h9.375v9.375h-79.688V201.563z
				 M150.001,220.313h93.75v9.375h-93.75V220.313z M93.751,42.188V14.063h46.875v28.125H93.751z M140.626,112.5v9.375H77.898
				L73.21,112.5H140.626z M126.564,131.25v60.938h-18.75V131.25H126.564z M98.439,131.25v60.938h-18.75V131.25H98.439z
				 M140.626,281.25h-18.75v-23.438h18.75V281.25z M140.626,248.438h-28.125v32.813H9.376v-42.188h131.25V248.438z M140.626,229.688
				h-93.75v-9.375h93.75V229.688z M140.627,210.938H60.939v-9.375h9.375h70.313V210.938z M140.627,192.188h-4.688V131.25h4.688
				V192.188z M140.627,103.125H89.064V93.75h51.563V103.125z M140.627,84.375h-32.813V75h32.813V84.375z M168.751,281.251h-18.75
				v-23.438h18.75V281.251z M281.251,281.25H178.126v-32.813h-28.125v-9.375h131.25V281.25z"/>
			<rect x="121.876" y="23.438" width="9.375" height="9.375"/>
			<rect x="103.126" y="23.438" width="9.375" height="9.375"/>
			<rect x="18.751" y="262.5" width="9.375" height="9.375"/>
			<rect x="37.501" y="262.5" width="9.375" height="9.375"/>
			<rect x="56.251" y="262.5" width="9.375" height="9.375"/>
			<rect x="225.001" y="262.5" width="9.375" height="9.375"/>
			<rect x="243.751" y="262.5" width="9.375" height="9.375"/>
			<rect x="262.501" y="262.5" width="9.375" height="9.375"/>
		</g>
	</g>
</g>
</svg>