<?xml version="1.0" encoding="UTF-8"?>
<svg version="1.1" xmlns="http://www.w3.org/2000/svg" width="192" height="256">
<path d="M0 0 C1.74434326 -0.08930786 1.74434326 -0.08930786 3.52392578 -0.18041992 C11.62075187 -0.29230032 11.62075187 -0.29230032 14.81005859 2.45019531 C16.31751882 4.44809788 17.56700284 6.39032011 18.6875 8.625 C21.24842157 7.44793046 22.63781531 6.68325102 24.5 4.5 C26.6875 2.625 26.6875 2.625 30.125 2.1875 C33.88002154 2.648643 35.75246795 3.27697436 38.6875 5.625 C43.85122371 13.95665925 40.31944774 27.81949975 39.6875 37.3125 C39.59082319 38.80401558 39.49446682 40.29555197 39.3984375 41.78710938 C39.1651453 45.39998651 38.92754168 49.01256427 38.6875 52.625 C39.46609375 53.06714844 40.2446875 53.50929687 41.046875 53.96484375 C45.06171778 56.48896828 47.09003949 59.33856458 48.296875 63.95703125 C49.17067317 69.64545736 48.45580337 72.95197411 45.546875 77.86328125 C44.44039812 79.7503791 44.44039812 79.7503791 44.9375 82.625 C45.185 83.285 45.4325 83.945 45.6875 84.625 C46.698125 84.728125 47.70875 84.83125 48.75 84.9375 C52.10770217 85.52376546 54.50928422 86.38930023 57.5546875 87.81640625 C60.30138272 88.85773576 63.05781484 89.36224374 65.9375 89.9375 C73.73650407 91.6556197 80.67126614 94.53695105 86.3125 100.3125 C88.71106813 104.34645549 89.39606967 108.03097689 88.6875 112.625 C84.47176584 126.13488168 84.47176584 126.13488168 80.6875 128.625 C78.26953125 128.69921875 78.26953125 128.69921875 75.5 128.3125 C72.02324293 127.87159025 68.80890473 127.59938581 65.3125 127.8125 C61.6875 127.625 61.6875 127.625 59.0625 126.3125 C56.69148526 123.62950964 55.53695852 121.3316349 54 118.125 C51.72368607 113.65004165 50.01141373 111.77332384 45.3125 109.9375 C43.78234415 109.46130106 42.24327367 109.00933144 40.6875 108.625 C40.6875 109.285 40.6875 109.945 40.6875 110.625 C37.7175 110.295 34.7475 109.965 31.6875 109.625 C31.1800327 112.79062933 30.68134993 115.9572419 30.1875 119.125 C30.04441406 120.011875 29.90132812 120.89875 29.75390625 121.8125 C28.42377453 130.42668637 27.57794893 137.20797947 32.1875 144.9375 C32.5498877 145.55343018 32.91227539 146.16936035 33.28564453 146.80395508 C35.84993087 150.88894865 37.83112204 153.17301072 42.53125 154.2734375 C43.2428125 154.38945312 43.954375 154.50546875 44.6875 154.625 C46.4862576 155.03236569 48.27818731 155.47091249 50.0625 155.9375 C50.89523438 156.11925781 51.72796875 156.30101562 52.5859375 156.48828125 C54.6875 157.625 54.6875 157.625 55.81884766 160.69604492 C56.10550293 161.6626001 56.3921582 162.62915527 56.6875 163.625 C55.95635986 164.03339111 55.22521973 164.44178223 54.47192383 164.86254883 C51.74126892 166.38829278 49.01100786 167.91473854 46.28100586 169.44165039 C44.52552811 170.42322596 42.76960323 171.40400173 41.01367188 172.38476562 C39.34594727 173.31772461 39.34594727 173.31772461 37.64453125 174.26953125 C36.62335205 174.84034424 35.60217285 175.41115723 34.55004883 175.99926758 C31.68339788 177.57828442 31.68339788 177.57828442 29.06518555 179.3972168 C26.6875 180.625 26.6875 180.625 24.50268555 180.50878906 C21.261446 178.93067377 20.08726989 175.45976766 18.5 172.375 C17.69272101 170.92041959 16.88277564 169.46731614 16.0703125 168.015625 C14.55506272 165.27006483 13.14897045 162.50421447 11.8046875 159.671875 C9.89156904 155.97759432 7.99918813 153.25270548 4.6875 150.625 C-1.79533537 148.57726746 -8.80043002 148.77632434 -15.3125 150.625 C-19.20966484 153.15001194 -20.38916178 156.48732203 -22.3125 160.625 C-23.85446815 163.26822263 -25.45176142 165.87358867 -27.05273438 168.48144531 C-29.51787357 172.50254406 -31.91420615 176.56380238 -34.3125 180.625 C-38.48292941 180.02533977 -41.51122388 178.60768255 -45.1640625 176.53515625 C-46.26234375 175.91576172 -47.360625 175.29636719 -48.4921875 174.65820312 C-49.62914062 174.00787109 -50.76609375 173.35753906 -51.9375 172.6875 C-53.0821875 172.04103516 -54.226875 171.39457031 -55.40625 170.72851562 C-63.72977312 166.01348459 -63.72977312 166.01348459 -67.3125 163.625 C-66.82421875 160.76171875 -66.82421875 160.76171875 -65.3125 157.625 C-62.48425404 156.62803577 -60.03535861 155.99372093 -57.125 155.4375 C-51.27177152 154.0032571 -47.31702346 152.75383581 -43.6875 147.625 C-40.39465763 141.11771627 -41.22403469 135.61660199 -42.3125 128.625 C-42.52163098 126.02248112 -42.70951967 123.41815856 -42.875 120.8125 C-42.95878906 119.63042969 -43.04257812 118.44835937 -43.12890625 117.23046875 C-43.18949219 116.37066406 -43.25007813 115.51085937 -43.3125 114.625 C-46.31494517 114.93858872 -49.31397393 115.27599123 -52.3125 115.625 C-53.385 115.74875 -54.4575 115.8725 -55.5625 116 C-58.76287404 116.72735774 -60.68651819 117.64704274 -63.3125 119.625 C-64.37737433 122.35409349 -64.37737433 122.35409349 -64.8125 125.4375 C-66.0281373 130.95462313 -66.85951988 134.04325512 -71.3125 137.625 C-73.60249253 138.13294659 -75.75906128 138.3128763 -78.1015625 138.41015625 C-81.21479228 138.71267858 -83.55617646 140.21478796 -86.3125 141.625 C-89.26483627 141.43219437 -90.23730276 140.70034157 -92.34765625 138.5859375 C-101.25537498 127.22387623 -101.25537498 127.22387623 -101.375 119.6875 C-100.05516144 112.56587109 -95.14540584 107.99913604 -89.5 103.875 C-85.73615453 101.39377449 -81.98344408 99.37503791 -77.81640625 97.66796875 C-73.51429795 95.87598292 -69.33757501 93.80482305 -65.1328125 91.796875 C-62.3125 90.625 -62.3125 90.625 -59.3125 90.625 C-59.3125 89.305 -59.3125 87.985 -59.3125 86.625 C-56.8375 85.635 -56.8375 85.635 -54.3125 84.625 C-55.3025 82.954375 -55.3025 82.954375 -56.3125 81.25 C-58.71346691 76.35306389 -59.43649387 71.99702954 -58.3125 66.625 C-56.40676158 62.75542138 -54.27396963 58.60573482 -50.3125 56.625 C-50.93177259 47.34211421 -52.28819652 38.33316564 -53.93945312 29.18554688 C-56.25701898 15.93382417 -56.25701898 15.93382417 -54.1875 10.875 C-47.31359217 2.62631061 -32.45462125 2.20453347 -22.33642578 1.20532227 C-14.90152129 0.57830857 -7.45777258 0.20552129 0 0 Z " fill="#BC7858" transform="translate(102.3125,70.375)"/>
<path d="M0 0 C1.74434326 -0.08930786 1.74434326 -0.08930786 3.52392578 -0.18041992 C11.62075187 -0.29230032 11.62075187 -0.29230032 14.81005859 2.45019531 C16.31751882 4.44809788 17.56700284 6.39032011 18.6875 8.625 C21.24842157 7.44793046 22.63781531 6.68325102 24.5 4.5 C26.6875 2.625 26.6875 2.625 30.125 2.1875 C33.88002154 2.648643 35.75246795 3.27697436 38.6875 5.625 C43.56794679 13.45976368 40.3977844 26.3288962 39.75 35.0625 C39.66298828 36.31482422 39.57597656 37.56714844 39.48632812 38.85742188 C38.80089735 48.31636659 38.80089735 48.31636659 37.6875 52.625 C37.46423025 56.22566764 37.29539461 59.82073526 37.16992188 63.42578125 C36.82790326 70.79531433 36.82790326 70.79531433 34.6875 73.625 C31.6875 74.5 31.6875 74.5 28.6875 74.625 C26.6875 72.625 26.6875 72.625 26.421875 70.0703125 C26.47159867 59.50403347 27.50524741 49.11749178 28.6875 38.625 C21.2625 41.1 21.2625 41.1 13.6875 43.625 C16.6575 43.955 19.6275 44.285 22.6875 44.625 C22.6875 46.275 22.6875 47.925 22.6875 49.625 C15.4275 49.625 8.1675 49.625 0.6875 49.625 C0.6875 48.305 0.6875 46.985 0.6875 45.625 C-0.22386719 45.78613281 -1.13523438 45.94726562 -2.07421875 46.11328125 C-7.40723387 46.87054527 -12.74825489 46.80917075 -18.125 46.8125 C-19.66897461 46.83086914 -19.66897461 46.83086914 -21.24414062 46.84960938 C-27.8386911 46.86212275 -33.90565011 46.19447815 -40.3125 44.625 C-40.19132812 45.31537354 -40.07015625 46.00574707 -39.9453125 46.71704102 C-39.39496029 49.87283467 -38.85366105 53.0301178 -38.3125 56.1875 C-38.12171875 57.27353516 -37.9309375 58.35957031 -37.734375 59.47851562 C-35.86114253 70.48375636 -35.86114253 70.48375636 -36.3125 75.625 C-38.3125 77.625 -38.3125 77.625 -41.3125 77.9375 C-42.3025 77.834375 -43.2925 77.73125 -44.3125 77.625 C-46.50917355 74.32998967 -46.72810205 72.68925615 -47.1875 68.8125 C-48.02034314 62.45797239 -49.08118181 56.17612184 -50.25 49.875 C-51.54836255 42.81720321 -52.84540957 35.75984244 -54.0625 28.6875 C-54.25380493 27.61580566 -54.25380493 27.61580566 -54.44897461 26.52246094 C-56.24931374 15.91498914 -56.24931374 15.91498914 -54.1875 10.875 C-47.31359217 2.62631061 -32.45462125 2.20453347 -22.33642578 1.20532227 C-14.90152129 0.57830857 -7.45777258 0.20552129 0 0 Z " fill="#3C3E41" transform="translate(102.3125,70.375)"/>
<path d="M0 0 C-1.35346846 4.06040538 -3.91805621 4.81366846 -7.5 6.6875 C-16.92618143 11.50370175 -16.92618143 11.50370175 -24 19 C-24.83603934 24.41730894 -24.58600177 29.5562196 -24 35 C-23.91202148 35.82773926 -23.82404297 36.65547852 -23.73339844 37.50830078 C-23.49703933 39.67323158 -23.25256437 41.83690839 -23 44 C-22.38479492 44.05534912 -21.76958984 44.11069824 -21.13574219 44.16772461 C-18.34019004 44.42107482 -15.54510238 44.67923694 -12.75 44.9375 C-11.78191406 45.02451172 -10.81382813 45.11152344 -9.81640625 45.20117188 C-8.88183594 45.28818359 -7.94726562 45.37519531 -6.984375 45.46484375 C-5.69611816 45.58267212 -5.69611816 45.58267212 -4.38183594 45.70288086 C-2.18358411 45.97709903 -0.13281455 46.41066966 2 47 C2.33 45.02 2.66 43.04 3 41 C5.18327478 42.84336374 6.17270618 44.35381429 7.4453125 46.9609375 C10.52247949 53.54228948 10.52247949 53.54228948 16.00195312 57.99658203 C19.03238607 59.0246226 22.03545663 59.78571113 25.18408203 60.35498047 C27.3671875 60.77734375 27.3671875 60.77734375 31 62 C32.22705078 65.07641602 32.22705078 65.07641602 33 68 C32.26885986 68.40839111 31.53771973 68.81678223 30.78442383 69.23754883 C28.05376892 70.76329278 25.32350786 72.28973854 22.59350586 73.81665039 C20.83802811 74.79822596 19.08210323 75.77900173 17.32617188 76.75976562 C16.21435547 77.38173828 15.10253906 78.00371094 13.95703125 78.64453125 C12.42526245 79.50075073 12.42526245 79.50075073 10.86254883 80.37426758 C7.99589788 81.95328442 7.99589788 81.95328442 5.37768555 83.7722168 C3 85 3 85 0.81518555 84.88378906 C-2.426054 83.30567377 -3.60023011 79.83476766 -5.1875 76.75 C-5.99477899 75.29541959 -6.80472436 73.84231614 -7.6171875 72.390625 C-9.13243728 69.64506483 -10.53852955 66.87921447 -11.8828125 64.046875 C-13.79593096 60.35259432 -15.68831187 57.62770548 -19 55 C-25.48283537 52.95226746 -32.48793002 53.15132434 -39 55 C-42.89716484 57.52501194 -44.07666178 60.86232203 -46 65 C-47.54196815 67.64322263 -49.13926142 70.24858867 -50.74023438 72.85644531 C-53.20537357 76.87754406 -55.60170615 80.93880238 -58 85 C-62.17042941 84.40033977 -65.19872388 82.98268255 -68.8515625 80.91015625 C-69.94984375 80.29076172 -71.048125 79.67136719 -72.1796875 79.03320312 C-73.88511719 78.05770508 -73.88511719 78.05770508 -75.625 77.0625 C-76.7696875 76.41603516 -77.914375 75.76957031 -79.09375 75.10351562 C-87.41727312 70.38848459 -87.41727312 70.38848459 -91 68 C-90.5078125 65.1328125 -90.5078125 65.1328125 -89 62 C-86.1942983 61.0285635 -83.76038298 60.41057347 -80.875 59.875 C-74.05431175 58.30616308 -70.78859816 56.62780151 -66.9375 50.6875 C-65.9073822 48.8188618 -64.90840235 46.9307399 -64 45 C-63.67 45.66 -63.34 46.32 -63 47 C-62.38479492 46.90912109 -61.76958984 46.81824219 -61.13574219 46.72460938 C-58.34092029 46.31345112 -55.54547669 45.90668141 -52.75 45.5 C-51.78191406 45.35691406 -50.81382813 45.21382812 -49.81640625 45.06640625 C-48.41455078 44.86337891 -48.41455078 44.86337891 -46.984375 44.65625 C-46.12553711 44.53056641 -45.26669922 44.40488281 -44.38183594 44.27539062 C-42 44 -42 44 -38 44 C-35.33067663 29.57481886 -35.33067663 29.57481886 -38.9140625 16.109375 C-41.48674225 13.76767888 -44.06821012 11.86937086 -47 10 C-47.88042969 9.39542969 -48.76085937 8.79085937 -49.66796875 8.16796875 C-51.22026016 7.11418746 -52.7902663 6.08564729 -54.3828125 5.09375 C-54.91648438 4.7328125 -55.45015625 4.371875 -56 4 C-56 3.67 -56 3.34 -56 3 C-42.69537598 0.89119792 -42.69537598 0.89119792 -36.4375 5 C-35.69371094 5.5775 -34.94992188 6.155 -34.18359375 6.75 C-32.05619787 8.22849324 -32.05619787 8.22849324 -29.49609375 7.875 C-26.78899334 6.92603209 -24.93722359 5.68751757 -22.625 4 C-15.59686146 -0.43770681 -8.06115107 0 0 0 Z " fill="#5C5EAD" transform="translate(126,166)"/>
<path d="M0 0 C1.32 0 2.64 0 4 0 C4 1.32 4 2.64 4 4 C5.5159375 4.1546875 5.5159375 4.1546875 7.0625 4.3125 C10.42020217 4.89876546 12.82178422 5.76430023 15.8671875 7.19140625 C18.61388272 8.23273576 21.37031484 8.73724374 24.25 9.3125 C32.04900407 11.0306197 38.98376614 13.91195105 44.625 19.6875 C47.02356813 23.72145549 47.70856967 27.40597689 47 32 C42.78426584 45.50988168 42.78426584 45.50988168 39 48 C36.58203125 48.07421875 36.58203125 48.07421875 33.8125 47.6875 C30.33574293 47.24659025 27.12140473 46.97438581 23.625 47.1875 C20 47 20 47 17.375 45.6875 C15.00398526 43.00450964 13.84945852 40.7066349 12.3125 37.5 C10.03618607 33.02504165 8.32391373 31.14832384 3.625 29.3125 C2.09484415 28.83630106 0.55577367 28.38433144 -1 28 C-1 28.66 -1 29.32 -1 30 C-3.97 29.67 -6.94 29.34 -10 29 C-10.11069824 29.78648926 -10.22139648 30.57297852 -10.33544922 31.38330078 C-10.84285557 34.96471315 -11.35884181 38.54483893 -11.875 42.125 C-12.13603516 43.98125 -12.13603516 43.98125 -12.40234375 45.875 C-12.66337891 47.67324219 -12.66337891 47.67324219 -12.9296875 49.5078125 C-13.08679199 50.60754395 -13.24389648 51.70727539 -13.40576172 52.84033203 C-14.00497445 56.02645 -14.90390936 58.95262711 -16 62 C-19.79223378 61.69414597 -23.5836573 61.37919391 -27.375 61.0625 C-28.45523438 60.97548828 -29.53546875 60.88847656 -30.6484375 60.79882812 C-31.6796875 60.71181641 -32.7109375 60.62480469 -33.7734375 60.53515625 C-34.72653809 60.456604 -35.67963867 60.37805176 -36.66162109 60.29711914 C-39 60 -39 60 -41 59 C-43.53523582 50.97175324 -44.48094486 42.30690912 -43 34 C-38.65697083 27.14463557 -30.61524797 23.31823692 -23.56005859 19.6484375 C-19.77568405 17.76015829 -19.77568405 17.76015829 -18 14 C-17.21625 13.5875 -16.4325 13.175 -15.625 12.75 C-12.66146069 11.15158477 -12.66146069 11.15158477 -11.75 7.5 C-10 4 -10 4 -7.8515625 2.9140625 C-6.23535143 2.39911828 -4.60434038 1.92797052 -2.9609375 1.5078125 C-1.01054658 1.17963274 -1.01054658 1.17963274 0 0 Z " fill="#DE965A" transform="translate(144,151)"/>
<path d="M0 0 C2.14214236 2.14214236 2.4947885 3.11597426 3.2890625 5.95703125 C3.50820313 6.74013672 3.72734375 7.52324219 3.953125 8.33007812 C4.28570312 9.55887695 4.28570312 9.55887695 4.625 10.8125 C4.96917969 12.02389648 4.96917969 12.02389648 5.3203125 13.25976562 C6.41896328 17.25218409 7.32238798 20.81744021 7 25 C6.30132812 25.23074219 5.60265625 25.46148437 4.8828125 25.69921875 C3.51769531 26.18841797 3.51769531 26.18841797 2.125 26.6875 C1.22007813 27.00074219 0.31515625 27.31398437 -0.6171875 27.63671875 C-4.33255212 29.76239457 -4.60648064 32.59673592 -5.7109375 36.53515625 C-6.03964844 37.78619141 -6.03964844 37.78619141 -6.375 39.0625 C-8.43271445 45.84085348 -8.43271445 45.84085348 -12 48 C-14.25438677 48.3785993 -16.47287803 48.56876805 -18.75390625 48.71484375 C-21.85765283 49.10888462 -24.23836984 50.58707294 -27 52 C-29.95233627 51.80719437 -30.92480276 51.07534157 -33.03515625 48.9609375 C-41.94287498 37.59887623 -41.94287498 37.59887623 -42.0625 30.0625 C-40.74266144 22.94087109 -35.83290584 18.37413604 -30.1875 14.25 C-26.42325426 11.76851062 -22.66846448 9.75256589 -18.50390625 8.0390625 C-15.33244245 6.72297924 -12.23563435 5.26619623 -9.125 3.8125 C-6.08979262 2.39535235 -3.17767275 1.05922425 0 0 Z " fill="#B67455" transform="translate(43,160)"/>
<path d="M0 0 C0 0.66 0 1.32 0 2 C3.3 2 6.6 2 10 2 C10.33 5.63 10.66 9.26 11 13 C11.78375 12.87625 12.5675 12.7525 13.375 12.625 C21.15417344 13.42974208 27.29488398 18.77455913 32.4296875 24.38671875 C33.95946471 26.11515971 33.95946471 26.11515971 36.171875 27.1953125 C38 29 38 29 38.4609375 32.73046875 C38.45297004 34.21640061 38.42352632 35.70233934 38.375 37.1875 C38.37371094 37.91775391 38.37242188 38.64800781 38.37109375 39.40039062 C38.28918519 44.53787757 37.39873541 49.05966654 36 54 C33.14694871 54.50720912 30.29283186 55.00593634 27.4375 55.5 C26.63763672 55.64308594 25.83777344 55.78617188 25.01367188 55.93359375 C20.26475402 56.74769395 15.81753923 57.15519589 11 57 C8.50395097 47.90724995 6.55980272 38.46424141 7 29 C4.03 29.33 1.06 29.66 -2 30 C-2.14099121 29.39003174 -2.28198242 28.78006348 -2.42724609 28.15161133 C-3.07241423 25.37094196 -3.72364729 22.59172688 -4.375 19.8125 C-4.59671875 18.85279297 -4.8184375 17.89308594 -5.046875 16.90429688 C-5.26601563 15.97294922 -5.48515625 15.04160156 -5.7109375 14.08203125 C-5.90993652 13.22843018 -6.10893555 12.3748291 -6.31396484 11.49536133 C-6.96171561 8.94201253 -6.96171561 8.94201253 -8.08056641 6.36987305 C-9 4 -9 4 -9 1 C-5.57367167 -0.61798838 -3.61944899 -1.34053666 0 0 Z " fill="#E2995C" transform="translate(52,156)"/>
<path d="M0 0 C4.85804359 0.42614417 8.46407795 1.07842777 12.90234375 3.19140625 C15.63449994 4.24458377 18.37951044 4.73975769 21.25 5.3125 C29.04900407 7.0306197 35.98376614 9.91195105 41.625 15.6875 C44.02356813 19.72145549 44.70856967 23.40597689 44 28 C39.78426584 41.50988168 39.78426584 41.50988168 36 44 C33.58203125 44.07421875 33.58203125 44.07421875 30.8125 43.6875 C27.33574293 43.24659025 24.12140473 42.97438581 20.625 43.1875 C17 43 17 43 14.375 41.6875 C12.00398526 39.00450964 10.84945852 36.7066349 9.3125 33.5 C7.03618607 29.02504165 5.32391373 27.14832384 0.625 25.3125 C-0.90515585 24.83630106 -2.44422633 24.38433144 -4 24 C-3.4533512 15.81911794 -1.82876132 7.98214061 0 0 Z " fill="#B57455" transform="translate(147,155)"/>
<path d="M0 0 C-1.35346846 4.06040538 -3.91805621 4.81366846 -7.5 6.6875 C-16.92787644 11.50285103 -16.92787644 11.50285103 -24 19 C-24.83595665 24.46760838 -24.55090863 29.51339982 -24 35 C-23.91492188 35.928125 -23.82984375 36.85625 -23.7421875 37.8125 C-23.54996907 39.5486665 -23.287168 41.27699199 -23 43 C-27.95 43 -32.9 43 -38 43 C-37.67 40.69 -37.34 38.38 -37 36 C-35.59786203 25.62022283 -35.59786203 25.62022283 -38.9140625 16.10546875 C-41.48732248 13.76722787 -44.06976169 11.86838155 -47 10 C-47.88042969 9.39542969 -48.76085937 8.79085937 -49.66796875 8.16796875 C-51.22026016 7.11418746 -52.7902663 6.08564729 -54.3828125 5.09375 C-54.91648437 4.7328125 -55.45015625 4.371875 -56 4 C-56 3.67 -56 3.34 -56 3 C-42.69537598 0.89119792 -42.69537598 0.89119792 -36.4375 5 C-35.69371094 5.5775 -34.94992188 6.155 -34.18359375 6.75 C-32.05619787 8.22849324 -32.05619787 8.22849324 -29.49609375 7.875 C-26.78899334 6.92603209 -24.93722359 5.68751757 -22.625 4 C-15.59686146 -0.43770681 -8.06115107 0 0 0 Z " fill="#C0C9D1" transform="translate(126,166)"/>
<path d="M0 0 C1.74434326 -0.08930786 1.74434326 -0.08930786 3.52392578 -0.18041992 C11.60013875 -0.2920155 11.60013875 -0.2920155 14.81005859 2.41503906 C18.6875 7.49050899 18.6875 7.49050899 18.6875 9.625 C18.05237991 9.67067108 17.41725983 9.71634216 16.76289368 9.76339722 C10.0939819 10.2439986 3.42563994 10.73200281 -3.24243164 11.22412109 C-5.72406647 11.40632156 -8.20583615 11.58669567 -10.68774414 11.76513672 C-14.27528132 12.023399 -17.86226639 12.28843968 -21.44921875 12.5546875 C-22.54143234 12.63186005 -23.63364594 12.70903259 -24.75895691 12.7885437 C-38.57463813 13.22813557 -38.57463813 13.22813557 -51.3125 17.625 C-52.21859992 19.56481618 -52.21859992 19.56481618 -52.5625 21.75 C-52.81 23.02875 -53.0575 24.3075 -53.3125 25.625 C-53.6425 25.625 -53.9725 25.625 -54.3125 25.625 C-55.54185653 20.55390429 -56.201845 15.79895445 -54.1875 10.875 C-47.31359217 2.62631061 -32.45462125 2.20453347 -22.33642578 1.20532227 C-14.90152129 0.57830857 -7.45777258 0.20552129 0 0 Z " fill="#454A51" transform="translate(102.3125,70.375)"/>
<path d="M0 0 C0.98871094 0.17917969 1.97742188 0.35835937 2.99609375 0.54296875 C3.80175781 0.75566406 4.60742188 0.96835938 5.4375 1.1875 C6.26121094 1.38730469 7.08492187 1.58710938 7.93359375 1.79296875 C10.92327429 3.53930388 11.04211068 5.78313537 12 9 C11.26885986 9.40839111 10.53771973 9.81678223 9.78442383 10.23754883 C7.05376892 11.76329278 4.32350786 13.28973854 1.59350586 14.81665039 C-0.16197189 15.79822596 -1.91789677 16.77900173 -3.67382812 17.75976562 C-4.78564453 18.38173828 -5.89746094 19.00371094 -7.04296875 19.64453125 C-8.06414795 20.21534424 -9.08532715 20.78615723 -10.13745117 21.37426758 C-12.02760506 22.44774602 -13.89726357 23.55824409 -15.74291992 24.70654297 C-18 26 -18 26 -20.0703125 26.05078125 C-23.05936806 24.42313763 -24.17974287 22.09616731 -25.875 19.1875 C-26.51179688 18.12917969 -27.14859375 17.07085937 -27.8046875 15.98046875 C-29 13 -29 13 -28.31323242 10.97705078 C-25.91994486 7.37399396 -22.14211105 5.75886338 -18.4375 3.6875 C-17.66341797 3.22021484 -16.88933594 2.75292969 -16.09179688 2.27148438 C-10.31956667 -0.98230401 -6.42441192 -1.46387872 0 0 Z " fill="#EAEAEA" transform="translate(147,225)"/>
<path d="M0 0 C0.87914063 0.49113281 1.75828125 0.98226562 2.6640625 1.48828125 C3.49421875 1.97167969 4.324375 2.45507812 5.1796875 2.953125 C5.93749512 3.39301758 6.69530273 3.83291016 7.47607422 4.28613281 C8.02021973 4.76920898 8.56436523 5.25228516 9.125 5.75 C9.125 10.40656825 8.0136067 12.07586043 5.625 16 C4.9753125 17.07765625 4.325625 18.1553125 3.65625 19.265625 C3.1509375 20.08546875 2.645625 20.9053125 2.125 21.75 C-2.04542941 21.15033977 -5.07372388 19.73268255 -8.7265625 17.66015625 C-9.82484375 17.04076172 -10.923125 16.42136719 -12.0546875 15.78320312 C-13.19164063 15.13287109 -14.32859375 14.48253906 -15.5 13.8125 C-16.6446875 13.16603516 -17.789375 12.51957031 -18.96875 11.85351562 C-27.29227312 7.13848459 -27.29227312 7.13848459 -30.875 4.75 C-30.265625 1.8984375 -30.265625 1.8984375 -28.875 -1.25 C-26.046875 -2.7109375 -26.046875 -2.7109375 -22.625 -3.625 C-21.50609375 -3.94210938 -20.3871875 -4.25921875 -19.234375 -4.5859375 C-11.09805445 -6.19427993 -6.95164497 -4.11445252 0 0 Z " fill="#EBEAE9" transform="translate(65.875,229.25)"/>
<path d="M0 0 C-1.35112877 4.0533863 -3.93427666 4.95258599 -7.5 6.875 C-8.77870771 7.57801246 -10.05735352 8.28113754 -11.3359375 8.984375 C-11.96209961 9.32533203 -12.58826172 9.66628906 -13.23339844 10.01757812 C-14.77397538 10.87430582 -16.28461007 11.78443976 -17.7890625 12.703125 C-18.94535156 13.40695313 -18.94535156 13.40695313 -20.125 14.125 C-20.78757813 14.54007813 -21.45015625 14.95515625 -22.1328125 15.3828125 C-24 16 -24 16 -26.1796875 15.2421875 C-28 14 -28 14 -29 12 C-29.66 12 -30.32 12 -31 12 C-32.63676257 13.9600281 -32.63676257 13.9600281 -34 16 C-38.6883436 14.3018598 -42.91856856 11.93837777 -47.25 9.5 C-47.9821875 9.09652344 -48.714375 8.69304687 -49.46875 8.27734375 C-50.16484375 7.88675781 -50.8609375 7.49617187 -51.578125 7.09375 C-52.21137695 6.73990234 -52.84462891 6.38605469 -53.49707031 6.02148438 C-55 5 -55 5 -56 3 C-42.69537598 0.89119792 -42.69537598 0.89119792 -36.4375 5 C-35.69371094 5.5775 -34.94992188 6.155 -34.18359375 6.75 C-32.05619787 8.22849324 -32.05619787 8.22849324 -29.49609375 7.875 C-26.78899334 6.92603209 -24.93722359 5.68751757 -22.625 4 C-15.59686146 -0.43770681 -8.06115107 0 0 0 Z " fill="#9DACB9" transform="translate(126,166)"/>
<path d="M0 0 C0 0.66 0 1.32 0 2 C2.31 2 4.62 2 7 2 C7 10.91 7 19.82 7 29 C4.03 29.33 1.06 29.66 -2 30 C-2.14099121 29.39003174 -2.28198242 28.78006348 -2.42724609 28.15161133 C-3.07241423 25.37094196 -3.72364729 22.59172688 -4.375 19.8125 C-4.59671875 18.85279297 -4.8184375 17.89308594 -5.046875 16.90429688 C-5.26601563 15.97294922 -5.48515625 15.04160156 -5.7109375 14.08203125 C-5.90993652 13.22843018 -6.10893555 12.3748291 -6.31396484 11.49536133 C-6.96171561 8.94201253 -6.96171561 8.94201253 -8.08056641 6.36987305 C-9 4 -9 4 -9 1 C-5.57367167 -0.61798838 -3.61944899 -1.34053666 0 0 Z " fill="#BDD0DF" transform="translate(52,156)"/>
<path d="M0 0 C1.32 0 2.64 0 4 0 C3.33951685 6.77864289 2.25308378 13.38230956 0.9375 20.0625 C0.75123047 21.02349609 0.56496094 21.98449219 0.37304688 22.97460938 C-0.08145562 25.31704531 -0.53918902 27.65879844 -1 30 C-2.4800841 29.88637738 -3.95910074 29.75877092 -5.4375 29.625 C-6.26121094 29.55539063 -7.08492187 29.48578125 -7.93359375 29.4140625 C-8.61550781 29.27742188 -9.29742187 29.14078125 -10 29 C-11.15352646 26.69294708 -11.12900617 25.35398201 -11.1328125 22.7890625 C-11.13410156 21.95632812 -11.13539063 21.12359375 -11.13671875 20.265625 C-11.13285156 19.39421875 -11.12898437 18.5228125 -11.125 17.625 C-11.12886719 16.76132813 -11.13273438 15.89765625 -11.13671875 15.0078125 C-11.13542969 14.1725 -11.13414062 13.3371875 -11.1328125 12.4765625 C-11.13168457 11.71424316 -11.13055664 10.95192383 -11.12939453 10.16650391 C-10.99767608 7.96108971 -10.72446408 6.0884807 -10 4 C-7.96875 2.98828125 -7.96875 2.98828125 -5.5 2.3125 C-2.48160243 1.63170957 -2.48160243 1.63170957 0 0 Z " fill="#BCCEDD" transform="translate(144,151)"/>
<path d="M0 0 C3.22795122 0.5162361 3.22795122 0.5162361 6.9609375 -0.3359375 C11.58948626 -0.79879238 13.40150343 0.55139261 17.0859375 3.3515625 C18.0859375 6.0390625 18.0859375 6.0390625 18.0859375 8.3515625 C17.0859375 9.3515625 17.0859375 9.3515625 15.32348633 9.43334961 C14.57091553 9.4153833 13.81834473 9.39741699 13.04296875 9.37890625 C11.80256836 9.36053711 11.80256836 9.36053711 10.53710938 9.34179688 C8.79743491 9.30702914 7.05783855 9.26806343 5.31835938 9.22460938 C0.42549297 9.16027934 -3.28340096 9.59204751 -7.9140625 11.3515625 C-11.35707701 11.70180018 -14.76064621 11.92827064 -17.9140625 10.3515625 C-17.80655052 6.69615509 -16.61390388 4.56553067 -14.1640625 1.9765625 C-9.67302244 -1.67008779 -5.45959259 -0.73710747 0 0 Z " fill="#404041" transform="translate(97.9140625,144.6484375)"/>
<path d="M0 0 C0.33 0.66 0.66 1.32 1 2 C1.77601562 1.9278125 2.55203125 1.855625 3.3515625 1.78125 C11.58798431 1.07358607 19.7357642 0.88848857 28 1 C28.125 7.75 28.125 7.75 27 10 C24.11309824 10.64880885 21.293585 11.17457271 18.375 11.625 C17.57964844 11.7590625 16.78429687 11.893125 15.96484375 12.03125 C11.24762213 12.79034313 6.77600114 13.14084722 2 13 C-0.28571429 4.57142857 -0.28571429 4.57142857 0 0 Z " fill="#D2894C" transform="translate(61,200)"/>
<path d="M0 0 C9.36749815 -0.1820896 18.6587308 0.38673965 28 1 C27.125 8.625 27.125 8.625 26 12 C22.20776622 11.69414597 18.4163427 11.37919391 14.625 11.0625 C13.54476562 10.97548828 12.46453125 10.88847656 11.3515625 10.79882812 C10.3203125 10.71181641 9.2890625 10.62480469 8.2265625 10.53515625 C7.27346191 10.456604 6.32036133 10.37805176 5.33837891 10.29711914 C3 10 3 10 1 9 C0.5859375 6.93359375 0.5859375 6.93359375 0.375 4.4375 C0.30023438 3.61121094 0.22546875 2.78492188 0.1484375 1.93359375 C0.09945312 1.29550781 0.05046875 0.65742188 0 0 Z " fill="#D2894B" transform="translate(102,201)"/>
<path d="M0 0 C0.99 0.53109375 1.98 1.0621875 3 1.609375 C9.62640689 5.15776852 16.24861217 8.6931978 23 12 C21.35 14.97 19.7 17.94 18 21 C12.92365174 19.2010497 8.36286389 16.50973545 3.6875 13.875 C2.85154297 13.40707031 2.01558594 12.93914062 1.15429688 12.45703125 C-0.89864703 11.30738266 -2.94952983 10.15405486 -5 9 C-3.35 6.03 -1.7 3.06 0 0 Z " fill="#4D4FA9" transform="translate(59,215)"/>
<path d="M0 0 C0.66 1.98 1.32 3.96 2 6 C1.26885986 6.40839111 0.53771973 6.81678223 -0.21557617 7.23754883 C-2.94623108 8.76329278 -5.67649214 10.28973854 -8.40649414 11.81665039 C-10.16197189 12.79822596 -11.91789677 13.77900173 -13.67382812 14.75976562 C-14.78564453 15.38173828 -15.89746094 16.00371094 -17.04296875 16.64453125 C-18.06414795 17.21534424 -19.08532715 17.78615723 -20.13745117 18.37426758 C-22.02721315 19.44752344 -23.89227058 20.56564508 -25.7277832 21.72924805 C-28 23 -28 23 -30.3125 22.6875 C-30.869375 22.460625 -31.42625 22.23375 -32 22 C-32.33 20.68 -32.66 19.36 -33 18 C-26.41452261 13.42495587 -19.6119207 9.43931581 -12.5625 5.625 C-11.57056641 5.07972656 -10.57863281 4.53445312 -9.55664062 3.97265625 C-8.13834961 3.20115234 -8.13834961 3.20115234 -6.69140625 2.4140625 C-5.83748291 1.9495166 -4.98355957 1.4849707 -4.10375977 1.00634766 C-2 0 -2 0 0 0 Z " fill="#C98C5B" transform="translate(157,228)"/>
<path d="M0 0 C2.41396234 2.89675481 4.38617243 5.59787701 6 9 C2.54565686 11.00695291 -0.9141063 13.00436779 -4.375 15 C-5.35984375 15.57234375 -6.3446875 16.1446875 -7.359375 16.734375 C-8.30039063 17.27578125 -9.24140625 17.8171875 -10.2109375 18.375 C-11.51490479 19.12910156 -11.51490479 19.12910156 -12.84521484 19.8984375 C-15 21 -15 21 -17 21 C-18.65 18.03 -20.3 15.06 -22 12 C-21.0821875 11.55269531 -20.164375 11.10539063 -19.21875 10.64453125 C-12.59091344 7.38838763 -6.17406667 4.074884 0 0 Z " fill="#4C4EA9" transform="translate(134,215)"/>
<path d="M0 0 C4.17139615 1.56427356 8.07915444 3.52467398 12 5.625 C12.97271851 6.14416992 12.97271851 6.14416992 13.96508789 6.67382812 C20.47494492 10.18881842 26.75298803 14.0389941 33 18 C32.34 19.65 31.68 21.3 31 23 C26.82957059 22.40033977 23.80127612 20.98268255 20.1484375 18.91015625 C19.05015625 18.29076172 17.951875 17.67136719 16.8203125 17.03320312 C15.68335937 16.38287109 14.54640625 15.73253906 13.375 15.0625 C12.2303125 14.41603516 11.085625 13.76957031 9.90625 13.10351562 C1.58272688 8.38848459 1.58272688 8.38848459 -2 6 C-1.34 4.02 -0.68 2.04 0 0 Z " fill="#C98B59" transform="translate(37,228)"/>
<path d="M0 0 C0 0.33 0 0.66 0 1 C-0.95261719 1.01417969 -1.90523437 1.02835938 -2.88671875 1.04296875 C-10.36850377 1.12695011 -10.36850377 1.12695011 -17 4.0625 C-17.66 5.031875 -18.32 6.00125 -19 7 C-20.10117501 8.439793 -21.20548236 9.87719438 -22.3125 11.3125 C-23.21234296 12.53873436 -24.10959463 13.76689565 -25 15 C-29.90309806 14.47729735 -33.18388507 12.9987369 -37.375 10.4375 C-38.43460937 9.79683594 -39.49421875 9.15617188 -40.5859375 8.49609375 C-41.38257813 8.00238281 -42.17921875 7.50867188 -43 7 C-42.34 5.35 -41.68 3.7 -41 2 C-40.67 2.66 -40.34 3.32 -40 4 C-38.98184204 3.81824219 -38.98184204 3.81824219 -37.94311523 3.6328125 C-25.23789071 1.39609079 -12.93053476 -0.75690935 0 0 Z " fill="#676ABE" transform="translate(103,209)"/>
<path d="M0 0 C4.10703441 0.85563217 5.55401113 2.24378009 8 5.625 C8.66694827 9.77490033 8.41143691 11.85149861 6.4375 15.5625 C4 17.625 4 17.625 0.5625 18.25 C-3.9396067 17.46015672 -5.38431879 16.35036415 -8 12.625 C-8.625 9.125 -8.625 9.125 -8 5.625 C-5.55401113 2.24378009 -4.10703441 0.85563217 0 0 Z " fill="#F4F1EF" transform="translate(114,125.375)"/>
<path d="M0 0 C1.90625 0.41015625 1.90625 0.41015625 4.40625 1.91015625 C6.50026202 5.40017628 6.78526716 8.50855376 5.90625 12.41015625 C3.84375 15.47265625 3.84375 15.47265625 0.90625 17.41015625 C-3.40567698 17.56145193 -5.30841844 17.11494098 -8.53125 14.22265625 C-10.39590998 10.86626829 -10.7241261 9.19241285 -10.09375 5.41015625 C-7.58723776 0.60600778 -5.16813059 -0.37603935 0 0 Z " fill="#F7F3F1" transform="translate(82.09375,127.58984375)"/>
<path d="M0 0 C3.10618756 2.54142619 3.8283365 5.24048843 5 9 C2.75583701 10.34409762 0.50557204 11.67529896 -1.75 13 C-2.38421875 13.3815625 -3.0184375 13.763125 -3.671875 14.15625 C-7.13971476 16.17915652 -8.89348254 17 -13 17 C-14.4921875 15.390625 -14.4921875 15.390625 -15.875 13.25 C-18.54770803 9.39775501 -21.00188752 7.37982886 -25 5 C-25 4.67 -25 4.34 -25 4 C-16.86455314 3.71454572 -9.02350304 4.81603117 -1 6 C-0.67 4.02 -0.34 2.04 0 0 Z " fill="#6567BE" transform="translate(129,207)"/>
<path d="M0 0 C3.81424512 1.69522005 5.50435209 3.13680182 7 7 C7.1953125 9.796875 7.1953125 9.796875 7.125 12.75 C7.10695312 13.73484375 7.08890625 14.7196875 7.0703125 15.734375 C7.04710937 16.48203125 7.02390625 17.2296875 7 18 C6.67 18 6.34 18 6 18 C5.71125 17.05125 5.4225 16.1025 5.125 15.125 C4.23174891 11.94788422 4.23174891 11.94788422 2 10 C-1.48216946 8.79401929 -5.09554452 8.69331188 -8.75 8.4375 C-9.92046875 8.35371094 -11.0909375 8.26992187 -12.296875 8.18359375 C-13.63492188 8.09271484 -13.63492188 8.09271484 -15 8 C-13.33333333 6.33333333 -11.66666667 4.66666667 -10 3 C-9.319375 2.1028125 -9.319375 2.1028125 -8.625 1.1875 C-5.83612889 -0.8505212 -3.32442413 -0.34390594 0 0 Z " fill="#474B53" transform="translate(136,73)"/>
<path d="M0 0 C0 1.98 0 3.96 0 6 C-2.56149628 6.50567729 -5.12399465 7.00470132 -7.6875 7.5 C-8.7693457 7.71462891 -8.7693457 7.71462891 -9.87304688 7.93359375 C-13.63841359 8.65571887 -17.14473813 9.1824976 -21 9 C-21 7.02 -21 5.04 -21 3 C-18.43850372 2.49432271 -15.87600535 1.99529868 -13.3125 1.5 C-12.59126953 1.35691406 -11.87003906 1.21382813 -11.12695312 1.06640625 C-7.36158641 0.34428113 -3.85526187 -0.1824976 0 0 Z " fill="#434142" transform="translate(89,119)"/>
<path d="M0 0 C3.63 0 7.26 0 11 0 C13 5.625 13 5.625 13 9 C8.05 9 3.1 9 -2 9 C-1.34 6.03 -0.68 3.06 0 0 Z " fill="#BCCEDD" transform="translate(90,200)"/>
<path d="M0 0 C3.3 0 6.6 0 10 0 C10 3.63 10 7.26 10 11 C6.37 11 2.74 11 -1 11 C-0.67 7.37 -0.34 3.74 0 0 Z " fill="#DCE8F1" transform="translate(91,189)"/>
<path d="M0 0 C2.62425451 0.07131126 3.76634814 0.12143428 6 1.5625 C7.16039619 3.47374078 7.68370265 5.11547535 8.0625 7.3125 C3.9407921 9.31090383 0.6222248 9.65025739 -3.9375 9.3125 C-4.9275 8.6525 -5.9175 7.9925 -6.9375 7.3125 C-6.11360708 2.09451149 -5.67054233 0.45004304 0 0 Z " fill="#955536" transform="translate(97.9375,136.6875)"/>
<path d="M0 0 C-2.25044599 2.44457392 -4.55801293 4.09902934 -7.4375 5.75 C-8.19933594 6.19859375 -8.96117188 6.6471875 -9.74609375 7.109375 C-12.43002357 8.16992266 -13.35420682 8.0645795 -16 7 C-18.140625 5.84375 -18.140625 5.84375 -20.25 4.5 C-20.95640625 4.0565625 -21.6628125 3.613125 -22.390625 3.15625 C-22.92171875 2.7746875 -23.4528125 2.393125 -24 2 C-24 1.67 -24 1.34 -24 1 C-15.98603754 0.3533402 -8.04212755 -0.16677223 0 0 Z " fill="#7F4C34" transform="translate(109,167)"/>
<path d="M0 0 C1.0528418 0.07831055 1.0528418 0.07831055 2.12695312 0.15820312 C3.85588054 0.28757865 5.58425355 0.42432531 7.3125 0.5625 C7.3125 0.8925 7.3125 1.2225 7.3125 1.5625 C5.0025 1.5625 2.6925 1.5625 0.3125 1.5625 C0.18875 2.34625 0.065 3.13 -0.0625 3.9375 C-0.6875 6.5625 -0.6875 6.5625 -2.6875 8.5625 C-5.8517235 8.89911952 -7.87263382 9.06193411 -10.625 7.375 C-11.6875 5.5625 -11.6875 5.5625 -11.375 2.875 C-11.148125 2.111875 -10.92125 1.34875 -10.6875 0.5625 C-6.99441024 -0.66852992 -3.80699288 -0.30925152 0 0 Z " fill="#A35F40" transform="translate(103.6875,153.4375)"/>
<path d="M0 0 C3.49180116 -0.17839144 6.97884177 -0.2759871 10.47412109 -0.35888672 C11.66199219 -0.42140625 12.84986328 -0.48392578 14.07373047 -0.54833984 C22.583878 -0.70584678 22.583878 -0.70584678 25.81933594 2.02441406 C27.32457287 4.02448716 28.56042617 5.95910123 29.66162109 8.20361328 C28.67162109 8.20361328 27.68162109 8.20361328 26.66162109 8.20361328 C26.07268066 7.38940918 25.48374023 6.57520508 24.87695312 5.73632812 C22.8775021 2.92843903 22.8775021 2.92843903 19.66894531 2.62011719 C17.95989014 2.64984619 17.95989014 2.64984619 16.21630859 2.68017578 C14.97494141 2.69177734 13.73357422 2.70337891 12.45458984 2.71533203 C10.51519531 2.77140625 10.51519531 2.77140625 8.53662109 2.82861328 C7.23595703 2.84279297 5.93529297 2.85697266 4.59521484 2.87158203 C-1.55573644 2.65677202 -1.55573644 2.65677202 -7.33837891 4.20361328 C-10.03403093 4.03581165 -12.66243445 3.59205683 -15.33837891 3.20361328 C-15.00837891 2.54361328 -14.67837891 1.88361328 -14.33837891 1.20361328 C-9.65090418 0.28789153 -4.76059619 0.29035668 0 0 Z " fill="#52555C" transform="translate(91.33837890625,70.79638671875)"/>
<path d="M0 0 C2 0 2 0 3.625 1.5 C5.53772314 4.97767844 5.82023521 8.17223569 5 12 C2.75771217 14.92743134 1.17813739 16.58605983 -2.3125 17.8125 C-2.869375 17.874375 -3.42625 17.93625 -4 18 C-4 16.35 -4 14.7 -4 13 C-3.34 12.67 -2.68 12.34 -2 12 C-1.30772968 9.19019327 -1.30772968 9.19019327 -0.875 5.9375 C-0.70742187 4.83277344 -0.53984375 3.72804687 -0.3671875 2.58984375 C-0.24601563 1.73519531 -0.12484375 0.88054687 0 0 Z " fill="#A55F3F" transform="translate(139,131)"/>
<path d="M0 0 C0.33 0 0.66 0 1 0 C1.13277344 0.97582031 1.26554687 1.95164063 1.40234375 2.95703125 C1.57894531 4.22933594 1.75554688 5.50164062 1.9375 6.8125 C2.11152344 8.07707031 2.28554688 9.34164062 2.46484375 10.64453125 C2.90392455 13.98321703 2.90392455 13.98321703 4 17 C4.66 17 5.32 17 6 17 C6 17.99 6 18.98 6 20 C0.51193317 19.3902148 0.51193317 19.3902148 -1.67578125 17.72265625 C-4.12247538 14.53978867 -3.49307406 10.82448468 -3 7 C-2.20232845 4.48320872 -1.20720455 2.3641089 0 0 Z " fill="#A25E3F" transform="translate(54,131)"/>
<path d="M0 0 C1.010625 0.0825 2.02125 0.165 3.0625 0.25 C5.0625 3.25 5.0625 3.25 4.75 6.375 C4.0625 9.25 4.0625 9.25 3.0625 10.25 C-3.6575 9.53 -3.6575 9.53 -4.9375 8.25 C-4.09087423 0.34815951 -4.09087423 0.34815951 0 0 Z " fill="#484A4D" transform="translate(81.9375,130.75)"/>
<path d="M0 0 C2.64 0.33 5.28 0.66 8 1 C7.67 4.3 7.34 7.6 7 11 C4.03 10.67 1.06 10.34 -2 10 C-1.34 6.7 -0.68 3.4 0 0 Z " fill="#A7B8C6" transform="translate(136,170)"/>
<path d="M0 0 C1.65 0 3.3 0 5 0 C4.55274891 3.08504662 4.09026448 6.16762281 3.625 9.25 C3.49867188 10.12269531 3.37234375 10.99539062 3.2421875 11.89453125 C3.11328125 12.73886719 2.984375 13.58320313 2.8515625 14.453125 C2.73635254 15.22817383 2.62114258 16.00322266 2.50244141 16.80175781 C1.97506716 19.10908419 1.13993019 20.93413374 0 23 C-0.33 23 -0.66 23 -1 23 C-1.02911321 19.9166866 -1.04683682 16.83340875 -1.0625 13.75 C-1.07087891 12.87730469 -1.07925781 12.00460938 -1.08789062 11.10546875 C-1.09111328 10.26113281 -1.09433594 9.41679687 -1.09765625 8.546875 C-1.10551147 7.38430176 -1.10551147 7.38430176 -1.11352539 6.19824219 C-1.00036998 4.00716402 -0.60552448 2.10362139 0 0 Z " fill="#DCE7F1" transform="translate(134,155)"/>
<path d="M0 0 C3.0625 0.1875 3.0625 0.1875 5.0625 2.1875 C5.43046448 5.05762296 5.43759409 6.59524618 3.875 9.0625 C2.0625 10.1875 2.0625 10.1875 -0.5 10 C-2.9375 9.1875 -2.9375 9.1875 -4.9375 7.1875 C-4.23164336 0.2701049 -4.23164336 0.2701049 0 0 Z " fill="#434548" transform="translate(111.9375,129.8125)"/>
<path d="M0 0 C2.9719385 1.12451727 5.33440687 2.22293791 8 4 C6.35 6.64 4.7 9.28 3 12 C-1.75 10.125 -1.75 10.125 -4 9 C-2.80100302 5.9168649 -1.52299523 2.93720508 0 0 Z " fill="#46489C" transform="translate(74,224)"/>
<path d="M0 0 C3.2576705 1.25295019 3.99656988 2.82812447 5.4375 5.9375 C5.4375 6.5975 5.4375 7.2575 5.4375 7.9375 C1.05288462 10.9375 1.05288462 10.9375 -1.5625 10.9375 C-3.2125 7.9675 -4.8625 4.9975 -6.5625 1.9375 C-2.5625 -0.0625 -2.5625 -0.0625 0 0 Z " fill="#46489B" transform="translate(118.5625,225.0625)"/>
<path d="M0 0 C3.3125 0.125 3.3125 0.125 7 1 C8.80842924 3.74181207 10 5.67867293 10 9 C5.545 9.495 5.545 9.495 1 10 C0.67 6.7 0.34 3.4 0 0 Z " fill="#AABBC8" transform="translate(49,176)"/>
<path d="M0 0 C0.33 0 0.66 0 1 0 C0.88613091 4.65828105 0.67690791 8.73410866 -2.1875 12.5625 C-5 15 -5 15 -8.3125 15.375 C-9.199375 15.25125 -10.08625 15.1275 -11 15 C-11 12 -11 12 -9.35546875 10.3515625 C-8.64003906 9.78179687 -7.92460937 9.21203125 -7.1875 8.625 C-4.02764381 5.99550836 -1.90403067 3.69605954 0 0 Z " fill="#986147" transform="translate(36,193)"/>
<path d="M0 0 C0.33 0.66 0.66 1.32 1 2 C-0.09699219 2.19335938 -1.19398437 2.38671875 -2.32421875 2.5859375 C-3.77869582 2.84868175 -5.23312017 3.11171801 -6.6875 3.375 C-7.40873047 3.50132813 -8.12996094 3.62765625 -8.87304688 3.7578125 C-12.799252 4.47492759 -16.33928805 5.339322 -20 7 C-20.66 6.34 -21.32 5.68 -22 5 C-14.95820611 2.18328245 -7.70287223 -0.4969595 0 0 Z M-24 6 C-23.34 6 -22.68 6 -22 6 C-22.309375 6.721875 -22.61875 7.44375 -22.9375 8.1875 C-24.8392363 13.22150785 -25.10540434 17.6243789 -25 23 C-25.33 23 -25.66 23 -26 23 C-27.26398205 17.78607404 -27.94940666 13.02827787 -25.625 8.0625 C-25.08875 7.381875 -24.5525 6.70125 -24 6 Z " fill="#53555D" transform="translate(74,73)"/>
<path d="M0 0 C2.31 0 4.62 0 7 0 C6.67 7.26 6.34 14.52 6 22 C5.67 22 5.34 22 5 22 C3.35 14.74 1.7 7.48 0 0 Z " fill="#E4EEF6" transform="translate(52,158)"/>
<path d="M0 0 C3.96 0.33 7.92 0.66 12 1 C12 2.65 12 4.3 12 6 C8.7 6 5.4 6 2 6 C2 7.98 2 9.96 2 12 C1.67 12 1.34 12 1 12 C0.67 8.04 0.34 4.08 0 0 Z " fill="#CFD7DD" transform="translate(89,183)"/>
<path d="M0 0 C3.54243452 1.36591169 6.92627929 2.90931484 10.3125 4.625 C11.63701172 5.29402344 11.63701172 5.29402344 12.98828125 5.9765625 C13.65214844 6.31429687 14.31601563 6.65203125 15 7 C14.67 7.66 14.34 8.32 14 9 C6.8444694 9.48512072 6.8444694 9.48512072 3.0625 7.3125 C0.81096104 4.78804723 0.27746492 3.32957907 0 0 Z " fill="#976047" transform="translate(158,189)"/>
<path d="M0 0 C3.63 0 7.26 0 11 0 C11 1.65 11 3.3 11 5 C7.37 5 3.74 5 0 5 C0 3.35 0 1.7 0 0 Z " fill="#E5F1FA" transform="translate(90,195)"/>
<path d="M0 0 C3.49452558 0.65934445 5.56901038 1.3656556 8.3125 3.625 C9.125 5.8125 9.125 5.8125 9.3125 7.625 C8.425625 6.965 7.53875 6.305 6.625 5.625 C2.67482679 3.18071698 2.67482679 3.18071698 -1.6875 3.625 C-3.2034375 4.8934375 -3.2034375 4.8934375 -4.75 6.1875 C-5.719375 6.991875 -6.68875 7.79625 -7.6875 8.625 C-9.87109375 8.27734375 -9.87109375 8.27734375 -11.6875 7.625 C-5.0371732 0.85375817 -5.0371732 0.85375817 0 0 Z " fill="#535562" transform="translate(132.6875,72.375)"/>
<path d="M0 0 C0.66 0.99 1.32 1.98 2 3 C0.5903653 3.70180531 -0.82807641 4.38593958 -2.25 5.0625 C-3.03890625 5.44535156 -3.8278125 5.82820312 -4.640625 6.22265625 C-7.28098551 7.09257635 -8.45939518 7.07357416 -11 6 C-11.33 5.34 -11.66 4.68 -12 4 C-11.34 3.34 -10.68 2.68 -10 2 C-9.01 2.33 -8.02 2.66 -7 3 C-4.63477442 2.07796291 -2.29598193 1.08301035 0 0 Z " fill="#A57055" transform="translate(23,205)"/>
<path d="M0 0 C0.61488281 0.08378906 1.22976562 0.16757813 1.86328125 0.25390625 C3.07564453 0.40666016 3.07564453 0.40666016 4.3125 0.5625 C5.11300781 0.66691406 5.91351563 0.77132812 6.73828125 0.87890625 C9.16817116 1.14755178 9.16817116 1.14755178 12 0 C11.67 1.32 11.34 2.64 11 4 C7.69564916 5.12377697 5.9493138 4.89554742 2.75 3.5625 C2.04359375 3.27503906 1.3371875 2.98757812 0.609375 2.69140625 C0.07828125 2.46324219 -0.4528125 2.23507813 -1 2 C-0.67 1.34 -0.34 0.68 0 0 Z " fill="#A57055" transform="translate(173,194)"/>
<path d="M0 0 C0.66 0 1.32 0 2 0 C3.17990239 3.53970718 3.19569268 6.28183899 3 10 C2.34 11.32 1.68 12.64 1 14 C0.67 9.38 0.34 4.76 0 0 Z " fill="#CF9160" transform="translate(59,185)"/>
<path d="M0 0 C-2.10714286 5.99725275 -2.10714286 5.99725275 -5 8 C-7.1015625 7.5703125 -7.1015625 7.5703125 -9 7 C-7.88121617 5.82737096 -6.75476949 4.66204862 -5.625 3.5 C-4.68527344 2.52546875 -4.68527344 2.52546875 -3.7265625 1.53125 C-2 0 -2 0 0 0 Z " fill="#91563B" transform="translate(35,198)"/>
<path d="M0 0 C0.99 0.33 1.98 0.66 3 1 C1.35 3.64 -0.3 6.28 -2 9 C-3.32 8.34 -4.64 7.68 -6 7 C-5.071875 6.1028125 -5.071875 6.1028125 -4.125 5.1875 C-1.86323046 2.99188856 -1.86323046 2.99188856 0 0 Z " fill="#535598" transform="translate(79,227)"/>
<path d="M0 0 C2.40072955 2.88087546 4.47291037 5.56404834 6 9 C5.01 9.33 4.02 9.66 3 10 C-1.06153846 4.58461538 -1.06153846 4.58461538 -0.75 1.625 C-0.5025 1.08875 -0.255 0.5525 0 0 Z " fill="#5859A4" transform="translate(134,215)"/>
<path d="M0 0 C0.66 0.33 1.32 0.66 2 1 C1.42647107 4.87132028 -0.48704352 7.08172796 -3 10 C-3.66 9.34 -4.32 8.68 -5 8 C-3.35 5.36 -1.7 2.72 0 0 Z " fill="#5859A4" transform="translate(59,215)"/>
<path d="M0 0 C0.33 0 0.66 0 1 0 C0.67 4.29 0.34 8.58 0 13 C-2.60704898 10.39295102 -2.23905333 8.52661759 -2.265625 4.97265625 C-2 3 -2 3 0 0 Z " fill="#D19260" transform="translate(131,187)"/>
<path d="M0 0 C1.65 0 3.3 0 5 0 C4.67 2.31 4.34 4.62 4 7 C3.01 6.67 2.02 6.34 1 6 C0.67 4.02 0.34 2.04 0 0 Z " fill="#E4ECF3" transform="translate(134,155)"/>
<path d="M0 0 C4 1 4 1 5.265625 2.62890625 C6.17708333 4.41927083 7.08854167 6.20963542 8 8 C7.01 8.33 6.02 8.66 5 9 C3.35 6.03 1.7 3.06 0 0 Z " fill="#515296" transform="translate(112,227)"/>
<path d="M0 0 C3.77545388 1.09068668 6.47043472 1.9083091 9 5 C8.01 5.33 7.02 5.66 6 6 C2.8125 4.1875 2.8125 4.1875 0 2 C0 1.34 0 0.68 0 0 Z " fill="#90553A" transform="translate(161,191)"/>
<path d="M0 0 C0.99 0.99 1.98 1.98 3 3 C2.8125 6.625 2.8125 6.625 2 10 C1.01 10.495 1.01 10.495 0 11 C0 7.37 0 3.74 0 0 Z " fill="#CDD5DB" transform="translate(133,167)"/>
<path d="M0 0 C0.66 0.33 1.32 0.66 2 1 C-0.51830747 4.12270126 -1.7261549 4.94523098 -5.75 5.75 C-7.35875 5.87375 -7.35875 5.87375 -9 6 C-3.30379747 1.25316456 -3.30379747 1.25316456 0 0 Z " fill="#8E98A1" transform="translate(106,169)"/>
<path d="M0 0 C0.33 0.66 0.66 1.32 1 2 C-1.75520215 4.95929119 -4.46627288 7.03681826 -8 9 C-6.4169423 4.7257442 -3.49431596 2.73468206 0 0 Z " fill="#BE8463" transform="translate(13,174)"/>
<path d="M0 0 C2.50037734 2.17424117 3.43628586 3.73045798 4 7 C1.525 6.01 1.525 6.01 -1 5 C-0.67 3.35 -0.34 1.7 0 0 Z " fill="#716EAB" transform="translate(129,207)"/>
<path d="M0 0 C0.33 0 0.66 0 1 0 C1 2.97 1 5.94 1 9 C0.01 8.34 -0.98 7.68 -2 7 C-1.125 2.25 -1.125 2.25 0 0 Z " fill="#CC8E5F" transform="translate(132,176)"/>
<path d="M0 0 C0.66 0.33 1.32 0.66 2 1 C-1.87564767 4.61139896 -1.87564767 4.61139896 -4 6 C-6.375 5.8125 -6.375 5.8125 -8 5 C-7.05125 4.54625 -6.1025 4.0925 -5.125 3.625 C-1.99686321 2.19761746 -1.99686321 2.19761746 0 0 Z " fill="#4D515A" transform="translate(129,75)"/>
</svg>
