<svg xmlns="http://www.w3.org/2000/svg" width="441" height="432" viewBox="0 0 441 432">
<g>
<path d="M 125.01 251.77 L 113.88 263.00 L 107.69 262.97 C100.34,262.93 98.00,261.81 98.00,258.30 C98.00,255.13 102.55,249.36 114.12,237.84 C127.70,224.34 127.81,223.68 117.75,213.93 L 117.48 213.66 C101.83,198.50 97.28,194.08 97.94,190.68 C98.22,189.26 99.40,188.02 101.06,186.25 C106.51,180.43 108.26,181.19 123.30,195.97 C123.82,196.48 124.32,196.98 124.81,197.46 C132.83,205.35 136.53,209.00 140.09,208.86 C143.35,208.73 146.49,205.41 152.73,199.25 C171.26,180.96 172.86,180.17 178.80,186.30 C183.88,191.53 183.26,193.42 173.10,203.60 C170.69,206.02 168.40,208.00 168.01,208.00 C167.63,208.00 164.55,210.77 161.16,214.16 C151.78,223.54 151.87,223.89 168.50,241.11 C182.43,255.54 183.87,257.99 180.43,261.43 C179.32,262.54 176.92,263.00 172.26,263.00 L 165.66 263.00 L 154.83 251.87 C144.79,241.55 143.72,240.74 140.07,240.64 C136.34,240.54 135.56,241.12 125.01,251.77 ZM 290.08 251.87 L 279.16 263.00 L 272.65 263.00 C268.07,263.00 265.68,262.54 264.57,261.43 C261.13,257.99 262.57,255.54 276.50,241.11 C293.03,223.99 293.16,223.53 284.15,214.57 C280.93,211.37 277.59,208.35 276.72,207.86 C275.85,207.37 273.42,205.22 271.32,203.07 C261.72,193.26 261.11,191.22 266.30,186.20 C272.38,180.30 274.18,181.28 294.54,201.51 C299.22,206.16 301.83,208.76 304.59,208.94 C308.07,209.17 311.80,205.54 320.26,197.34 L 320.35 197.25 C327.01,190.79 333.06,184.94 333.80,184.25 C336.26,181.96 340.42,182.81 343.80,186.30 C349.61,192.28 348.78,193.64 327.25,213.74 C317.03,223.28 317.21,224.49 330.90,238.00 C350.66,257.50 352.03,263.00 337.15,263.00 L 331.16 263.00 L 319.95 251.77 C309.39,241.20 308.51,240.55 304.87,240.64 C301.31,240.74 300.12,241.64 290.08,251.87 ZM 352.80 162.80 C352.02,163.58 348.27,163.96 342.05,163.90 C331.30,163.78 327.64,163.12 323.81,160.61 C322.35,159.65 318.53,158.64 315.33,158.36 C312.12,158.07 307.02,156.80 304.00,155.53 C300.98,154.26 295.58,152.91 292.00,152.54 C288.38,152.15 284.09,150.98 282.32,149.88 C280.47,148.74 276.06,147.57 271.82,147.10 C266.07,146.45 263.48,145.58 259.75,143.07 C254.42,139.47 254.19,138.54 256.21,128.78 C257.21,123.94 257.83,122.83 259.80,122.33 C263.72,121.35 273.56,122.81 277.15,124.90 C278.99,125.98 283.69,127.29 287.58,127.82 C291.48,128.36 296.43,129.68 298.58,130.77 C300.74,131.85 305.12,133.06 308.33,133.45 C311.54,133.84 315.59,135.00 317.33,136.01 C319.07,137.03 323.70,138.29 327.60,138.83 C331.51,139.36 336.23,140.60 338.10,141.58 C339.97,142.56 343.87,143.69 346.77,144.10 C350.87,144.67 352.70,145.54 355.02,148.02 C358.51,151.75 358.77,154.00 356.00,156.50 C354.90,157.50 354.00,159.05 354.00,159.95 C354.00,160.86 353.46,162.14 352.80,162.80 ZM 119.32 160.97 C116.28,162.77 113.48,163.29 104.52,163.73 C94.83,164.21 93.29,164.06 92.03,162.54 C90.31,160.46 90.02,147.58 91.66,145.94 C92.25,145.35 95.16,144.53 98.12,144.11 C101.08,143.70 105.03,142.56 106.90,141.58 C108.77,140.60 113.49,139.36 117.40,138.83 C121.30,138.29 125.90,137.04 127.62,136.04 C129.33,135.04 133.16,133.90 136.12,133.50 C139.08,133.10 143.98,131.76 147.00,130.52 C150.02,129.28 155.19,127.96 158.48,127.60 C161.77,127.23 166.02,126.00 167.94,124.87 C171.69,122.66 184.51,121.20 186.72,122.73 C188.19,123.76 190.60,137.00 189.73,139.27 C189.38,140.17 187.27,141.39 185.04,141.99 C182.80,142.59 179.51,143.92 177.73,144.93 C175.96,145.94 171.62,147.01 168.11,147.30 C164.00,147.65 160.76,148.54 159.06,149.79 C157.43,151.00 153.43,152.15 148.63,152.79 C143.97,153.42 140.09,154.51 138.97,155.53 C137.83,156.56 134.35,157.52 130.08,157.99 C125.82,158.46 121.60,159.63 119.32,160.97 ZM 183.81 323.92 C179.78,325.32 177.22,325.23 173.40,323.57 C170.17,322.17 169.00,320.33 169.00,316.67 C168.99,313.28 183.15,300.30 188.34,298.93 C190.63,298.33 194.07,296.86 196.00,295.67 C199.24,293.67 201.03,293.48 220.31,293.18 C240.98,292.86 241.15,292.87 246.00,295.41 C248.69,296.81 252.66,298.24 254.83,298.59 C257.80,299.06 260.70,300.91 266.57,306.06 C276.19,314.51 276.69,315.33 274.72,319.47 C271.21,326.82 262.74,326.59 254.83,318.93 C252.01,316.20 248.76,313.77 247.60,313.52 C246.45,313.28 242.80,312.52 239.50,311.84 C231.03,310.10 213.06,310.33 203.20,312.31 C194.65,314.03 188.66,317.34 187.50,321.01 C187.18,322.01 185.52,323.32 183.81,323.92 Z" fill="rgb(64,70,98)"/>
<path d="M 278.28 265.60 C274.08,267.42 269.24,267.31 265.50,265.31 C261.70,263.28 261.03,262.25 261.02,258.32 C260.99,252.81 262.53,250.58 275.43,237.47 C282.34,230.45 288.00,224.15 288.00,223.49 C288.00,222.82 284.99,219.40 281.30,215.89 C265.43,200.75 261.00,195.71 261.00,192.76 C261.00,186.47 265.95,181.00 271.66,181.00 C277.10,181.00 279.33,182.47 291.24,193.92 C299.97,202.31 303.40,205.00 305.40,205.00 C307.41,205.00 310.49,202.57 318.27,194.85 C330.19,183.03 333.12,181.01 338.35,181.00 C341.40,181.00 342.91,181.71 345.60,184.40 C348.42,187.22 349.00,188.54 349.00,192.13 C349.00,196.39 348.76,196.70 335.49,209.48 C328.06,216.64 321.98,222.91 321.99,223.40 C321.99,223.90 326.87,229.30 332.82,235.40 C348.39,251.38 349.00,252.24 349.00,258.05 C349.00,262.18 348.61,263.21 346.49,264.60 C342.88,266.96 336.17,267.45 332.00,265.64 C330.08,264.81 323.78,259.37 318.02,253.56 C310.19,245.68 306.89,243.00 305.00,243.00 C303.10,243.00 299.82,245.68 291.98,253.60 C286.22,259.44 280.05,264.84 278.28,265.60 ZM 113.13 265.56 C108.63,267.48 104.25,267.37 100.00,265.25 C97.02,263.76 96.45,262.92 96.18,259.60 C96.00,257.45 96.12,254.66 96.44,253.39 C96.76,252.13 102.86,245.02 110.01,237.61 C117.15,230.19 123.01,223.75 123.02,223.31 C123.03,222.86 116.95,216.65 109.51,209.50 C96.18,196.70 95.97,196.43 95.99,192.15 C96.00,188.55 96.58,187.22 99.40,184.40 C102.09,181.71 103.60,181.00 106.65,181.00 C111.88,181.01 114.81,183.03 126.73,194.85 C134.51,202.57 137.59,205.00 139.60,205.00 C141.60,205.00 145.03,202.31 153.76,193.92 C165.80,182.34 167.87,181.00 173.64,181.00 C179.67,181.00 185.15,188.30 183.63,194.32 C183.08,196.55 177.88,202.14 163.62,215.89 C159.98,219.40 157.00,222.84 157.00,223.54 C157.00,224.24 162.21,230.08 168.58,236.52 C181.64,249.71 184.00,253.00 183.98,258.00 C183.97,262.32 183.35,263.29 179.30,265.36 C171.38,269.42 166.02,267.03 152.97,253.61 C145.10,245.52 142.02,243.00 140.05,243.00 C138.09,243.00 134.92,245.57 126.98,253.56 C121.22,259.37 114.98,264.77 113.13,265.56 ZM 125.01 251.77 C135.56,241.12 136.34,240.54 140.07,240.64 C143.72,240.74 144.79,241.55 154.83,251.87 L 165.66 263.00 L 172.26 263.00 C176.92,263.00 179.32,262.54 180.43,261.43 C183.87,257.99 182.43,255.54 168.50,241.11 C151.87,223.89 151.78,223.54 161.16,214.16 C164.55,210.77 167.63,208.00 168.01,208.00 C168.40,208.00 170.69,206.02 173.10,203.60 C183.26,193.42 183.88,191.53 178.80,186.30 C172.86,180.17 171.26,180.96 152.73,199.25 C146.49,205.41 143.35,208.73 140.09,208.86 C136.53,209.00 132.83,205.35 124.81,197.46 C124.32,196.98 123.82,196.48 123.30,195.97 C108.26,181.19 106.51,180.43 101.06,186.25 C99.40,188.02 98.22,189.26 97.94,190.68 C97.28,194.08 101.83,198.50 117.48,213.66 L 117.75 213.93 C127.81,223.68 127.70,224.34 114.12,237.84 C102.55,249.36 98.00,255.13 98.00,258.30 C98.00,261.81 100.34,262.93 107.69,262.97 L 113.88 263.00 ZM 290.08 251.87 C300.12,241.64 301.31,240.74 304.87,240.64 C308.51,240.55 309.39,241.20 319.95,251.77 L 331.16 263.00 L 337.15 263.00 C352.03,263.00 350.66,257.50 330.90,238.00 C317.21,224.49 317.03,223.28 327.25,213.74 C348.78,193.64 349.61,192.28 343.80,186.30 C340.42,182.81 336.26,181.96 333.80,184.25 C333.06,184.94 327.01,190.79 320.35,197.25 L 320.26 197.34 C311.80,205.54 308.07,209.17 304.59,208.94 C301.83,208.76 299.22,206.16 294.54,201.51 C274.18,181.28 272.38,180.30 266.30,186.20 C261.11,191.22 261.72,193.26 271.32,203.07 C273.42,205.22 275.85,207.37 276.72,207.86 C277.59,208.35 280.93,211.37 284.15,214.57 C293.16,223.53 293.03,223.99 276.50,241.11 C262.57,255.54 261.13,257.99 264.57,261.43 C265.68,262.54 268.07,263.00 272.65,263.00 L 279.16 263.00 ZM 113.00 165.58 C102.06,167.91 96.91,168.19 93.50,166.66 C88.43,164.37 87.89,163.02 88.21,153.35 L 88.50 144.50 L 93.00 143.10 C95.47,142.33 99.53,140.91 102.00,139.94 C104.47,138.97 108.75,137.85 111.50,137.46 C114.25,137.06 118.58,135.92 121.11,134.94 C123.65,133.95 128.58,132.62 132.07,131.99 C135.56,131.35 139.71,130.17 141.28,129.35 C142.86,128.54 147.15,127.27 150.82,126.53 C154.50,125.79 160.09,124.23 163.26,123.08 C169.49,120.80 182.17,119.32 186.37,120.38 C190.77,121.48 195.21,133.04 193.64,139.30 C192.90,142.24 182.01,147.51 174.50,148.56 C171.75,148.94 166.63,150.32 163.13,151.63 C159.63,152.93 155.70,154.00 154.40,154.00 C153.11,154.00 149.14,155.09 145.60,156.43 C142.05,157.76 136.98,159.17 134.32,159.55 C131.67,159.93 127.47,161.08 125.00,162.11 C122.53,163.14 117.12,164.70 113.00,165.58 ZM 187.83 324.98 C183.40,329.48 182.45,329.99 178.69,329.92 C176.18,329.87 173.86,329.17 172.90,328.17 C172.02,327.25 170.33,325.72 169.15,324.76 C167.41,323.35 167.00,321.94 167.00,317.38 L 167.00 311.74 L 174.01 305.06 C185.73,293.88 197.72,290.05 221.11,290.02 C238.44,290.00 243.54,290.81 255.50,295.53 C262.92,298.46 265.69,300.21 271.25,305.48 C277.69,311.58 278.00,312.09 278.00,316.51 C278.00,321.78 276.89,324.30 273.14,327.61 C270.03,330.36 263.90,330.79 261.25,328.46 C253.66,321.79 249.70,318.31 245.08,316.49 C240.04,314.50 234.21,314.50 222.00,314.51 L 222.00 314.51 C202.64,314.52 202.47,314.54 197.63,317.24 C194.96,318.74 190.54,322.22 187.83,324.98 ZM 119.32 160.97 C121.60,159.63 125.82,158.46 130.08,157.99 C134.35,157.52 137.83,156.56 138.97,155.53 C140.09,154.51 143.97,153.42 148.63,152.79 C153.43,152.15 157.43,151.00 159.06,149.79 C160.76,148.54 164.00,147.65 168.11,147.30 C171.62,147.01 175.96,145.94 177.73,144.93 C179.51,143.92 182.80,142.59 185.04,141.99 C187.27,141.39 189.38,140.17 189.73,139.27 C190.60,137.00 188.19,123.76 186.72,122.73 C184.51,121.20 171.69,122.66 167.94,124.87 C166.02,126.00 161.77,127.23 158.48,127.60 C155.19,127.96 150.02,129.28 147.00,130.52 C143.98,131.76 139.08,133.10 136.12,133.50 C133.16,133.90 129.33,135.04 127.62,136.04 C125.90,137.04 121.30,138.29 117.40,138.83 C113.49,139.36 108.77,140.60 106.90,141.58 C105.03,142.56 101.08,143.70 98.12,144.11 C95.16,144.53 92.25,145.35 91.66,145.94 C90.02,147.58 90.31,160.46 92.03,162.54 C93.29,164.06 94.83,164.21 104.52,163.73 C113.48,163.29 116.28,162.77 119.32,160.97 ZM 183.81 323.92 C185.52,323.32 187.18,322.01 187.50,321.01 C188.66,317.34 194.65,314.03 203.20,312.31 C213.06,310.33 231.03,310.10 239.50,311.84 C242.80,312.52 246.45,313.28 247.60,313.52 C248.76,313.77 252.01,316.20 254.83,318.93 C262.74,326.59 271.21,326.82 274.72,319.47 C276.69,315.33 276.19,314.51 266.57,306.06 C260.70,300.91 257.80,299.06 254.83,298.59 C252.66,298.24 248.69,296.81 246.00,295.41 C241.15,292.87 240.98,292.86 220.31,293.18 C201.03,293.48 199.24,293.67 196.00,295.67 C194.07,296.86 190.63,298.33 188.34,298.93 C183.15,300.30 168.99,313.28 169.00,316.67 C169.00,320.33 170.17,322.17 173.40,323.57 C177.22,325.23 179.78,325.32 183.81,323.92 ZM 352.80 162.80 C353.46,162.14 354.00,160.86 354.00,159.95 C354.00,159.05 354.90,157.50 356.00,156.50 C356.55,156.00 356.98,155.51 357.29,155.02 C357.14,161.59 356.80,162.59 354.39,165.11 C351.95,167.66 350.98,167.98 346.06,167.87 C343.00,167.80 338.48,167.16 336.00,166.45 C333.52,165.74 330.25,165.12 328.72,165.08 C327.19,165.04 324.26,164.26 322.22,163.36 C320.17,162.46 314.00,160.69 308.50,159.43 C295.53,156.46 287.26,154.29 278.00,151.45 C273.88,150.18 268.48,148.83 266.00,148.45 C257.02,147.08 251.00,142.04 251.00,135.92 C251.00,131.97 253.78,125.16 256.77,121.75 C258.94,119.29 268.69,119.44 277.52,122.09 C281.36,123.23 287.20,124.82 290.50,125.61 C293.80,126.41 298.52,127.76 301.00,128.62 C303.48,129.48 309.20,131.02 313.73,132.04 C318.26,133.07 322.84,134.38 323.93,134.96 C325.01,135.54 329.26,136.66 333.38,137.45 C337.49,138.23 342.15,139.54 343.72,140.35 C345.28,141.16 348.13,142.12 350.03,142.49 C355.81,143.58 357.18,144.75 357.32,151.08 C356.85,150.16 356.09,149.16 355.02,148.02 C352.70,145.54 350.87,144.67 346.77,144.10 C343.87,143.69 339.97,142.56 338.10,141.58 C336.23,140.60 331.51,139.36 327.60,138.83 C323.70,138.29 319.07,137.03 317.33,136.01 C315.59,135.00 311.54,133.84 308.33,133.45 C305.12,133.06 300.74,131.85 298.58,130.77 C296.43,129.68 291.48,128.36 287.58,127.82 C283.69,127.29 278.99,125.98 277.15,124.90 C273.56,122.81 263.72,121.35 259.80,122.33 C257.83,122.83 257.21,123.94 256.21,128.78 C254.19,138.54 254.42,139.47 259.75,143.07 C263.48,145.58 266.07,146.45 271.82,147.10 C276.06,147.57 280.47,148.74 282.32,149.88 C284.09,150.98 288.38,152.15 292.00,152.54 C295.58,152.91 300.98,154.26 304.00,155.53 C307.02,156.80 312.12,158.07 315.33,158.36 C318.53,158.64 322.35,159.65 323.81,160.61 C327.64,163.12 331.30,163.78 342.05,163.90 C348.27,163.96 352.02,163.58 352.80,162.80 Z" fill="rgb(89,77,138)"/>
<path d="M 266.71 399.09 C265.57,400.92 263.71,401.00 220.51,400.98 L 175.50 400.96 L 173.33 398.48 C171.23,396.09 170.71,396.00 158.58,396.00 C151.66,396.00 146.00,395.60 146.00,395.12 C146.00,393.28 139.65,391.74 131.59,391.62 C125.14,391.53 122.76,391.10 121.28,389.76 C120.22,388.80 117.27,387.72 114.71,387.37 C112.12,387.02 109.33,385.91 108.38,384.87 C107.45,383.84 105.70,383.00 104.50,383.00 C103.30,383.00 101.51,382.11 100.52,381.03 C99.54,379.94 97.80,378.75 96.66,378.39 C95.51,378.03 93.74,376.67 92.72,375.37 C91.69,374.06 90.28,373.00 89.57,373.00 C87.70,373.00 70.30,354.59 68.53,350.75 C67.71,348.96 66.66,346.83 66.19,346.00 C62.63,339.72 61.00,335.69 61.00,333.19 C61.00,331.58 60.18,329.20 59.19,327.88 C57.84,326.12 57.48,324.27 57.79,320.75 L 58.20 316.00 L 161.92 316.00 L 162.95 312.25 C163.64,309.75 165.54,307.17 168.66,304.50 C171.24,302.30 174.51,299.36 175.92,297.96 C179.12,294.82 188.40,290.67 197.00,288.55 C200.57,287.67 205.07,286.52 207.00,286.00 C208.93,285.48 216.00,285.04 222.71,285.02 C232.42,285.00 235.92,285.39 239.77,286.91 C242.44,287.96 246.84,289.14 249.56,289.53 C252.28,289.92 255.85,291.03 257.50,292.00 C259.15,292.97 262.19,294.30 264.25,294.96 C266.31,295.62 268.00,296.49 268.00,296.89 C268.00,297.29 270.86,299.99 274.36,302.89 C279.07,306.78 281.04,309.18 281.90,312.07 L 283.07 315.98 L 381.50 316.50 L 381.80 321.20 C381.99,324.04 381.49,327.08 380.55,328.90 C379.70,330.55 379.00,333.43 379.00,335.30 C379.00,337.41 378.25,339.37 377.02,340.48 C375.93,341.47 374.76,343.76 374.42,345.57 C374.08,347.39 372.95,349.64 371.90,350.59 C370.86,351.54 370.00,352.69 370.00,353.15 C370.00,353.61 366.06,357.99 361.25,362.88 C356.44,367.78 351.38,373.18 350.01,374.89 C348.58,376.67 346.58,378.00 345.32,378.00 C344.11,378.00 342.81,378.50 342.43,379.11 C342.05,379.72 339.37,381.27 336.46,382.56 C333.56,383.84 330.89,385.37 330.53,385.95 C330.17,386.53 328.65,387.00 327.15,387.00 C325.65,387.00 322.64,387.96 320.46,389.13 C317.47,390.75 314.53,391.31 308.43,391.44 C300.88,391.59 294.00,393.29 294.00,394.99 C294.00,395.41 288.13,396.07 280.95,396.47 C269.66,397.09 267.74,397.44 266.71,399.09 ZM 280.60 268.11 C275.38,271.98 268.90,272.12 263.94,268.46 C259.90,265.48 259.16,263.95 259.07,258.32 C258.96,251.63 260.48,249.22 271.80,238.05 C277.69,232.25 283.35,226.50 284.38,225.28 L 286.26 223.06 L 279.38 216.52 C275.60,212.92 269.69,207.20 266.25,203.80 L 260.00 197.62 L 260.00 191.73 C260.00,186.56 260.35,185.49 262.92,182.92 C265.51,180.34 266.52,180.01 271.67,180.07 C274.88,180.11 278.27,180.45 279.21,180.82 C280.15,181.19 285.88,186.37 291.95,192.32 C300.84,201.04 303.47,203.07 305.47,202.82 C307.04,202.62 311.99,198.50 319.03,191.53 L 330.11 180.56 L 337.02 180.17 C343.62,179.80 344.07,179.92 346.97,182.81 C349.66,185.51 350.00,186.50 350.00,191.79 L 350.00 197.73 L 343.67 204.12 C340.19,207.63 335.51,212.10 333.27,214.06 C331.02,216.02 328.02,219.01 326.59,220.71 L 324.01 223.78 L 337.18 236.99 L 350.35 250.20 L 350.80 255.55 C351.04,258.50 350.96,262.04 350.61,263.43 C349.64,267.30 343.43,271.00 337.91,271.00 C332.25,271.00 328.49,268.31 315.69,255.09 C310.85,250.09 306.11,246.00 305.17,246.00 C304.23,246.00 299.19,250.32 293.98,255.61 C288.77,260.89 282.74,266.52 280.60,268.11 ZM 116.11 267.61 C110.44,271.98 104.35,272.28 98.74,268.47 C94.45,265.56 93.58,263.05 94.21,255.44 L 94.67 249.98 L 107.33 237.41 C114.30,230.50 120.00,224.24 120.00,223.50 C120.00,222.75 117.26,219.53 113.91,216.32 C97.96,201.08 95.27,198.03 94.70,194.54 C93.92,189.73 95.59,184.47 98.67,182.05 C101.64,179.71 110.62,179.20 114.32,181.16 C115.52,181.80 121.22,186.96 127.00,192.64 C134.20,199.72 138.23,202.97 139.82,202.98 C141.45,203.00 145.35,199.81 152.82,192.38 C158.70,186.54 164.54,181.37 165.82,180.88 C167.09,180.40 170.61,180.00 173.64,180.00 C178.40,180.00 179.55,180.40 182.08,182.92 C184.59,185.44 185.00,186.61 185.00,191.29 C185.00,197.22 183.32,200.07 175.68,207.02 C173.59,208.94 168.90,213.31 165.26,216.73 L 158.66 222.97 L 160.58 225.23 C161.64,226.48 167.36,232.32 173.31,238.22 C184.27,249.08 186.00,251.87 186.00,258.70 C186.00,265.91 180.56,271.00 172.84,271.00 C167.18,271.00 163.97,268.73 151.02,255.61 C145.81,250.32 140.73,246.00 139.74,246.00 C138.74,246.00 134.01,250.10 129.22,255.11 C124.42,260.12 118.52,265.75 116.11,267.61 ZM 278.28 265.60 C280.05,264.84 286.22,259.44 291.98,253.60 C299.82,245.68 303.10,243.00 305.00,243.00 C306.89,243.00 310.19,245.68 318.02,253.56 C323.78,259.37 330.08,264.81 332.00,265.64 C336.17,267.45 342.88,266.96 346.49,264.60 C348.61,263.21 349.00,262.18 349.00,258.05 C349.00,252.24 348.39,251.38 332.82,235.40 C326.87,229.30 321.99,223.90 321.99,223.40 C321.98,222.91 328.06,216.64 335.49,209.48 C348.76,196.70 349.00,196.39 349.00,192.13 C349.00,188.54 348.42,187.22 345.60,184.40 C342.91,181.71 341.40,181.00 338.35,181.00 C333.12,181.01 330.19,183.03 318.27,194.85 C310.49,202.57 307.41,205.00 305.40,205.00 C303.40,205.00 299.97,202.31 291.24,193.92 C279.33,182.47 277.10,181.00 271.66,181.00 C265.95,181.00 261.00,186.47 261.00,192.76 C261.00,195.71 265.43,200.75 281.30,215.89 C284.99,219.40 288.00,222.82 288.00,223.49 C288.00,224.15 282.34,230.45 275.43,237.47 C262.53,250.58 260.99,252.81 261.02,258.32 C261.03,262.25 261.70,263.28 265.50,265.31 C269.24,267.31 274.08,267.42 278.28,265.60 ZM 113.13 265.56 C114.98,264.77 121.22,259.37 126.98,253.56 C134.92,245.57 138.09,243.00 140.05,243.00 C142.02,243.00 145.10,245.52 152.97,253.61 C166.02,267.03 171.38,269.42 179.30,265.36 C183.35,263.29 183.97,262.32 183.98,258.00 C184.00,253.00 181.64,249.71 168.58,236.52 C162.21,230.08 157.00,224.24 157.00,223.54 C157.00,222.84 159.98,219.40 163.62,215.89 C177.88,202.14 183.08,196.55 183.63,194.32 C185.15,188.30 179.67,181.00 173.64,181.00 C167.87,181.00 165.80,182.34 153.76,193.92 C145.03,202.31 141.60,205.00 139.60,205.00 C137.59,205.00 134.51,202.57 126.73,194.85 C114.81,183.03 111.88,181.01 106.65,181.00 C103.60,181.00 102.09,181.71 99.40,184.40 C96.58,187.22 96.00,188.55 95.99,192.15 C95.97,196.43 96.18,196.70 109.51,209.50 C116.95,216.65 123.03,222.86 123.02,223.31 C123.01,223.75 117.15,230.19 110.01,237.61 C102.86,245.02 96.76,252.13 96.44,253.39 C96.12,254.66 96.00,257.45 96.18,259.60 C96.45,262.92 97.02,263.76 100.00,265.25 C104.25,267.37 108.63,267.48 113.13,265.56 ZM 108.15 168.51 C100.81,171.93 95.28,171.52 90.75,167.23 C88.08,164.70 88.00,164.30 88.00,153.89 L 88.00 143.16 L 91.75 142.01 C93.81,141.38 97.07,140.05 99.00,139.05 C100.93,138.05 105.20,136.92 108.50,136.55 C111.80,136.17 116.11,135.04 118.08,134.03 C120.05,133.03 124.87,131.71 128.78,131.10 C132.69,130.50 137.37,129.15 139.19,128.10 C141.01,127.06 145.20,125.89 148.49,125.50 C151.78,125.11 156.19,123.92 158.28,122.86 C163.11,120.39 182.32,118.23 187.13,119.61 C189.08,120.17 191.36,121.89 192.61,123.75 C195.13,127.49 196.51,136.52 195.13,140.17 C193.72,143.87 186.08,147.91 177.73,149.38 C173.75,150.08 169.06,151.40 167.31,152.32 C165.55,153.24 161.21,154.40 157.66,154.91 C154.11,155.41 150.10,156.55 148.74,157.43 C147.39,158.32 142.73,159.67 138.39,160.44 C134.05,161.21 128.48,162.77 126.00,163.90 C123.53,165.03 119.70,165.97 117.50,165.99 C115.30,166.01 111.09,167.14 108.15,168.51 ZM 113.00 165.58 C117.12,164.70 122.53,163.14 125.00,162.11 C127.47,161.08 131.67,159.93 134.32,159.55 C136.98,159.17 142.05,157.76 145.60,156.43 C149.14,155.09 153.11,154.00 154.40,154.00 C155.70,154.00 159.63,152.93 163.13,151.63 C166.63,150.32 171.75,148.94 174.50,148.56 C182.01,147.51 192.90,142.24 193.64,139.30 C195.21,133.04 190.77,121.48 186.37,120.38 C182.17,119.32 169.49,120.80 163.26,123.08 C160.09,124.23 154.50,125.79 150.82,126.53 C147.15,127.27 142.86,128.54 141.28,129.35 C139.71,130.17 135.56,131.35 132.07,131.99 C128.58,132.62 123.65,133.95 121.11,134.94 C118.58,135.92 114.25,137.06 111.50,137.46 C108.75,137.85 104.47,138.97 102.00,139.94 C99.53,140.91 95.47,142.33 93.00,143.10 L 88.50 144.50 L 88.21 153.35 C87.89,163.02 88.43,164.37 93.50,166.66 C96.91,168.19 102.06,167.91 113.00,165.58 ZM 187.83 324.98 C190.54,322.22 194.96,318.74 197.63,317.24 C202.47,314.54 202.64,314.52 222.00,314.51 L 222.00 314.51 C234.21,314.50 240.04,314.50 245.08,316.49 C249.70,318.31 253.66,321.79 261.25,328.46 C263.90,330.79 270.03,330.36 273.14,327.61 C276.89,324.30 278.00,321.78 278.00,316.51 C278.00,312.09 277.69,311.58 271.25,305.48 C265.69,300.21 262.92,298.46 255.50,295.53 C243.54,290.81 238.44,290.00 221.11,290.02 C197.72,290.05 185.73,293.88 174.01,305.06 L 167.00 311.74 L 167.00 317.38 C167.00,321.94 167.41,323.35 169.15,324.76 C170.33,325.72 172.02,327.25 172.90,328.17 C173.86,329.17 176.18,329.87 178.69,329.92 C182.45,329.99 183.40,329.48 187.83,324.98 ZM 354.08 168.08 C351.64,170.51 350.34,171.00 346.33,170.98 C343.60,170.97 339.54,170.05 337.00,168.88 C334.52,167.74 329.39,166.40 325.58,165.91 C321.78,165.42 317.57,164.30 316.23,163.42 C314.89,162.54 309.76,161.21 304.82,160.47 C299.88,159.73 294.77,158.42 293.46,157.56 C292.15,156.71 287.89,155.55 283.99,155.00 C280.10,154.45 275.24,153.15 273.20,152.13 C271.17,151.10 267.02,149.96 264.00,149.59 C259.30,149.01 257.79,148.25 253.62,144.36 C248.76,139.83 248.74,139.79 249.28,134.59 C249.84,129.14 254.46,120.80 257.58,119.61 C261.98,117.92 281.42,120.15 286.96,122.98 C288.92,123.98 293.11,125.12 296.28,125.52 C299.45,125.91 303.72,127.09 305.77,128.14 C307.82,129.19 312.65,130.53 316.50,131.12 C320.35,131.71 324.85,133.00 326.50,133.99 C328.15,134.98 332.42,136.11 336.00,136.49 C339.58,136.87 343.91,138.00 345.63,138.99 C347.35,139.98 350.13,141.09 351.81,141.46 C355.45,142.26 356.59,143.41 357.02,147.63 C356.38,144.24 354.56,143.34 350.03,142.49 C348.13,142.12 345.28,141.16 343.72,140.35 C342.15,139.54 337.49,138.23 333.38,137.45 C329.26,136.66 325.01,135.54 323.93,134.96 C322.84,134.38 318.26,133.07 313.73,132.04 C309.20,131.02 303.48,129.48 301.00,128.62 C298.52,127.76 293.80,126.41 290.50,125.61 C287.20,124.82 281.36,123.23 277.52,122.09 C268.69,119.44 258.94,119.29 256.77,121.75 C253.78,125.16 251.00,131.97 251.00,135.92 C251.00,142.04 257.02,147.08 266.00,148.45 C268.48,148.83 273.88,150.18 278.00,151.45 C287.26,154.29 295.53,156.46 308.50,159.43 C314.00,160.69 320.17,162.46 322.22,163.36 C324.26,164.26 327.19,165.04 328.72,165.08 C330.25,165.12 333.52,165.74 336.00,166.45 C338.48,167.16 343.00,167.80 346.06,167.87 C350.98,167.98 351.95,167.66 354.39,165.11 C356.80,162.59 357.14,161.59 357.29,155.02 C357.32,154.98 357.34,154.94 357.37,154.89 C357.50,162.51 356.64,165.52 354.08,168.08 Z" fill="rgb(113,77,195)"/>
<path d="M 100.60 381.11 C100.33,380.91 100.07,380.71 99.82,380.50 C98.18,379.12 96.09,377.98 95.17,377.96 C91.16,377.88 69.69,357.11 65.91,349.66 C65.59,349.02 64.59,347.15 63.69,345.50 C62.80,343.85 61.55,341.38 60.92,340.00 C60.29,338.62 58.92,335.65 57.89,333.39 C56.85,331.13 56.00,328.41 56.00,327.35 C56.00,326.29 55.07,323.64 53.93,321.46 C52.67,319.04 51.56,314.30 51.08,309.29 C50.62,304.60 49.58,300.01 48.64,298.58 C47.24,296.43 47.00,292.72 47.00,272.99 L 47.00 249.91 L 44.01 248.20 C41.09,246.54 41.01,246.31 41.01,238.75 L 41.00 231.00 L 73.85 231.00 C105.42,231.00 106.76,230.92 108.50,229.00 C109.50,227.90 110.92,227.00 111.65,227.00 C113.88,227.00 113.29,221.21 110.86,219.24 C106.57,215.76 100.13,209.40 96.61,205.16 C93.10,200.93 93.00,200.58 93.00,192.46 C93.00,182.84 94.27,180.68 101.82,177.47 C106.02,175.69 106.29,175.69 111.61,177.49 C115.45,178.80 118.83,181.02 122.89,184.93 C136.13,197.64 138.80,200.00 139.94,200.00 C141.09,200.00 142.77,198.51 156.56,185.27 C160.91,181.09 164.18,178.92 168.21,177.56 L 173.80 175.65 L 179.64 178.58 C184.90,181.21 185.56,181.90 186.31,185.50 C186.77,187.70 186.98,192.27 186.78,195.65 C186.46,201.10 186.00,202.26 182.67,205.94 C180.61,208.22 176.51,212.21 173.56,214.79 C170.62,217.38 167.62,220.82 166.91,222.43 C165.76,225.02 165.82,225.47 167.47,226.43 C168.49,227.02 170.15,228.29 171.16,229.25 C172.86,230.87 176.72,231.00 222.50,231.00 C268.28,231.00 272.14,230.87 273.84,229.25 C274.85,228.29 276.51,227.02 277.53,226.43 C279.20,225.46 279.25,225.02 278.07,222.18 C277.35,220.43 276.42,219.00 276.01,219.00 C274.65,219.00 259.80,203.54 258.89,201.18 C257.88,198.55 257.86,187.74 258.87,184.00 C259.34,182.29 261.33,180.56 265.21,178.52 L 270.88 175.55 L 276.63 177.50 C280.83,178.93 284.03,181.03 288.44,185.27 C302.15,198.43 303.90,200.00 304.94,200.00 C305.99,200.00 309.78,196.67 322.09,184.92 C326.17,181.03 329.59,178.79 333.42,177.48 L 338.91 175.62 L 344.05 178.02 C351.16,181.35 352.00,182.90 352.00,192.63 C352.00,200.55 351.88,200.95 348.43,205.09 C344.76,209.48 338.04,216.15 334.18,219.24 C331.71,221.21 331.09,227.00 333.35,227.00 C334.08,227.00 335.50,227.90 336.50,229.00 C338.23,230.91 339.58,231.00 366.79,231.00 C368.42,231.00 369.96,231.00 371.42,231.00 C389.66,230.98 395.38,230.98 397.17,233.63 C397.98,234.84 397.98,236.60 397.97,239.17 C397.97,239.62 397.97,240.09 397.97,240.59 C398.00,246.13 397.77,246.78 395.50,247.82 C393.91,248.54 393.00,249.78 392.99,251.23 C392.82,287.86 392.43,296.61 390.82,299.00 C389.85,300.44 388.85,304.67 388.46,309.00 C388.09,313.12 387.13,317.53 386.34,318.79 C385.54,320.06 384.63,323.36 384.30,326.13 C383.97,328.89 382.87,332.79 381.85,334.79 C380.83,336.79 380.00,339.04 380.00,339.80 C380.00,340.56 379.10,342.33 378.00,343.73 C376.90,345.13 376.00,346.90 376.00,347.68 C376.00,350.84 354.11,374.00 351.12,374.00 C350.98,374.00 350.80,374.06 350.62,374.16 C352.53,371.95 356.99,367.22 361.25,362.88 C366.06,357.99 370.00,353.61 370.00,353.15 C370.00,352.69 370.86,351.54 371.90,350.59 C372.95,349.64 374.08,347.39 374.42,345.57 C374.76,343.76 375.93,341.47 377.02,340.48 C378.25,339.37 379.00,337.41 379.00,335.30 C379.00,333.43 379.70,330.55 380.55,328.90 C381.49,327.08 381.99,324.04 381.80,321.20 L 381.50 316.50 L 283.07 315.98 L 281.90 312.07 C281.04,309.18 279.07,306.78 274.36,302.89 C270.86,299.99 268.00,297.29 268.00,296.89 C268.00,296.49 266.31,295.62 264.25,294.96 C262.19,294.30 259.15,292.97 257.50,292.00 C255.85,291.03 252.28,289.92 249.56,289.53 C246.84,289.14 242.44,287.96 239.77,286.91 C235.92,285.39 232.42,285.00 222.71,285.02 C216.00,285.04 208.93,285.48 207.00,286.00 C205.07,286.52 200.57,287.67 197.00,288.55 C188.40,290.67 179.12,294.82 175.92,297.96 C174.51,299.36 171.24,302.30 168.66,304.50 C165.54,307.17 163.64,309.75 162.95,312.25 L 161.92 316.00 L 58.20 316.00 L 57.79 320.75 C57.48,324.27 57.84,326.12 59.19,327.88 C60.18,329.20 61.00,331.58 61.00,333.19 C61.00,335.69 62.63,339.72 66.19,346.00 C66.66,346.83 67.71,348.96 68.53,350.75 C70.30,354.59 87.70,373.00 89.57,373.00 C90.28,373.00 91.69,374.06 92.72,375.37 C93.74,376.67 95.51,378.03 96.66,378.39 C97.80,378.75 99.54,379.94 100.52,381.03 C100.55,381.05 100.57,381.08 100.60,381.11 ZM 280.60 268.11 C282.74,266.52 288.77,260.89 293.98,255.61 C299.19,250.32 304.23,246.00 305.17,246.00 C306.11,246.00 310.85,250.09 315.69,255.09 C328.49,268.31 332.25,271.00 337.91,271.00 C343.43,271.00 349.64,267.30 350.61,263.43 C350.96,262.04 351.04,258.50 350.80,255.55 L 350.35 250.20 L 337.18 236.99 L 324.01 223.78 L 326.59 220.71 C328.02,219.01 331.02,216.02 333.27,214.06 C335.51,212.10 340.19,207.63 343.67,204.12 L 350.00 197.73 L 350.00 191.79 C350.00,186.50 349.66,185.51 346.97,182.81 C344.07,179.92 343.62,179.80 337.02,180.17 L 330.11 180.56 L 319.03 191.53 C311.99,198.50 307.04,202.62 305.47,202.82 C303.47,203.07 300.84,201.04 291.95,192.32 C285.88,186.37 280.15,181.19 279.21,180.82 C278.27,180.45 274.88,180.11 271.67,180.07 C266.52,180.01 265.51,180.34 262.92,182.92 C260.35,185.49 260.00,186.56 260.00,191.73 L 260.00 197.62 L 266.25 203.80 C269.69,207.20 275.60,212.92 279.38,216.52 L 286.26 223.06 L 284.38 225.28 C283.35,226.50 277.69,232.25 271.80,238.05 C260.48,249.22 258.96,251.63 259.07,258.32 C259.16,263.95 259.90,265.48 263.94,268.46 C268.90,272.12 275.38,271.98 280.60,268.11 ZM 116.11 267.61 C118.52,265.75 124.42,260.12 129.22,255.11 C134.01,250.10 138.74,246.00 139.74,246.00 C140.73,246.00 145.81,250.32 151.02,255.61 C163.97,268.73 167.18,271.00 172.84,271.00 C180.56,271.00 186.00,265.91 186.00,258.70 C186.00,251.87 184.27,249.08 173.31,238.22 C167.36,232.32 161.64,226.48 160.58,225.23 L 158.66 222.97 L 165.26 216.73 C168.90,213.31 173.59,208.94 175.68,207.02 C183.32,200.07 185.00,197.22 185.00,191.29 C185.00,186.61 184.59,185.44 182.08,182.92 C179.55,180.40 178.40,180.00 173.64,180.00 C170.61,180.00 167.09,180.40 165.82,180.88 C164.54,181.37 158.70,186.54 152.82,192.38 C145.35,199.81 141.45,203.00 139.82,202.98 C138.23,202.97 134.20,199.72 127.00,192.64 C121.22,186.96 115.52,181.80 114.32,181.16 C110.62,179.20 101.64,179.71 98.67,182.05 C95.59,184.47 93.92,189.73 94.70,194.54 C95.27,198.03 97.96,201.08 113.91,216.32 C117.26,219.53 120.00,222.75 120.00,223.50 C120.00,224.24 114.30,230.50 107.33,237.41 L 94.67 249.98 L 94.21 255.44 C93.58,263.05 94.45,265.56 98.74,268.47 C104.35,272.28 110.44,271.98 116.11,267.61 ZM 108.15 168.51 C111.09,167.14 115.30,166.01 117.50,165.99 C119.70,165.97 123.53,165.03 126.00,163.90 C128.48,162.77 134.05,161.21 138.39,160.44 C142.73,159.67 147.39,158.32 148.74,157.43 C150.10,156.55 154.11,155.41 157.66,154.91 C161.21,154.40 165.55,153.24 167.31,152.32 C169.06,151.40 173.75,150.08 177.73,149.38 C186.08,147.91 193.72,143.87 195.13,140.17 C196.51,136.52 195.13,127.49 192.61,123.75 C191.36,121.89 189.08,120.17 187.13,119.61 C186.80,119.51 186.41,119.44 185.96,119.38 C188.70,119.55 190.80,119.88 191.77,120.38 C195.52,122.32 196.05,123.69 196.72,133.10 C197.34,141.68 196.98,142.65 191.76,146.80 C188.83,149.12 186.58,149.92 181.39,150.47 C177.50,150.89 172.89,152.18 170.23,153.59 C166.94,155.34 164.11,156.00 159.89,156.00 C155.29,156.00 153.67,156.43 152.14,158.08 C150.06,160.31 144.69,161.92 139.00,162.01 C137.07,162.04 133.70,163.17 131.50,164.53 C128.54,166.35 126.07,167.00 122.00,167.01 C117.72,167.03 115.39,167.69 111.50,170.00 C107.39,172.44 105.43,172.95 100.50,172.90 C93.85,172.84 92.32,172.45 89.75,170.21 C88.25,168.91 88.00,166.81 88.00,155.40 L 88.00 153.89 C88.00,164.30 88.08,164.70 90.75,167.23 C95.28,171.52 100.81,171.93 108.15,168.51 ZM 354.08 168.08 C355.71,166.45 356.65,164.64 357.09,161.57 C356.59,168.50 356.08,170.46 354.55,171.59 C353.28,172.51 349.97,173.00 344.96,173.00 C338.11,173.00 336.84,172.68 332.90,170.02 C329.25,167.54 327.48,167.03 322.50,167.01 C318.09,166.98 315.42,166.36 312.43,164.65 C309.69,163.08 305.99,162.12 301.11,161.71 C295.94,161.28 292.60,160.37 289.50,158.55 C286.44,156.76 283.69,156.00 280.27,156.00 C277.17,156.00 273.59,155.13 270.45,153.61 C267.73,152.29 263.53,150.93 261.12,150.57 C257.74,150.08 255.70,148.92 252.25,145.52 L 247.77 141.10 L 248.15 134.28 C248.49,128.28 248.96,126.93 252.02,123.12 L 255.50 118.78 L 261.51 119.05 C259.79,119.11 258.41,119.29 257.58,119.61 C254.46,120.80 249.84,129.14 249.28,134.59 C248.74,139.79 248.76,139.83 253.62,144.36 C257.79,148.25 259.30,149.01 264.00,149.59 C267.02,149.96 271.17,151.10 273.20,152.13 C275.24,153.15 280.10,154.45 283.99,155.00 C287.89,155.55 292.15,156.71 293.46,157.56 C294.77,158.42 299.88,159.73 304.82,160.47 C309.76,161.21 314.89,162.54 316.23,163.42 C317.57,164.30 321.78,165.42 325.58,165.91 C329.39,166.40 334.52,167.74 337.00,168.88 C339.54,170.05 343.60,170.97 346.33,170.98 C350.34,171.00 351.64,170.51 354.08,168.08 ZM 357.39 151.23 C357.37,151.18 357.34,151.13 357.32,151.08 C357.29,149.70 357.20,148.57 357.02,147.63 C356.59,143.41 355.45,142.26 351.81,141.46 C350.13,141.09 347.35,139.98 345.63,138.99 C343.91,138.00 339.58,136.87 336.00,136.49 C332.42,136.11 328.15,134.98 326.50,133.99 C324.85,133.00 320.35,131.71 316.50,131.12 C312.65,130.53 307.82,129.19 305.77,128.14 C303.72,127.09 299.45,125.91 296.28,125.52 C293.11,125.12 288.92,123.98 286.96,122.98 C283.94,121.44 276.82,120.08 270.23,119.43 L 271.00 119.46 C283.88,120.03 286.95,120.46 289.16,122.03 C290.76,123.17 294.89,124.30 299.55,124.88 C304.36,125.48 308.28,126.57 309.90,127.77 C311.61,129.03 314.86,129.88 319.36,130.24 C324.13,130.62 327.09,131.43 329.09,132.91 C330.95,134.29 334.14,135.23 338.23,135.62 C342.03,135.99 346.90,137.36 350.61,139.13 L 356.72 142.03 L 357.23 147.27 C357.32,148.25 357.38,149.64 357.39,151.23 ZM 180.39 119.21 C172.74,119.46 161.76,121.08 158.28,122.86 C156.19,123.92 151.78,125.11 148.49,125.50 C145.20,125.89 141.01,127.06 139.19,128.10 C137.37,129.15 132.69,130.50 128.78,131.10 C124.87,131.71 120.05,133.03 118.08,134.03 C116.11,135.04 111.80,136.17 108.50,136.55 C105.20,136.92 100.93,138.05 99.00,139.05 C97.07,140.05 93.81,141.38 91.75,142.01 L 88.00 143.16 L 88.00 142.11 L 93.25 139.45 C96.23,137.94 101.47,136.41 105.36,135.91 C109.25,135.41 113.71,134.10 115.67,132.89 C117.90,131.52 121.49,130.57 125.81,130.22 C130.16,129.88 133.41,129.01 135.10,127.77 C136.72,126.57 140.64,125.48 145.50,124.87 C150.29,124.28 154.20,123.20 155.61,122.09 C157.81,120.36 170.52,119.19 180.39,119.21 ZM 292.09 395.49 C293.30,395.31 294.00,395.14 294.00,394.99 C294.00,393.29 300.88,391.59 308.43,391.44 C313.32,391.33 316.18,390.95 318.66,389.97 C316.30,391.12 313.72,392.00 312.61,392.00 C311.35,392.00 308.11,392.69 305.41,393.53 C303.49,394.13 298.17,394.89 292.09,395.49 ZM 146.97 395.46 C141.46,394.85 136.69,394.10 135.02,393.51 C132.67,392.68 129.29,392.00 127.51,392.00 C126.10,392.00 124.18,391.44 122.74,390.65 C124.34,391.31 126.88,391.55 131.59,391.62 C139.65,391.74 146.00,393.28 146.00,395.12 C146.00,395.24 146.34,395.35 146.97,395.46 ZM 175.04 400.43 C173.04,400.32 172.00,400.18 172.00,400.04 C172.00,398.01 168.00,397.14 153.87,396.09 C152.53,395.99 151.16,395.88 149.82,395.75 C152.09,395.90 155.18,396.00 158.58,396.00 C170.71,396.00 171.23,396.09 173.33,398.48 ZM 266.71 399.09 C267.52,397.79 268.88,397.30 274.94,396.84 C269.38,397.38 267.84,397.93 266.84,399.09 C266.69,399.26 266.53,399.42 266.33,399.57 C266.49,399.42 266.60,399.27 266.71,399.09 ZM 349.01 375.98 L 349.00 376.00 C348.38,377.15 346.91,378.00 345.52,378.00 C344.20,378.00 342.81,378.50 342.43,379.11 C342.81,378.50 344.11,378.00 345.32,378.00 C346.31,378.00 347.75,377.19 349.01,375.98 ZM 246.91 400.95 C240.18,400.99 231.04,401.00 218.59,401.00 C214.21,401.00 210.09,400.99 206.26,400.98 L 220.51 400.98 C231.96,400.99 240.51,400.98 246.91,400.95 ZM 120.82 389.41 C119.21,388.50 116.68,387.64 114.62,387.36 C113.11,387.15 111.49,386.67 110.24,386.09 C111.50,386.67 113.15,387.16 114.71,387.37 C116.96,387.68 119.52,388.55 120.82,389.41 ZM 323.39 387.85 C324.00,387.64 324.60,387.45 325.15,387.31 C324.61,387.45 324.01,387.64 323.39,387.85 ZM 357.37 155.15 L 357.38 154.88 C357.38,154.97 357.37,155.06 357.37,155.15 Z" fill="rgb(132,85,215)"/>
<path d="M 380.14 338.99 C380.43,337.94 381.09,336.29 381.85,334.79 C382.87,332.79 383.97,328.89 384.30,326.13 C384.63,323.36 385.54,320.06 386.34,318.79 C387.13,317.53 388.09,313.12 388.46,309.00 C388.85,304.67 389.85,300.44 390.82,299.00 C392.43,296.61 392.82,287.86 392.99,251.23 C393.00,249.78 393.91,248.54 395.50,247.82 C397.77,246.78 398.00,246.13 397.97,240.59 C397.97,240.09 397.97,239.62 397.97,239.18 L 397.97 239.17 C397.98,236.60 397.98,234.84 397.17,233.63 C395.38,230.98 389.66,230.98 371.42,231.00 C369.96,231.00 368.42,231.00 366.79,231.00 C339.58,231.00 338.23,230.91 336.50,229.00 C335.50,227.90 334.08,227.00 333.35,227.00 C331.09,227.00 331.71,221.21 334.18,219.24 C338.04,216.15 344.76,209.48 348.43,205.09 C351.88,200.95 352.00,200.55 352.00,192.63 C352.00,182.90 351.16,181.35 344.05,178.02 L 338.91 175.62 L 333.42 177.48 C329.59,178.79 326.17,181.03 322.09,184.92 C309.78,196.67 305.99,200.00 304.94,200.00 C303.90,200.00 302.15,198.43 288.44,185.27 C284.03,181.03 280.83,178.93 276.63,177.50 L 270.88 175.55 L 265.21 178.52 C261.33,180.56 259.34,182.29 258.87,184.00 C257.86,187.74 257.88,198.55 258.89,201.18 C259.80,203.54 274.65,219.00 276.01,219.00 C276.42,219.00 277.35,220.43 278.07,222.18 C279.25,225.02 279.20,225.46 277.53,226.43 C276.51,227.02 274.85,228.29 273.84,229.25 C272.14,230.87 268.28,231.00 222.50,231.00 C176.72,231.00 172.86,230.87 171.16,229.25 C170.15,228.29 168.49,227.02 167.47,226.43 C165.82,225.47 165.76,225.02 166.91,222.43 C167.62,220.82 170.62,217.38 173.56,214.79 C176.51,212.21 180.61,208.22 182.67,205.94 C186.00,202.26 186.46,201.10 186.78,195.65 C186.98,192.27 186.77,187.70 186.31,185.50 C185.56,181.90 184.90,181.21 179.64,178.58 L 173.80 175.65 L 168.21 177.56 C164.18,178.92 160.91,181.09 156.56,185.27 C142.77,198.51 141.09,200.00 139.94,200.00 C138.80,200.00 136.13,197.64 122.89,184.93 C118.83,181.02 115.45,178.80 111.61,177.49 C106.29,175.69 106.02,175.69 101.82,177.47 C94.27,180.68 93.00,182.84 93.00,192.46 C93.00,200.58 93.10,200.93 96.61,205.16 C100.13,209.40 106.57,215.76 110.86,219.24 C113.29,221.21 113.88,227.00 111.65,227.00 C110.92,227.00 109.50,227.90 108.50,229.00 C106.76,230.92 105.42,231.00 73.85,231.00 L 41.00 231.00 C41.00,230.50 41.00,229.99 41.00,229.47 L 41.00 228.67 C41.00,196.17 41.17,192.47 42.70,190.78 C44.03,189.31 44.70,185.13 45.76,171.70 C46.61,160.96 47.84,152.24 49.04,148.50 C50.09,145.20 51.41,140.25 51.97,137.50 C52.53,134.75 53.88,130.70 54.97,128.50 C56.07,126.30 57.66,122.93 58.52,121.00 C61.69,113.88 63.67,110.93 71.00,102.46 C83.66,87.82 98.09,79.62 127.00,70.65 C140.35,66.50 143.04,66.02 161.00,64.56 C187.61,62.39 251.17,62.39 278.50,64.55 C296.55,65.98 299.67,66.50 310.50,69.97 C317.10,72.09 323.74,74.09 325.26,74.43 C329.83,75.45 349.12,85.01 354.86,89.10 C365.16,96.45 379.28,113.87 382.63,123.36 C383.40,125.54 384.43,127.82 384.92,128.41 C386.23,130.00 391.11,149.43 392.11,157.00 C392.57,160.57 393.44,168.90 394.03,175.50 C394.62,182.10 395.76,188.77 396.55,190.33 C398.78,194.69 398.69,263.58 396.46,266.05 C395.31,267.31 394.63,271.88 393.84,283.63 C393.24,292.56 392.20,300.61 391.47,302.04 C390.75,303.44 389.68,308.07 389.09,312.33 C388.49,316.60 387.33,321.39 386.50,322.99 C385.68,324.59 385.00,326.57 385.00,327.40 C385.00,328.22 383.88,331.01 382.50,333.60 C381.42,335.63 380.49,337.78 380.14,338.99 ZM 357.39 151.23 C357.38,149.64 357.32,148.25 357.23,147.27 L 356.72 142.03 L 350.61 139.13 C346.90,137.36 342.03,135.99 338.23,135.62 C334.14,135.23 330.95,134.29 329.09,132.91 C327.09,131.43 324.13,130.62 319.36,130.24 C314.86,129.88 311.61,129.03 309.90,127.77 C308.28,126.57 304.36,125.48 299.55,124.88 C294.89,124.30 290.76,123.17 289.16,122.03 C286.95,120.46 283.88,120.03 271.00,119.46 L 270.23 119.43 C267.01,119.11 263.93,118.96 261.51,119.05 L 255.50 118.78 L 252.02 123.12 C248.96,126.93 248.49,128.28 248.15,134.28 L 247.77 141.10 L 252.25 145.52 C255.70,148.92 257.74,150.08 261.12,150.57 C263.53,150.93 267.73,152.29 270.45,153.61 C273.59,155.13 277.17,156.00 280.27,156.00 C283.69,156.00 286.44,156.76 289.50,158.55 C292.60,160.37 295.94,161.28 301.11,161.71 C305.99,162.12 309.69,163.08 312.43,164.65 C315.42,166.36 318.09,166.98 322.50,167.01 C327.48,167.03 329.25,167.54 332.90,170.02 C336.84,172.68 338.11,173.00 344.96,173.00 C349.97,173.00 353.28,172.51 354.55,171.59 C356.08,170.46 356.59,168.50 357.09,161.57 C357.33,159.87 357.41,157.79 357.37,155.15 C357.37,155.06 357.38,154.97 357.38,154.88 C358.04,153.74 358.05,152.58 357.39,151.23 ZM 180.39 119.21 C170.52,119.19 157.81,120.36 155.61,122.09 C154.20,123.20 150.29,124.28 145.50,124.87 C140.64,125.48 136.72,126.57 135.10,127.77 C133.41,129.01 130.16,129.88 125.81,130.22 C121.49,130.57 117.90,131.52 115.67,132.89 C113.71,134.10 109.25,135.41 105.36,135.91 C101.47,136.41 96.23,137.94 93.25,139.45 L 88.00 142.11 L 88.00 155.40 C88.00,166.81 88.25,168.91 89.75,170.21 C92.32,172.45 93.85,172.84 100.50,172.90 C105.43,172.95 107.39,172.44 111.50,170.00 C115.39,167.69 117.72,167.03 122.00,167.01 C126.07,167.00 128.54,166.35 131.50,164.53 C133.70,163.17 137.07,162.04 139.00,162.01 C144.69,161.92 150.06,160.31 152.14,158.08 C153.67,156.43 155.29,156.00 159.89,156.00 C164.11,156.00 166.94,155.34 170.23,153.59 C172.89,152.18 177.50,150.89 181.39,150.47 C186.58,149.92 188.83,149.12 191.76,146.80 C196.98,142.65 197.34,141.68 196.72,133.10 C196.05,123.69 195.52,122.32 191.77,120.38 C190.80,119.88 188.70,119.55 185.96,119.38 C184.57,119.18 182.62,119.14 180.39,119.21 ZM 42.90 266.41 C41.15,264.82 41.01,262.91 41.00,231.28 L 41.01 238.75 C41.01,246.31 41.09,246.54 44.01,248.20 L 47.00 249.91 L 47.00 272.99 C47.00,292.72 47.24,296.43 48.64,298.58 C49.58,300.01 50.62,304.60 51.08,309.29 C51.44,313.13 52.18,316.80 53.07,319.40 C48.89,309.64 46.29,296.47 45.47,280.82 C44.91,270.15 44.50,267.86 42.90,266.41 ZM 292.09 395.49 C296.56,395.05 300.61,394.52 303.21,394.03 C300.04,394.75 295.29,395.55 291.41,396.00 C274.37,397.93 272.49,398.26 270.96,399.59 C270.62,399.89 268.15,400.14 264.17,400.35 C265.39,400.15 265.97,399.90 266.33,399.57 C266.53,399.42 266.69,399.26 266.84,399.09 C267.84,397.93 269.38,397.38 274.94,396.84 C276.58,396.72 278.55,396.60 280.95,396.47 C285.65,396.21 289.79,395.83 292.09,395.49 ZM 146.97 395.46 C147.63,395.57 148.61,395.67 149.82,395.75 C151.16,395.88 152.53,395.99 153.87,396.09 C168.00,397.14 172.00,398.01 172.00,400.04 C172.00,400.18 173.04,400.32 175.04,400.43 L 175.09 400.49 C170.33,400.28 167.34,400.01 166.98,399.68 C165.57,398.40 157.64,396.89 144.50,395.40 C141.89,395.10 138.56,394.47 136.23,393.84 C138.45,394.37 142.47,394.96 146.97,395.46 ZM 240.77 400.98 C225.87,401.18 208.06,401.18 193.67,400.97 L 206.26 400.98 C210.09,400.99 214.21,401.00 218.59,401.00 C227.60,401.00 234.88,401.00 240.77,400.98 ZM 55.10 324.03 C55.64,325.42 56.00,326.69 56.00,327.35 C56.00,328.41 56.85,331.13 57.89,333.39 C56.85,331.13 56.00,328.46 56.00,327.46 C56.00,326.81 55.64,325.49 55.10,324.03 ZM 311.25 392.13 C311.81,392.05 312.28,392.00 312.61,392.00 C312.61,392.00 312.62,392.00 312.63,392.00 C312.30,392.00 311.82,392.05 311.25,392.13 Z" fill="rgb(155,103,229)"/>
<path d="M 349.01 375.98 C349.36,375.65 349.70,375.28 350.01,374.89 C350.17,374.69 350.37,374.45 350.62,374.16 C350.80,374.06 350.98,374.00 351.12,374.00 C354.11,374.00 376.00,350.84 376.00,347.68 C376.00,346.90 376.90,345.13 378.00,343.73 C379.10,342.33 380.00,340.56 380.00,339.80 C380.00,339.62 380.05,339.33 380.14,338.99 L 380.14 338.99 C380.49,337.78 381.42,335.63 382.50,333.60 C383.88,331.01 385.00,328.22 385.00,327.40 C385.00,326.57 385.68,324.59 386.50,322.99 C387.33,321.39 388.49,316.60 389.09,312.33 C389.68,308.07 390.75,303.44 391.47,302.04 C392.20,300.61 393.24,292.56 393.84,283.63 C394.63,271.88 395.31,267.31 396.46,266.05 C398.69,263.58 398.78,194.69 396.55,190.33 C395.76,188.77 394.62,182.10 394.03,175.50 C393.44,168.90 392.57,160.57 392.11,157.00 C391.11,149.43 386.23,130.00 384.92,128.41 C384.43,127.82 383.40,125.54 382.63,123.36 C379.28,113.87 365.16,96.45 354.86,89.10 C349.12,85.01 329.83,75.45 325.26,74.43 C323.74,74.09 317.10,72.09 310.50,69.97 C299.67,66.50 296.55,65.98 278.50,64.55 C251.17,62.39 187.61,62.39 161.00,64.56 C143.04,66.02 140.35,66.50 127.00,70.65 C98.09,79.62 83.66,87.82 71.00,102.46 C63.67,110.93 61.69,113.88 58.52,121.00 C57.66,122.93 56.07,126.30 54.97,128.50 C53.88,130.70 52.53,134.75 51.97,137.50 C51.41,140.25 50.09,145.20 49.04,148.50 C47.84,152.24 46.61,160.96 45.76,171.70 C44.70,185.13 44.03,189.31 42.70,190.78 C41.21,192.43 41.01,195.96 41.00,225.97 C41.00,225.23 41.00,224.49 41.00,223.75 C41.00,175.42 41.23,165.39 42.40,164.08 C43.20,163.18 44.26,158.20 44.87,152.45 C45.46,146.92 46.57,140.62 47.33,138.45 C48.09,136.28 49.02,132.70 49.41,130.50 C50.61,123.63 54.85,113.13 62.65,97.75 C65.00,93.10 78.84,76.15 81.37,74.82 C82.54,74.20 85.31,72.22 87.51,70.42 C91.60,67.09 110.78,57.00 113.03,57.00 C114.60,57.00 130.64,51.51 134.55,49.63 C136.23,48.82 142.60,47.92 149.40,47.53 C155.94,47.15 162.47,46.32 163.90,45.69 C165.71,44.89 181.49,44.44 215.90,44.21 C257.04,43.93 266.57,44.13 272.90,45.40 C277.08,46.23 285.23,47.22 291.00,47.58 C297.40,47.99 303.26,48.96 306.00,50.06 C308.48,51.06 314.33,53.09 319.00,54.57 C330.11,58.08 346.74,66.10 354.58,71.75 C369.60,82.55 386.48,109.98 390.06,129.38 C390.66,132.62 391.62,136.44 392.18,137.88 C392.75,139.32 393.83,145.61 394.57,151.85 C395.31,158.09 396.50,163.90 397.21,164.75 C399.02,166.93 399.11,280.69 397.31,281.81 C396.61,282.24 395.73,287.07 395.17,293.54 C394.65,299.58 393.51,306.23 392.64,308.32 C391.77,310.41 390.75,314.45 390.39,317.31 C390.02,320.16 388.89,324.17 387.86,326.21 C386.84,328.25 386.00,330.66 386.00,331.57 C386.00,332.48 385.11,334.86 384.02,336.86 C382.93,338.86 381.55,341.62 380.97,343.00 C379.82,345.69 377.07,350.31 372.86,356.64 C369.85,361.16 356.63,373.74 353.25,375.29 C352.01,375.86 351.00,376.63 351.00,377.01 C351.00,377.98 341.15,384.00 339.57,384.00 C338.85,384.00 337.13,384.90 335.73,386.00 C334.33,387.10 332.57,388.00 331.83,388.00 C331.08,388.00 328.85,388.87 326.87,389.93 C324.89,390.99 321.52,392.15 319.39,392.50 C317.25,392.85 313.02,393.97 310.00,394.99 C306.98,396.01 300.48,397.12 295.56,397.45 C289.86,397.82 286.03,398.57 285.00,399.50 C283.32,401.02 224.65,401.51 186.55,400.97 L 193.67 400.97 C208.06,401.18 225.87,401.18 240.76,400.98 L 240.77 400.98 C243.01,400.97 245.04,400.96 246.90,400.95 L 246.91 400.95 C257.08,400.88 261.82,400.72 264.17,400.35 C268.15,400.14 270.62,399.89 270.96,399.59 C272.49,398.26 274.37,397.93 291.41,396.00 C295.29,395.55 300.04,394.75 303.21,394.03 C304.15,393.86 304.90,393.69 305.41,393.53 C307.40,392.91 309.68,392.37 311.25,392.13 C311.82,392.05 312.30,392.00 312.63,392.00 C313.68,391.99 315.98,391.23 318.19,390.20 C318.35,390.13 318.51,390.05 318.66,389.97 C319.28,389.73 319.87,389.45 320.46,389.13 C321.35,388.65 322.38,388.21 323.39,387.85 C323.42,387.84 323.46,387.83 323.49,387.82 C324.06,387.62 324.63,387.45 325.15,387.31 L 325.15 387.31 C325.94,387.11 326.63,387.00 327.15,387.00 C328.65,387.00 330.17,386.53 330.53,385.95 C330.89,385.37 333.56,383.84 336.46,382.56 C339.37,381.27 342.05,379.72 342.43,379.11 C342.81,378.50 344.20,378.00 345.52,378.00 C346.91,378.00 348.38,377.15 349.00,376.00 ZM 42.90 266.41 C44.50,267.86 44.91,270.15 45.47,280.82 C46.29,296.47 48.89,309.64 53.07,319.40 C53.35,320.20 53.63,320.89 53.93,321.46 C54.36,322.29 54.76,323.18 55.10,324.03 C55.64,325.49 56.00,326.81 56.00,327.46 C56.00,328.46 56.85,331.13 57.89,333.39 C58.92,335.65 60.29,338.62 60.92,340.00 C61.55,341.38 62.80,343.85 63.69,345.50 C64.59,347.15 65.59,349.02 65.91,349.66 C69.69,357.11 91.16,377.88 95.17,377.96 C96.09,377.98 98.18,379.12 99.82,380.50 C100.07,380.71 100.33,380.91 100.60,381.11 C101.60,382.16 103.33,383.00 104.50,383.00 C105.70,383.00 107.45,383.84 108.38,384.87 C108.75,385.28 109.42,385.70 110.24,386.09 L 110.25 386.09 C111.50,386.67 113.11,387.15 114.62,387.36 C116.68,387.64 119.21,388.50 120.82,389.41 C121.00,389.52 121.15,389.64 121.28,389.76 C121.68,390.12 122.15,390.41 122.74,390.65 C124.18,391.44 126.10,392.00 127.51,392.00 C129.29,392.00 132.67,392.68 135.02,393.51 C135.32,393.61 135.73,393.73 136.23,393.84 C138.56,394.47 141.89,395.10 144.50,395.40 C157.64,396.89 165.57,398.40 166.98,399.68 C167.34,400.01 170.33,400.28 175.09,400.49 L 175.32 400.76 C163.13,400.48 154.87,400.06 154.50,399.50 C153.78,398.40 150.87,397.80 144.00,397.35 C138.59,396.99 132.44,395.91 129.71,394.86 C127.08,393.84 123.71,392.99 122.21,392.97 C120.72,392.95 117.25,391.83 114.50,390.48 C111.75,389.13 108.78,388.01 107.90,388.01 C107.02,388.00 105.27,387.10 104.00,386.00 C102.73,384.90 101.01,384.00 100.17,384.00 C98.06,384.00 83.59,373.97 77.41,368.23 C74.62,365.63 70.79,361.25 68.91,358.50 C67.04,355.75 65.21,353.27 64.85,353.00 C63.40,351.87 54.19,333.13 53.52,329.94 C53.13,328.05 52.19,325.53 51.44,324.34 C50.69,323.15 49.64,319.55 49.12,316.34 C48.60,313.13 47.46,309.15 46.59,307.50 C45.70,305.81 45.01,302.05 45.01,298.89 C45.00,291.98 43.30,282.62 41.98,282.17 C41.55,282.02 41.25,272.09 41.10,253.97 C41.28,264.14 41.73,265.35 42.90,266.41 Z" fill="rgb(193,148,237)"/>
<path d="M 0.00 216.00 L 0.00 0.00 L 220.50 0.00 L 441.00 0.00 L 441.00 216.00 L 441.00 432.00 L 220.50 432.00 L 0.00 432.00 L 0.00 216.00 ZM 285.00 399.50 C286.03,398.57 289.86,397.82 295.56,397.45 C300.48,397.12 306.98,396.01 310.00,394.99 C313.02,393.97 317.25,392.85 319.39,392.50 C321.52,392.15 324.89,390.99 326.87,389.93 C328.85,388.87 331.08,388.00 331.83,388.00 C332.57,388.00 334.33,387.10 335.73,386.00 C337.13,384.90 338.85,384.00 339.57,384.00 C341.15,384.00 351.00,377.98 351.00,377.01 C351.00,376.63 352.01,375.86 353.25,375.29 C356.63,373.74 369.85,361.16 372.86,356.64 C377.07,350.31 379.82,345.69 380.97,343.00 C381.55,341.62 382.93,338.86 384.02,336.86 C385.11,334.86 386.00,332.48 386.00,331.57 C386.00,330.66 386.84,328.25 387.86,326.21 C388.89,324.17 390.02,320.16 390.39,317.31 C390.75,314.45 391.77,310.41 392.64,308.32 C393.51,306.23 394.65,299.58 395.17,293.54 C395.73,287.07 396.61,282.24 397.31,281.81 C399.11,280.69 399.02,166.93 397.21,164.75 C396.50,163.90 395.31,158.09 394.57,151.85 C393.83,145.61 392.75,139.32 392.18,137.88 C391.62,136.44 390.66,132.62 390.06,129.38 C386.48,109.98 369.60,82.55 354.58,71.75 C346.74,66.10 330.11,58.08 319.00,54.57 C314.33,53.09 308.48,51.06 306.00,50.06 C303.26,48.96 297.40,47.99 291.00,47.58 C285.23,47.22 277.08,46.23 272.90,45.40 C266.57,44.13 257.04,43.93 215.90,44.21 C181.49,44.44 165.71,44.89 163.90,45.69 C162.47,46.32 155.94,47.15 149.40,47.53 C142.60,47.92 136.23,48.82 134.55,49.63 C130.64,51.51 114.60,57.00 113.03,57.00 C110.78,57.00 91.60,67.09 87.51,70.42 C85.31,72.22 82.54,74.20 81.37,74.82 C78.84,76.15 65.00,93.10 62.65,97.75 C54.85,113.13 50.61,123.63 49.41,130.50 C49.02,132.70 48.09,136.28 47.33,138.45 C46.57,140.62 45.46,146.92 44.87,152.45 C44.26,158.20 43.20,163.18 42.40,164.08 C41.23,165.39 41.00,175.42 41.00,223.75 C41.00,260.81 41.35,281.95 41.98,282.17 C43.30,282.62 45.00,291.98 45.01,298.89 C45.01,302.05 45.70,305.81 46.59,307.50 C47.46,309.15 48.60,313.13 49.12,316.34 C49.64,319.55 50.69,323.15 51.44,324.34 C52.19,325.53 53.13,328.05 53.52,329.94 C54.19,333.13 63.40,351.87 64.85,353.00 C65.21,353.27 67.04,355.75 68.91,358.50 C70.79,361.25 74.62,365.63 77.41,368.23 C83.59,373.97 98.06,384.00 100.17,384.00 C101.01,384.00 102.73,384.90 104.00,386.00 C105.27,387.10 107.02,388.00 107.90,388.01 C108.78,388.01 111.75,389.13 114.50,390.48 C117.25,391.83 120.72,392.95 122.21,392.97 C123.71,392.99 127.08,393.84 129.71,394.86 C132.44,395.91 138.59,396.99 144.00,397.35 C150.87,397.80 153.78,398.40 154.50,399.50 C155.98,401.74 282.52,401.74 285.00,399.50 Z" fill="rgb(254,254,254)"/>
</g>
</svg>