<?xml version="1.0" encoding="UTF-8"?>
<svg version="1.1" xmlns="http://www.w3.org/2000/svg" width="192" height="256">
<path d="M0 0 C9.15429518 7.89754327 14.50566927 18.36104267 16.50390625 30.16015625 C16.54215248 32.49317611 16.54964909 34.82727133 16.50390625 37.16015625 C21.16544667 35.66180397 22.37001376 32.27552034 24.50390625 28.16015625 C32.13350904 28.41030716 38.38999254 30.43624343 44.50390625 35.16015625 C46.85916366 39.59111529 46.9025257 43.39838252 45.50390625 48.16015625 C44.14148385 50.9981869 42.6292419 53.70562592 41.05859375 56.43359375 C36.75900548 63.9740777 34.05435169 71.913106 31.96875 80.31640625 C31.39996073 82.57244436 30.83250016 84.23369508 29.50390625 86.16015625 C28.78203125 86.26328125 28.06015625 86.36640625 27.31640625 86.47265625 C24.15924558 87.24440664 23.58300122 87.9034656 21.44140625 90.22265625 C17.56305553 94.38291352 13.08993284 97.1878009 8.2734375 100.16796875 C5.39173765 102.2408417 3.67068483 104.37243712 1.50390625 107.16015625 C0.63378906 107.7634375 -0.23632812 108.36671875 -1.1328125 108.98828125 C-4.29405146 111.89348598 -4.70410531 114.83659719 -5.30859375 118.91015625 C-5.42912109 119.60753906 -5.54964844 120.30492187 -5.67382812 121.0234375 C-5.96649293 122.73259994 -6.2338627 124.44606063 -6.49609375 126.16015625 C-5.83609375 126.16015625 -5.17609375 126.16015625 -4.49609375 126.16015625 C-2.01081793 143.00233792 -2.01081793 143.00233792 -2.49609375 150.16015625 C-3.15609375 150.82015625 -3.81609375 151.48015625 -4.49609375 152.16015625 C-5.24923551 157.0293053 -5.01158095 161.08952899 -2.87109375 165.53515625 C-0.57185483 168.32257027 -0.57185483 168.32257027 2.75390625 170.16015625 C3.66140625 170.82015625 4.56890625 171.48015625 5.50390625 172.16015625 C5.50390625 174.14015625 5.50390625 176.12015625 5.50390625 178.16015625 C-4.39609375 178.16015625 -14.29609375 178.16015625 -24.49609375 178.16015625 C-24.82609375 166.28015625 -25.15609375 154.40015625 -25.49609375 142.16015625 C-30.11609375 142.16015625 -34.73609375 142.16015625 -39.49609375 142.16015625 C-39.82609375 154.04015625 -40.15609375 165.92015625 -40.49609375 178.16015625 C-50.39609375 178.16015625 -60.29609375 178.16015625 -70.49609375 178.16015625 C-70.49609375 172.16015625 -70.49609375 172.16015625 -68.81640625 170.40234375 C-68.09195313 169.95117188 -67.3675 169.5 -66.62109375 169.03515625 C-63.48653897 167.04656773 -61.71936421 165.72855659 -60.49609375 162.16015625 C-60.14740689 158.04092339 -60.32500113 153.92030062 -60.4296875 149.78955078 C-60.47819638 147.86881295 -60.5187639 145.94786989 -60.5546875 144.02685547 C-60.62296695 140.52903976 -60.71329692 137.03233405 -60.80859375 133.53515625 C-60.83091064 132.41616943 -60.85322754 131.29718262 -60.8762207 130.14428711 C-61.12624004 122.43319414 -61.60198875 114.3868951 -64.49609375 107.16015625 C-66.82468657 105.15760734 -68.9639206 103.95541666 -71.73046875 102.6328125 C-75.84908853 100.43970564 -78.8705722 97.2732742 -82.171875 94.015625 C-84.71975317 91.98160461 -86.33669912 91.66629873 -89.49609375 91.16015625 C-91.77249573 88.39595384 -92.45521477 86.45885966 -92.94140625 82.90625 C-94.365273 73.29013581 -98.13826637 65.11588372 -103.91015625 57.390625 C-107.92267085 51.74740865 -108.91073386 46.96730267 -108.11328125 40.140625 C-107.04832158 36.7233177 -105.0949795 35.49869835 -102.04296875 33.7734375 C-96.60145291 31.24267664 -92.51869817 29.49097798 -86.49609375 30.16015625 C-86.16609375 30.82015625 -85.83609375 31.48015625 -85.49609375 32.16015625 C-85.25375 31.31453125 -85.01140625 30.46890625 -84.76171875 29.59765625 C-80.60492863 15.52852046 -74.61112684 2.97783612 -61.49609375 -4.83984375 C-40.6013932 -15.96921689 -19.03609892 -14.03130296 0 0 Z " fill="#FAD2AD" transform="translate(128.49609375,77.83984375)"/>
<path d="M0 0 C9.14072857 7.88583916 14.53197422 18.36612468 16.50390625 30.16015625 C16.62069424 32.83693698 16.54935685 35.47857082 16.50390625 38.16015625 C13.20390625 36.18015625 9.90390625 34.20015625 6.50390625 32.16015625 C6.51550781 33.17335937 6.52710938 34.1865625 6.5390625 35.23046875 C6.54844834 36.58202939 6.55754768 37.93359205 6.56640625 39.28515625 C6.57478516 39.9503125 6.58316406 40.61546875 6.59179688 41.30078125 C6.61172917 45.36696979 6.29280786 49.17216545 5.50390625 53.16015625 C-1.45937013 53.49708898 -6.92954919 52.46324495 -13.49609375 50.16015625 C-13.45484375 51.25328125 -13.41359375 52.34640625 -13.37109375 53.47265625 C-13.49609375 57.16015625 -13.49609375 57.16015625 -15.49609375 60.16015625 C-20.24609375 59.41015625 -20.24609375 59.41015625 -22.49609375 57.16015625 C-22.58189368 54.45745859 -22.59206266 51.85261729 -22.49609375 49.16015625 C-22.49609375 48.17015625 -22.49609375 47.18015625 -22.49609375 46.16015625 C-24.25846427 44.52080065 -24.25846427 44.52080065 -26.55859375 42.97265625 C-33.87339523 37.50665075 -38.952562 31.03281955 -43.49609375 23.16015625 C-44.37007812 23.93939453 -44.37007812 23.93939453 -45.26171875 24.734375 C-54.89313218 32.92713391 -65.91754139 37.50552789 -78.49609375 39.16015625 C-81.3125 38.85546875 -81.3125 38.85546875 -83.49609375 38.16015625 C-86.13912737 32.874089 -84.12950673 26.92174751 -82.3984375 21.6328125 C-77.55866458 8.37057763 -68.76529262 -1.48425724 -56.05859375 -7.58984375 C-36.47823506 -15.90882128 -16.95600854 -12.4980908 0 0 Z " fill="#BE7959" transform="translate(128.49609375,77.83984375)"/>
<path d="M0 0 C7.91338091 1.6550862 7.91338091 1.6550862 10.4296875 4.76953125 C11.1988893 6.15674691 11.96170346 7.54751988 12.71875 8.94140625 C16.59267271 15.16566622 23.6045424 18.25037834 30.390625 20.30859375 C41.49582303 22.43588818 53.3819142 22.00862565 64 18 C64 21.29234294 63.54181964 23.37542032 61.36328125 25.88671875 C54.94385128 31.71922941 49.38372314 32.98639413 41 34 C54.83758878 50.2064213 54.83758878 50.2064213 73 59 C75.48527582 75.84218167 75.48527582 75.84218167 75 83 C74.34 83.66 73.68 84.32 73 85 C72.24685824 89.86914905 72.4845128 93.92937274 74.625 98.375 C76.92423892 101.16241402 76.92423892 101.16241402 80.25 103 C81.1575 103.66 82.065 104.32 83 105 C83 106.98 83 108.96 83 111 C73.1 111 63.2 111 53 111 C52.67 99.12 52.34 87.24 52 75 C47.38 75 42.76 75 38 75 C37.67 86.88 37.34 98.76 37 111 C27.1 111 17.2 111 7 111 C7 105 7 105 8.6796875 103.2421875 C9.40414062 102.79101562 10.12859375 102.33984375 10.875 101.875 C14.08127451 99.84091187 15.67948415 98.59304834 17 95 C17.16858166 92.20915781 17.23284241 89.52228007 17.1953125 86.734375 C17.19106766 85.54427826 17.19106766 85.54427826 17.18673706 84.33013916 C17.17556779 81.80327083 17.15046944 79.27676068 17.125 76.75 C17.11496598 75.0338593 17.10584087 73.31771302 17.09765625 71.6015625 C17.07734305 67.40079361 17.03818906 63.20079639 17 59 C32.345 58.505 32.345 58.505 48 58 C43.48645936 53.3561557 43.48645936 53.3561557 38.5625 49.1875 C38.046875 48.795625 37.53125 48.40375 37 48 C37 47.34 37 46.68 37 46 C36.01 45.67 35.02 45.34 34 45 C31.24070767 42.04321231 28.79397881 38.83508765 26.29980469 35.65283203 C24.9646835 33.95509153 23.61206092 32.27235125 22.2578125 30.58984375 C21.35847157 29.45644544 20.4600145 28.32234516 19.5625 27.1875 C19.13767334 26.66124023 18.71284668 26.13498047 18.27514648 25.59277344 C15.62032148 22.18884915 14.29494756 19.08316797 13 15 C12.195625 14.360625 11.39125 13.72125 10.5625 13.0625 C7.19735571 10.35396923 6.46775259 8.01700708 5 4 C3.68 4 2.36 4 1 4 C0.67 2.68 0.34 1.36 0 0 Z " fill="#E59B5D" transform="translate(51,145)"/>
<path d="M0 0 C7.91338091 1.6550862 7.91338091 1.6550862 10.4296875 4.76953125 C11.1988893 6.15674691 11.96170346 7.54751988 12.71875 8.94140625 C16.59267271 15.16566622 23.6045424 18.25037834 30.390625 20.30859375 C41.49582303 22.43588818 53.3819142 22.00862565 64 18 C64 21.29234294 63.54181964 23.37542032 61.36328125 25.88671875 C54.94385128 31.71922941 49.38372314 32.98639413 41 34 C54.83758878 50.2064213 54.83758878 50.2064213 73 59 C75.48527582 75.84218167 75.48527582 75.84218167 75 83 C73 85 73 85 70.625 85.5 C68 85 68 85 65.75 82.625 C64 79 64 79 63 69 C47.82 69 32.64 69 17 69 C17 65.7 17 62.4 17 59 C32.345 58.505 32.345 58.505 48 58 C43.48645936 53.3561557 43.48645936 53.3561557 38.5625 49.1875 C38.046875 48.795625 37.53125 48.40375 37 48 C37 47.34 37 46.68 37 46 C36.01 45.67 35.02 45.34 34 45 C31.24070767 42.04321231 28.79397881 38.83508765 26.29980469 35.65283203 C24.9646835 33.95509153 23.61206092 32.27235125 22.2578125 30.58984375 C21.35847157 29.45644544 20.4600145 28.32234516 19.5625 27.1875 C19.13767334 26.66124023 18.71284668 26.13498047 18.27514648 25.59277344 C15.62032148 22.18884915 14.29494756 19.08316797 13 15 C12.195625 14.360625 11.39125 13.72125 10.5625 13.0625 C7.19735571 10.35396923 6.46775259 8.01700708 5 4 C3.68 4 2.36 4 1 4 C0.67 2.68 0.34 1.36 0 0 Z " fill="#B67556" transform="translate(51,145)"/>
<path d="M0 0 C0.66 0 1.32 0 2 0 C2.07427838 3.34252724 2.06546953 5.8035914 1 9 C8.92 14.445 8.92 14.445 17 20 C15.56862745 25.7254902 15.56862745 25.7254902 14 28 C13.278125 28.103125 12.55625 28.20625 11.8125 28.3125 C8.65533933 29.08425039 8.07909497 29.74330935 5.9375 32.0625 C2.05914928 36.22275727 -2.41397341 39.02764465 -7.23046875 42.0078125 C-10.1121686 44.08068545 -11.83322142 46.21228087 -14 49 C-14.87011719 49.60328125 -15.74023438 50.2065625 -16.63671875 50.828125 C-19.79795771 53.73332973 -20.20801156 56.67644094 -20.8125 60.75 C-20.93302734 61.44738281 -21.05355469 62.14476562 -21.17773438 62.86328125 C-21.47039918 64.57244369 -21.73776895 66.28590438 -22 68 C-26.76456094 67.54456403 -29.53066249 65.31345845 -33 62.25 C-33.55453857 61.77062988 -34.10907715 61.29125977 -34.68041992 60.79736328 C-41.08012964 55.18446627 -47.18922707 49.21971439 -53 43 C-53 42.67 -53 42.34 -53 42 C-52.154375 41.92523438 -51.30875 41.85046875 -50.4375 41.7734375 C-42.95503585 40.90615188 -37.11705722 39.83885874 -32 34 C-30.96196153 32.03926067 -30.11812932 30.04626302 -29.25390625 28.00390625 C-27.12509463 24.60178674 -23.72879443 22.92980406 -20.41015625 20.7890625 C-16.07057312 17.56778361 -13.67222249 13.32692399 -12.1875 8.1875 C-10.72775045 5.49848768 -9.8793777 5.37371118 -7.0625 4.375 C-6.37285156 4.17648438 -5.68320313 3.97796875 -4.97265625 3.7734375 C-2.72725944 2.8930641 -1.659232 1.71123072 0 0 Z " fill="#6E9DB9" transform="translate(144,136)"/>
<path d="M0 0 C3 1 3 1 4.02734375 2.70703125 C4.32769531 3.40183594 4.62804687 4.09664062 4.9375 4.8125 C6.13926086 7.3942296 6.96407323 8.96407323 9 11 C10.94653629 12.94653629 11.61807319 14.15851457 12.71875 16.61328125 C15.03051956 21.35347911 18.11241578 25.17386563 21.5 29.1875 C22.63545004 30.55596189 23.77086748 31.92445084 24.90625 33.29296875 C25.44233887 33.93202148 25.97842773 34.57107422 26.53076172 35.22949219 C27.76984798 36.72265496 28.97147597 38.24678595 30.1640625 39.77734375 C32.45299393 42.5484118 35.03755937 44.68673908 37.8046875 46.9609375 C40.7846149 49.72877043 43.35320129 52.91206817 46 56 C35.44 56 24.88 56 14 56 C13.54625 52.98875 13.0925 49.9775 12.625 46.875 C11.45548309 40.22897095 11.45548309 40.22897095 7.859375 34.71875 C5.38823948 33.33013735 5.38823948 33.33013735 2.73046875 32.26171875 C-1.49229773 30.31042609 -4.39467178 27.09319165 -7.67578125 23.85546875 C-10.22591182 21.81965023 -11.84168057 21.52019379 -15 21 C-16.89319488 18.66505964 -18.04191992 17.14348224 -17.9296875 14.08203125 C-16.50968552 10.90194278 -14.16778633 9.82183732 -11.25 8 C-8.09212237 6.00882593 -5.13600838 4.11635399 -2.296875 1.6875 C-1.53890625 1.130625 -0.7809375 0.57375 0 0 Z " fill="#73A3BF" transform="translate(54,148)"/>
<path d="M0 0 C2.89965665 2.52652254 5.04407214 5.23175742 7.33203125 8.3203125 C8.12222656 9.37476562 8.91242188 10.42921875 9.7265625 11.515625 C11.51953125 14.1953125 11.51953125 14.1953125 11.51953125 16.1953125 C8.44329644 14.82584832 6.40372764 13.24086638 4.01953125 10.8828125 C-7.34419133 0.74417525 -22.81225442 -0.60106886 -37.37158203 0.05175781 C-52.97190745 1.11369244 -66.85697458 7.74185784 -77.48046875 19.1953125 C-79.02357902 21.15634847 -80.25195399 23.01749087 -81.48046875 25.1953125 C-82.37495495 22.73125619 -82.5777177 21.49821905 -81.765625 18.96875 C-74.12422534 3.97891169 -64.17307539 -4.98229137 -48.33984375 -10.55859375 C-30.91247168 -15.31453689 -14.23785689 -10.35888171 0 0 Z " fill="#D9865F" transform="translate(128.48046875,77.8046875)"/>
<path d="M0 0 C5.79890344 0.75385745 10.83016894 3.55429189 16.0546875 6.02929688 C24.27637751 9.81266779 32.06082973 11.24631448 41.0625 11.625 C41.83271484 11.66367188 42.60292969 11.70234375 43.39648438 11.7421875 C45.26399477 11.83498305 47.13196252 11.91850124 49 12 C49.18451025 24.66970387 49.18451025 24.66970387 48 30 C41.03672362 30.33693273 35.56654456 29.3030887 29 27 C29.04125 28.093125 29.0825 29.18625 29.125 30.3125 C29 34 29 34 27 37 C22.25 36.25 22.25 36.25 20 34 C19.91420007 31.29730234 19.90403109 28.69246104 20 26 C20 25.01 20 24.02 20 23 C18.23762948 21.3606444 18.23762948 21.3606444 15.9375 19.8125 C8.55626913 14.28818255 3.75293138 8.40656628 0 0 Z " fill="#DA855C" transform="translate(86,101)"/>
<path d="M0 0 C4.50646552 3.69761273 4.50646552 3.69761273 6.4375 6 C6.4375 6.99 6.4375 7.98 6.4375 9 C5.09389404 8.68168213 5.09389404 8.68168213 3.72314453 8.35693359 C-5.16374406 6.3962358 -13.53816309 5.52342531 -22.65185547 5.60888672 C-24.69435759 5.62505428 -26.7348985 5.60887729 -28.77734375 5.58984375 C-40.62256144 5.57000102 -51.20305944 7.22283085 -61.63671875 13.01171875 C-63.5625 14 -63.5625 14 -65.5625 14 C-65.44761039 10.20864286 -64.12628627 8.18330476 -61.625 5.5 C-46.43308694 -8.70382115 -17.59325612 -10.97401124 0 0 Z " fill="#749FB8" transform="translate(122.5625,89)"/>
<path d="M0 0 C3.06627706 -0.21665549 6.11727238 -0.37459318 9.1875 -0.5 C10.05181641 -0.56703125 10.91613281 -0.6340625 11.80664062 -0.703125 C14.42376535 -0.78334338 16.4868787 -0.75115122 19 0 C20.76661711 1.90810696 21.81902516 3.71385607 22.92773438 6.06005859 C24.00635885 8.37459019 24.00635885 8.37459019 27.3125 10.125 C28.6428125 11.053125 28.6428125 11.053125 30 12 C30 13.98 30 15.96 30 18 C20.1 18 10.2 18 0 18 C0 12.06 0 6.12 0 0 Z " fill="#AC6F52" transform="translate(104,238)"/>
<path d="M0 0 C6.27 0 12.54 0 19 0 C19 5.94 19 11.88 19 18 C9.1 18 -0.8 18 -11 18 C-11 12 -11 12 -9.35546875 10.3125 C-8.64003906 9.879375 -7.92460938 9.44625 -7.1875 9 C-2.77665818 6.3004684 -2.65094933 5.30189867 0 0 Z " fill="#AC6F52" transform="translate(69,238)"/>
<path d="M0 0 C0.66 0 1.32 0 2 0 C2.07427838 3.34252724 2.06546953 5.8035914 1 9 C8.92 14.445 8.92 14.445 17 20 C16.22404875 23.10380501 15.4731994 25.25002779 14 28 C11 28 11 28 8.9375 26 C8.31101562 25.32904297 8.31101562 25.32904297 7.671875 24.64453125 C4.07431433 21.10580919 -0.03001902 18.10660648 -4 15 C-8.75578792 17.57605179 -13.0275008 20.4142688 -17.30078125 23.73046875 C-20.60055414 26.19581631 -22.93603817 26.088347 -27 26 C-22 22 -22 22 -19.5 20.23828125 C-16.61434666 17.65471974 -15.64793054 15.49812672 -14.1875 11.9375 C-11.58546018 6.38288651 -11.58546018 6.38288651 -8.9453125 4.65625 C-6.99580189 3.99927206 -4.99772168 3.49124304 -3 3 C-1.98290978 2.01738742 -0.98047969 1.01914649 0 0 Z " fill="#5B8FAD" transform="translate(144,136)"/>
<path d="M0 0 C0.6640625 1.77734375 0.6640625 1.77734375 1 4 C-1.79175021 8.88031522 -6.40928642 12.9870408 -11.85546875 14.5234375 C-16.12024817 15.47116626 -19.7135106 16.22292856 -24 15 C-27.56081789 11.70663676 -30.30050415 8.01664116 -33 4 C-30.16647553 3.18393858 -27.74689138 2.90718446 -24.8046875 3.0078125 C-23.6132312 3.03584961 -23.6132312 3.03584961 -22.39770508 3.06445312 C-21.5652124 3.08443359 -20.73271973 3.10441406 -19.875 3.125 C-12.7917675 3.22721697 -6.60278852 2.8515899 0 0 Z " fill="#BD9A7A" transform="translate(114,163)"/>
<path d="M0 0 C3.00204281 2.42100227 3.00935621 4.07368015 3.5 7.9375 C3.36133177 11.30965919 2.94852588 12.07266934 0.875 15 C-2 17 -2 17 -5 17.6875 C-9.35321372 16.68988852 -10.65945491 14.71733632 -13 11 C-13.73490789 6.99883483 -13.38814018 5.58221026 -11.125 2.1875 C-7.39410173 -1.65313058 -5.13032038 -1.17007307 0 0 Z " fill="#FDF6F1" transform="translate(83,125)"/>
<path d="M0 0 C3 1 3 1 5 4 C4.80793787 6.66291549 4.32267571 7.69888735 2.36328125 9.52734375 C1.68652344 9.99269531 1.00976562 10.45804688 0.3125 10.9375 C-2.3590242 12.82243539 -4.90998814 14.72648349 -7.375 16.875 C-10 19 -10 19 -12 19 C-12 19.66 -12 20.32 -12 21 C-12.99 21 -13.98 21 -15 21 C-16.79756969 18.68883898 -18.03486655 17.07214656 -17.9375 14.078125 C-16.50654151 10.90616701 -14.16603948 9.8207466 -11.25 8 C-8.09212237 6.00882593 -5.13600838 4.11635399 -2.296875 1.6875 C-1.53890625 1.130625 -0.7809375 0.57375 0 0 Z " fill="#5C8FAD" transform="translate(54,148)"/>
<path d="M0 0 C6.27 0 12.54 0 19 0 C19 3.3 19 6.6 19 10 C12.73 10 6.46 10 0 10 C0 6.7 0 3.4 0 0 Z " fill="#F6CFAB" transform="translate(69,228)"/>
<path d="M0 0 C2.22889496 -0.05428973 4.45817471 -0.09292338 6.6875 -0.125 C8.54955078 -0.15980469 8.54955078 -0.15980469 10.44921875 -0.1953125 C13.81237857 -0.01032021 15.9985587 0.54232105 19 2 C19 4.64 19 7.28 19 10 C12.73 10 6.46 10 0 10 C0 6.7 0 3.4 0 0 Z " fill="#F6D0AB" transform="translate(104,228)"/>
<path d="M0 0 C0.66 0 1.32 0 2 0 C2.125 5.75 2.125 5.75 1 8 C-0.32 8 -1.64 8 -3 8 C-3.680625 9.7325 -3.680625 9.7325 -4.375 11.5 C-7.61003446 18.0398898 -14.28850766 23.22665606 -21 26 C-24.25 26.125 -24.25 26.125 -27 26 C-22 22 -22 22 -19.5 20.23828125 C-16.61434666 17.65471974 -15.64793054 15.49812672 -14.1875 11.9375 C-11.58546018 6.38288651 -11.58546018 6.38288651 -8.9453125 4.65625 C-6.99580189 3.99927206 -4.99772168 3.49124304 -3 3 C-1.98290978 2.01738742 -0.98047969 1.01914649 0 0 Z " fill="#BD7B5B" transform="translate(144,136)"/>
<path d="M0 0 C-2.02121641 2.69495521 -3.71144998 4.80763332 -6.53125 6.6875 C-9.73569057 9.68912788 -10.19365346 12.57968381 -10.8125 16.75 C-10.93302734 17.44738281 -11.05355469 18.14476562 -11.17773438 18.86328125 C-11.47039918 20.57244369 -11.73776895 22.28590438 -12 24 C-16.875 23.125 -16.875 23.125 -18 22 C-18.56277698 16.25967476 -17.59417382 13.46843232 -14 9 C-12.33333333 7.33333333 -10.66666667 5.66666667 -9 4 C-8.67 3.01 -8.34 2.02 -8 1 C-2.59770115 -1.29885057 -2.59770115 -1.29885057 0 0 Z " fill="#5C8DAA" transform="translate(134,180)"/>
<path d="M0 0 C2.64 0 5.28 0 8 0 C8.28562996 3.0069045 8.34473556 4.51436434 6.56640625 7.01953125 C2.99983033 10.21067812 0.28524102 12.47074912 -4.625 12.6875 C-9.05324712 12.33446817 -11.64144108 10.84185755 -15 8 C-15 7.67 -15 7.34 -15 7 C-10.05 7 -5.1 7 0 7 C0 4.69 0 2.38 0 0 Z " fill="#C17C5B" transform="translate(101,147)"/>
<path d="M0 0 C2.4375 -0.4375 2.4375 -0.4375 5 0 C7.50907308 2.24951379 7.95656309 3.65250472 8.375 7 C7.96644557 10.26843543 7.20409407 11.61223142 5 14 C2.625 13.75 2.625 13.75 0 13 C-2.41215627 9.89865622 -2.32468594 6.81505974 -2 3 C-1.34 2.01 -0.68 1.02 0 0 Z " fill="#C38161" transform="translate(77,126)"/>
<path d="M0 0 C0 2.31 0 4.62 0 7 C-5.28 7 -10.56 7 -16 7 C-16.66 5.35 -17.32 3.7 -18 2 C-14.5540598 -1.4459402 -4.58538702 -0.08337067 0 0 Z " fill="#FDFAF8" transform="translate(101,147)"/>
<path d="M0 0 C1.6277833 6.14778871 2.20190089 11.64012196 2 18 C-0.88949684 17.68762196 -2.58633099 17.35661121 -4.8125 15.4375 C-6.50223691 11.96909266 -6.68873159 8.73988659 -6 5 C-2.875 0 -2.875 0 0 0 Z " fill="#E8B789" transform="translate(55,122)"/>
<path d="M0 0 C1.26714844 -0.01417969 2.53429687 -0.02835938 3.83984375 -0.04296875 C7.0625 0.1875 7.0625 0.1875 9.0625 2.1875 C9.02962417 4.91619407 8.49852229 7.4841618 8.0625 10.1875 C7.7325 8.8675 7.4025 7.5475 7.0625 6.1875 C1.7825 6.1875 -3.4975 6.1875 -8.9375 6.1875 C-7.50729407 -0.96352966 -6.85688912 0.03480654 0 0 Z " fill="#D39058" transform="translate(95.9375,213.8125)"/>
<path d="M0 0 C5 3 5 3 6 4 C6.51896558 8.67069022 6.91336215 12.67719965 4.1875 16.625 C2 18 2 18 -1 18 C-1 17.01 -1 16.02 -1 15 C-2.32 14.67 -3.64 14.34 -5 14 C-3.68 14 -2.36 14 -1 14 C-0.67 9.38 -0.34 4.76 0 0 Z " fill="#E7B485" transform="translate(135,117)"/>
<path d="M0 0 C1.13199353 0.9080162 2.25532363 1.82683826 3.375 2.75 C4.00148438 3.26046875 4.62796875 3.7709375 5.2734375 4.296875 C7.68961606 6.68025476 8.85946096 8.71609249 9.23046875 12.10546875 C9.11111111 17.88888889 9.11111111 17.88888889 8 19 C6.33382885 19.04063832 4.66611905 19.042721 3 19 C2.49666458 16.39643759 1.99720622 13.79223349 1.5 11.1875 C1.35691406 10.44951172 1.21382813 9.71152344 1.06640625 8.95117188 C0.49073719 5.92205609 0 3.090804 0 0 Z " fill="#5A8DAA" transform="translate(65,185)"/>
<path d="M0 0 C1.20462891 -0.02126953 1.20462891 -0.02126953 2.43359375 -0.04296875 C4.5625 0.1875 4.5625 0.1875 6.5625 2.1875 C6.375 4.6875 6.375 4.6875 5.5625 7.1875 C2.5625 9.1875 2.5625 9.1875 -1 8.9375 C-4.4375 8.1875 -4.4375 8.1875 -6.4375 6.1875 C-5.79333405 0.90533919 -5.22747665 0.04181981 0 0 Z " fill="#E7B688" transform="translate(95.4375,133.8125)"/>
<path d="M0 0 C3.37462715 0.54723683 5.08235 1.0549 8 3 C8.39507893 7.34586828 8.45331002 9.32003497 6 13 C1.25 12.25 1.25 12.25 -1 10 C-1.23046875 8.125 -1.23046875 8.125 -1.1875 6 C-1.18105469 5.29875 -1.17460938 4.5975 -1.16796875 3.875 C-1 2 -1 2 0 0 Z " fill="#C07B5A" transform="translate(107,125)"/>
<path d="M0 0 C0 1.32 0 2.64 0 4 C-2.60311992 4.67099984 -5.20735398 5.33695338 -7.8125 6 C-8.55048828 6.19078125 -9.28847656 6.3815625 -10.04882812 6.578125 C-13.10535341 7.35262914 -15.83373478 8 -19 8 C-19 6.35 -19 4.7 -19 3 C-16.96040523 2.49161436 -14.91820862 1.99366114 -12.875 1.5 C-11.73804687 1.2215625 -10.60109375 0.943125 -9.4296875 0.65625 C-6.18533302 0.03546235 -3.29185543 -0.12006768 0 0 Z " fill="#C58261" transform="translate(84,116)"/>
<path d="M0 0 C0.66 0.33 1.32 0.66 2 1 C1.67 1.66 1.34 2.32 1 3 C0.80331266 4.91403076 0.80331266 4.91403076 0.8125 7 C0.79832031 7.70125 0.78414063 8.4025 0.76953125 9.125 C0.83487677 11.24524938 0.83487677 11.24524938 3 13 C4.32 13 5.64 13 7 13 C7.66 10.03 8.32 7.06 9 4 C10.65 4.33 12.3 4.66 14 5 C13.71435625 8.71336877 13.42413305 11.34748761 11.375 14.5 C9 16 9 16 5.5 16.0625 C1.312822 14.79139239 0.07950029 13.82628053 -2 10 C-2.45793285 5.57331583 -2.4915904 3.7373856 0 0 Z " fill="#FBF4EF" transform="translate(106,124)"/>
<path d="M0 0 C0 0.66 0 1.32 0 2 C0.66 2 1.32 2 2 2 C2 2.66 2 3.32 2 4 C2.99 4.33 3.98 4.66 5 5 C4.01 6.485 4.01 6.485 3 8 C2.34 8 1.68 8 1 8 C1 8.66 1 9.32 1 10 C0.01 10 -0.98 10 -2 10 C-3.95003686 7.49280976 -5.08135097 5.9762116 -4.8125 2.75 C-3.67433137 0.29855987 -2.65058539 0 0 0 Z " fill="#52819D" transform="translate(41,159)"/>
<path d="M0 0 C2.475 0.99 2.475 0.99 5 2 C4.37240135 4.92879371 3.41377341 7.36095629 2 10 C-1 10 -1 10 -2.6875 8.6875 C-4 7 -4 7 -4 4 C-3.34 4 -2.68 4 -2 4 C-2 3.34 -2 2.68 -2 2 C-1.34 2 -0.68 2 0 2 C0 1.34 0 0.68 0 0 Z " fill="#5B859D" transform="translate(156,154)"/>
<path d="M0 0 C0.33 0.99 0.66 1.98 1 3 C-2.46923881 5.31282587 -3.92205575 5.42478586 -8 5 C-9.875 3.5625 -9.875 3.5625 -11 2 C-11 1.67 -11 1.34 -11 1 C-7.26562152 0.12132271 -3.83225427 -0.08912219 0 0 Z " fill="#AF8D70" transform="translate(103,167)"/>
<path d="M0 0 C-2.64960955 3.63094642 -5.01824456 5.89851796 -9 8 C-8.67 5.69 -8.34 3.38 -8 1 C-2.25 -1.125 -2.25 -1.125 0 0 Z " fill="#A77861" transform="translate(134,180)"/>
<path d="M0 0 C2.97 0 5.94 0 9 0 C7.02 2.97 7.02 2.97 5 6 C3.31237149 4.3545622 1.6459651 2.68711423 0 1 C0 0.67 0 0.34 0 0 Z " fill="#C78766" transform="translate(65,125)"/>
<path d="M0 0 C0.66 0 1.32 0 2 0 C3 3 4 6 5 9 C4.01 9 3.02 9 2 9 C0.25 6.75 0.25 6.75 -1 4 C-0.6875 1.6875 -0.6875 1.6875 0 0 Z " fill="#688B9F" transform="translate(37,160)"/>
</svg>
