<?xml version="1.0" encoding="UTF-8"?>
<svg version="1.1" xmlns="http://www.w3.org/2000/svg" width="313" height="245">
<path d="M0 0 C103.29 0 206.58 0 313 0 C313 80.85 313 161.7 313 245 C209.71 245 106.42 245 0 245 C0 164.15 0 83.3 0 0 Z " fill="#E1E7EF" transform="translate(0,0)"/>
<path d="M0 0 C6.27 0 12.54 0 19 0 C19 0.66 19 1.32 19 2 C19.66 2 20.32 2 21 2 C21 2.99 21 3.98 21 5 C22.98 5 24.96 5 27 5 C27 5.99 27 6.98 27 8 C27.66 8 28.32 8 29 8 C29 8.66 29 9.32 29 10 C30.98 10 32.96 10 35 10 C35 10.99 35 11.98 35 13 C35.99 13 36.98 13 38 13 C38 13.99 38 14.98 38 16 C38.66 16 39.32 16 40 16 C40 16.66 40 17.32 40 18 C40.99 18 41.98 18 43 18 C43 18.99 43 19.98 43 21 C44.65 21 46.3 21 48 21 C48 21.99 48 22.98 48 24 C48.99 24 49.98 24 51 24 C51 24.99 51 25.98 51 27 C51.99 27 52.98 27 54 27 C54 27.66 54 28.32 54 29 C54.66 29 55.32 29 56 29 C56 29.99 56 30.98 56 32 C56.99 32 57.98 32 59 32 C59 32.99 59 33.98 59 35 C59.99 35 60.98 35 62 35 C62 35.66 62 36.32 62 37 C62.66 37 63.32 37 64 37 C64 37.99 64 38.98 64 40 C64.99 40 65.98 40 67 40 C67 40.99 67 41.98 67 43 C67.99 43 68.98 43 70 43 C70 43.66 70 44.32 70 45 C70.99 45 71.98 45 73 45 C73 45.99 73 46.98 73 48 C73.66 48 74.32 48 75 48 C75 48.99 75 49.98 75 51 C75.99 51 76.98 51 78 51 C78 52.65 78 54.3 78 56 C78.99 56 79.98 56 81 56 C81 56.99 81 57.98 81 59 C81.66 59 82.32 59 83 59 C83 59.99 83 60.98 83 62 C83.99 62 84.98 62 86 62 C86 62.66 86 63.32 86 64 C86.99 64 87.98 64 89 64 C89 64.99 89 65.98 89 67 C89.66 67 90.32 67 91 67 C91 67.99 91 68.98 91 70 C91.99 70 92.98 70 94 70 C94 71.65 94 73.3 94 75 C94.99 75 95.98 75 97 75 C97 75.99 97 76.98 97 78 C97.99 78 98.98 78 100 78 C100 78.66 100 79.32 100 80 C100.66 80 101.32 80 102 80 C102 81.98 102 83.96 102 86 C102.99 86 103.98 86 105 86 C105 92.27 105 98.54 105 105 C104.01 105 103.02 105 102 105 C102 105.66 102 106.32 102 107 C101.34 107 100.68 107 100 107 C100 108.98 100 110.96 100 113 C99.01 113 98.02 113 97 113 C97 113.99 97 114.98 97 116 C96.01 116 95.02 116 94 116 C94 116.66 94 117.32 94 118 C93.01 118 92.02 118 91 118 C91 119.98 91 121.96 91 124 C90.34 124 89.68 124 89 124 C89 124.66 89 125.32 89 126 C88.01 126 87.02 126 86 126 C86 126.99 86 127.98 86 129 C85.01 129 84.02 129 83 129 C83 129.99 83 130.98 83 132 C82.34 132 81.68 132 81 132 C81 132.66 81 133.32 81 134 C80.01 134 79.02 134 78 134 C78 134.99 78 135.98 78 137 C77.01 137 76.02 137 75 137 C75 137.99 75 138.98 75 140 C74.34 140 73.68 140 73 140 C73 140.66 73 141.32 73 142 C72.01 142 71.02 142 70 142 C70 142.99 70 143.98 70 145 C69.01 145 68.02 145 67 145 C67 145.99 67 146.98 67 148 C66.01 148 65.02 148 64 148 C64 148.99 64 149.98 64 151 C63.34 151 62.68 151 62 151 C62 151.66 62 152.32 62 153 C61.01 153 60.02 153 59 153 C59 153.99 59 154.98 59 156 C58.01 156 57.02 156 56 156 C56 156.99 56 157.98 56 159 C55.34 159 54.68 159 54 159 C54 159.66 54 160.32 54 161 C53.01 161 52.02 161 51 161 C51 161.99 51 162.98 51 164 C50.01 164 49.02 164 48 164 C48 164.99 48 165.98 48 167 C47.34 167 46.68 167 46 167 C46 167.66 46 168.32 46 169 C45.01 169 44.02 169 43 169 C43 169.99 43 170.98 43 172 C42.01 172 41.02 172 40 172 C40 172.99 40 173.98 40 175 C38.35 175 36.7 175 35 175 C35 175.99 35 176.98 35 178 C34.01 178 33.02 178 32 178 C32 178.66 32 179.32 32 180 C31.01 180 30.02 180 29 180 C29 180.99 29 181.98 29 183 C28.34 183 27.68 183 27 183 C27 183.99 27 184.98 27 186 C25.02 186 23.04 186 21 186 C21 186.66 21 187.32 21 188 C19.35 188 17.7 188 16 188 C16 188.99 16 189.98 16 191 C11.38 191 6.76 191 2 191 C2 190.01 2 189.02 2 188 C0.35 188 -1.3 188 -3 188 C-3 187.34 -3 186.68 -3 186 C-4.65 186 -6.3 186 -8 186 C-8 185.01 -8 184.02 -8 183 C-8.99 183 -9.98 183 -11 183 C-11 182.01 -11 181.02 -11 180 C-11.99 180 -12.98 180 -14 180 C-14 179.34 -14 178.68 -14 178 C-15.65 178 -17.3 178 -19 178 C-19 177.01 -19 176.02 -19 175 C-19.99 175 -20.98 175 -22 175 C-22 174.01 -22 173.02 -22 172 C-22.66 172 -23.32 172 -24 172 C-24 171.01 -24 170.02 -24 169 C-24.99 169 -25.98 169 -27 169 C-27 168.34 -27 167.68 -27 167 C-27.99 167 -28.98 167 -30 167 C-30 166.01 -30 165.02 -30 164 C-30.99 164 -31.98 164 -33 164 C-33 163.01 -33 162.02 -33 161 C-33.66 161 -34.32 161 -35 161 C-35 160.34 -35 159.68 -35 159 C-35.99 159 -36.98 159 -38 159 C-38 158.01 -38 157.02 -38 156 C-38.99 156 -39.98 156 -41 156 C-41 155.01 -41 154.02 -41 153 C-41.66 153 -42.32 153 -43 153 C-43 152.34 -43 151.68 -43 151 C-43.99 151 -44.98 151 -46 151 C-46 150.01 -46 149.02 -46 148 C-46.99 148 -47.98 148 -49 148 C-49 147.01 -49 146.02 -49 145 C-49.66 145 -50.32 145 -51 145 C-51 144.01 -51 143.02 -51 142 C-51.99 142 -52.98 142 -54 142 C-54 141.34 -54 140.68 -54 140 C-54.99 140 -55.98 140 -57 140 C-57 139.01 -57 138.02 -57 137 C-57.99 137 -58.98 137 -60 137 C-60 136.01 -60 135.02 -60 134 C-60.66 134 -61.32 134 -62 134 C-62 133.34 -62 132.68 -62 132 C-62.99 132 -63.98 132 -65 132 C-65 131.01 -65 130.02 -65 129 C-65.99 129 -66.98 129 -68 129 C-68 128.01 -68 127.02 -68 126 C-68.66 126 -69.32 126 -70 126 C-70 125.34 -70 124.68 -70 124 C-70.99 124 -71.98 124 -73 124 C-73 122.02 -73 120.04 -73 118 C-73.99 118 -74.98 118 -76 118 C-76 117.34 -76 116.68 -76 116 C-76.66 116 -77.32 116 -78 116 C-78 115.01 -78 114.02 -78 113 C-78.99 113 -79.98 113 -81 113 C-81 111.02 -81 109.04 -81 107 C-81.99 107 -82.98 107 -84 107 C-84 106.34 -84 105.68 -84 105 C-84.99 105 -85.98 105 -87 105 C-87 98.73 -87 92.46 -87 86 C-86.01 86 -85.02 86 -84 86 C-84 84.02 -84 82.04 -84 80 C-83.01 80 -82.02 80 -81 80 C-81 79.34 -81 78.68 -81 78 C-80.01 78 -79.02 78 -78 78 C-78 77.01 -78 76.02 -78 75 C-77.34 75 -76.68 75 -76 75 C-76 73.35 -76 71.7 -76 70 C-75.01 70 -74.02 70 -73 70 C-73 69.01 -73 68.02 -73 67 C-72.01 67 -71.02 67 -70 67 C-70 66.01 -70 65.02 -70 64 C-69.34 64 -68.68 64 -68 64 C-68 63.34 -68 62.68 -68 62 C-67.01 62 -66.02 62 -65 62 C-65 60.02 -65 58.04 -65 56 C-63.35 56 -61.7 56 -60 56 C-60 54.35 -60 52.7 -60 51 C-59.01 51 -58.02 51 -57 51 C-57 50.01 -57 49.02 -57 48 C-56.01 48 -55.02 48 -54 48 C-54 47.01 -54 46.02 -54 45 C-53.01 45 -52.02 45 -51 45 C-51 44.34 -51 43.68 -51 43 C-50.34 43 -49.68 43 -49 43 C-49 42.01 -49 41.02 -49 40 C-48.01 40 -47.02 40 -46 40 C-46 39.01 -46 38.02 -46 37 C-45.01 37 -44.02 37 -43 37 C-43 36.34 -43 35.68 -43 35 C-42.34 35 -41.68 35 -41 35 C-41 34.01 -41 33.02 -41 32 C-40.01 32 -39.02 32 -38 32 C-38 31.01 -38 30.02 -38 29 C-37.01 29 -36.02 29 -35 29 C-35 28.34 -35 27.68 -35 27 C-34.34 27 -33.68 27 -33 27 C-33 26.01 -33 25.02 -33 24 C-32.01 24 -31.02 24 -30 24 C-30 23.01 -30 22.02 -30 21 C-28.02 21 -26.04 21 -24 21 C-24 20.01 -24 19.02 -24 18 C-23.34 18 -22.68 18 -22 18 C-22 17.34 -22 16.68 -22 16 C-21.01 16 -20.02 16 -19 16 C-19 15.01 -19 14.02 -19 13 C-18.01 13 -17.02 13 -16 13 C-16 12.01 -16 11.02 -16 10 C-14.35 10 -12.7 10 -11 10 C-11 9.34 -11 8.68 -11 8 C-10.01 8 -9.02 8 -8 8 C-8 7.01 -8 6.02 -8 5 C-6.35 5 -4.7 5 -3 5 C-3 4.01 -3 3.02 -3 2 C-2.01 2 -1.02 2 0 2 C0 1.34 0 0.68 0 0 Z " fill="#DA5565" transform="translate(148,23)"/>
<path d="M0 0 C0.66 0 1.32 0 2 0 C2 1.65 2 3.3 2 5 C2.66 5 3.32 5 4 5 C4.33 3.35 4.66 1.7 5 0 C5.66 0 6.32 0 7 0 C7 0.99 7 1.98 7 3 C7.99 3 8.98 3 10 3 C10 2.01 10 1.02 10 0 C10.66 0 11.32 0 12 0 C12 0.99 12 1.98 12 3 C12.99 3 13.98 3 15 3 C15.33 2.01 15.66 1.02 16 0 C16.66 0 17.32 0 18 0 C18 1.65 18 3.3 18 5 C18.99 5 19.98 5 21 5 C21.33 3.35 21.66 1.7 22 0 C22.33 0.99 22.66 1.98 23 3 C23.99 3 24.98 3 26 3 C26.33 2.01 26.66 1.02 27 0 C28.32 0 29.64 0 31 0 C31 0.99 31 1.98 31 3 C31.99 3 32.98 3 34 3 C34.33 2.01 34.66 1.02 35 0 C36.32 0 37.64 0 39 0 C39 0.99 39 1.98 39 3 C39.99 3 40.98 3 42 3 C42 7.29 42 11.58 42 16 C47.28 16 52.56 16 58 16 C58 15.01 58 14.02 58 13 C73.18 13 88.36 13 104 13 C104 13.99 104 14.98 104 16 C109.28 16 114.56 16 120 16 C120 14.35 120 12.7 120 11 C120.99 11 121.98 11 123 11 C123 8.69 123 6.38 123 4 C123.99 3.67 124.98 3.34 126 3 C126.33 2.01 126.66 1.02 127 0 C127.33 0.99 127.66 1.98 128 3 C128.99 3 129.98 3 131 3 C131.33 2.01 131.66 1.02 132 0 C133.32 0 134.64 0 136 0 C136 0.99 136 1.98 136 3 C136.99 3 137.98 3 139 3 C139 2.01 139 1.02 139 0 C139.99 0 140.98 0 142 0 C142 0.99 142 1.98 142 3 C142.99 3 143.98 3 145 3 C145.33 2.01 145.66 1.02 146 0 C146.33 0 146.66 0 147 0 C147 1.65 147 3.3 147 5 C147.99 5 148.98 5 150 5 C150.33 3.35 150.66 1.7 151 0 C151.66 0 152.32 0 153 0 C153 0.99 153 1.98 153 3 C153.66 3 154.32 3 155 3 C155 2.01 155 1.02 155 0 C155.99 0 156.98 0 158 0 C158 0.99 158 1.98 158 3 C158.99 3 159.98 3 161 3 C161.33 2.01 161.66 1.02 162 0 C162.33 0.99 162.66 1.98 163 3 C163.99 3 164.98 3 166 3 C166 3.66 166 4.32 166 5 C165.01 5 164.02 5 163 5 C163 6.98 163 8.96 163 11 C162.34 11 161.68 11 161 11 C161 11.66 161 12.32 161 13 C160.01 13 159.02 13 158 13 C158 13.99 158 14.98 158 16 C157.01 16 156.02 16 155 16 C155 16.99 155 17.98 155 19 C154.34 19 153.68 19 153 19 C153 19.66 153 20.32 153 21 C152.01 21 151.02 21 150 21 C150 21.99 150 22.98 150 24 C149.01 24 148.02 24 147 24 C147 24.99 147 25.98 147 27 C146.34 27 145.68 27 145 27 C145 27.66 145 28.32 145 29 C144.01 29 143.02 29 142 29 C142 29.99 142 30.98 142 32 C141.01 32 140.02 32 139 32 C139 32.99 139 33.98 139 35 C138.01 35 137.02 35 136 35 C136 35.99 136 36.98 136 38 C135.34 38 134.68 38 134 38 C134 38.66 134 39.32 134 40 C133.01 40 132.02 40 131 40 C131 40.99 131 41.98 131 43 C130.01 43 129.02 43 128 43 C128 43.99 128 44.98 128 46 C127.34 46 126.68 46 126 46 C126 46.66 126 47.32 126 48 C125.01 48 124.02 48 123 48 C123 48.99 123 49.98 123 51 C122.01 51 121.02 51 120 51 C120 51.99 120 52.98 120 54 C119.34 54 118.68 54 118 54 C118 54.66 118 55.32 118 56 C117.01 56 116.02 56 115 56 C115 56.99 115 57.98 115 59 C114.01 59 113.02 59 112 59 C112 59.99 112 60.98 112 62 C110.35 62 108.7 62 107 62 C107 62.99 107 63.98 107 65 C106.01 65 105.02 65 104 65 C104 65.66 104 66.32 104 67 C103.01 67 102.02 67 101 67 C101 67.99 101 68.98 101 70 C100.34 70 99.68 70 99 70 C99 70.99 99 71.98 99 73 C97.02 73 95.04 73 93 73 C93 73.66 93 74.32 93 75 C91.35 75 89.7 75 88 75 C88 75.99 88 76.98 88 78 C83.38 78 78.76 78 74 78 C74 77.01 74 76.02 74 75 C72.35 75 70.7 75 69 75 C69 74.34 69 73.68 69 73 C67.35 73 65.7 73 64 73 C64 72.01 64 71.02 64 70 C63.01 70 62.02 70 61 70 C61 69.01 61 68.02 61 67 C60.01 67 59.02 67 58 67 C58 66.34 58 65.68 58 65 C56.35 65 54.7 65 53 65 C53 64.01 53 63.02 53 62 C52.01 62 51.02 62 50 62 C50 61.01 50 60.02 50 59 C49.34 59 48.68 59 48 59 C48 58.01 48 57.02 48 56 C47.01 56 46.02 56 45 56 C45 55.34 45 54.68 45 54 C44.01 54 43.02 54 42 54 C42 53.01 42 52.02 42 51 C41.01 51 40.02 51 39 51 C39 50.01 39 49.02 39 48 C38.34 48 37.68 48 37 48 C37 47.34 37 46.68 37 46 C36.01 46 35.02 46 34 46 C34 45.01 34 44.02 34 43 C33.01 43 32.02 43 31 43 C31 42.01 31 41.02 31 40 C30.34 40 29.68 40 29 40 C29 39.34 29 38.68 29 38 C28.01 38 27.02 38 26 38 C26 37.01 26 36.02 26 35 C25.01 35 24.02 35 23 35 C23 34.01 23 33.02 23 32 C22.34 32 21.68 32 21 32 C21 31.01 21 30.02 21 29 C20.01 29 19.02 29 18 29 C18 28.34 18 27.68 18 27 C17.01 27 16.02 27 15 27 C15 26.01 15 25.02 15 24 C14.01 24 13.02 24 12 24 C12 23.01 12 22.02 12 21 C11.34 21 10.68 21 10 21 C10 20.34 10 19.68 10 19 C9.01 19 8.02 19 7 19 C7 18.01 7 17.02 7 16 C6.01 16 5.02 16 4 16 C4 15.01 4 14.02 4 13 C3.34 13 2.68 13 2 13 C2 12.34 2 11.68 2 11 C1.01 11 0.02 11 -1 11 C-1 9.02 -1 7.04 -1 5 C-1.99 4.67 -2.98 4.34 -4 4 C-3.01 3.67 -2.02 3.34 -1 3 C-0.67 2.01 -0.34 1.02 0 0 Z " fill="#D74E55" transform="translate(76,136)"/>
<path d="M0 0 C6.27 0 12.54 0 19 0 C19 0.66 19 1.32 19 2 C19.66 2 20.32 2 21 2 C21 2.99 21 3.98 21 5 C22.98 5 24.96 5 27 5 C27 5.99 27 6.98 27 8 C27.66 8 28.32 8 29 8 C29 8.66 29 9.32 29 10 C30.98 10 32.96 10 35 10 C35 10.99 35 11.98 35 13 C35.99 13 36.98 13 38 13 C38 13.99 38 14.98 38 16 C38.66 16 39.32 16 40 16 C40 16.66 40 17.32 40 18 C40.99 18 41.98 18 43 18 C43 18.99 43 19.98 43 21 C44.65 21 46.3 21 48 21 C48 21.99 48 22.98 48 24 C48.99 24 49.98 24 51 24 C51 24.99 51 25.98 51 27 C51.99 27 52.98 27 54 27 C54 27.66 54 28.32 54 29 C54.66 29 55.32 29 56 29 C56 29.99 56 30.98 56 32 C56.99 32 57.98 32 59 32 C59 32.99 59 33.98 59 35 C59.99 35 60.98 35 62 35 C62 35.66 62 36.32 62 37 C62.66 37 63.32 37 64 37 C64 37.99 64 38.98 64 40 C64.99 40 65.98 40 67 40 C67 40.99 67 41.98 67 43 C67.99 43 68.98 43 70 43 C70 43.66 70 44.32 70 45 C70.99 45 71.98 45 73 45 C73 45.99 73 46.98 73 48 C73.66 48 74.32 48 75 48 C75 48.99 75 49.98 75 51 C75.99 51 76.98 51 78 51 C78 52.65 78 54.3 78 56 C78.99 56 79.98 56 81 56 C81 56.99 81 57.98 81 59 C81.66 59 82.32 59 83 59 C83 59.99 83 60.98 83 62 C83.99 62 84.98 62 86 62 C86 62.66 86 63.32 86 64 C86.99 64 87.98 64 89 64 C89 64.99 89 65.98 89 67 C87.02 67 85.04 67 83 67 C83 66.01 83 65.02 83 64 C81.35 64 79.7 64 78 64 C78 63.34 78 62.68 78 62 C77.236875 62.825 76.47375 63.65 75.6875 64.5 C73 67 73 67 70 67 C70 66.01 70 65.02 70 64 C70.99 64 71.98 64 73 64 C73 63.34 73 62.68 73 62 C72.01 62 71.02 62 70 62 C70 60.02 70 58.04 70 56 C69.01 56.495 69.01 56.495 68 57 C67.8453125 58.2065625 67.8453125 58.2065625 67.6875 59.4375 C67.3471875 60.7059375 67.3471875 60.7059375 67 62 C64.4375 63.3125 64.4375 63.3125 62 64 C62 63.34 62 62.68 62 62 C61.01 62 60.02 62 59 62 C59 60.02 59 58.04 59 56 C58.01 56.495 58.01 56.495 57 57 C56.34444881 59.52733235 56.34444881 59.52733235 56 62 C55.34 62 54.68 62 54 62 C54 60.02 54 58.04 54 56 C53.01 56.495 53.01 56.495 52 57 C51.896875 57.7425 51.79375 58.485 51.6875 59.25 C50.75238291 62.99046837 48.92170832 64.56524306 46 67 C45.01 67 44.02 67 43 67 C43 66.01 43 65.02 43 64 C43.99 64 44.98 64 46 64 C46 63.34 46 62.68 46 62 C45.01 62 44.02 62 43 62 C43 60.02 43 58.04 43 56 C42.01 56.495 42.01 56.495 41 57 C40.71125 57.99 40.4225 58.98 40.125 60 C39.568125 61.485 39.568125 61.485 39 63 C36.875 63.875 36.875 63.875 35 64 C35 63.34 35 62.68 35 62 C34.01 62 33.02 62 32 62 C32 60.02 32 58.04 32 56 C31.01 56.495 31.01 56.495 30 57 C29.71125 57.928125 29.4225 58.85625 29.125 59.8125 C27.92000945 63.2266399 26.8215294 64.77697684 24 67 C23.01 67 22.02 67 21 67 C21 66.01 21 65.02 21 64 C21.99 64 22.98 64 24 64 C24 63.34 24 62.68 24 62 C23.01 62 22.02 62 21 62 C20.67 60.35 20.34 58.7 20 57 C19.896875 57.78375 19.79375 58.5675 19.6875 59.375 C19 62 19 62 16 64 C15.01 64 14.02 64 13 64 C13 63.34 13 62.68 13 62 C12.34 62 11.68 62 11 62 C11 60.02 11 58.04 11 56 C10.01 56.495 10.01 56.495 9 57 C8.896875 57.78375 8.79375 58.5675 8.6875 59.375 C8 62 8 62 5.5 63.6875 C4.675 64.120625 3.85 64.55375 3 65 C2.67 65.66 2.34 66.32 2 67 C1.34 67 0.68 67 0 67 C0 66.01 0 65.02 0 64 C0.66 64 1.32 64 2 64 C2 63.34 2 62.68 2 62 C1.34 62 0.68 62 0 62 C0 60.02 0 58.04 0 56 C-0.99 56.495 -0.99 56.495 -2 57 C-2.103125 57.804375 -2.20625 58.60875 -2.3125 59.4375 C-2.539375 60.283125 -2.76625 61.12875 -3 62 C-5.5625 63.3125 -5.5625 63.3125 -8 64 C-8 63.34 -8 62.68 -8 62 C-8.99 62 -9.98 62 -11 62 C-11 60.02 -11 58.04 -11 56 C-11.99 56.495 -11.99 56.495 -13 57 C-13.28875 57.928125 -13.5775 58.85625 -13.875 59.8125 C-15.07999055 63.2266399 -16.1784706 64.77697684 -19 67 C-19.99 67 -20.98 67 -22 67 C-22 66.01 -22 65.02 -22 64 C-21.01 64 -20.02 64 -19 64 C-19 63.34 -19 62.68 -19 62 C-19.99 62 -20.98 62 -22 62 C-22.33 60.35 -22.66 58.7 -23 57 C-23.1546875 58.175625 -23.1546875 58.175625 -23.3125 59.375 C-24 62 -24 62 -27 64 C-27.99 64 -28.98 64 -30 64 C-30 63.34 -30 62.68 -30 62 C-30.99 62 -31.98 62 -33 62 C-33.33 60.35 -33.66 58.7 -34 57 C-34.1546875 58.175625 -34.1546875 58.175625 -34.3125 59.375 C-35 62 -35 62 -38 64 C-38.99 64 -39.98 64 -41 64 C-41 63.34 -41 62.68 -41 62 C-41.66 62 -42.32 62 -43 62 C-43 60.02 -43 58.04 -43 56 C-43.99 56.495 -43.99 56.495 -45 57 C-45.103125 57.7425 -45.20625 58.485 -45.3125 59.25 C-46.24761709 62.99046837 -48.07829168 64.56524306 -51 67 C-51.99 67 -52.98 67 -54 67 C-54 66.01 -54 65.02 -54 64 C-53.01 64 -52.02 64 -51 64 C-51 63.34 -51 62.68 -51 62 C-51.99 62 -52.98 62 -54 62 C-54 61.01 -54 60.02 -54 59 C-54.9075 59.804375 -55.815 60.60875 -56.75 61.4375 C-59.15532483 63.46183957 -60.8767022 64.42161152 -64 65 C-64.495 65.99 -64.495 65.99 -65 67 C-66.65 67 -68.3 67 -70 67 C-70 66.01 -70 65.02 -70 64 C-69.34 64 -68.68 64 -68 64 C-68 63.34 -68 62.68 -68 62 C-67.01 62 -66.02 62 -65 62 C-65 60.02 -65 58.04 -65 56 C-63.35 56 -61.7 56 -60 56 C-60 54.35 -60 52.7 -60 51 C-59.01 51 -58.02 51 -57 51 C-57 50.01 -57 49.02 -57 48 C-56.01 48 -55.02 48 -54 48 C-54 47.01 -54 46.02 -54 45 C-53.01 45 -52.02 45 -51 45 C-51 44.34 -51 43.68 -51 43 C-50.34 43 -49.68 43 -49 43 C-49 42.01 -49 41.02 -49 40 C-48.01 40 -47.02 40 -46 40 C-46 39.01 -46 38.02 -46 37 C-45.01 37 -44.02 37 -43 37 C-43 36.34 -43 35.68 -43 35 C-42.34 35 -41.68 35 -41 35 C-41 34.01 -41 33.02 -41 32 C-40.01 32 -39.02 32 -38 32 C-38 31.01 -38 30.02 -38 29 C-37.01 29 -36.02 29 -35 29 C-35 28.34 -35 27.68 -35 27 C-34.34 27 -33.68 27 -33 27 C-33 26.01 -33 25.02 -33 24 C-32.01 24 -31.02 24 -30 24 C-30 23.01 -30 22.02 -30 21 C-28.02 21 -26.04 21 -24 21 C-24 20.01 -24 19.02 -24 18 C-23.34 18 -22.68 18 -22 18 C-22 17.34 -22 16.68 -22 16 C-21.01 16 -20.02 16 -19 16 C-19 15.01 -19 14.02 -19 13 C-18.01 13 -17.02 13 -16 13 C-16 12.01 -16 11.02 -16 10 C-14.35 10 -12.7 10 -11 10 C-11 9.34 -11 8.68 -11 8 C-10.01 8 -9.02 8 -8 8 C-8 7.01 -8 6.02 -8 5 C-6.35 5 -4.7 5 -3 5 C-3 4.01 -3 3.02 -3 2 C-2.01 2 -1.02 2 0 2 C0 1.34 0 0.68 0 0 Z " fill="#E05D77" transform="translate(148,23)"/>
<path d="M0 0 C4.29 0 8.58 0 13 0 C13 0.66 13 1.32 13 2 C15.64 2 18.28 2 21 2 C21 1.34 21 0.68 21 0 C26.61 0 32.22 0 38 0 C38 0.66 38 1.32 38 2 C38.66 2 39.32 2 40 2 C40 2.99 40 3.98 40 5 C41.98 5 43.96 5 46 5 C46 5.99 46 6.98 46 8 C46.66 8 47.32 8 48 8 C48 8.99 48 9.98 48 11 C48.99 11 49.98 11 51 11 C51 11.66 51 12.32 51 13 C51.99 13 52.98 13 54 13 C54 15.64 54 18.28 54 21 C54.66 21 55.32 21 56 21 C56 26.61 56 32.22 56 38 C55.34 38 54.68 38 54 38 C54 40.64 54 43.28 54 46 C53.01 46 52.02 46 51 46 C51 47.65 51 49.3 51 51 C50.01 51 49.02 51 48 51 C48 51.99 48 52.98 48 54 C47.34 54 46.68 54 46 54 C46 54.66 46 55.32 46 56 C45.01 56 44.02 56 43 56 C43 56.99 43 57.98 43 59 C41.35 59 39.7 59 38 59 C38 59.99 38 60.98 38 62 C36.02 62 34.04 62 32 62 C32 62.99 32 63.98 32 65 C23.09 65 14.18 65 5 65 C5 64.01 5 63.02 5 62 C4.01 62 3.02 62 2 62 C2 61.01 2 60.02 2 59 C-0.64 59 -3.28 59 -6 59 C-6 58.01 -6 57.02 -6 56 C-6.66 56 -7.32 56 -8 56 C-8 50.06 -8 44.12 -8 38 C-8.99 38 -9.98 38 -11 38 C-11 37.01 -11 36.02 -11 35 C-11.99 35 -12.98 35 -14 35 C-14 30.38 -14 25.76 -14 21 C-13.01 21 -12.02 21 -11 21 C-11 20.34 -11 19.68 -11 19 C-10.01 19 -9.02 19 -8 19 C-8 18.01 -8 17.02 -8 16 C-6.35 16 -4.7 16 -3 16 C-3 12.37 -3 8.74 -3 5 C-2.01 5 -1.02 5 0 5 C0 3.35 0 1.7 0 0 Z " fill="#DB5666" transform="translate(237,163)"/>
<path d="M0 0 C5.28 0 10.56 0 16 0 C16 0.99 16 1.98 16 3 C18.64 3 21.28 3 24 3 C24 2.01 24 1.02 24 0 C27.63 0 31.26 0 35 0 C35 0.99 35 1.98 35 3 C35.99 3 36.98 3 38 3 C38 3.99 38 4.98 38 6 C38.66 6 39.32 6 40 6 C40 9.3 40 12.6 40 16 C41.98 16 43.96 16 46 16 C46 16.99 46 17.98 46 19 C46.99 19 47.98 19 49 19 C49 25.27 49 31.54 49 38 C48.01 38 47.02 38 46 38 C46 43.28 46 48.56 46 54 C45.01 54 44.02 54 43 54 C43 54.99 43 55.98 43 57 C42.01 57 41.02 57 40 57 C40 57.99 40 58.98 40 60 C38.35 60 36.7 60 35 60 C35 60.66 35 61.32 35 62 C33.35 62 31.7 62 30 62 C30 62.99 30 63.98 30 65 C21.75 65 13.5 65 5 65 C5 64.01 5 63.02 5 62 C2.36 62 -0.28 62 -3 62 C-3 61.34 -3 60.68 -3 60 C-3.66 60 -4.32 60 -5 60 C-5 59.01 -5 58.02 -5 57 C-5.99 57 -6.98 57 -8 57 C-8 56.01 -8 55.02 -8 54 C-8.99 54 -9.98 54 -11 54 C-11 53.01 -11 52.02 -11 51 C-11.66 51 -12.32 51 -13 51 C-13 49.35 -13 47.7 -13 46 C-13.99 46 -14.98 46 -16 46 C-16 44.35 -16 42.7 -16 41 C-16.99 41 -17.98 41 -19 41 C-19 32.75 -19 24.5 -19 16 C-18.01 16 -17.02 16 -16 16 C-16 14.35 -16 12.7 -16 11 C-15.01 11 -14.02 11 -13 11 C-13 10.01 -13 9.02 -13 8 C-12.34 8 -11.68 8 -11 8 C-11 7.34 -11 6.68 -11 6 C-9.02 6 -7.04 6 -5 6 C-5 5.01 -5 4.02 -5 3 C-3.35 3 -1.7 3 0 3 C0 2.01 0 1.02 0 0 Z " fill="#DB5666" transform="translate(21,141)"/>
<path d="M0 0 C0.66 0 1.32 0 2 0 C2 1.65 2 3.3 2 5 C2.99 5 3.98 5 5 5 C5 4.01 5 3.02 5 2 C5.99 2 6.98 2 8 2 C8 3.98 8 5.96 8 8 C8.99 8 9.98 8 11 8 C11 6.02 11 4.04 11 2 C11.66 2 12.32 2 13 2 C13 2.99 13 3.98 13 5 C13.99 5 14.98 5 16 5 C16 3.35 16 1.7 16 0 C16.99 0 17.98 0 19 0 C19 1.65 19 3.3 19 5 C19.66 5 20.32 5 21 5 C21 4.01 21 3.02 21 2 C21.99 2 22.98 2 24 2 C24 3.98 24 5.96 24 8 C24.99 8 25.98 8 27 8 C27 6.02 27 4.04 27 2 C27.66 2 28.32 2 29 2 C29 2.99 29 3.98 29 5 C29.99 5 30.98 5 32 5 C32 3.35 32 1.7 32 0 C32.99 0 33.98 0 35 0 C35 1.65 35 3.3 35 5 C35.99 5 36.98 5 38 5 C38 4.01 38 3.02 38 2 C38.66 2 39.32 2 40 2 C40 3.98 40 5.96 40 8 C40.99 8 41.98 8 43 8 C43 6.02 43 4.04 43 2 C43.99 2 44.98 2 46 2 C46 2.99 46 3.98 46 5 C46.66 5 47.32 5 48 5 C48 5.99 48 6.98 48 8 C48.99 8 49.98 8 51 8 C51 7.01 51 6.02 51 5 C52.65 5 54.3 5 56 5 C56 5.99 56 6.98 56 8 C57.98 8 59.96 8 62 8 C62 8.66 62 9.32 62 10 C62.66 10 63.32 10 64 10 C64 11.98 64 13.96 64 16 C64.99 16 65.98 16 67 16 C67 16.99 67 17.98 67 19 C68.98 19 70.96 19 73 19 C73 19.66 73 20.32 73 21 C73.66 21 74.32 21 75 21 C75 21.99 75 22.98 75 24 C77.64 24 80.28 24 83 24 C83 24.99 83 25.98 83 27 C83.99 27 84.98 27 86 27 C86 27.66 86 28.32 86 29 C86.99 29 87.98 29 89 29 C89 29.99 89 30.98 89 32 C87.02 32 85.04 32 83 32 C83 31.01 83 30.02 83 29 C81.35 29 79.7 29 78 29 C78 28.34 78 27.68 78 27 C76.8553125 28.2375 76.8553125 28.2375 75.6875 29.5 C73 32 73 32 70 32 C70 31.01 70 30.02 70 29 C70.99 29 71.98 29 73 29 C73 28.34 73 27.68 73 27 C72.01 27 71.02 27 70 27 C70 25.02 70 23.04 70 21 C69.34 21.33 68.68 21.66 68 22 C67.8453125 23.2065625 67.8453125 23.2065625 67.6875 24.4375 C67.3471875 25.7059375 67.3471875 25.7059375 67 27 C64.4375 28.3125 64.4375 28.3125 62 29 C62 28.34 62 27.68 62 27 C61.01 27 60.02 27 59 27 C59 25.02 59 23.04 59 21 C58.34 21.33 57.68 21.66 57 22 C56.34444881 24.52733235 56.34444881 24.52733235 56 27 C55.34 27 54.68 27 54 27 C54 25.02 54 23.04 54 21 C53.34 21.33 52.68 21.66 52 22 C51.896875 22.7425 51.79375 23.485 51.6875 24.25 C50.75238291 27.99046837 48.92170832 29.56524306 46 32 C45.01 32 44.02 32 43 32 C43 31.01 43 30.02 43 29 C43.99 29 44.98 29 46 29 C46 28.34 46 27.68 46 27 C45.01 27 44.02 27 43 27 C43 25.02 43 23.04 43 21 C42.34 21.33 41.68 21.66 41 22 C40.71125 22.99 40.4225 23.98 40.125 25 C39.75375 25.99 39.3825 26.98 39 28 C36.875 28.875 36.875 28.875 35 29 C35 28.34 35 27.68 35 27 C34.01 27 33.02 27 32 27 C32 25.02 32 23.04 32 21 C31.34 21.33 30.68 21.66 30 22 C29.71125 22.928125 29.4225 23.85625 29.125 24.8125 C27.92000945 28.2266399 26.8215294 29.77697684 24 32 C23.01 32 22.02 32 21 32 C21 31.01 21 30.02 21 29 C21.99 29 22.98 29 24 29 C24 28.34 24 27.68 24 27 C23.01 27 22.02 27 21 27 C20.67 25.35 20.34 23.7 20 22 C19.896875 22.78375 19.79375 23.5675 19.6875 24.375 C19 27 19 27 16 29 C15.01 29 14.02 29 13 29 C13 28.34 13 27.68 13 27 C12.34 27 11.68 27 11 27 C11 25.02 11 23.04 11 21 C10.34 21.33 9.68 21.66 9 22 C8.896875 22.78375 8.79375 23.5675 8.6875 24.375 C8 27 8 27 5.5 28.6875 C4.2625 29.3371875 4.2625 29.3371875 3 30 C2.67 30.66 2.34 31.32 2 32 C1.34 32 0.68 32 0 32 C0 31.01 0 30.02 0 29 C0.66 29 1.32 29 2 29 C2 28.34 2 27.68 2 27 C1.34 27 0.68 27 0 27 C0 25.02 0 23.04 0 21 C-0.66 21.33 -1.32 21.66 -2 22 C-2.103125 22.804375 -2.20625 23.60875 -2.3125 24.4375 C-2.539375 25.283125 -2.76625 26.12875 -3 27 C-5.5625 28.3125 -5.5625 28.3125 -8 29 C-8 28.34 -8 27.68 -8 27 C-8.99 27 -9.98 27 -11 27 C-11 25.02 -11 23.04 -11 21 C-11.99 21.495 -11.99 21.495 -13 22 C-13.28875 22.928125 -13.5775 23.85625 -13.875 24.8125 C-15.07999055 28.2266399 -16.1784706 29.77697684 -19 32 C-19.99 32 -20.98 32 -22 32 C-22 31.01 -22 30.02 -22 29 C-21.01 29 -20.02 29 -19 29 C-19 28.34 -19 27.68 -19 27 C-19.99 27 -20.98 27 -22 27 C-22.33 25.35 -22.66 23.7 -23 22 C-23.103125 22.78375 -23.20625 23.5675 -23.3125 24.375 C-24 27 -24 27 -27 29 C-27.99 29 -28.98 29 -30 29 C-30 28.34 -30 27.68 -30 27 C-30.99 27 -31.98 27 -33 27 C-33.33 25.35 -33.66 23.7 -34 22 C-34.103125 22.78375 -34.20625 23.5675 -34.3125 24.375 C-35 27 -35 27 -38 29 C-38.99 29 -39.98 29 -41 29 C-41 28.34 -41 27.68 -41 27 C-41.66 27 -42.32 27 -43 27 C-43 25.02 -43 23.04 -43 21 C-43.66 21.33 -44.32 21.66 -45 22 C-45.103125 22.7425 -45.20625 23.485 -45.3125 24.25 C-46.24761709 27.99046837 -48.07829168 29.56524306 -51 32 C-51.99 32 -52.98 32 -54 32 C-54 31.01 -54 30.02 -54 29 C-53.01 29 -52.02 29 -51 29 C-51 28.34 -51 27.68 -51 27 C-51.99 27 -52.98 27 -54 27 C-54 26.01 -54 25.02 -54 24 C-54.9075 24.804375 -55.815 25.60875 -56.75 26.4375 C-59.15532483 28.46183957 -60.8767022 29.42161152 -64 30 C-64.33 30.66 -64.66 31.32 -65 32 C-66.65 32 -68.3 32 -70 32 C-70 31.01 -70 30.02 -70 29 C-69.34 29 -68.68 29 -68 29 C-68 28.34 -68 27.68 -68 27 C-67.01 27 -66.02 27 -65 27 C-65 26.01 -65 25.02 -65 24 C-62.36 24 -59.72 24 -57 24 C-57 23.01 -57 22.02 -57 21 C-56.01 21 -55.02 21 -54 21 C-54 20.34 -54 19.68 -54 19 C-52.35 19 -50.7 19 -49 19 C-49 18.01 -49 17.02 -49 16 C-48.01 16 -47.02 16 -46 16 C-46 14.02 -46 12.04 -46 10 C-45.01 10 -44.02 10 -43 10 C-43 9.34 -43 8.68 -43 8 C-42.34 8 -41.68 8 -41 8 C-41 7.01 -41 6.02 -41 5 C-39.02 5 -37.04 5 -35 5 C-35 4.01 -35 3.02 -35 2 C-34.34 2 -33.68 2 -33 2 C-33 2.99 -33 3.98 -33 5 C-32.01 5 -31.02 5 -30 5 C-30 5.99 -30 6.98 -30 8 C-29.01 8 -28.02 8 -27 8 C-27 7.01 -27 6.02 -27 5 C-26.01 5 -25.02 5 -24 5 C-24 4.01 -24 3.02 -24 2 C-23.34 2 -22.68 2 -22 2 C-22 2.99 -22 3.98 -22 5 C-21.01 5 -20.02 5 -19 5 C-19 4.01 -19 3.02 -19 2 C-15.37 2 -11.74 2 -8 2 C-8 2.99 -8 3.98 -8 5 C-7.34 5 -6.68 5 -6 5 C-6 5.99 -6 6.98 -6 8 C-5.01 8 -4.02 8 -3 8 C-3 7.01 -3 6.02 -3 5 C-2.01 5 -1.02 5 0 5 C0 3.35 0 1.7 0 0 Z " fill="#DD5970" transform="translate(148,58)"/>
<path d="M0 0 C5.28 0 10.56 0 16 0 C16 0.99 16 1.98 16 3 C16.99 3 17.98 3 19 3 C19 3.99 19 4.98 19 6 C18.01 6 17.02 6 16 6 C16 6.66 16 7.32 16 8 C15.34 8 14.68 8 14 8 C14 8.99 14 9.98 14 11 C12.02 11 10.04 11 8 11 C8 11.99 8 12.98 8 14 C7.01 14 6.02 14 5 14 C5 14.66 5 15.32 5 16 C4.34 16 3.68 16 3 16 C3 19.63 3 23.26 3 27 C3.66 27 4.32 27 5 27 C5 27.99 5 28.98 5 30 C4.34 30 3.68 30 3 30 C3 30.99 3 31.98 3 33 C4.65 33 6.3 33 8 33 C8 33.66 8 34.32 8 35 C7.01 35 6.02 35 5 35 C5 35.99 5 36.98 5 38 C5.99 38 6.98 38 8 38 C8 38.99 8 39.98 8 41 C7.01 41 6.02 41 5 41 C5 41.66 5 42.32 5 43 C6.98 43 8.96 43 11 43 C11 43.99 11 44.98 11 46 C10.01 46 9.02 46 8 46 C8 46.99 8 47.98 8 49 C8.99 49 9.98 49 11 49 C11 52.63 11 56.26 11 60 C11.99 60 12.98 60 14 60 C14 61.65 14 63.3 14 65 C11.03 65 8.06 65 5 65 C5 64.01 5 63.02 5 62 C2.36 62 -0.28 62 -3 62 C-3 61.34 -3 60.68 -3 60 C-3.66 60 -4.32 60 -5 60 C-5 59.01 -5 58.02 -5 57 C-5.99 57 -6.98 57 -8 57 C-8 56.01 -8 55.02 -8 54 C-8.99 54 -9.98 54 -11 54 C-11 53.01 -11 52.02 -11 51 C-11.66 51 -12.32 51 -13 51 C-13 49.35 -13 47.7 -13 46 C-13.99 46 -14.98 46 -16 46 C-16 44.35 -16 42.7 -16 41 C-16.99 41 -17.98 41 -19 41 C-19 32.75 -19 24.5 -19 16 C-18.01 16 -17.02 16 -16 16 C-16 14.35 -16 12.7 -16 11 C-15.01 11 -14.02 11 -13 11 C-13 10.01 -13 9.02 -13 8 C-12.34 8 -11.68 8 -11 8 C-11 7.34 -11 6.68 -11 6 C-9.02 6 -7.04 6 -5 6 C-5 5.01 -5 4.02 -5 3 C-3.35 3 -1.7 3 0 3 C0 2.01 0 1.02 0 0 Z " fill="#D85159" transform="translate(21,141)"/>
<path d="M0 0 C5.61 0 11.22 0 17 0 C17 0.66 17 1.32 17 2 C17.66 2 18.32 2 19 2 C19 2.99 19 3.98 19 5 C20.98 5 22.96 5 25 5 C25 5.99 25 6.98 25 8 C25.66 8 26.32 8 27 8 C27 8.99 27 9.98 27 11 C27.99 11 28.98 11 30 11 C30 11.66 30 12.32 30 13 C30.99 13 31.98 13 33 13 C33 15.64 33 18.28 33 21 C33.66 21 34.32 21 35 21 C35 26.61 35 32.22 35 38 C34.34 38 33.68 38 33 38 C33 40.64 33 43.28 33 46 C32.01 46 31.02 46 30 46 C30 47.65 30 49.3 30 51 C29.01 51 28.02 51 27 51 C27 51.99 27 52.98 27 54 C26.34 54 25.68 54 25 54 C25 54.66 25 55.32 25 56 C24.01 56 23.02 56 22 56 C22 56.99 22 57.98 22 59 C20.35 59 18.7 59 17 59 C17 59.99 17 60.98 17 62 C13.37 62 9.74 62 6 62 C6 60.02 6 58.04 6 56 C6.66 56 7.32 56 8 56 C8 55.34 8 54.68 8 54 C7.34 54 6.68 54 6 54 C6 53.01 6 52.02 6 51 C7.65 51 9.3 51 11 51 C11 50.01 11 49.02 11 48 C10.01 48 9.02 48 8 48 C8 47.34 8 46.68 8 46 C8.99 46 9.98 46 11 46 C11 45.01 11 44.02 11 43 C10.01 43 9.02 43 8 43 C8 42.01 8 41.02 8 40 C9.98 40 11.96 40 14 40 C14 39.34 14 38.68 14 38 C13.01 38 12.02 38 11 38 C11 37.01 11 36.02 11 35 C11.99 35 12.98 35 14 35 C14 34.01 14 33.02 14 32 C13.01 32 12.02 32 11 32 C11 31.01 11 30.02 11 29 C12.98 29 14.96 29 17 29 C17 28.34 17 27.68 17 27 C16.01 27 15.02 27 14 27 C14 26.01 14 25.02 14 24 C14.99 24 15.98 24 17 24 C17 22.35 17 20.7 17 19 C16.01 19 15.02 19 14 19 C14 18.01 14 17.02 14 16 C13.01 16 12.02 16 11 16 C11 15.01 11 14.02 11 13 C9.35 13 7.7 13 6 13 C6 12.34 6 11.68 6 11 C5.01 11 4.02 11 3 11 C3 10.01 3 9.02 3 8 C1.35 8 -0.3 8 -2 8 C-2 6.02 -2 4.04 -2 2 C-1.34 2 -0.68 2 0 2 C0 1.34 0 0.68 0 0 Z " fill="#D8525B" transform="translate(258,163)"/>
<path d="M0 0 C4.29 0 8.58 0 13 0 C13 0.99 13 1.98 13 3 C30.82 3 48.64 3 67 3 C67 2.01 67 1.02 67 0 C68.98 0 70.96 0 73 0 C73 0.99 73 1.98 73 3 C73.66 3 74.32 3 75 3 C75 8.28 75 13.56 75 19 C69.72 19 64.44 19 59 19 C59 18.01 59 17.02 59 16 C43.82 16 28.64 16 13 16 C13 16.99 13 17.98 13 19 C7.72 19 2.44 19 -3 19 C-3 13.72 -3 8.44 -3 3 C-2.01 3 -1.02 3 0 3 C0 2.01 0 1.02 0 0 Z " fill="#FDFBFC" transform="translate(121,133)"/>
<path d="M0 0 C6.27 0 12.54 0 19 0 C19 0.66 19 1.32 19 2 C19.66 2 20.32 2 21 2 C21 2.99 21 3.98 21 5 C22.98 5 24.96 5 27 5 C27 5.99 27 6.98 27 8 C27.66 8 28.32 8 29 8 C29 8.66 29 9.32 29 10 C30.98 10 32.96 10 35 10 C35 10.99 35 11.98 35 13 C35.99 13 36.98 13 38 13 C38 13.99 38 14.98 38 16 C38.66 16 39.32 16 40 16 C40 16.66 40 17.32 40 18 C40.99 18 41.98 18 43 18 C43 18.99 43 19.98 43 21 C44.65 21 46.3 21 48 21 C48 21.99 48 22.98 48 24 C48.99 24 49.98 24 51 24 C51 24.99 51 25.98 51 27 C51.99 27 52.98 27 54 27 C54 27.66 54 28.32 54 29 C54.66 29 55.32 29 56 29 C56 29.99 56 30.98 56 32 C53.36 32 50.72 32 48 32 C48 31.01 48 30.02 48 29 C46.35 29 44.7 29 43 29 C43 28.34 43 27.68 43 27 C42.01 27 41.02 27 40 27 C40 26.01 40 25.02 40 24 C38.35 24 36.7 24 35 24 C35 23.01 35 22.02 35 21 C34.01 21 33.02 21 32 21 C32 20.01 32 19.02 32 18 C31.01 18 30.02 18 29 18 C29 17.34 29 16.68 29 16 C27.35 16 25.7 16 24 16 C24 15.01 24 14.02 24 13 C22.35 13 20.7 13 19 13 C19 12.01 19 11.02 19 10 C18.01 10 17.02 10 16 10 C16 9.34 16 8.68 16 8 C11.38 8 6.76 8 2 8 C2 8.66 2 9.32 2 10 C1.34 10 0.68 10 0 10 C0 10.99 0 11.98 0 13 C-0.99 13 -1.98 13 -3 13 C-3 13.99 -3 14.98 -3 16 C-4.65 16 -6.3 16 -8 16 C-8 16.66 -8 17.32 -8 18 C-9.98 18 -11.96 18 -14 18 C-14 18.99 -14 19.98 -14 21 C-14.66 21 -15.32 21 -16 21 C-16 21.99 -16 22.98 -16 24 C-17.98 24 -19.96 24 -22 24 C-22 25.65 -22 27.3 -22 29 C-24.64 29 -27.28 29 -30 29 C-30 30.98 -30 32.96 -30 35 C-30.99 35 -31.98 35 -33 35 C-33 35.66 -33 36.32 -33 37 C-33.66 37 -34.32 37 -35 37 C-35 37.99 -35 38.98 -35 40 C-36.98 40 -38.96 40 -41 40 C-41 40.99 -41 41.98 -41 43 C-41.66 43 -42.32 43 -43 43 C-43 43.66 -43 44.32 -43 45 C-43.99 45 -44.98 45 -46 45 C-46 46.98 -46 48.96 -46 51 C-46.99 51 -47.98 51 -49 51 C-49 51.99 -49 52.98 -49 54 C-50.65 54 -52.3 54 -54 54 C-54 54.66 -54 55.32 -54 56 C-54.99 56 -55.98 56 -57 56 C-57 56.99 -57 57.98 -57 59 C-59.64 59 -62.28 59 -65 59 C-65 58.01 -65 57.02 -65 56 C-63.35 56 -61.7 56 -60 56 C-60 54.35 -60 52.7 -60 51 C-59.01 51 -58.02 51 -57 51 C-57 50.01 -57 49.02 -57 48 C-56.01 48 -55.02 48 -54 48 C-54 47.01 -54 46.02 -54 45 C-53.01 45 -52.02 45 -51 45 C-51 44.34 -51 43.68 -51 43 C-50.34 43 -49.68 43 -49 43 C-49 42.01 -49 41.02 -49 40 C-48.01 40 -47.02 40 -46 40 C-46 39.01 -46 38.02 -46 37 C-45.01 37 -44.02 37 -43 37 C-43 36.34 -43 35.68 -43 35 C-42.34 35 -41.68 35 -41 35 C-41 34.01 -41 33.02 -41 32 C-40.01 32 -39.02 32 -38 32 C-38 31.01 -38 30.02 -38 29 C-37.01 29 -36.02 29 -35 29 C-35 28.34 -35 27.68 -35 27 C-34.34 27 -33.68 27 -33 27 C-33 26.01 -33 25.02 -33 24 C-32.01 24 -31.02 24 -30 24 C-30 23.01 -30 22.02 -30 21 C-28.02 21 -26.04 21 -24 21 C-24 20.01 -24 19.02 -24 18 C-23.34 18 -22.68 18 -22 18 C-22 17.34 -22 16.68 -22 16 C-21.01 16 -20.02 16 -19 16 C-19 15.01 -19 14.02 -19 13 C-18.01 13 -17.02 13 -16 13 C-16 12.01 -16 11.02 -16 10 C-14.35 10 -12.7 10 -11 10 C-11 9.34 -11 8.68 -11 8 C-10.01 8 -9.02 8 -8 8 C-8 7.01 -8 6.02 -8 5 C-6.35 5 -4.7 5 -3 5 C-3 4.01 -3 3.02 -3 2 C-2.01 2 -1.02 2 0 2 C0 1.34 0 0.68 0 0 Z " fill="#E97A8E" transform="translate(148,23)"/>
<path d="M0 0 C7.26 0 14.52 0 22 0 C22 1.65 22 3.3 22 5 C22.66 5 23.32 5 24 5 C24 7.64 24 10.28 24 13 C20.7 13 17.4 13 14 13 C14 13.99 14 14.98 14 16 C10.37 16 6.74 16 3 16 C3 16.99 3 17.98 3 19 C3.99 19 4.98 19 6 19 C6 19.66 6 20.32 6 21 C6.66 21 7.32 21 8 21 C8 21.99 8 22.98 8 24 C8.99 24 9.98 24 11 24 C11 25.65 11 27.3 11 29 C3.08 29 -4.84 29 -13 29 C-13 28.34 -13 27.68 -13 27 C-12.34 27 -11.68 27 -11 27 C-11 26.01 -11 25.02 -11 24 C-10.01 24 -9.02 24 -8 24 C-8 23.01 -8 22.02 -8 21 C-10.64 21 -13.28 21 -16 21 C-16 21.99 -16 22.98 -16 24 C-17.65 24 -19.3 24 -21 24 C-21 23.01 -21 22.02 -21 21 C-21.99 21 -22.98 21 -24 21 C-24 16.71 -24 12.42 -24 8 C-22.35 8 -20.7 8 -19 8 C-19 7.01 -19 6.02 -19 5 C-15.37 5 -11.74 5 -8 5 C-8 4.01 -8 3.02 -8 2 C-5.36 2 -2.72 2 0 2 C0 1.34 0 0.68 0 0 Z " fill="#43495E" transform="translate(188,93)"/>
<path d="M0 0 C1.98 0 3.96 0 6 0 C6 0.99 6 1.98 6 3 C9.63 3 13.26 3 17 3 C17 3.66 17 4.32 17 5 C20.3 5 23.6 5 27 5 C27 5.99 27 6.98 27 8 C28.98 8 30.96 8 33 8 C33 8.99 33 9.98 33 11 C36.3 11 39.6 11 43 11 C43 15.29 43 19.58 43 24 C42.34 24 41.68 24 41 24 C41 24.99 41 25.98 41 27 C38.36 27 35.72 27 33 27 C33 26.01 33 25.02 33 24 C32.01 24 31.02 24 30 24 C30 25.98 30 27.96 30 30 C30.99 30 31.98 30 33 30 C33 30.66 33 31.32 33 32 C24.75 32 16.5 32 8 32 C8 30.35 8 28.7 8 27 C8.99 27 9.98 27 11 27 C11 26.01 11 25.02 11 24 C11.99 24 12.98 24 14 24 C14 23.34 14 22.68 14 22 C14.99 22 15.98 22 17 22 C17 21.01 17 20.02 17 19 C14.03 19 11.06 19 8 19 C8 18.01 8 17.02 8 16 C3.71 16 -0.58 16 -5 16 C-5 13.36 -5 10.72 -5 8 C-4.01 8 -3.02 8 -2 8 C-2 6.35 -2 4.7 -2 3 C-1.34 3 -0.68 3 0 3 C0 2.01 0 1.02 0 0 Z " fill="#42495F" transform="translate(107,90)"/>
<path d="M0 0 C3.63 0 7.26 0 11 0 C11 1.98 11 3.96 11 6 C13.64 6 16.28 6 19 6 C19 6.99 19 7.98 19 9 C20.65 9 22.3 9 24 9 C24 11.64 24 14.28 24 17 C23.34 17 22.68 17 22 17 C22 17.66 22 18.32 22 19 C20.02 19 18.04 19 16 19 C16 22.63 16 26.26 16 30 C15.34 30 14.68 30 14 30 C14 30.99 14 31.98 14 33 C12.02 33 10.04 33 8 33 C8 32.01 8 31.02 8 30 C7.01 30 6.02 30 5 30 C5 29.01 5 28.02 5 27 C4.34 27 3.68 27 3 27 C3 26.34 3 25.68 3 25 C-0.63 25 -4.26 25 -8 25 C-8 21.37 -8 17.74 -8 14 C-7.01 14 -6.02 14 -5 14 C-5 13.01 -5 12.02 -5 11 C-4.34 11 -3.68 11 -3 11 C-3 8.36 -3 5.72 -3 3 C-2.01 3 -1.02 3 0 3 C0 2.01 0 1.02 0 0 Z " fill="#FDFDFD" transform="translate(56,41)"/>
<path d="M0 0 C4.29 0 8.58 0 13 0 C13 0.66 13 1.32 13 2 C12.360625 2.12375 11.72125 2.2475 11.0625 2.375 C10.381875 2.58125 9.70125 2.7875 9 3 C8.67 3.66 8.34 4.32 8 5 C8.99 5 9.98 5 11 5 C11 5.99 11 6.98 11 8 C10.195625 8.12375 9.39125 8.2475 8.5625 8.375 C7.716875 8.58125 6.87125 8.7875 6 9 C5.67 9.66 5.34 10.32 5 11 C5.99 11 6.98 11 8 11 C8 13 8 13 6.5 14.625 C6.005 15.07875 5.51 15.5325 5 16 C5.99 16 6.98 16 8 16 C8 16.99 8 17.98 8 19 C6.35 19.33 4.7 19.66 3 20 C3.66 20.33 4.32 20.66 5 21 C5 24 5 24 3.5 25.6875 C3.005 26.120625 2.51 26.55375 2 27 C2.99 27 3.98 27 5 27 C5 27.66 5 28.32 5 29 C4.35289062 29.56332031 3.70578125 30.12664062 3.0390625 30.70703125 C0.34100397 33.74105492 0.47367778 35.6820793 0.375 39.6875 C0.31406354 41.79449528 0.20481609 43.90209802 0 46 C-0.99 46.495 -0.99 46.495 -2 47 C-2.165 47.66 -2.33 48.32 -2.5 49 C-2.665 49.66 -2.83 50.32 -3 51 C-3.99 51.495 -3.99 51.495 -5 52 C-5.65213292 54.02463255 -5.65213292 54.02463255 -6 56 C-6.66 56 -7.32 56 -8 56 C-8 50.06 -8 44.12 -8 38 C-8.99 38 -9.98 38 -11 38 C-11 37.01 -11 36.02 -11 35 C-11.99 35 -12.98 35 -14 35 C-14 30.38 -14 25.76 -14 21 C-13.01 21 -12.02 21 -11 21 C-11 20.34 -11 19.68 -11 19 C-10.01 19 -9.02 19 -8 19 C-8 18.01 -8 17.02 -8 16 C-6.35 16 -4.7 16 -3 16 C-3 12.37 -3 8.74 -3 5 C-2.01 5 -1.02 5 0 5 C0 3.35 0 1.7 0 0 Z " fill="#DE5D74" transform="translate(237,163)"/>
<path d="M0 0 C6.27 0 12.54 0 19 0 C19 0.66 19 1.32 19 2 C19.66 2 20.32 2 21 2 C21 2.99 21 3.98 21 5 C22.98 5 24.96 5 27 5 C27 5.99 27 6.98 27 8 C27.66 8 28.32 8 29 8 C29 8.66 29 9.32 29 10 C30.98 10 32.96 10 35 10 C35 10.99 35 11.98 35 13 C35.99 13 36.98 13 38 13 C38 13.99 38 14.98 38 16 C38.66 16 39.32 16 40 16 C40 16.66 40 17.32 40 18 C40.99 18 41.98 18 43 18 C43 18.99 43 19.98 43 21 C44.65 21 46.3 21 48 21 C48 21.99 48 22.98 48 24 C48.99 24 49.98 24 51 24 C51 24.99 51 25.98 51 27 C51.99 27 52.98 27 54 27 C54 27.66 54 28.32 54 29 C54.66 29 55.32 29 56 29 C56 29.99 56 30.98 56 32 C53.36 32 50.72 32 48 32 C48 31.01 48 30.02 48 29 C46.35 29 44.7 29 43 29 C43 28.34 43 27.68 43 27 C42.01 27 41.02 27 40 27 C40 26.01 40 25.02 40 24 C38.35 24 36.7 24 35 24 C35 23.01 35 22.02 35 21 C34.01 21 33.02 21 32 21 C32 20.01 32 19.02 32 18 C31.01 18 30.02 18 29 18 C29 17.34 29 16.68 29 16 C27.35 16 25.7 16 24 16 C24 15.01 24 14.02 24 13 C22.35 13 20.7 13 19 13 C19 12.01 19 11.02 19 10 C18.01 10 17.02 10 16 10 C16 9.34 16 8.68 16 8 C11.38 8 6.76 8 2 8 C2 8.66 2 9.32 2 10 C1.34 10 0.68 10 0 10 C0 9.34 0 8.68 0 8 C-0.99 8 -1.98 8 -3 8 C-3 8.66 -3 9.32 -3 10 C-3.99 10 -4.98 10 -6 10 C-6 10.99 -6 11.98 -6 13 C-6.66 13 -7.32 13 -8 13 C-8 12.01 -8 11.02 -8 10 C-8.99 10 -9.98 10 -11 10 C-11 9.34 -11 8.68 -11 8 C-10.01 8 -9.02 8 -8 8 C-8 7.01 -8 6.02 -8 5 C-6.35 5 -4.7 5 -3 5 C-3 4.01 -3 3.02 -3 2 C-2.01 2 -1.02 2 0 2 C0 1.34 0 0.68 0 0 Z " fill="#F17F96" transform="translate(148,23)"/>
<path d="M0 0 C1.65 0 3.3 0 5 0 C5 0.99 5 1.98 5 3 C5.99 3 6.98 3 8 3 C8 3.99 8 4.98 8 6 C8.66 6 9.32 6 10 6 C10 9.3 10 12.6 10 16 C11.98 16 13.96 16 16 16 C16 16.99 16 17.98 16 19 C16.99 19 17.98 19 19 19 C19 25.27 19 31.54 19 38 C18.01 38 17.02 38 16 38 C16 43.28 16 48.56 16 54 C15.01 54 14.02 54 13 54 C13 52.35 13 50.7 13 49 C12.01 49 11.02 49 10 49 C10 48.01 10 47.02 10 46 C10.99 46 11.98 46 13 46 C13 45.01 13 44.02 13 43 C12.01 43 11.02 43 10 43 C10 41.35 10 39.7 10 38 C9.34 38 8.68 38 8 38 C8 37.01 8 36.02 8 35 C7.01 35 6.02 35 5 35 C5 34.34 5 33.68 5 33 C5.99 33 6.98 33 8 33 C8 30.03 8 27.06 8 24 C7.01 24 6.02 24 5 24 C5 23.34 5 22.68 5 22 C4.01 22 3.02 22 2 22 C2 21.01 2 20.02 2 19 C2.99 19 3.98 19 5 19 C5 18.01 5 17.02 5 16 C4.01 16 3.02 16 2 16 C2 14.35 2 12.7 2 11 C1.34 11 0.68 11 0 11 C0 10.01 0 9.02 0 8 C0.66 8 1.32 8 2 8 C2 7.34 2 6.68 2 6 C1.34 6 0.68 6 0 6 C0 4.02 0 2.04 0 0 Z " fill="#DE5B71" transform="translate(51,141)"/>
<path d="M0 0 C5.61 0 11.22 0 17 0 C17 0.66 17 1.32 17 2 C17.66 2 18.32 2 19 2 C19 2.99 19 3.98 19 5 C20.98 5 22.96 5 25 5 C25 5.99 25 6.98 25 8 C25.66 8 26.32 8 27 8 C27 8.99 27 9.98 27 11 C27.99 11 28.98 11 30 11 C30 11.66 30 12.32 30 13 C30.99 13 31.98 13 33 13 C33 15.64 33 18.28 33 21 C32.01 21 31.02 21 30 21 C30 21.99 30 22.98 30 24 C28.35 24 26.7 24 25 24 C25 23.01 25 22.02 25 21 C23.02 21 21.04 21 19 21 C19 20.34 19 19.68 19 19 C17.35 19 15.7 19 14 19 C14 18.01 14 17.02 14 16 C13.01 16 12.02 16 11 16 C11 15.01 11 14.02 11 13 C9.35 13 7.7 13 6 13 C6 12.34 6 11.68 6 11 C5.01 11 4.02 11 3 11 C3 10.01 3 9.02 3 8 C1.35 8 -0.3 8 -2 8 C-2 6.02 -2 4.04 -2 2 C-1.34 2 -0.68 2 0 2 C0 1.34 0 0.68 0 0 Z " fill="#C44A57" transform="translate(258,163)"/>
<path d="M0 0 C5.28 0 10.56 0 16 0 C16 0.99 16 1.98 16 3 C16.99 3 17.98 3 19 3 C19 3.99 19 4.98 19 6 C18.01 6 17.02 6 16 6 C16 6.66 16 7.32 16 8 C15.34 8 14.68 8 14 8 C14 8.99 14 9.98 14 11 C12.02 11 10.04 11 8 11 C8 11.99 8 12.98 8 14 C7.01 14 6.02 14 5 14 C5 14.66 5 15.32 5 16 C3.35 16 1.7 16 0 16 C0 16.99 0 17.98 0 19 C-1.65 19 -3.3 19 -5 19 C-5 19.99 -5 20.98 -5 22 C-5.99 22 -6.98 22 -8 22 C-8 22.66 -8 23.32 -8 24 C-9.65 24 -11.3 24 -13 24 C-13 23.34 -13 22.68 -13 22 C-12.34 22 -11.68 22 -11 22 C-11 21.01 -11 20.02 -11 19 C-11.66 19 -12.32 19 -13 19 C-13 15.37 -13 11.74 -13 8 C-12.34 8 -11.68 8 -11 8 C-11 7.34 -11 6.68 -11 6 C-9.02 6 -7.04 6 -5 6 C-5 5.01 -5 4.02 -5 3 C-3.35 3 -1.7 3 0 3 C0 2.01 0 1.02 0 0 Z " fill="#C54B57" transform="translate(21,141)"/>
<path d="M0 0 C3.63 0 7.26 0 11 0 C11 0.99 11 1.98 11 3 C11.99 3 12.98 3 14 3 C14 3.66 14 4.32 14 5 C14.66 5 15.32 5 16 5 C16 5.99 16 6.98 16 8 C16.99 8 17.98 8 19 8 C19 8.99 19 9.98 19 11 C19.99 11 20.98 11 22 11 C22 11.66 22 12.32 22 13 C22.99 13 23.98 13 25 13 C25 13.99 25 14.98 25 16 C25.66 16 26.32 16 27 16 C27 16.99 27 17.98 27 19 C27.99 19 28.98 19 30 19 C30 20.65 30 22.3 30 24 C30.99 24 31.98 24 33 24 C33 24.99 33 25.98 33 27 C31.02 27 29.04 27 27 27 C27 26.01 27 25.02 27 24 C26.34 24 25.68 24 25 24 C25 23.34 25 22.68 25 22 C23.02 22 21.04 22 19 22 C19 21.01 19 20.02 19 19 C18.01 19 17.02 19 16 19 C16 17.02 16 15.04 16 13 C15.34 13 14.68 13 14 13 C14 12.34 14 11.68 14 11 C12.02 11 10.04 11 8 11 C8 10.01 8 9.02 8 8 C7.34 8 6.68 8 6 8 C6 7.01 6 6.02 6 5 C5.01 5 4.02 5 3 5 C3 4.34 3 3.68 3 3 C2.01 3 1.02 3 0 3 C0 2.01 0 1.02 0 0 Z " fill="#E37486" transform="translate(196,55)"/>
<path d="M0 0 C3.63 0 7.26 0 11 0 C11 0.99 11 1.98 11 3 C10.01 3 9.02 3 8 3 C8 3.66 8 4.32 8 5 C7.34 5 6.68 5 6 5 C6 5.99 6 6.98 6 8 C4.02 8 2.04 8 0 8 C0 8.99 0 9.98 0 11 C-0.66 11 -1.32 11 -2 11 C-2 11.66 -2 12.32 -2 13 C-2.99 13 -3.98 13 -5 13 C-5 14.98 -5 16.96 -5 19 C-5.99 19 -6.98 19 -8 19 C-8 19.99 -8 20.98 -8 22 C-9.65 22 -11.3 22 -13 22 C-13 22.66 -13 23.32 -13 24 C-13.99 24 -14.98 24 -16 24 C-16 24.99 -16 25.98 -16 27 C-18.64 27 -21.28 27 -24 27 C-24 26.01 -24 25.02 -24 24 C-22.35 24 -20.7 24 -19 24 C-19 22.35 -19 20.7 -19 19 C-18.01 19 -17.02 19 -16 19 C-16 18.01 -16 17.02 -16 16 C-15.01 16 -14.02 16 -13 16 C-13 15.01 -13 14.02 -13 13 C-12.01 13 -11.02 13 -10 13 C-10 12.34 -10 11.68 -10 11 C-9.34 11 -8.68 11 -8 11 C-8 10.01 -8 9.02 -8 8 C-7.01 8 -6.02 8 -5 8 C-5 7.01 -5 6.02 -5 5 C-4.01 5 -3.02 5 -2 5 C-2 4.34 -2 3.68 -2 3 C-1.34 3 -0.68 3 0 3 C0 2.01 0 1.02 0 0 Z " fill="#E17286" transform="translate(107,55)"/>
<path d="M0 0 C2.64 0 5.28 0 8 0 C8 0.99 8 1.98 8 3 C8.99 3 9.98 3 11 3 C11 3.99 11 4.98 11 6 C11.66 6 12.32 6 13 6 C13 6.66 13 7.32 13 8 C13.99 8 14.98 8 16 8 C16 8.99 16 9.98 16 11 C17.65 11 19.3 11 21 11 C21 11.99 21 12.98 21 14 C21.99 14 22.98 14 24 14 C24 14.99 24 15.98 24 17 C24.99 17 25.98 17 27 17 C27 17.66 27 18.32 27 19 C27.66 19 28.32 19 29 19 C29 19.99 29 20.98 29 22 C26.36 22 23.72 22 21 22 C21 21.01 21 20.02 21 19 C19.35 19 17.7 19 16 19 C16 18.34 16 17.68 16 17 C15.01 17 14.02 17 13 17 C13 16.01 13 15.02 13 14 C11.35 14 9.7 14 8 14 C8 13.01 8 12.02 8 11 C7.01 11 6.02 11 5 11 C5 10.01 5 9.02 5 8 C4.01 8 3.02 8 2 8 C2 7.34 2 6.68 2 6 C0.35 6 -1.3 6 -3 6 C-3 5.01 -3 4.02 -3 3 C-2.01 3 -1.02 3 0 3 C0 2.01 0 1.02 0 0 Z " fill="#E97A8E" transform="translate(175,33)"/>
<path d="M0 0 C15.18 0 30.36 0 46 0 C46 0.99 46 1.98 46 3 C30.82 3 15.64 3 0 3 C0 2.01 0 1.02 0 0 Z " fill="#E77D8F" transform="translate(134,149)"/>
<path d="M0 0 C3.63 0 7.26 0 11 0 C11 0.99 11 1.98 11 3 C10.01 3 9.02 3 8 3 C8 3.66 8 4.32 8 5 C7.01 5 6.02 5 5 5 C5 5.99 5 6.98 5 8 C4.01 8 3.02 8 2 8 C2 9.65 2 11.3 2 13 C-0.64 13 -3.28 13 -6 13 C-6 10.36 -6 7.72 -6 5 C-5.01 5 -4.02 5 -3 5 C-3 4.34 -3 3.68 -3 3 C-2.01 3 -1.02 3 0 3 C0 2.01 0 1.02 0 0 Z " fill="#FBFCFC" transform="translate(113,109)"/>
<path d="M0 0 C3.63 0 7.26 0 11 0 C11 0.99 11 1.98 11 3 C11.66 3 12.32 3 13 3 C13 3.66 13 4.32 13 5 C13.99 5 14.98 5 16 5 C16 7.64 16 10.28 16 13 C13.36 13 10.72 13 8 13 C8 11.35 8 9.7 8 8 C7.01 8 6.02 8 5 8 C5 7.01 5 6.02 5 5 C4.34 5 3.68 5 3 5 C3 4.34 3 3.68 3 3 C2.01 3 1.02 3 0 3 C0 2.01 0 1.02 0 0 Z " fill="#F0F1F2" transform="translate(191,109)"/>
<path d="M0 0 C10.89 0 21.78 0 33 0 C33 0.99 33 1.98 33 3 C22.11 3 11.22 3 0 3 C0 2.01 0 1.02 0 0 Z " fill="#E4AFBA" transform="translate(142,136)"/>
<path d="M0 0 C3.63 0 7.26 0 11 0 C11 0.99 11 1.98 11 3 C11.99 3 12.98 3 14 3 C14 4.65 14 6.3 14 8 C14.99 8 15.98 8 17 8 C17 8.99 17 9.98 17 11 C15.02 11 13.04 11 11 11 C11 10.01 11 9.02 11 8 C10.34 8 9.68 8 9 8 C9 7.34 9 6.68 9 6 C7.02 6 5.04 6 3 6 C3 5.01 3 4.02 3 3 C2.01 3 1.02 3 0 3 C0 2.01 0 1.02 0 0 Z " fill="#DF667F" transform="translate(212,71)"/>
<path d="M0 0 C7.92 0 15.84 0 24 0 C24 0.99 24 1.98 24 3 C16.08 3 8.16 3 0 3 C0 2.01 0 1.02 0 0 Z " fill="#A94E61" transform="translate(175,122)"/>
<path d="M0 0 C2.64 0 5.28 0 8 0 C8 0.99 8 1.98 8 3 C7.01 3 6.02 3 5 3 C5 3.99 5 4.98 5 6 C4.34 6 3.68 6 3 6 C3 6.66 3 7.32 3 8 C0.36 8 -2.28 8 -5 8 C-5 6.35 -5 4.7 -5 3 C-3.35 3 -1.7 3 0 3 C0 2.01 0 1.02 0 0 Z " fill="#F8EFF2" transform="translate(172,114)"/>
<path d="M0 0 C7.26 0 14.52 0 22 0 C22 0.99 22 1.98 22 3 C14.74 3 7.48 3 0 3 C0 2.01 0 1.02 0 0 Z " fill="#A84F62" transform="translate(115,122)"/>
<path d="M0 0 C0.99 0 1.98 0 3 0 C3 0.99 3 1.98 3 3 C5.64 3 8.28 3 11 3 C11 4.65 11 6.3 11 8 C8.36 8 5.72 8 3 8 C3 7.34 3 6.68 3 6 C2.01 6 1.02 6 0 6 C0 4.02 0 2.04 0 0 Z " fill="#F5E7EC" transform="translate(137,114)"/>
<path d="M0 0 C0.99 0 1.98 0 3 0 C3 5.28 3 10.56 3 16 C2.01 16 1.02 16 0 16 C0 14.35 0 12.7 0 11 C-0.99 11 -1.98 11 -3 11 C-3 10.01 -3 9.02 -3 8 C-2.01 8 -1.02 8 0 8 C0 5.36 0 2.72 0 0 Z " fill="#DE6E81" transform="translate(64,179)"/>
<path d="M0 0 C0.99 0 1.98 0 3 0 C3 4.62 3 9.24 3 14 C2.01 14 1.02 14 0 14 C0 9.38 0 4.76 0 0 Z " fill="#DF949F" transform="translate(223,184)"/>
<path d="M0 0 C4.62 0 9.24 0 14 0 C14 0.99 14 1.98 14 3 C9.38 3 4.76 3 0 3 C0 2.01 0 1.02 0 0 Z " fill="#864C61" transform="translate(196,90)"/>
<path d="M0 0 C0.99 0 1.98 0 3 0 C3 0.99 3 1.98 3 3 C3.99 3 4.98 3 6 3 C6 3.99 6 4.98 6 6 C5.01 6 4.02 6 3 6 C3 6.66 3 7.32 3 8 C2.01 8 1.02 8 0 8 C0 7.34 0 6.68 0 6 C-0.99 6 -1.98 6 -3 6 C-3 5.01 -3 4.02 -3 3 C-2.01 3 -1.02 3 0 3 C0 2.01 0 1.02 0 0 Z " fill="#000000" transform="translate(29,33)"/>
<path d="M0 0 C4.29 0 8.58 0 13 0 C13 0.99 13 1.98 13 3 C8.71 3 4.42 3 0 3 C0 2.01 0 1.02 0 0 Z " fill="#E4B6C2" transform="translate(121,133)"/>
<path d="M0 0 C3.63 0 7.26 0 11 0 C11 0.99 11 1.98 11 3 C7.37 3 3.74 3 0 3 C0 2.01 0 1.02 0 0 Z " fill="#DAC5CE" transform="translate(258,160)"/>
<path d="M0 0 C0.99 0 1.98 0 3 0 C3 1.65 3 3.3 3 5 C2.01 5 1.02 5 0 5 C0 5.99 0 6.98 0 8 C-0.99 8 -1.98 8 -3 8 C-3 6.02 -3 4.04 -3 2 C-2.01 2 -1.02 2 0 2 C0 1.34 0 0.68 0 0 Z " fill="#E87085" transform="translate(145,31)"/>
<path d="M0 0 C2.64 0 5.28 0 8 0 C8 0.99 8 1.98 8 3 C7.01 3 6.02 3 5 3 C5 3.99 5 4.98 5 6 C4.34 6 3.68 6 3 6 C3 5.01 3 4.02 3 3 C2.01 3 1.02 3 0 3 C0 2.01 0 1.02 0 0 Z " fill="#9FA3A8" transform="translate(172,114)"/>
<path d="M0 0 C0.99 0 1.98 0 3 0 C3 2.64 3 5.28 3 8 C2.01 8 1.02 8 0 8 C0 5.36 0 2.72 0 0 Z " fill="#E1C7D5" transform="translate(226,206)"/>
<path d="M0 0 C0.99 0 1.98 0 3 0 C3 2.64 3 5.28 3 8 C2.01 8 1.02 8 0 8 C0 5.36 0 2.72 0 0 Z " fill="#DF8795" transform="translate(2,174)"/>
<path d="M0 0 C0.99 0 1.98 0 3 0 C3 2.64 3 5.28 3 8 C2.01 8 1.02 8 0 8 C0 5.36 0 2.72 0 0 Z " fill="#E2A5B1" transform="translate(231,171)"/>
<path d="M0 0 C0.99 0 1.98 0 3 0 C3 2.64 3 5.28 3 8 C2.01 8 1.02 8 0 8 C0 5.36 0 2.72 0 0 Z " fill="#DDB8C5" transform="translate(61,149)"/>
<path d="M0 0 C2.64 0 5.28 0 8 0 C8 0.99 8 1.98 8 3 C5.36 3 2.72 3 0 3 C0 2.01 0 1.02 0 0 Z " fill="#E1A0AB" transform="translate(180,133)"/>
<path d="M0 0 C2.64 0 5.28 0 8 0 C8 0.99 8 1.98 8 3 C5.36 3 2.72 3 0 3 C0 2.01 0 1.02 0 0 Z " fill="#EA7388" transform="translate(199,122)"/>
<path d="M0 0 C2.64 0 5.28 0 8 0 C8 0.99 8 1.98 8 3 C5.36 3 2.72 3 0 3 C0 2.01 0 1.02 0 0 Z " fill="#E87185" transform="translate(167,122)"/>
<path d="M0 0 C2.64 0 5.28 0 8 0 C8 0.99 8 1.98 8 3 C5.36 3 2.72 3 0 3 C0 2.01 0 1.02 0 0 Z " fill="#E77084" transform="translate(140,122)"/>
<path d="M0 0 C2.64 0 5.28 0 8 0 C8 0.99 8 1.98 8 3 C5.36 3 2.72 3 0 3 C0 2.01 0 1.02 0 0 Z " fill="#EA7388" transform="translate(107,122)"/>
<path d="M0 0 C0.99 0 1.98 0 3 0 C3 2.64 3 5.28 3 8 C2.01 8 1.02 8 0 8 C0 5.36 0 2.72 0 0 Z " fill="#864C61" transform="translate(102,98)"/>
<path d="M0 0 C2.64 0 5.28 0 8 0 C8 0.99 8 1.98 8 3 C5.36 3 2.72 3 0 3 C0 2.01 0 1.02 0 0 Z " fill="#E8D0DE" transform="translate(153,20)"/>
<path d="M0 0 C1.98 0 3.96 0 6 0 C6 0.99 6 1.98 6 3 C4.02 3 2.04 3 0 3 C0 2.01 0 1.02 0 0 Z " fill="#DE7A8C" transform="translate(242,225)"/>
<path d="M0 0 C1.98 0 3.96 0 6 0 C6 0.99 6 1.98 6 3 C4.02 3 2.04 3 0 3 C0 2.01 0 1.02 0 0 Z " fill="#DA808A" transform="translate(26,203)"/>
<path d="M0 0 C0.99 0 1.98 0 3 0 C3 1.98 3 3.96 3 6 C2.01 6 1.02 6 0 6 C0 4.02 0 2.04 0 0 Z " fill="#E4B0BB" transform="translate(223,184)"/>
<path d="M0 0 C0.99 0 1.98 0 3 0 C3 1.98 3 3.96 3 6 C2.01 6 1.02 6 0 6 C0 4.02 0 2.04 0 0 Z " fill="#D6595E" transform="translate(288,176)"/>
<path d="M0 0 C1.98 0 3.96 0 6 0 C6 0.99 6 1.98 6 3 C4.02 3 2.04 3 0 3 C0 2.01 0 1.02 0 0 Z " fill="#E0BEC6" transform="translate(277,165)"/>
<path d="M0 0 C0.99 0 1.98 0 3 0 C3 1.98 3 3.96 3 6 C2.01 6 1.02 6 0 6 C0 4.02 0 2.04 0 0 Z " fill="#D9777F" transform="translate(2,157)"/>
<path d="M0 0 C1.98 0 3.96 0 6 0 C6 0.99 6 1.98 6 3 C4.02 3 2.04 3 0 3 C0 2.01 0 1.02 0 0 Z " fill="#DD8893" transform="translate(188,152)"/>
<path d="M0 0 C1.98 0 3.96 0 6 0 C6 0.99 6 1.98 6 3 C4.02 3 2.04 3 0 3 C0 2.01 0 1.02 0 0 Z " fill="#E4B0BB" transform="translate(134,149)"/>
<path d="M0 0 C0.99 0 1.98 0 3 0 C3 1.98 3 3.96 3 6 C2.01 6 1.02 6 0 6 C0 4.02 0 2.04 0 0 Z " fill="#EA7388" transform="translate(196,141)"/>
<path d="M0 0 C1.98 0 3.96 0 6 0 C6 0.99 6 1.98 6 3 C4.02 3 2.04 3 0 3 C0 2.01 0 1.02 0 0 Z " fill="#E8D0DE" transform="translate(188,133)"/>
<path d="M0 0 C0.99 0 1.98 0 3 0 C3 1.98 3 3.96 3 6 C2.01 6 1.02 6 0 6 C0 4.02 0 2.04 0 0 Z " fill="#E098A3" transform="translate(250,122)"/>
<path d="M0 0 C0.99 0 1.98 0 3 0 C3 1.98 3 3.96 3 6 C2.01 6 1.02 6 0 6 C0 4.02 0 2.04 0 0 Z " fill="#E098A3" transform="translate(61,122)"/>
<path d="M0 0 C0.99 0 1.98 0 3 0 C3 1.98 3 3.96 3 6 C2.01 6 1.02 6 0 6 C0 4.02 0 2.04 0 0 Z " fill="#DDC3D1" transform="translate(253,114)"/>
<path d="M0 0 C0.99 0 1.98 0 3 0 C3 1.98 3 3.96 3 6 C2.01 6 1.02 6 0 6 C0 4.02 0 2.04 0 0 Z " fill="#E6C0D0" transform="translate(204,114)"/>
<path d="M0 0 C0.99 0 1.98 0 3 0 C3 1.98 3 3.96 3 6 C2.01 6 1.02 6 0 6 C0 4.02 0 2.04 0 0 Z " fill="#C1C6CB" transform="translate(137,114)"/>
<path d="M0 0 C0.99 0 1.98 0 3 0 C3 1.98 3 3.96 3 6 C2.01 6 1.02 6 0 6 C0 4.02 0 2.04 0 0 Z " fill="#E6C0D0" transform="translate(107,114)"/>
<path d="M0 0 C0.99 0 1.98 0 3 0 C3 1.98 3 3.96 3 6 C2.01 6 1.02 6 0 6 C0 4.02 0 2.04 0 0 Z " fill="#D84F58" transform="translate(250,114)"/>
<path d="M0 0 C0.99 0 1.98 0 3 0 C3 1.98 3 3.96 3 6 C2.01 6 1.02 6 0 6 C0 4.02 0 2.04 0 0 Z " fill="#D84F58" transform="translate(61,114)"/>
<path d="M0 0 C1.98 0 3.96 0 6 0 C6 0.99 6 1.98 6 3 C4.02 3 2.04 3 0 3 C0 2.01 0 1.02 0 0 Z " fill="#ABAFB3" transform="translate(118,109)"/>
<path d="M0 0 C0.99 0 1.98 0 3 0 C3 1.98 3 3.96 3 6 C2.01 6 1.02 6 0 6 C0 4.02 0 2.04 0 0 Z " fill="#DE7889" transform="translate(64,103)"/>
<path d="M0 0 C0.99 0 1.98 0 3 0 C3 1.98 3 3.96 3 6 C2.01 6 1.02 6 0 6 C0 4.02 0 2.04 0 0 Z " fill="#A84F62" transform="translate(161,103)"/>
<path d="M0 0 C0.99 0 1.98 0 3 0 C3 1.98 3 3.96 3 6 C2.01 6 1.02 6 0 6 C0 4.02 0 2.04 0 0 Z " fill="#A84F62" transform="translate(150,103)"/>
<path d="M0 0 C1.98 0 3.96 0 6 0 C6 0.99 6 1.98 6 3 C4.02 3 2.04 3 0 3 C0 2.01 0 1.02 0 0 Z " fill="#8D4D61" transform="translate(169,98)"/>
<path d="M0 0 C1.98 0 3.96 0 6 0 C6 0.99 6 1.98 6 3 C4.02 3 2.04 3 0 3 C0 2.01 0 1.02 0 0 Z " fill="#734B61" transform="translate(180,95)"/>
<path d="M0 0 C1.98 0 3.96 0 6 0 C6 0.99 6 1.98 6 3 C4.02 3 2.04 3 0 3 C0 2.01 0 1.02 0 0 Z " fill="#B34C5D" transform="translate(196,90)"/>
<path d="M0 0 C1.98 0 3.96 0 6 0 C6 0.99 6 1.98 6 3 C4.02 3 2.04 3 0 3 C0 2.01 0 1.02 0 0 Z " fill="#734B61" transform="translate(107,90)"/>
<path d="M0 0 C1.98 0 3.96 0 6 0 C6 0.99 6 1.98 6 3 C4.02 3 2.04 3 0 3 C0 2.01 0 1.02 0 0 Z " fill="#F4F5F5" transform="translate(64,71)"/>
<path d="M0 0 C0.99 0 1.98 0 3 0 C3 1.98 3 3.96 3 6 C2.01 6 1.02 6 0 6 C0 4.02 0 2.04 0 0 Z " fill="#F0F1F2" transform="translate(72,60)"/>
<path d="M0 0 C1.98 0 3.96 0 6 0 C6 0.99 6 1.98 6 3 C4.02 3 2.04 3 0 3 C0 2.01 0 1.02 0 0 Z " fill="#E4CCD3" transform="translate(169,25)"/>
</svg>
