<svg width="32" height="32" viewBox="0 0 32 32" fill="none" xmlns="http://www.w3.org/2000/svg">
<g clip-path="url(#clip0_quests)">
<!-- Scroll background -->
<path d="M7 5C7 3.89543 7.89543 3 9 3H23C24.1046 3 25 3.89543 25 5V27C25 28.1046 24.1046 29 23 29H9C7.89543 29 7 28.1046 7 27V5Z" fill="#FEF3C7"/>

<!-- Scroll rolls top -->
<ellipse cx="16" cy="3" rx="9" ry="1.5" fill="#F59E0B"/>
<rect x="7" y="3" width="18" height="2" fill="#FBBF24"/>

<!-- Scroll rolls bottom -->
<ellipse cx="16" cy="29" rx="9" ry="1.5" fill="#F59E0B"/>
<rect x="7" y="27" width="18" height="2" fill="#FBBF24"/>

<!-- Shield/Badge in center -->
<path d="M16 8L19 9.5V13.5C19 16 17.5 18 16 19C14.5 18 13 16 13 13.5V9.5L16 8Z" fill="#10B981"/>
<path d="M16 8L19 9.5V13.5C19 16 17.5 18 16 19C14.5 18 13 16 13 13.5V9.5L16 8Z" stroke="#059669" stroke-width="0.5"/>

<!-- Star on shield -->
<path d="M16 11L16.5 12.5L18 13L16.5 13.5L16 15L15.5 13.5L14 13L15.5 12.5L16 11Z" fill="#FCD34D"/>

<!-- Quest text lines -->
<line x1="11" y1="21" x2="21" y2="21" stroke="#D97706" stroke-width="1" stroke-linecap="round"/>
<line x1="11" y1="23.5" x2="18" y2="23.5" stroke="#D97706" stroke-width="1" stroke-linecap="round"/>

<!-- Checkmark -->
<path d="M10 21L11 22L13 20" stroke="#10B981" stroke-width="1" stroke-linecap="round" stroke-linejoin="round"/>

<!-- Decorative corners -->
<circle cx="10" cy="8" r="0.5" fill="#F59E0B"/>
<circle cx="22" cy="8" r="0.5" fill="#F59E0B"/>
<circle cx="10" cy="26" r="0.5" fill="#F59E0B"/>
<circle cx="22" cy="26" r="0.5" fill="#F59E0B"/>
</g>
<defs>
<clipPath id="clip0_quests">
<rect width="32" height="32" fill="white"/>
</clipPath>
</defs>
</svg>




