<?xml version="1.0" encoding="UTF-8"?>
<svg version="1.1" xmlns="http://www.w3.org/2000/svg" width="192" height="256">
<path d="M0 0 C4.93331362 2.56464145 7.15333143 5.85570898 9 11 C9.86625 11.7425 10.7325 12.485 11.625 13.25 C14.55448457 16.64203476 14.6799158 18.48715766 14.42578125 22.84375 C13.7824717 26.1016112 12.45505234 27.81773126 10 30 C7.859375 30.625 7.859375 30.625 6 31 C6.12117188 31.60585937 6.24234375 32.21171875 6.3671875 32.8359375 C6.72100389 34.60501946 7.07238034 36.37459043 7.421875 38.14453125 C7.78907678 39.95821032 8.17263967 41.76871312 8.578125 43.57421875 C11.60619686 57.35194572 11.60619686 57.35194572 8.84375 61.90625 C7.92264828 63.07297885 6.99194534 64.23220625 6.05078125 65.3828125 C4.70856128 67.10719593 4.70856128 67.10719593 5.125 70.0625 C5.41375 71.031875 5.7025 72.00125 6 73 C7.0301303 76.94883283 7.10175931 79.13573432 5.5 82.8125 C2.3753193 90.54426806 5.18840345 97.86319951 8.06762695 105.33447266 C10.81223985 111.60539699 15.15146585 115.26916179 20.28125 119.609375 C26.91328121 125.44098865 27.26382207 131.49284073 27.99584961 139.92431641 C28.66076864 145.95150838 31.00038579 149.75491816 34.578125 154.6484375 C36.11929367 157.19729337 36.37651299 158.28770366 35.9375 161.1875 C35.628125 162.115625 35.31875 163.04375 35 164 C26.99977398 163.39752513 19.23723064 162.0020576 11.375 160.4375 C10.18003906 160.20353516 8.98507813 159.96957031 7.75390625 159.72851562 C4.83513245 159.15643596 1.91745029 158.57879138 -1 158 C-0.01 153.71 0.98 149.42 2 145 C-4.80287646 145.18896879 -9.02179505 146.04880168 -14.6015625 149.94140625 C-16.37584548 152.55326975 -16.57067513 154.78725472 -16.43554688 157.91137695 C-15.66105325 161.62538648 -13.412776 164.03899797 -10.9375 166.8125 C-9.18308095 168.83252831 -7.58489827 170.83446611 -6 173 C-7.26654213 176.79962638 -8.61934264 177.33281013 -11.953125 179.46875 C-12.96503906 180.12230469 -13.97695312 180.77585938 -15.01953125 181.44921875 C-16.08558594 182.12597656 -17.15164062 182.80273438 -18.25 183.5 C-19.82587891 184.51513672 -19.82587891 184.51513672 -21.43359375 185.55078125 C-24.28105958 187.38052165 -27.13246709 189.20187705 -30 191 C-30.89686523 191.56654297 -31.79373047 192.13308594 -32.71777344 192.71679688 C-35 194 -35 194 -37 194 C-39.80119364 189.79820954 -39.28404929 186.21624502 -38.6640625 181.37890625 C-37.96710718 175.79551975 -37.9550551 172.10095778 -40.22265625 166.94921875 C-43.13170708 159.65466415 -41.67881366 152.42285378 -40 145 C-41.093125 144.401875 -42.18625 143.80375 -43.3125 143.1875 C-45.30044821 142.09975475 -46.84771762 141.15855776 -48.421875 139.51953125 C-50.40505414 137.609985 -52.44954384 136.66728169 -54.9375 135.5 C-57.53653742 134.27692357 -59.81624474 133.14037809 -62.1015625 131.39453125 C-64.09238363 129.7417891 -64.09238363 129.7417891 -67.4375 129.1875 C-71.97740198 127.67419934 -73.46370708 126.02822993 -76 122 C-76.66383088 119.26600023 -76.85352968 116.83175953 -77 114 C-78.19625 114.0825 -79.3925 114.165 -80.625 114.25 C-85.155657 114.22598592 -87.55395406 113.05444981 -91 110 C-94.67257536 105.16766401 -95.44348787 101.64062711 -95.43359375 95.625 C-95 93 -95 93 -92 86 C-97.94 79.07 -97.94 79.07 -104 72 C-103.34 71.01 -102.68 70.02 -102 69 C-101.34 69 -100.68 69 -100 69 C-100.2165625 68.35933594 -100.433125 67.71867187 -100.65625 67.05859375 C-102.3046548 61.93785477 -103.65273474 57.43945614 -103 52 C-102.52433594 51.37222656 -102.04867187 50.74445313 -101.55859375 50.09765625 C-99.84842638 47.79600243 -99.34352653 46.08387737 -98.6875 43.3125 C-95.92931923 33.6942286 -90.34860201 27.36175487 -82 22 C-74.54883862 17.95465889 -66.98073845 17.68884034 -58.6875 17.5 C-57.68009766 17.44585937 -56.67269531 17.39171875 -55.63476562 17.3359375 C-49.91417164 17.2315879 -46.66136202 17.69359651 -42.26953125 21.53125 C-41.15314634 22.66189504 -40.0528197 23.80993944 -39 25 C-37.35 24.34 -35.7 23.68 -34 23 C-33.25169922 24.71509766 -33.25169922 24.71509766 -32.48828125 26.46484375 C-28.78256928 35.0703194 -28.78256928 35.0703194 -21.578125 40.25 C-18.31545892 40.42400886 -15.24885643 40.2936556 -12 40 C-11.34 40.33 -10.68 40.66 -10 41 C-10.65615259 38.12933242 -11.41208519 36.41602446 -13.84375 34.6953125 C-15.25504501 33.87205708 -16.68211131 33.07512837 -18.125 32.30859375 C-20.35994684 30.7487871 -21.06196896 29.53848606 -22 27 C-22.125 23.75 -22.125 23.75 -22 21 C-19.03 21 -16.06 21 -13 21 C-12.01 22.98 -12.01 22.98 -11 25 C-9.515 25.495 -9.515 25.495 -8 26 C-7.97421875 25.33613281 -7.9484375 24.67226562 -7.921875 23.98828125 C-7.56648998 18.45558259 -7.16881722 15.03433925 -3 11 C-4.05310277 9.72996677 -4.05310277 9.72996677 -6.4375 9.8125 C-9.16734675 9.73160017 -9.16734675 9.73160017 -11 12 C-13.9628331 11.60495559 -16.38326241 10.40182371 -19 9 C-18.80504041 5.49072741 -18.20351779 4.20351779 -15.6875 1.6875 C-10.89728425 -1.12414837 -5.32427908 -0.94796401 0 0 Z " fill="#5290C1" transform="translate(140,46)"/>
<path d="M0 0 C7.99651568 -0.6271777 7.99651568 -0.6271777 12 1.875 C15.28503035 5.36534475 15.37853448 7.98198423 15.37109375 12.625 C14.84455853 15.9948254 13.16389193 17.79946029 11.05078125 20.3828125 C9.70856128 22.10719593 9.70856128 22.10719593 10.125 25.0625 C10.41375 26.031875 10.7025 27.00125 11 28 C12.0301303 31.94883283 12.10175931 34.13573432 10.5 37.8125 C7.3753193 45.54426806 10.18840345 52.86319951 13.06762695 60.33447266 C15.81223985 66.60539699 20.15146585 70.26916179 25.28125 74.609375 C31.91328121 80.44098865 32.26382207 86.49284073 32.99584961 94.92431641 C33.66076864 100.95150838 36.00038579 104.75491816 39.578125 109.6484375 C41.11929367 112.19729337 41.37651299 113.28770366 40.9375 116.1875 C40.628125 117.115625 40.31875 118.04375 40 119 C31.99977398 118.39752513 24.23723064 117.0020576 16.375 115.4375 C14.58255859 115.08655273 14.58255859 115.08655273 12.75390625 114.72851562 C9.83513245 114.15643596 6.91745029 113.57879138 4 113 C4.99 108.71 5.98 104.42 7 100 C0.19712354 100.18896879 -4.02179505 101.04880168 -9.6015625 104.94140625 C-11.37584548 107.55326975 -11.57067513 109.78725472 -11.43554688 112.91137695 C-10.66105325 116.62538648 -8.412776 119.03899797 -5.9375 121.8125 C-4.18308095 123.83252831 -2.58489827 125.83446611 -1 128 C-2.26654213 131.79962638 -3.61934264 132.33281013 -6.953125 134.46875 C-7.96503906 135.12230469 -8.97695312 135.77585938 -10.01953125 136.44921875 C-11.08558594 137.12597656 -12.15164062 137.80273438 -13.25 138.5 C-14.30058594 139.17675781 -15.35117188 139.85351562 -16.43359375 140.55078125 C-19.28105958 142.38052165 -22.13246709 144.20187705 -25 146 C-25.89686523 146.56654297 -26.79373047 147.13308594 -27.71777344 147.71679688 C-30 149 -30 149 -32 149 C-34.80119364 144.79820954 -34.28404929 141.21624502 -33.6640625 136.37890625 C-32.96710718 130.79551975 -32.9550551 127.10095778 -35.22265625 121.94921875 C-38.13170708 114.65466415 -36.67881366 107.42285378 -35 100 C-36.093125 99.401875 -37.18625 98.80375 -38.3125 98.1875 C-40.30044821 97.09975475 -41.84771762 96.15855776 -43.421875 94.51953125 C-45.40505414 92.609985 -47.44954384 91.66728169 -49.9375 90.5 C-52.53653742 89.27692357 -54.81624474 88.14037809 -57.1015625 86.39453125 C-59.09238363 84.7417891 -59.09238363 84.7417891 -62.4375 84.1875 C-66.97740198 82.67419934 -68.46370708 81.02822993 -71 77 C-71.66383088 74.26600023 -71.85352968 71.83175953 -72 69 C-68.535 68.01 -68.535 68.01 -65 67 C-66.98684622 63.94877188 -68.94178556 61.07115099 -71.25 58.25 C-73 56 -73 56 -73 54 C-68.33982335 51.66991168 -61.5407859 52.26384514 -56.640625 53.68359375 C-53.02411066 55.37270219 -50.47249394 57.40715198 -47.75 60.3125 C-46.8425 61.199375 -45.935 62.08625 -45 63 C-41.31500813 62.76825485 -38.70245266 60.61360209 -35.75390625 58.54296875 C-34.75166016 57.84236328 -33.74941406 57.14175781 -32.71679688 56.41992188 C-31.67587891 55.68322266 -30.63496094 54.94652344 -29.5625 54.1875 C-28.52544922 53.46240234 -27.48839844 52.73730469 -26.41992188 51.99023438 C-21.83978966 48.77502274 -17.34370336 45.53112747 -13 42 C-13.27714844 41.48050781 -13.55429688 40.96101563 -13.83984375 40.42578125 C-18.17487191 32.079695 -19.26104199 24.74738828 -16.5625 15.625 C-15.82028423 13.30871309 -15.08735755 11.17471509 -14 9 C-13.34 9 -12.68 9 -12 9 C-10.82823482 11.12232979 -9.66245215 13.24757791 -8.5 15.375 C-8.16613281 15.97828125 -7.83226563 16.5815625 -7.48828125 17.203125 C-5 21.7734375 -5 21.7734375 -5 24 C-2.35247996 21.42215154 -0.05567935 19.08351902 2 16 C3.97888961 15.27306096 5.97954558 14.60183749 8 14 C9.41577477 12.81575674 9.41577477 12.81575674 9.0625 9.4375 C9.041875 8.303125 9.02125 7.16875 9 6 C6.69 5.67 4.38 5.34 2 5 C1.01 2.525 1.01 2.525 0 0 Z " fill="#417196" transform="translate(135,91)"/>
<path d="M0 0 C4.01510257 2.3762852 6.62387929 4.72386682 8.60546875 9.05859375 C5.63546875 10.37859375 2.66546875 11.69859375 -0.39453125 13.05859375 C-0.88953125 11.07859375 -0.88953125 11.07859375 -1.39453125 9.05859375 C-7.82953125 9.55359375 -7.82953125 9.55359375 -14.39453125 10.05859375 C-14.91015625 11.29609375 -15.42578125 12.53359375 -15.95703125 13.80859375 C-16.39208984 14.85273438 -16.39208984 14.85273438 -16.8359375 15.91796875 C-17.49033533 18.42573106 -17.2913434 19.64749224 -16.39453125 22.05859375 C-15.73453125 23.04859375 -15.07453125 24.03859375 -14.39453125 25.05859375 C-15.05453125 25.05859375 -15.71453125 25.05859375 -16.39453125 25.05859375 C-15.89953125 25.73921875 -15.40453125 26.41984375 -14.89453125 27.12109375 C-13.04368692 30.7456639 -12.95544964 33.03367903 -13.39453125 37.05859375 C-14.89453125 39.49609375 -14.89453125 39.49609375 -16.39453125 41.05859375 C-13.75453125 41.38859375 -11.11453125 41.71859375 -8.39453125 42.05859375 C-12.09543646 45.98379625 -15.94412781 49.00439531 -20.39453125 52.05859375 C-19.59015625 52.78046875 -18.78578125 53.50234375 -17.95703125 54.24609375 C-15.37161053 57.08375064 -14.71410312 58.33025522 -14.39453125 62.05859375 C-12.74453125 62.05859375 -11.09453125 62.05859375 -9.39453125 62.05859375 C-9.88953125 59.58359375 -9.88953125 59.58359375 -10.39453125 57.05859375 C-8.41453125 56.56359375 -8.41453125 56.56359375 -6.39453125 56.05859375 C-6.12640625 56.86296875 -5.85828125 57.66734375 -5.58203125 58.49609375 C-5.19015625 59.34171875 -4.79828125 60.18734375 -4.39453125 61.05859375 C-3.40453125 61.38859375 -2.41453125 61.71859375 -1.39453125 62.05859375 C0.29647709 63.98542298 1.83288144 65.88266384 3.35546875 67.93359375 C3.99162109 68.74763672 3.99162109 68.74763672 4.640625 69.578125 C5.83984375 71.17578125 5.83984375 71.17578125 7.60546875 74.05859375 C6.33892662 77.85822013 4.98612611 78.39140388 1.65234375 80.52734375 C0.64042969 81.18089844 -0.37148437 81.83445312 -1.4140625 82.5078125 C-2.48011719 83.18457031 -3.54617187 83.86132812 -4.64453125 84.55859375 C-5.69511719 85.23535156 -6.74570313 85.91210938 -7.828125 86.609375 C-10.67559083 88.4391154 -13.52699834 90.2604708 -16.39453125 92.05859375 C-17.7398291 92.9084082 -17.7398291 92.9084082 -19.11230469 93.77539062 C-21.39453125 95.05859375 -21.39453125 95.05859375 -23.39453125 95.05859375 C-26.19572489 90.85680329 -25.67858054 87.27483877 -25.05859375 82.4375 C-24.36163843 76.8541135 -24.34958635 73.15955153 -26.6171875 68.0078125 C-29.52623833 60.7132579 -28.07334491 53.48144753 -26.39453125 46.05859375 C-27.48765625 45.52234375 -28.58078125 44.98609375 -29.70703125 44.43359375 C-33.47391299 42.26039274 -34.99189516 40.26650201 -36.39453125 36.05859375 C-36.93500029 31.7348414 -36.66431566 29.59816257 -34.70703125 25.68359375 C-32.39453125 23.05859375 -32.39453125 23.05859375 -29.64453125 22.18359375 C-28.90203125 22.14234375 -28.15953125 22.10109375 -27.39453125 22.05859375 C-27.4409375 21.49011719 -27.48734375 20.92164063 -27.53515625 20.3359375 C-27.80761769 14.50720883 -27.13804967 10.61828625 -23.39453125 6.05859375 C-16.88432876 -0.49599649 -9.15412583 -3.59893038 0 0 Z " fill="#30495D" transform="translate(126.39453125,144.94140625)"/>
<path d="M0 0 C2.96875 -0.3984375 2.96875 -0.3984375 6.5 -0.375 C7.6653125 -0.38273438 8.830625 -0.39046875 10.03125 -0.3984375 C11.0109375 -0.26695312 11.990625 -0.13546875 13 0 C13.66 0.99 14.32 1.98 15 3 C15.99 2.34 16.98 1.68 18 1 C23.24618693 0.34895804 29.04332492 -0.1271231 33.6875 2.75 C35.94080219 4.94240213 36.77905593 5.90678308 37 9 C32.5862069 12.0651341 32.5862069 12.0651341 29.75 11.75 C28 11 28 11 27 10 C24.54207971 9.66656449 24.54207971 9.66656449 22 10 C21.01 11.485 21.01 11.485 20 13 C20.639375 13.226875 21.27875 13.45375 21.9375 13.6875 C24 15 24 15 24.75 17.625 C24.8325 18.40875 24.915 19.1925 25 20 C29.89222857 17.29366079 34.44982692 14.34828931 38.984375 11.07421875 C39.64953125 10.71972656 40.3146875 10.36523438 41 10 C44 11 44 11 45.1875 12.75 C46.10819096 15.29960574 46.14948718 17.30923081 46 20 C44.35 20.66 42.7 21.32 41 22 C41.495 25.96 41.495 25.96 42 30 C41.34 30.226875 40.68 30.45375 40 30.6875 C37.42897634 31.81232285 35.53333081 32.98243508 33.25 34.5625 C30.20876197 36.54044804 28.11679776 37.27536769 24.5 37.4375 C19.91302412 37.74011299 17.07367961 39.27920175 13.53125 42.16796875 C10.91598429 45.29694736 11 48.00198698 11 52 C9.5 50.625 9.5 50.625 8 49 C8 48.34 8 47.68 8 47 C7.01 47.66 6.02 48.32 5 49 C5 50.32 5 51.64 5 53 C3.35 53 1.7 53 0 53 C-0.04125 52.443125 -0.0825 51.88625 -0.125 51.3125 C-1.46930374 47.75969726 -4.00974189 46.29041047 -7 44 C-3.29909479 40.0747975 0.54959656 37.05419844 5 34 C1.04 33.505 1.04 33.505 -3 33 C-2.505 32.319375 -2.01 31.63875 -1.5 30.9375 C0.34848987 27.31754066 0.35930557 25.02422241 0 21 C-0.92745649 18.26225382 -0.92745649 18.26225382 -2 16 C-2 15.34 -2 14.68 -2 14 C-2.66 13.34 -3.32 12.68 -4 12 C-3.828125 9.94140625 -3.828125 9.94140625 -3.25 7.5625 C-3.06953125 6.78003906 -2.8890625 5.99757812 -2.703125 5.19140625 C-2 3 -2 3 0 0 Z " fill="#528FBF" transform="translate(112,154)"/>
<path d="M0 0 C1.25425781 0.10183594 2.50851563 0.20367187 3.80078125 0.30859375 C5.22970703 0.43427734 5.22970703 0.43427734 6.6875 0.5625 C6.65011719 1.49578125 6.61273438 2.4290625 6.57421875 3.390625 C6.71784145 7.41206054 7.92637935 8.72249019 10.6875 11.5625 C11.6775 12.2225 12.6675 12.8825 13.6875 13.5625 C13.3575 14.5525 13.0275 15.5425 12.6875 16.5625 C10.625 17.25 10.625 17.25 8.6875 17.5625 C8.6875 18.2225 8.6875 18.8825 8.6875 19.5625 C6.87890625 20.8671875 6.87890625 20.8671875 4.25 22.4375 C-1.77533348 26.1544265 -7.53332536 30.18919049 -13.29663086 34.29833984 C-15.29854565 35.72458474 -17.3035967 37.14611755 -19.3125 38.5625 C-19.89821777 38.97580566 -20.48393555 39.38911133 -21.08740234 39.81494141 C-25.07407967 42.5625 -25.07407967 42.5625 -27.3125 42.5625 C-27.53164063 41.93601563 -27.75078125 41.30953125 -27.9765625 40.6640625 C-29.95526688 35.21283086 -29.95526688 35.21283086 -34.5625 32 C-35.47 31.855625 -36.3775 31.71125 -37.3125 31.5625 C-36.00891623 20.99897636 -31.7822447 12.79031945 -23.4609375 6.03125 C-15.97449299 0.9132443 -8.98758318 -0.75596494 0 0 Z " fill="#BDD2E3" transform="translate(77.3125,64.4375)"/>
<path d="M0 0 C4.93331362 2.56464145 7.15333143 5.85570898 9 11 C9.86625 11.7425 10.7325 12.485 11.625 13.25 C14.55448457 16.64203476 14.6799158 18.48715766 14.42578125 22.84375 C13.7824717 26.1016112 12.45505234 27.81773126 10 30 C7.859375 30.625 7.859375 30.625 6 31 C6.144375 31.64066406 6.28875 32.28132813 6.4375 32.94140625 C7.54035491 38.08040377 8.22839311 42.74695843 8 48 C7.443125 47.66613281 6.88625 47.33226562 6.3125 46.98828125 C3.59981197 45.8289737 1.91846569 45.95170933 -1 46.1875 C-5.67569787 46.28376437 -5.67569787 46.28376437 -8.5 43.8125 C-10 41 -10 41 -10.75 38.5 C-12.45183565 35.0963287 -14.82747902 34.06040177 -18.125 32.30859375 C-20.35994684 30.7487871 -21.06196896 29.53848606 -22 27 C-22.125 23.75 -22.125 23.75 -22 21 C-19.03 21 -16.06 21 -13 21 C-12.34 22.32 -11.68 23.64 -11 25 C-10.01 25.33 -9.02 25.66 -8 26 C-7.97421875 25.33613281 -7.9484375 24.67226562 -7.921875 23.98828125 C-7.56648998 18.45558259 -7.16881722 15.03433925 -3 11 C-4.05310277 9.72996677 -4.05310277 9.72996677 -6.4375 9.8125 C-9.16734675 9.73160017 -9.16734675 9.73160017 -11 12 C-13.9628331 11.60495559 -16.38326241 10.40182371 -19 9 C-18.80504041 5.49072741 -18.20351779 4.20351779 -15.6875 1.6875 C-10.89728425 -1.12414837 -5.32427908 -0.94796401 0 0 Z " fill="#528DBC" transform="translate(140,46)"/>
<path d="M0 0 C4.67113357 4.32934331 6.80111982 7.45376026 7.0625 13.875 C6.80111982 20.29623974 4.67113357 23.42065669 0 27.75 C-4.87106475 30.05268515 -9.13936881 30.14879561 -14.4375 29.375 C-19.29858919 27.07703056 -22.13953056 24.23608919 -24.4375 19.375 C-25.08160718 14.45373169 -25.14551305 10.03883066 -23.1875 5.4375 C-16.94384871 -1.92108902 -9.15649808 -4.32852637 0 0 Z " fill="#4A7DA3" transform="translate(95.4375,100.625)"/>
<path d="M0 0 C7.99651568 -0.6271777 7.99651568 -0.6271777 12 1.875 C15.28503035 5.36534475 15.37853448 7.98198423 15.37109375 12.625 C14.84455853 15.9948254 13.16389193 17.79946029 11.05078125 20.3828125 C9.70856128 22.10719593 9.70856128 22.10719593 10.125 25.0625 C10.41375 26.031875 10.7025 27.00125 11 28 C12.16788853 32.81332095 11.76135472 35.74175984 10.0625 40.375 C9.68222656 41.43460938 9.30195313 42.49421875 8.91015625 43.5859375 C8.60980469 44.38257813 8.30945313 45.17921875 8 46 C5.80865309 43.24982823 4.21822218 40.59577342 2.8125 37.375 C2.46832031 36.59898438 2.12414062 35.82296875 1.76953125 35.0234375 C1 33 1 33 1 31 C-0.32 31 -1.64 31 -3 31 C-3.10570312 31.58265625 -3.21140625 32.1653125 -3.3203125 32.765625 C-4.09686245 35.31842139 -5.14301767 36.73366236 -6.875 38.75 C-7.38804688 39.36359375 -7.90109375 39.9771875 -8.4296875 40.609375 C-10 42 -10 42 -13 42 C-17.75276035 33.09133757 -19.49259105 25.53013706 -16.5625 15.625 C-15.82028423 13.30871309 -15.08735755 11.17471509 -14 9 C-13.34 9 -12.68 9 -12 9 C-10.82823482 11.12232979 -9.66245215 13.24757791 -8.5 15.375 C-8.16613281 15.97828125 -7.83226563 16.5815625 -7.48828125 17.203125 C-5 21.7734375 -5 21.7734375 -5 24 C-2.35247996 21.42215154 -0.05567935 19.08351902 2 16 C3.97888961 15.27306096 5.97954558 14.60183749 8 14 C9.41577477 12.81575674 9.41577477 12.81575674 9.0625 9.4375 C9.0315625 7.7359375 9.0315625 7.7359375 9 6 C6.69 5.67 4.38 5.34 2 5 C1.34 3.35 0.68 1.7 0 0 Z " fill="#334E64" transform="translate(135,91)"/>
<path d="M0 0 C0.99 0 1.98 0 3 0 C3.268125 0.804375 3.53625 1.60875 3.8125 2.4375 C4.204375 3.283125 4.59625 4.12875 5 5 C5.99 5.33 6.98 5.66 8 6 C9.69100834 7.92682923 11.22741269 9.82407009 12.75 11.875 C13.17410156 12.41769531 13.59820312 12.96039063 14.03515625 13.51953125 C15.234375 15.1171875 15.234375 15.1171875 17 18 C15.73345787 21.79962638 14.38065736 22.33281013 11.046875 24.46875 C10.03496094 25.12230469 9.02304688 25.77585938 7.98046875 26.44921875 C6.91441406 27.12597656 5.84835938 27.80273438 4.75 28.5 C3.69941406 29.17675781 2.64882812 29.85351562 1.56640625 30.55078125 C-1.28105958 32.38052165 -4.13246709 34.20187705 -7 36 C-8.34529785 36.84981445 -8.34529785 36.84981445 -9.71777344 37.71679688 C-12 39 -12 39 -14 39 C-16.52958737 35.20561894 -16.2876453 33.53041344 -16 29 C-15.95488281 28.17371094 -15.90976563 27.34742188 -15.86328125 26.49609375 C-15.40107859 22.4683277 -15.09574449 19.89742876 -11.86328125 17.25 C-9.6129351 16.00648062 -7.39324994 14.93563269 -5 14 C-6.39759905 10.45481116 -6.39759905 10.45481116 -8 7 C-8.039992 5.00039988 -8.04346799 2.99952758 -8 1 C-7.01 1.33 -6.02 1.66 -5 2 C-5 3.32 -5 4.64 -5 6 C-3.35 6 -1.7 6 0 6 C-0.2784375 4.7934375 -0.2784375 4.7934375 -0.5625 3.5625 C-0.706875 2.716875 -0.85125 1.87125 -1 1 C-0.67 0.67 -0.34 0.34 0 0 Z " fill="#324A5E" transform="translate(117,201)"/>
<path d="M0 0 C0.99 0 1.98 0 3 0 C4.28446919 2.56893838 4.32977144 4.76576337 4.5625 7.625 C4.68818359 9.12933594 4.68818359 9.12933594 4.81640625 10.6640625 C4.87699219 11.43492187 4.93757813 12.20578125 5 13 C5.71285156 13.01675781 6.42570312 13.03351563 7.16015625 13.05078125 C11.83674502 13.47249248 14.93183467 13.92644896 18.32421875 17.3359375 C23.62443781 25.18413205 23.62443781 25.18413205 22.9375 30.1875 C22.628125 31.115625 22.31875 32.04375 22 33 C13.99977398 32.39752513 6.23723064 31.0020576 -1.625 29.4375 C-2.81996094 29.20353516 -4.01492187 28.96957031 -5.24609375 28.72851562 C-8.16489275 28.15643102 -11.0828012 27.58017925 -14 27 C-10.92071876 11.7948535 -10.92071876 11.7948535 -6.5 8.5625 C-3 7 -3 7 1 7 C0.67 4.69 0.34 2.38 0 0 Z " fill="#30495C" transform="translate(153,177)"/>
<path d="M0 0 C4.77470345 2.2300456 8.23973612 5.32036181 11.640625 9.31640625 C11.640625 10.30640625 11.640625 11.29640625 11.640625 12.31640625 C9.890625 14.06640625 9.890625 14.06640625 7.640625 15.31640625 C5.890625 15.00390625 5.890625 15.00390625 3.640625 14.31640625 C-1.69242376 13.70163489 -1.69242376 13.70163489 -6.421875 15.87890625 C-7.78561002 19.4246173 -7.31910821 21.66942005 -6.359375 25.31640625 C-4.43543949 28.20389355 -4.43543949 28.20389355 -2.359375 30.31640625 C-6.81416332 30.14170867 -8.85750825 29.76372227 -12.234375 26.75390625 C-14.92020493 23.13464035 -15.13053234 19.74069762 -15.359375 15.31640625 C-13.049375 14.65640625 -10.739375 13.99640625 -8.359375 13.31640625 C-10.34622122 10.26517813 -12.30116056 7.38755724 -14.609375 4.56640625 C-16.359375 2.31640625 -16.359375 2.31640625 -16.359375 0.31640625 C-11.69919835 -2.01368207 -4.9001609 -1.41974861 0 0 Z " fill="#334E63" transform="translate(78.359375,144.68359375)"/>
<path d="M0 0 C2.75569447 2.18159145 4.43588747 3.87177494 6 7 C6.37712577 11.99691647 6.09290612 14.99067725 3 19 C-1.01858595 21.6790573 -4.27641721 21.69610694 -9 21 C-11.87029869 19.20606332 -13.49131638 18.01736724 -15 15 C-15.55512815 10.36786507 -15.6364242 7.01827873 -13.125 3 C-9.21191333 -0.6829051 -5.19128557 -0.82486748 0 0 Z " fill="#FACA07" transform="translate(91,104)"/>
<path d="M0 0 C-1.17307294 3.51921882 -1.99958776 3.95697004 -5.0078125 5.9609375 C-5.83023438 6.51523438 -6.65265625 7.06953125 -7.5 7.640625 C-8.799375 8.49914062 -8.799375 8.49914062 -10.125 9.375 C-11.81552404 10.50718582 -13.50563475 11.63998907 -15.1953125 12.7734375 C-16.01032227 13.31581055 -16.82533203 13.85818359 -17.66503906 14.41699219 C-19.8107831 15.8717187 -21.90422792 17.37812956 -23.9921875 18.9140625 C-27 21 -27 21 -29 21 C-29.58108412 14.6984655 -29.39798084 9.98974736 -25.6015625 4.76171875 C-18.54694156 -2.99836429 -9.519402 -4.27086684 0 0 Z " fill="#FCFDFD" transform="translate(85,82)"/>
<path d="M0 0 C6.62916785 3.67260518 12.24995644 9.12310042 15 16.3125 C16.52185677 21.77955234 16.25689515 27.37685056 16 33 C14.35369672 32.85957123 12.70795821 32.71250671 11.0625 32.5625 C10.14597656 32.48128906 9.22945312 32.40007812 8.28515625 32.31640625 C6 32 6 32 5 31 C4.76518307 28.81707226 4.58636677 26.62796826 4.4375 24.4375 C4.35371094 23.23996094 4.26992187 22.04242188 4.18359375 20.80859375 C4.12300781 19.88175781 4.06242188 18.95492187 4 18 C3.01 17.67 2.02 17.34 1 17 C2.32 16.34 3.64 15.68 5 15 C4.56128822 9.51610272 3.19778439 6.43563642 0 2 C0 1.34 0 0.68 0 0 Z " fill="#497BA2" transform="translate(152,159)"/>
<path d="M0 0 C5.41116982 5.26492199 8.07902478 8.42921442 9.52734375 15.8046875 C10.0735782 18.34174335 10.93296919 20.63728892 12 23 C10.73760288 23.86658615 9.46472499 24.71792059 8.1875 25.5625 C7.47980469 26.03816406 6.77210937 26.51382813 6.04296875 27.00390625 C4 28 4 28 1 27 C-3.03235711 18.31492315 -3.9934996 10.18553303 -1 1 C-0.67 0.67 -0.34 0.34 0 0 Z " fill="#46779D" transform="translate(101,192)"/>
<path d="M0 0 C2.96901828 1.51985459 5.13835983 3.22260157 7 6 C7.67578125 8.70703125 7.67578125 8.70703125 8 11 C6.18757948 11.02687279 4.37504767 11.04633715 2.5625 11.0625 C1.55316406 11.07410156 0.54382813 11.08570313 -0.49609375 11.09765625 C-3 11 -3 11 -4 10 C-6.45809998 9.7499227 -6.45809998 9.7499227 -9 10 C-9.66 10.66 -10.32 11.32 -11 12 C-13.9628331 11.60495559 -16.38326241 10.40182371 -19 9 C-18.80504041 5.49072741 -18.20351779 4.20351779 -15.6875 1.6875 C-10.89666448 -1.12451215 -5.32492228 -0.94681105 0 0 Z " fill="#B0C4D3" transform="translate(140,46)"/>
<path d="M0 0 C2.97 0 5.94 0 9 0 C9.66 1.32 10.32 2.64 11 4 C12.86640992 5.04477573 12.86640992 5.04477573 15 5.625 C17.79070078 6.49709399 18.87797546 6.87797546 21 9 C22.31747324 9.69748583 23.64914193 10.36959957 25 11 C20.8077529 14.43979249 17.77949918 15.70661418 12.31640625 15.45703125 C8.30266376 14.66511241 5.0112602 12.74407405 2 10 C-0.10909105 6.5820518 -0.18157185 3.99458076 0 0 Z " fill="#B1C6D7" transform="translate(118,67)"/>
<path d="M0 0 C3.0390625 -0.29296875 3.0390625 -0.29296875 6.625 -0.1875 C7.81351563 -0.16042969 9.00203125 -0.13335937 10.2265625 -0.10546875 C11.14179687 -0.07066406 12.05703125 -0.03585938 13 0 C13.80034699 2.80121448 14.25175395 4.39711555 13.109375 7.1328125 C12.43648437 8.11894531 12.43648437 8.11894531 11.75 9.125 C11.31171875 9.78757813 10.8734375 10.45015625 10.421875 11.1328125 C9.0295325 12.96121831 7.78972279 14.55375936 6 16 C2.59671098 15.87845396 0.04681499 15.7566778 -2.76171875 13.7265625 C-4 12 -4 12 -3.92578125 9.84375 C-3.72339844 9.0703125 -3.52101563 8.296875 -3.3125 7.5 C-3.12300781 6.7265625 -2.93351562 5.953125 -2.73828125 5.15625 C-2 3 -2 3 0 0 Z " fill="#F56394" transform="translate(112,154)"/>
<path d="M0 0 C2.75150725 1.0137132 3.83926561 1.89766383 6 4 C6.875 6.25 6.875 6.25 7 8 C2.5862069 11.0651341 2.5862069 11.0651341 -0.25 10.75 C-2 10 -2 10 -3 9 C-5.5 8.83333333 -5.5 8.83333333 -8 9 C-8.33 9.33 -8.66 9.66 -9 10 C-10.84891946 10.23363881 -12.70488031 10.41303635 -14.5625 10.5625 C-16.08037109 10.68818359 -16.08037109 10.68818359 -17.62890625 10.81640625 C-18.41136719 10.87699219 -19.19382812 10.93757812 -20 11 C-16.23246751 0.68885846 -10.86033869 -1.46761334 0 0 Z " fill="#BBCFE1" transform="translate(142,155)"/>
<path d="M0 0 C2.375 -0.125 2.375 -0.125 5 0 C7 2 7 2 7.6875 4.6875 C6.56553789 10.09331745 2.39077636 12.0217344 -2 15 C-2.77730469 15.58652344 -3.55460937 16.17304688 -4.35546875 16.77734375 C-8.0304019 19.46554786 -10.35990025 20.90855718 -14.9375 21.5625 C-15.948125 21.376875 -16.95875 21.19125 -18 21 C-20.1519437 17.77208445 -20.20086443 16.71599191 -20 13 C-18.9275 13.350625 -17.855 13.70125 -16.75 14.0625 C-10.81655025 14.86287542 -6.79564753 10.85314974 -2.34375 7.4921875 C0.25327052 5.22288524 0.25327052 5.22288524 0.34375 2.1953125 C0.2303125 1.47085938 0.116875 0.74640625 0 0 Z " fill="#355166" transform="translate(108,127)"/>
<path d="M0 0 C2.64 0 5.28 0 8 0 C7.75331325 4.19367478 7.44696258 6.4537124 4.75 9.75 C0.97320828 12.84010232 -1.4733957 14.7738364 -6.375 15.5 C-11.20661418 14.83357046 -13.28382499 13.10945256 -17 10 C-17 9.67 -17 9.34 -17 9 C-11 7 -11 7 -8.66796875 6.33984375 C-7.87003906 6.10394531 -7.07210937 5.86804688 -6.25 5.625 C-5.49203125 5.41101563 -4.7340625 5.19703125 -3.953125 4.9765625 C-1.49248049 3.74624025 -0.97395314 2.51777247 0 0 Z " fill="#AEC3D4" transform="translate(144,176)"/>
<path d="M0 0 C1.2982126 5.76081841 2.25706972 11.08739655 2 17 C1.1646875 16.49919922 1.1646875 16.49919922 0.3125 15.98828125 C-2.40018803 14.8289737 -4.08153431 14.95170933 -7 15.1875 C-11.66761936 15.28373957 -11.66761936 15.28373957 -14.5625 12.8125 C-15.94157267 10.11431434 -16.47858823 7.95466671 -17 5 C-15.98679688 4.83564453 -15.98679688 4.83564453 -14.953125 4.66796875 C-13.61507812 4.43013672 -13.61507812 4.43013672 -12.25 4.1875 C-11.36828125 4.03667969 -10.4865625 3.88585937 -9.578125 3.73046875 C-5.69287529 2.629648 -4.12185523 0 0 0 Z " fill="#487AA2" transform="translate(146,77)"/>
<path d="M0 0 C3.0625 0.3125 3.0625 0.3125 4.8125 1.5 C6.91843757 4.55360947 8.03149512 7.07230471 8.125 10.8125 C6.53390783 14.55624628 3.58398823 16.40129969 0.0625 18.3125 C-0.5975 18.3125 -1.2575 18.3125 -1.9375 18.3125 C-4.00375443 12.88858212 -5.539595 8.213031 -4.9375 2.3125 C-2.9375 0.3125 -2.9375 0.3125 0 0 Z " fill="#4879A0" transform="translate(41.9375,95.6875)"/>
<path d="M0 0 C4.65174041 0.00839664 6.87528369 1.99134498 10.125 5.125 C10.5375 5.558125 10.95 5.99125 11.375 6.4375 C10.98979436 8.97660197 10.67402057 10.16501123 8.74609375 11.921875 C8.10800781 12.33953125 7.46992187 12.7571875 6.8125 13.1875 C6.17183594 13.61546875 5.53117187 14.0434375 4.87109375 14.484375 C4.37738281 14.79890625 3.88367188 15.1134375 3.375 15.4375 C-3.88306452 10.92137097 -3.88306452 10.92137097 -5.625 7.4375 C-5.08984642 0.61429181 -5.08984642 0.61429181 0 0 Z " fill="#4C7FA8" transform="translate(88.625,63.5625)"/>
<path d="M0 0 C3.10618756 2.54142619 3.8283365 5.24048843 5 9 C2.73518493 10.67542462 0.46385674 12.34039016 -1.8125 14 C-2.77639648 14.71542969 -2.77639648 14.71542969 -3.75976562 15.4453125 C-4.38173828 15.89648438 -5.00371094 16.34765625 -5.64453125 16.8125 C-6.21534424 17.23144531 -6.78615723 17.65039062 -7.37426758 18.08203125 C-9 19 -9 19 -12 19 C-12.45375 18.030625 -12.9075 17.06125 -13.375 16.0625 C-14.65786221 12.92920418 -14.65786221 12.92920418 -17 12 C-16.34 10.68 -15.68 9.36 -15 8 C-12.625 7.875 -12.625 7.875 -10 8 C-9.34 8.66 -8.68 9.32 -8 10 C-6.05925139 9.72382467 -6.05925139 9.72382467 -4 9 C-2.66666667 8.66666667 -1.33333333 8.33333333 0 8 C-0.99 6.02 -1.98 4.04 -3 2 C-2.01 1.34 -1.02 0.68 0 0 Z " fill="#375368" transform="translate(149,155)"/>
<path d="M0 0 C6.53576303 2.87348202 10.28196323 9.13694201 14 15 C6.95176252 16.45825603 6.95176252 16.45825603 2.625 14.375 C-0.16423559 11.85140589 -1.31527947 10.68037283 -2 7 C-1.125 3.1875 -1.125 3.1875 0 0 Z " fill="#43769E" transform="translate(53,138)"/>
<path d="M0 0 C0.99 0.33 1.98 0.66 3 1 C2.76510453 4.67350419 2.1519325 5.85342708 -0.546875 8.45703125 C-1.60390625 9.23433594 -2.6609375 10.01164063 -3.75 10.8125 C-5.32007812 11.99779297 -5.32007812 11.99779297 -6.921875 13.20703125 C-10.04126265 15.02403497 -11.47980994 15.43676432 -15 15 C-15.33 13.68 -15.66 12.36 -16 11 C-14.27278316 9.72651788 -12.54313762 8.45632943 -10.8125 7.1875 C-9.84957031 6.47980469 -8.88664062 5.77210938 -7.89453125 5.04296875 C-2.64612452 1.3386277 -2.64612452 1.3386277 0 0 Z " fill="#B6CCDE" transform="translate(106,127)"/>
<path d="M0 0 C4.12769407 -0.49139215 5.7529716 -0.15847105 9.3125 2.125 C12.3168738 5.33898128 13.08901233 6.63839585 13 11 C11.5625 14.375 11.5625 14.375 10 17 C9.34 17 8.68 17 8 17 C6.65869239 14.73354942 5.32683766 12.46239903 4 10.1875 C3.42765625 9.22360352 3.42765625 9.22360352 2.84375 8.24023438 C0 3.33984375 0 3.33984375 0 0 Z " fill="#477CA6" transform="translate(119,92)"/>
<path d="M0 0 C0.01417969 0.67546875 0.02835938 1.3509375 0.04296875 2.046875 C0.23006952 7.86814287 0.23006952 7.86814287 3.4375 12.5 C4.283125 12.995 5.12875 13.49 6 14 C6.66 14.66 7.32 15.32 8 16 C2.28728907 18.0662997 -2.03654233 18.0006709 -8 17 C-7.505 16.319375 -7.01 15.63875 -6.5 14.9375 C-4.65151013 11.31754066 -4.64069443 9.02422241 -5 5 C-5.8974827 2.16621868 -5.8974827 2.16621868 -7 0 C-4.3333581 -1.33332095 -2.83319697 -0.67102033 0 0 Z " fill="#4878A1" transform="translate(117,170)"/>
<path d="M0 0 C0.94552734 0.16242188 0.94552734 0.16242188 1.91015625 0.328125 C3.91015625 3.328125 3.91015625 3.328125 3.72265625 6.390625 C2.91015625 9.328125 2.91015625 9.328125 -0.08984375 11.328125 C-2.90923272 11.68054862 -4.47844452 11.67458457 -6.96484375 10.265625 C-8.7529471 7.18611367 -7.83576981 4.68479227 -7.08984375 1.328125 C-5.19856033 -0.56315842 -2.51916649 0.0914398 0 0 Z " fill="#477DA7" transform="translate(67.08984375,124.671875)"/>
<path d="M0 0 C3.66668859 -0.55797435 5.36314287 -0.44090109 8.4375 1.6875 C10 4 10 4 9.875 6.625 C9 9 9 9 7 11 C3.5 11.25 3.5 11.25 0 11 C-2 9 -2 9 -2.25 6.0625 C-2 3 -2 3 0 0 Z " fill="#477CA7" transform="translate(105,94)"/>
<path d="M0 0 C3.5625 0.1875 3.5625 0.1875 5.5625 2.1875 C5.8125 5.1875 5.8125 5.1875 5.5625 8.1875 C3.5625 10.1875 3.5625 10.1875 0.625 10.5 C-2.4375 10.1875 -2.4375 10.1875 -4.375 9.0625 C-5.97693488 6.23555609 -5.23334319 4.23823223 -4.4375 1.1875 C-3.4375 0.1875 -3.4375 0.1875 0 0 Z " fill="#43769D" transform="translate(101.4375,173.8125)"/>
<path d="M0 0 C1.79244141 0.01740234 1.79244141 0.01740234 3.62109375 0.03515625 C5.41740234 0.04869141 5.41740234 0.04869141 7.25 0.0625 C8.17683594 0.07410156 9.10367188 0.08570313 10.05859375 0.09765625 C7.25830605 3.14541123 4.65447312 5.04830563 0.93359375 6.84765625 C0.06476563 7.275625 -0.8040625 7.70359375 -1.69921875 8.14453125 C-3.94140625 9.09765625 -3.94140625 9.09765625 -5.94140625 9.09765625 C-5.63322269 7.78413602 -5.3197296 6.47186053 -5.00390625 5.16015625 C-4.82988281 4.42925781 -4.65585938 3.69835937 -4.4765625 2.9453125 C-3.59667736 -0.09253912 -3.32254663 0.11031031 0 0 Z " fill="#E85D8C" transform="translate(114.94140625,153.90234375)"/>
<path d="M0 0 C2.31 0.33 4.62 0.66 7 1 C8.33359073 7.42548263 8.33359073 7.42548263 6.875 9.9375 C5 11 5 11 0 11 C0 7.37 0 3.74 0 0 Z " fill="#43769E" transform="translate(137,96)"/>
<path d="M0 0 C4.55555556 0.55555556 4.55555556 0.55555556 6 2 C6.125 4.5 6.125 4.5 6 7 C5 8 5 8 2 8.125 C-1 8 -1 8 -2 7 C-2.1875 4.5625 -2.1875 4.5625 -2 2 C-1.34 1.34 -0.68 0.68 0 0 Z " fill="#FFFCF2" transform="translate(86,109)"/>
<path d="M0 0 C1.5625 1.0625 1.5625 1.0625 3 3 C2.6875 6.6875 2.6875 6.6875 2 10 C-3.36891879 9.50130596 -8.69235173 8.97772468 -14 8 C-14 7.67 -14 7.34 -14 7 C-9.71 7 -5.42 7 -1 7 C-0.67 4.69 -0.34 2.38 0 0 Z " fill="#3B5061" transform="translate(173,200)"/>
<path d="M0 0 C1.23556641 0.01740234 1.23556641 0.01740234 2.49609375 0.03515625 C3.32238281 0.04417969 4.14867188 0.05320313 5 0.0625 C5.63808594 0.07410156 6.27617188 0.08570313 6.93359375 0.09765625 C3.42487495 3.1935846 0.44161976 4.83960248 -4.06640625 6.09765625 C-2.99738005 0.14165312 -2.99738005 0.14165312 0 0 Z " fill="#DA5A86" transform="translate(114.06640625,153.90234375)"/>
<path d="M0 0 C0.33 0 0.66 0 1 0 C1 2.97 1 5.94 1 9 C2.65 9 4.3 9 6 9 C4.625 10.5 4.625 10.5 3 12 C2.34 12 1.68 12 1 12 C-1.44576827 8.33134759 -1.23607254 6.32799657 -1 2 C-0.67 1.34 -0.34 0.68 0 0 Z " fill="#3C5162" transform="translate(102,228)"/>
<path d="M0 0 C0.33 0 0.66 0 1 0 C1 2.31 1 4.62 1 7 C2.98 7.66 4.96 8.32 7 9 C7 9.33 7 9.66 7 10 C4.03 9.67 1.06 9.34 -2 9 C-1.34 6.03 -0.68 3.06 0 0 Z " fill="#3C5061" transform="translate(141,195)"/>
<path d="M0 0 C1.01527342 4.06109369 1.05430484 4.66966838 -0.4375 8.25 C-0.72496094 8.95640625 -1.01242188 9.6628125 -1.30859375 10.390625 C-1.53675781 10.92171875 -1.76492187 11.4528125 -2 12 C-2.99 10.68 -3.98 9.36 -5 8 C-3.35 5.36 -1.7 2.72 0 0 Z " fill="#344858" transform="translate(145,125)"/>
<path d="M0 0 C0.66 0.33 1.32 0.66 2 1 C1.67 1.33 1.34 1.66 1 2 C0.76924918 3.34747084 0.58846937 4.70377565 0.4375 6.0625 C0.293125 7.361875 0.14875 8.66125 0 10 C-1.5 8.625 -1.5 8.625 -3 7 C-3 6.34 -3 5.68 -3 5 C-3.66 4.67 -4.32 4.34 -5 4 C-3.35 2.68 -1.7 1.36 0 0 Z " fill="#4C7BA1" transform="translate(123,196)"/>
<path d="M0 0 C0.66 0.33 1.32 0.66 2 1 C2 2.32 2 3.64 2 5 C0.35 5 -1.3 5 -3 5 C-3 4.01 -3 3.02 -3 2 C-2.01 1.34 -1.02 0.68 0 0 Z " fill="#467BA4" transform="translate(115,202)"/>
</svg>
