<?xml version="1.0" encoding="UTF-8"?>
<svg version="1.1" xmlns="http://www.w3.org/2000/svg" width="192" height="256">
<path d="M0 0 C5.10804918 1.70268306 7.29786924 6.53132818 10 11 C15.49340345 22.38036417 16.51221661 33.4357792 13.1875 45.6796875 C11.24742063 51.10425153 8.62155452 56.14976122 5.9375 61.23828125 C1.54170052 69.19909642 1.54170052 69.19909642 1 78 C3.33333333 80.66666667 3.33333333 80.66666667 6 83 C9.10809367 87.85373532 8.5945019 93.45626975 8 99 C5.73191149 103.88511372 2.78893551 106.5585819 -2 109 C-5.875 109.25 -5.875 109.25 -9 109 C-9.04125 109.721875 -9.0825 110.44375 -9.125 111.1875 C-10.36993795 115.18908626 -12.63160717 116.62231094 -16 119 C-18.375 119.8125 -18.375 119.8125 -20 120 C-19.979375 121.093125 -19.95875 122.18625 -19.9375 123.3125 C-20 127 -20 127 -21 130 C-20.01 129.67 -19.02 129.34 -18 129 C-16.35 131.31 -14.7 133.62 -13 136 C-13.66 136.33 -14.32 136.66 -15 137 C-10.56895407 143.03432148 -10.56895407 143.03432148 -4 146 C-1.99538701 145.34733531 0.00379834 144.67795528 2 144 C10.58666957 143.14269385 10.58666957 143.14269385 14.25390625 145.3671875 C16 147 16 147 16.8125 149.4375 C18.59483893 153.28359979 21.2593448 154.1296724 25 156 C25.38902665 161.08846856 24.15380673 164.67270954 21.875 169.125 C21.59140625 169.73214844 21.3078125 170.33929688 21.015625 170.96484375 C18.78873853 175.40893458 16.39101285 177.72111991 12 180 C2.43063523 181.92519765 -5.91243496 178.11593004 -13.8125 173.0625 C-17.2464722 170.66112084 -20.10691898 168.04144415 -23 165 C-25.63624408 162.6313446 -28.3143858 160.31242712 -31 158 C-31.21914062 159.07378906 -31.43828125 160.14757812 -31.6640625 161.25390625 C-34.72698986 175.29726351 -34.72698986 175.29726351 -41 181 C-39.41058594 181.32871094 -39.41058594 181.32871094 -37.7890625 181.6640625 C-36.40072614 181.98300464 -35.01272147 182.30339302 -33.625 182.625 C-32.57699219 182.83576172 -32.57699219 182.83576172 -31.5078125 183.05078125 C-29.4765625 183.5390625 -29.4765625 183.5390625 -26 185 C-24.5234375 188.1484375 -24.5234375 188.1484375 -24 191 C-33.50539877 198.10403487 -43.79546805 203.97383026 -54 210 C-56.37877514 207.81759412 -57.86777324 205.6870735 -59.375 202.83984375 C-59.80296875 202.04642578 -60.2309375 201.25300781 -60.671875 200.43554688 C-61.55891122 198.7671361 -62.44432281 197.09786056 -63.328125 195.42773438 C-63.75609375 194.63560547 -64.1840625 193.84347656 -64.625 193.02734375 C-65.00914063 192.30281006 -65.39328125 191.57827637 -65.7890625 190.83178711 C-67.02687674 188.70171624 -67.02687674 188.70171624 -70 187 C-70.226875 187.804375 -70.45375 188.60875 -70.6875 189.4375 C-72.33718946 193.91522852 -73.969682 198.26313117 -77 202 C-80.8125 203.0625 -80.8125 203.0625 -84 203 C-86.88131699 196.78522089 -88.78750343 190.3851395 -90.6875 183.8125 C-91.00783203 182.73291016 -91.32816406 181.65332031 -91.65820312 180.54101562 C-91.96048828 179.50267578 -92.26277344 178.46433594 -92.57421875 177.39453125 C-92.84838623 176.45456299 -93.12255371 175.51459473 -93.4050293 174.54614258 C-94 172 -94 172 -94 168 C-91.525 167.01 -91.525 167.01 -89 166 C-89.20625 164.845 -89.4125 163.69 -89.625 162.5 C-90.4693078 155.29446907 -89.05765267 148.12385888 -88 141 C-88.99 141 -89.98 141 -91 141 C-90.67 139.35 -90.34 137.7 -90 136 C-91.32 136.33 -92.64 136.66 -94 137 C-94 136.34 -94 135.68 -94 135 C-95.64689635 135.97737769 -97.29248854 136.9569532 -98.9375 137.9375 C-99.85402344 138.48277344 -100.77054688 139.02804688 -101.71484375 139.58984375 C-103.88412677 140.80732173 -103.88412677 140.80732173 -105 142 C-105.15915291 144.06014601 -105.27704929 146.12353854 -105.375 148.1875 C-106.0720596 157.41091176 -106.0720596 157.41091176 -109 161 C-110.94924657 161.92718587 -112.8794932 162.5827452 -114.9453125 163.20703125 C-117.18969346 164.07320869 -118.45007149 165.10709481 -120.1875 166.75 C-123 169 -123 169 -125.32421875 168.90234375 C-128.70254244 167.76308423 -130.87383909 166.07481827 -133.625 163.8125 C-134.56601563 163.05582031 -135.50703125 162.29914063 -136.4765625 161.51953125 C-140.27935293 157.72262749 -141.83681119 154.44538664 -142.4375 149.125 C-141.9330004 138.87977726 -133.83102678 131.83102678 -127 125 C-126.22398438 124.69835937 -125.44796875 124.39671875 -124.6484375 124.0859375 C-121.83612456 122.93280623 -119.9600507 121.55542098 -117.625 119.625 C-108.08977035 112 -108.08977035 112 -104 112 C-104.33 110.68 -104.66 109.36 -105 108 C-102.03 107.01 -99.06 106.02 -96 105 C-95.67 105.66 -95.34 106.32 -95 107 C-91.7 107 -88.4 107 -85 107 C-85 106.34 -85 105.68 -85 105 C-86.051875 104.9071875 -86.051875 104.9071875 -87.125 104.8125 C-91.70060907 103.51939309 -94.85106174 100.82785632 -97.375 96.8125 C-98.63180246 91.15688894 -99.10458535 85.40219835 -96.375 80.125 C-93.87157781 76.83102343 -91.46484535 75.19281993 -88 73 C-87.60683508 61.91274921 -89.81374567 55.17669436 -95.96875 46.046875 C-98 43 -98 43 -99 40 C-82.94696016 27.65150782 -65.04202288 19.78910158 -44.41796875 22.31640625 C-38.01490506 23.43568195 -32.03757994 25.63547249 -26 28 C-21.47704803 23.58277938 -17.12999274 19.09010783 -13.0078125 14.296875 C-8.76747018 9.44605538 -4.36624293 4.7373341 0 0 Z " fill="#B47354" transform="translate(154,45)"/>
<path d="M0 0 C5.10804918 1.70268306 7.29786924 6.53132818 10 11 C15.49340345 22.38036417 16.51221661 33.4357792 13.1875 45.6796875 C11.24742063 51.10425153 8.62155452 56.14976122 5.9375 61.23828125 C2.94970782 66.9593201 0.70753577 72.46232114 -0.5625 78.8125 C-0.81128906 80.02164063 -1.06007813 81.23078125 -1.31640625 82.4765625 C-1.73909963 84.65524494 -2.14601214 86.83713627 -2.52734375 89.0234375 C-2.76130859 90.34214844 -2.76130859 90.34214844 -3 91.6875 C-3.12375 92.45449219 -3.2475 93.22148437 -3.375 94.01171875 C-4.12779777 96.40655667 -5.03345031 97.46137921 -7 99 C-9.5625 99.3125 -9.5625 99.3125 -12 99 C-14 97 -14 97 -14.2421875 93.9921875 C-13.95407675 89.24300711 -13.1130846 84.77109991 -12.125 80.125 C-11.95097656 79.27808594 -11.77695313 78.43117188 -11.59765625 77.55859375 C-10.4539811 72.02659468 -9.23602707 66.5120126 -8 61 C-10.28811223 60.7193249 -12.5809541 60.47713326 -14.875 60.25 C-16.15117187 60.11078125 -17.42734375 59.9715625 -18.7421875 59.828125 C-22.20822133 59.72399348 -24.50495972 60.5168664 -27.64453125 61.953125 C-33.9695428 64.70912659 -40.00127536 64.5883141 -46.8125 64.5 C-47.99392578 64.51546875 -49.17535156 64.5309375 -50.39257812 64.546875 C-60.20607997 64.50385691 -69.28157476 62.6387078 -78 58 C-77.84660156 58.83273438 -77.69320312 59.66546875 -77.53515625 60.5234375 C-73.31081698 87.96622547 -73.31081698 87.96622547 -78 95 C-81 95.3125 -81 95.3125 -84 95 C-86.35285145 92.64714855 -86.26220238 92.15039391 -86.34375 88.95703125 C-86.37146484 88.13807373 -86.39917969 87.31911621 -86.42773438 86.4753418 C-86.45158203 85.596604 -86.47542969 84.71786621 -86.5 83.8125 C-86.57975307 81.98161137 -86.66311588 80.15087659 -86.75 78.3203125 C-86.79253906 77.41442383 -86.83507812 76.50853516 -86.87890625 75.57519531 C-86.91886719 74.72538086 -86.95882812 73.87556641 -87 73 C-87.02964844 72.28424805 -87.05929688 71.56849609 -87.08984375 70.83105469 C-87.58537491 60.86592313 -90.58523518 54.1693297 -96.00390625 46.046875 C-98 43 -98 43 -99 40 C-82.94696016 27.65150782 -65.04202288 19.78910158 -44.41796875 22.31640625 C-38.01490506 23.43568195 -32.03757994 25.63547249 -26 28 C-21.47704803 23.58277938 -17.12999274 19.09010783 -13.0078125 14.296875 C-8.76747018 9.44605538 -4.36624293 4.7373341 0 0 Z " fill="#BD7857" transform="translate(154,45)"/>
<path d="M0 0 C0.556875 0.19335938 1.11375 0.38671875 1.6875 0.5859375 C11.75260159 4.02031338 20.20993923 5.36376179 30.875 5.375 C32.09058594 5.39949219 33.30617187 5.42398438 34.55859375 5.44921875 C41.37715387 5.47128529 46.65337048 4.91631085 52.7902832 1.84350586 C58.22268111 -0.23018045 64.49793254 1.88011016 70 3 C69.16389104 8.74456035 68.31270826 14.48147429 67.19921875 20.1796875 C67.06298096 20.87771484 66.92674316 21.57574219 66.78637695 22.29492188 C66.392025 24.28891515 65.98917162 26.28122142 65.5859375 28.2734375 C65.01082041 31.93118222 64.82223995 35.30446202 65 39 C66.18424326 40.41577477 66.18424326 40.41577477 69.5625 40.0625 C71.2640625 40.0315625 71.2640625 40.0315625 73 40 C73.20496094 38.72382813 73.40992188 37.44765625 73.62109375 36.1328125 C73.89305815 34.46351379 74.16520291 32.79424447 74.4375 31.125 C74.63956055 29.86236328 74.63956055 29.86236328 74.84570312 28.57421875 C75.04389648 27.36572266 75.04389648 27.36572266 75.24609375 26.1328125 C75.36654053 25.38918457 75.4869873 24.64555664 75.61108398 23.87939453 C76 22 76 22 77 20 C80.61289268 20.90322317 81.94961806 21.93736299 84.3125 24.875 C86.92497517 29.96132921 86.75727012 35.44411002 86 41 C83.73191149 45.88511372 80.78893551 48.5585819 76 51 C72.125 51.25 72.125 51.25 69 51 C68.95875 51.721875 68.9175 52.44375 68.875 53.1875 C67.8939034 56.34102479 66.5632505 57.90977204 63.99316406 59.95874023 C59.946894 62.07257436 55.39517421 61.5161797 50.9375 61.4375 C42.20428196 61.50758011 36.19573679 62.26081863 28.62109375 66.8203125 C25.25352272 68.3359704 23.49098765 68.10596028 20 67 C18.48046875 65.40625 18.48046875 65.40625 17.1875 63.5 C13.93614267 59.87005996 11.09167557 59.47944717 6.44067383 59.15234375 C2.95593512 59.02069568 -0.5125376 58.97253967 -4 59 C-4 55.37 -4 51.74 -4 48 C-4.86625 47.9175 -5.7325 47.835 -6.625 47.75 C-11.37161773 46.69519606 -14.60731086 44.5847842 -17.8125 40.9375 C-20.67441079 36.26806661 -20.57202939 31.30134281 -20 26 C-18.24205101 20.6759259 -14.8692986 17.64635794 -10 15 C-9.34 15 -8.68 15 -8 15 C-7.97494385 15.60062256 -7.9498877 16.20124512 -7.92407227 16.82006836 C-7.8084472 19.52611437 -7.68557064 22.23178283 -7.5625 24.9375 C-7.52318359 25.88302734 -7.48386719 26.82855469 -7.44335938 27.80273438 C-7.38051758 29.15141602 -7.38051758 29.15141602 -7.31640625 30.52734375 C-7.27974854 31.35999756 -7.24309082 32.19265137 -7.20532227 33.05053711 C-7.20632897 35.00338858 -7.20632897 35.00338858 -6 36 C-4.00041636 36.04080783 -1.99954746 36.04254356 0 36 C4.46682614 27.06634773 0.49025631 9.76861772 0 0 Z " fill="#F9D2AD" transform="translate(76,103)"/>
<path d="M0 0 C0.495 0.99 0.495 0.99 1 2 C7.435 1.505 7.435 1.505 14 1 C14 4.63 14 8.26 14 12 C15.71896484 11.87818359 15.71896484 11.87818359 17.47265625 11.75390625 C29.6234946 11.15325378 29.6234946 11.15325378 33.4765625 13.5234375 C35.1875 15.4375 35.1875 15.4375 36.48046875 17.37109375 C37.98406765 19.2486358 37.98406765 19.2486358 40.828125 19.90625 C44.69973108 20.02068171 46.26581303 19.04051218 49.5625 17.0625 C58.61565449 12.50434198 68.10058607 13.45245051 78 14 C77.34 14.33 76.68 14.66 76 15 C76.020625 16.093125 76.04125 17.18625 76.0625 18.3125 C76 22 76 22 75 25 C75.99 24.67 76.98 24.34 78 24 C79.65 26.31 81.3 28.62 83 31 C78.53551297 34.65276212 78.53551297 34.65276212 76.14453125 36.203125 C72.14343577 38.70632769 72.14343577 38.70632769 70.0625 42.8125 C70.041875 43.534375 70.02125 44.25625 70 45 C68.35 45.33 66.7 45.66 65 46 C64.67 47.32 64.34 48.64 64 50 C56.63691202 49.41207958 49.37519497 48.53444452 42.08203125 47.37109375 C41.09877365 47.21713638 40.11551605 47.06317902 39.10246277 46.90455627 C36.00527917 46.41883631 32.9088888 45.92825843 29.8125 45.4375 C27.69471231 45.10449413 25.57687417 44.77180897 23.45898438 44.43945312 C18.30540131 43.63000343 13.15245796 42.81657913 8 42 C8 40.02 8 38.04 8 36 C7.01 36 6.02 36 5 36 C5.33 34.35 5.66 32.7 6 31 C4.68 31.33 3.36 31.66 2 32 C2 31.34 2 30.68 2 30 C0.35310365 30.97737769 -1.29248854 31.9569532 -2.9375 32.9375 C-3.85402344 33.48277344 -4.77054688 34.02804688 -5.71484375 34.58984375 C-7.88412677 35.80732173 -7.88412677 35.80732173 -9 37 C-9.15915291 39.06014601 -9.27704929 41.12353854 -9.375 43.1875 C-10.0720596 52.41091176 -10.0720596 52.41091176 -13 56 C-14.94924657 56.92718587 -16.8794932 57.5827452 -18.9453125 58.20703125 C-21.18969346 59.07320869 -22.45007149 60.10709481 -24.1875 61.75 C-27 64 -27 64 -29.32421875 63.90234375 C-32.70254244 62.76308423 -34.87383909 61.07481827 -37.625 58.8125 C-38.56601562 58.05582031 -39.50703125 57.29914063 -40.4765625 56.51953125 C-44.27935293 52.72262749 -45.83681119 49.44538664 -46.4375 44.125 C-45.9330004 33.87977726 -37.83102678 26.83102678 -31 20 C-30.22398438 19.69835937 -29.44796875 19.39671875 -28.6484375 19.0859375 C-25.83612456 17.93280623 -23.9600507 16.55542098 -21.625 14.625 C-12.08977035 7 -12.08977035 7 -8 7 C-8.495 5.02 -8.495 5.02 -9 3 C-2.25 0 -2.25 0 0 0 Z " fill="#249558" transform="translate(58,150)"/>
<path d="M0 0 C2.70596226 1.21536089 3.02618309 2.5338563 4.07519531 5.27124023 C4.42324219 6.16133789 4.77128906 7.05143555 5.12988281 7.96850586 C5.47792969 8.90500977 5.82597656 9.84151367 6.18457031 10.80639648 C6.54808594 11.7390332 6.91160156 12.67166992 7.28613281 13.63256836 C9.93457031 20.51751021 9.93457031 20.51751021 9.93457031 22.86889648 C7.78222656 24.34155273 7.78222656 24.34155273 4.99707031 25.93139648 C1.77626694 27.64358554 1.77626694 27.64358554 -1.06542969 29.86889648 C-1.2245826 31.9290425 -1.34247897 33.99243502 -1.44042969 36.05639648 C-2.13748928 45.27980825 -2.13748928 45.27980825 -5.06542969 48.86889648 C-7.01467626 49.79608235 -8.94492289 50.45164168 -11.01074219 51.07592773 C-13.25512315 51.94210518 -14.51550118 52.97599129 -16.25292969 54.61889648 C-19.06542969 56.86889648 -19.06542969 56.86889648 -21.38964844 56.77124023 C-24.76797213 55.63198071 -26.93926878 53.94371475 -29.69042969 51.68139648 C-30.63144531 50.9247168 -31.57246094 50.16803711 -32.54199219 49.38842773 C-36.34478262 45.59152398 -37.90224087 42.31428312 -38.50292969 36.99389648 C-37.99843008 26.74867374 -29.89645647 19.69992326 -23.06542969 12.86889648 C-22.28941406 12.56725586 -21.51339844 12.26561523 -20.71386719 11.95483398 C-17.90155425 10.80170272 -16.02548039 9.42431746 -13.69042969 7.49389648 C-3.95272539 -0.25089994 -3.95272539 -0.25089994 0 0 Z " fill="#F0CBA7" transform="translate(50.0654296875,157.131103515625)"/>
<path d="M0 0 C3.04099661 1.34861589 4.95585247 2.86675936 7.25 5.25 C9.01669663 6.9032988 9.01669663 6.9032988 11 8 C14.55478619 7.53194566 14.55478619 7.53194566 16.81640625 6.66796875 C19.35935188 5.89007304 21.593876 5.73820428 24.25 5.6875 C25.46429688 5.66236328 25.46429688 5.66236328 26.703125 5.63671875 C29.54763572 6.08661585 30.90721761 7.05170815 33 9 C33.268125 9.804375 33.53625 10.60875 33.8125 11.4375 C35.59483893 15.28359979 38.2593448 16.1296724 42 18 C42.38902665 23.08846856 41.15380673 26.67270954 38.875 31.125 C38.44960937 32.03572266 38.44960937 32.03572266 38.015625 32.96484375 C35.78873853 37.40893458 33.39101285 39.72111991 29 42 C19.43063523 43.92519765 11.08756504 40.11593004 3.1875 35.0625 C-0.2464722 32.66112084 -3.10691898 30.04144415 -6 27 C-8.09464833 25.22976183 -10.20109427 23.47730485 -12.328125 21.74609375 C-14.20876894 19.78196328 -14.7235388 18.68486354 -15 16 C-14.67 15.01 -14.34 14.02 -14 13 C-12.35 12.67 -10.7 12.34 -9 12 C-9.13921875 10.88044922 -9.13921875 10.88044922 -9.28125 9.73828125 C-9 7 -9 7 -7.03125 4.98046875 C-5.77828125 4.09294922 -5.77828125 4.09294922 -4.5 3.1875 C-3.24703125 2.28064453 -3.24703125 2.28064453 -1.96875 1.35546875 C-1.3190625 0.90816406 -0.669375 0.46085938 0 0 Z " fill="#EEC9A5" transform="translate(137,183)"/>
<path d="M0 0 C10.96721323 0.57565463 21.67329741 2.23962775 32.5 4 C34.22909357 4.2764992 35.95825991 4.55254369 37.6875 4.828125 C51.12969784 6.98074624 51.12969784 6.98074624 56 8 C55.16899777 24.93525226 55.16899777 24.93525226 50.35546875 31.109375 C47.3474234 33.52379283 44.30258869 34.36679957 40.625 35.25 C39.97789063 35.42273438 39.33078125 35.59546875 38.6640625 35.7734375 C34.69929358 36.7806167 31.08236234 37.1769445 27 37 C26.79246094 36.15695313 26.58492187 35.31390625 26.37109375 34.4453125 C26.06300781 33.34960938 25.75492188 32.25390625 25.4375 31.125 C25.00244141 29.48917969 25.00244141 29.48917969 24.55859375 27.8203125 C23.2225437 24.71112215 23.2225437 24.71112215 19.8671875 23.69921875 C15.0992702 22.83714077 10.32757661 22.02792467 5.52148438 21.40820312 C3.44921875 21.07421875 3.44921875 21.07421875 0 20 C-2.44433792 16.37805136 -2.12815025 13.11161325 -1.6875 8.875 C-1.58824219 7.84117187 -1.48898438 6.80734375 -1.38671875 5.7421875 C-1 3 -1 3 0 0 Z " fill="#EB9F5F" transform="translate(66,192)"/>
<path d="M0 0 C5.10804918 1.70268306 7.29786924 6.53132818 10 11 C13.31833534 17.87440216 15.15483552 24.14865185 15.0625 31.8125 C15.05347656 32.78832031 15.04445313 33.76414063 15.03515625 34.76953125 C15.02355469 35.50558594 15.01195312 36.24164063 15 37 C12.90070334 34.90070334 12.40334175 33.66212511 11.375 30.9375 C8.99410303 25.3396659 5.20460705 21.31686597 1 17 C-3.23244059 18.72859579 -6.35384782 21.71495878 -9.75 24.6875 C-10.68489258 25.49127075 -10.68489258 25.49127075 -11.63867188 26.3112793 C-14.31238971 28.61670015 -16.93584512 30.9384678 -19.484375 33.3828125 C-24.2734574 37.96770922 -24.2734574 37.96770922 -27.8125 38.125 C-28.864375 37.75375 -29.91625 37.3825 -31 37 C-38.6734293 34.50018062 -45.68956192 33.48079091 -53.75 33.5625 C-54.79696045 33.56934814 -55.8439209 33.57619629 -56.92260742 33.58325195 C-68.88403414 33.82943255 -79.1102876 36.65547801 -89.828125 42.046875 C-92 43 -92 43 -95 43 C-96.6875 41 -96.6875 41 -98 39 C-80.69174538 27.40220603 -63.4355052 18.99208098 -41.9375 22.75 C-36.44919815 23.98152139 -31.22911349 25.95209624 -26 28 C-21.47704803 23.58277938 -17.12999274 19.09010783 -13.0078125 14.296875 C-8.76747018 9.44605538 -4.36624293 4.7373341 0 0 Z " fill="#D8865E" transform="translate(154,45)"/>
<path d="M0 0 C0.46583496 0.40951904 0.93166992 0.81903809 1.41162109 1.2409668 C5.44254046 4.77293918 9.5973669 7.94511172 14 11 C14.66 9.68 15.32 8.36 16 7 C16.99 7 17.98 7 19 7 C19.495 9.475 19.495 9.475 20 12 C25.28 10.02 30.56 8.04 36 6 C36.495 9.7434375 36.495 9.7434375 37 13.5625 C37.15662109 14.71987671 37.15662109 14.71987671 37.31640625 15.90063477 C37.88245092 20.30713526 38.09340053 24.55763751 38 29 C39.32 29 40.64 29 42 29 C41.67 30.32 41.34 31.64 41 33 C33.63691202 32.41207958 26.37519497 31.53444452 19.08203125 30.37109375 C17.60714485 30.1401577 17.60714485 30.1401577 16.10246277 29.90455627 C13.00527917 29.41883631 9.9088888 28.92825843 6.8125 28.4375 C4.69471231 28.10449413 2.57687417 27.77180897 0.45898438 27.43945312 C-4.69459869 26.63000343 -9.84754204 25.81657913 -15 25 C-15 23.02 -15 21.04 -15 19 C-12.69 19.99 -10.38 20.98 -8 22 C-7.90847656 21.35675781 -7.81695312 20.71351563 -7.72265625 20.05078125 C-6.73874644 15.89708631 -5.09838357 12.11113187 -3.4375 8.1875 C-3.10814453 7.39923828 -2.77878906 6.61097656 -2.43945312 5.79882812 C-1.63041094 3.86416204 -0.81576148 1.93184247 0 0 Z " fill="#3EBA78" transform="translate(81,167)"/>
<path d="M0 0 C2.80232235 0.678078 5.58757794 1.3900527 8.375 2.125 C9.1690625 2.31320313 9.963125 2.50140625 10.78125 2.6953125 C13.01744965 3.30173952 14.96672106 3.88570443 17 5 C18.5390625 8.1796875 18.5390625 8.1796875 19 11 C9.49460123 18.10403487 -0.79546805 23.97383026 -11 30 C-14.16393095 27.05454024 -15.83647299 23.66526395 -17.6875 19.8125 C-18.00783203 19.15830078 -18.32816406 18.50410156 -18.65820312 17.83007812 C-19.44428292 16.22272093 -20.22288683 14.61171142 -21 13 C-19.906875 12.484375 -18.81375 11.96875 -17.6875 11.4375 C-11.53981943 8.36915854 -4.8814157 4.8814157 0 0 Z " fill="#B27153" transform="translate(111,225)"/>
<path d="M0 0 C10.96721323 0.57565463 21.67329741 2.23962775 32.5 4 C34.22909357 4.2764992 35.95825991 4.55254369 37.6875 4.828125 C49.99592243 6.79918449 49.99592243 6.79918449 56 8 C55.67 11.96 55.34 15.92 55 20 C54.505 19.01 54.505 19.01 54 18 C50.99023985 17.45761614 48.03399897 17.0428163 45 16.6875 C43.01788904 16.43757872 41.03613994 16.18477716 39.0546875 15.9296875 C37.39711426 15.71650879 37.39711426 15.71650879 35.70605469 15.49902344 C28.4989511 14.52858077 21.31323264 13.41271791 14.125 12.3125 C12.62370756 12.08351422 11.12240567 11.85459044 9.62109375 11.62573242 C6.08046473 11.08554207 2.54014227 10.54337217 -1 10 C-1.125 3.375 -1.125 3.375 0 0 Z " fill="#BC7957" transform="translate(66,192)"/>
<path d="M0 0 C0.33 0.66 0.66 1.32 1 2 C7.435 1.505 7.435 1.505 14 1 C15.2473824 8.92978809 15.31865735 14.73324997 12.375 22.125 C12.12733887 22.76381104 11.87967773 23.40262207 11.62451172 24.06079102 C9.84929438 28.16247739 8.08727481 30.18784256 4 32 C3.34 32 2.68 32 2 32 C1.62488281 30.99582031 1.24976563 29.99164063 0.86328125 28.95703125 C-2.37948959 20.28693089 -5.65918721 11.63289678 -9 3 C-2.25 0 -2.25 0 0 0 Z " fill="#28A864" transform="translate(58,150)"/>
<path d="M0 0 C3.0738502 0.07088543 6.00687964 0.27036034 9 1 C10.9375 3.25 10.9375 3.25 12 6 C12.391875 6.845625 12.78375 7.69125 13.1875 8.5625 C14 11 14 11 14 15 C15.46373047 14.65775391 15.46373047 14.65775391 16.95703125 14.30859375 C18.86548828 13.87740234 18.86548828 13.87740234 20.8125 13.4375 C22.07707031 13.14746094 23.34164062 12.85742188 24.64453125 12.55859375 C28 12 28 12 31 13 C28.00946331 15.01445874 25.00658766 17.00959236 22 19 C20.89205078 19.74830078 20.89205078 19.74830078 19.76171875 20.51171875 C19.07722656 20.96160156 18.39273438 21.41148437 17.6875 21.875 C17.07261719 22.28492188 16.45773438 22.69484375 15.82421875 23.1171875 C14 24 14 24 10 24 C8.4375 21.6875 8.4375 21.6875 7 19 C6.28070313 18.37544922 6.28070313 18.37544922 5.546875 17.73828125 C3.33351477 15.25104564 2.74608576 12.67633775 1.8125 9.5 C1.46832031 8.3553125 1.12414062 7.210625 0.76953125 6.03125 C0 3 0 3 0 0 Z " fill="#CB8345" transform="translate(79,214)"/>
<path d="M0 0 C3.77800868 0.53971553 5.71576111 1.95434815 8 5 C7.59943248 9.8705369 5.32249276 14.3594379 3.4375 18.8125 C3.10814453 19.60076172 2.77878906 20.38902344 2.43945312 21.20117188 C1.63041094 23.13583796 0.81576148 25.06815753 0 27 C-3.3 26.01 -6.6 25.02 -10 24 C-8.63143665 19.63770431 -6.95167825 15.5701787 -5 11.4375 C-3.22018822 7.65984949 -1.50851693 3.89458457 0 0 Z " fill="#B67757" transform="translate(73,162)"/>
<path d="M0 0 C2.19164944 3.28747416 2.28679386 4.48494825 2.4140625 8.32421875 C2.45273438 9.35224609 2.49140625 10.38027344 2.53125 11.43945312 C2.5621875 12.51130859 2.593125 13.58316406 2.625 14.6875 C2.66367188 15.77095703 2.70234375 16.85441406 2.7421875 17.97070312 C2.83650509 20.64696467 2.92210005 23.32321843 3 26 C0.04335481 27.4783226 -2.74229737 27.06032783 -6 27 C-7.23107719 19.27279225 -8.2700558 11.8316181 -8 4 C-5.36 2.68 -2.72 1.36 0 0 Z " fill="#B77857" transform="translate(125,169)"/>
<path d="M0 0 C2.68036901 1.23254603 3.0118564 2.55915627 4.05566406 5.28295898 C4.40371094 6.17305664 4.75175781 7.0631543 5.11035156 7.98022461 C5.45839844 8.91672852 5.80644531 9.85323242 6.16503906 10.81811523 C6.52855469 11.75075195 6.89207031 12.68338867 7.26660156 13.64428711 C9.91503906 20.52922896 9.91503906 20.52922896 9.91503906 22.88061523 C6.38944711 22.25133338 4.12061373 20.83341121 1.22753906 18.75561523 C0.36 18.13299805 -0.50753906 17.51038086 -1.40136719 16.86889648 C-5.35134339 13.94234934 -9.23638291 10.93902627 -13.08496094 7.88061523 C-5.23197118 -0.29958242 -5.23197118 -0.29958242 0 0 Z " fill="#FBFAF8" transform="translate(50.0849609375,157.119384765625)"/>
<path d="M0 0 C0.66 0.33 1.32 0.66 2 1 C2.25366211 3.31640625 2.25366211 3.31640625 2 6 C0.30688477 7.58984375 0.30688477 7.58984375 -2.05859375 8.9375 C-2.92033203 9.44023437 -3.78207031 9.94296875 -4.66992188 10.4609375 C-5.58322266 10.96882812 -6.49652344 11.47671875 -7.4375 12 C-8.31599609 12.50789062 -9.19449219 13.01578125 -10.09960938 13.5390625 C-12.72125511 15.04820174 -15.35689434 16.52881416 -18 18 C-18.88059082 18.49113281 -19.76118164 18.98226562 -20.66845703 19.48828125 C-22.77729283 20.66192297 -24.88768905 21.83262779 -27 23 C-32.72028812 14.60984394 -32.72028812 14.60984394 -32 10 C-30.88625 10.5775 -29.7725 11.155 -28.625 11.75 C-24.93248093 13.11279263 -22.85887957 13.02306134 -19.1875 11.625 C-14.27354151 9.35818943 -9.80569237 6.44389866 -5.34765625 3.390625 C-3 2 -3 2 0 2 C0 1.34 0 0.68 0 0 Z " fill="#A66E52" transform="translate(126,232)"/>
<path d="M0 0 C2.97 0 5.94 0 9 0 C8.01 0.495 8.01 0.495 7 1 C7.020625 2.093125 7.04125 3.18625 7.0625 4.3125 C7 8 7 8 6 11 C6.99 10.67 7.98 10.34 9 10 C11.475 13.465 11.475 13.465 14 17 C9.91266859 20.44868587 5.56194093 23.23793154 1 26 C0.24722485 23.26750659 -0.16641703 20.71899317 -0.31640625 17.890625 C-0.35830078 17.13652344 -0.40019531 16.38242188 -0.44335938 15.60546875 C-0.48267578 14.82816406 -0.52199219 14.05085937 -0.5625 13.25 C-0.60568359 12.45722656 -0.64886719 11.66445312 -0.69335938 10.84765625 C-0.79902991 8.89862185 -0.89997966 6.94933252 -1 5 C-0.34 5 0.32 5 1 5 C0.67 3.35 0.34 1.7 0 0 Z " fill="#3FB877" transform="translate(127,164)"/>
<path d="M0 0 C2.03633504 10.9776971 -0.35146788 18.25829355 -5 28 C-5.33 28 -5.66 28 -6 28 C-6.04125 26.80375 -6.0825 25.6075 -6.125 24.375 C-6.73923172 18.44057662 -9.24741594 13.38558158 -11.72265625 8.0390625 C-13 5 -13 5 -13 2 C-11.39658445 1.66307215 -9.79223445 1.33058907 -8.1875 1 C-7.29417969 0.814375 -6.40085937 0.62875 -5.48046875 0.4375 C-3 0 -3 0 0 0 Z " fill="#3DBC79" transform="translate(72,151)"/>
<path d="M0 0 C0.99 0.33 1.98 0.66 3 1 C0.49415892 9.40193774 -3.21025857 17.11941439 -7 25 C-10.33632335 23.39856479 -12.74064561 22.01247252 -15 19 C-14.75 15.75 -14.75 15.75 -14 13 C-12.35 12.67 -10.7 12.34 -9 12 C-9.08894531 11.25492188 -9.17789063 10.50984375 -9.26953125 9.7421875 C-9 7 -9 7 -7.13671875 4.9453125 C-6.32847656 4.34460938 -5.52023438 3.74390625 -4.6875 3.125 C-3.88699219 2.50882813 -3.08648437 1.89265625 -2.26171875 1.2578125 C-1.51535156 0.84273437 -0.76898438 0.42765625 0 0 Z " fill="#F9F8F6" transform="translate(137,183)"/>
<path d="M0 0 C12.66970387 3.07517084 12.66970387 3.07517084 18 5 C17.125 9.75 17.125 9.75 16 12 C3.33029613 8.92482916 3.33029613 8.92482916 -2 7 C-1.34 4.69 -0.68 2.38 0 0 Z " fill="#C17D5C" transform="translate(86,114)"/>
<path d="M0 0 C0 2.31 0 4.62 0 7 C-6.04829486 7.89604368 -11.8894576 8.11269443 -18 8 C-18.33 5.69 -18.66 3.38 -19 1 C-12.63849395 0.34513908 -6.39628979 -0.12068471 0 0 Z " fill="#C17C5B" transform="translate(138,116)"/>
<path d="M0 0 C3.20861774 0.13995514 6.41681288 0.28802257 9.625 0.4375 C10.52863281 0.47681641 11.43226562 0.51613281 12.36328125 0.55664062 C16.98216146 0.77578458 21.45153636 1.1008851 26 2 C24.50873509 4.98252983 22.33512289 5.3899657 19.3125 6.6875 C18.27738281 7.14511719 17.24226563 7.60273438 16.17578125 8.07421875 C12.55835113 9.12874635 10.59115224 9.08867578 7 8 C4.8828125 6.40625 4.8828125 6.40625 3.125 4.5 C2.52945313 3.8709375 1.93390625 3.241875 1.3203125 2.59375 C0 1 0 1 0 0 Z " fill="#BF9E7C" transform="translate(89,162)"/>
<path d="M0 0 C1.85625 0.1546875 1.85625 0.1546875 3.75 0.3125 C3.110625 0.60125 2.47125 0.89 1.8125 1.1875 C-0.40206079 2.14073451 -0.40206079 2.14073451 -1.25 4.3125 C-1.31950541 5.85273996 -1.33452357 7.39584988 -1.3125 8.9375 C-1.30347656 9.75476563 -1.29445313 10.57203125 -1.28515625 11.4140625 C-1.27355469 12.04054687 -1.26195313 12.66703125 -1.25 13.3125 C0.4 13.6425 2.05 13.9725 3.75 14.3125 C6.04633824 10.86799263 6.29016485 8.37437717 6.75 4.3125 C7.41 4.6425 8.07 4.9725 8.75 5.3125 C9.08785628 8.94445497 8.97875985 10.90073227 7.1875 14.125 C3.98003157 17.00349731 2.0350666 17.38767661 -2.25 17.3125 C-5.05189446 15.54608828 -6.76524911 14.28200178 -8.25 11.3125 C-8.65616229 7.65703935 -8.46434253 5.72332318 -6.75 2.4375 C-4.01112567 0.10945682 -3.41890388 0.00606189 0 0 Z " fill="#FCF5EF" transform="translate(92.25,123.6875)"/>
<path d="M0 0 C2.9375 0.375 2.9375 0.375 6 1 C7.52846661 4.05693322 7.23242445 6.62984547 7 10 C5.5 12.4375 5.5 12.4375 4 14 C-0.875 13.125 -0.875 13.125 -2 12 C-2.16796875 10.0390625 -2.16796875 10.0390625 -2.1875 7.625 C-2.20167969 6.83351562 -2.21585937 6.04203125 -2.23046875 5.2265625 C-2 3 -2 3 0 0 Z " fill="#C07C5B" transform="translate(92,125)"/>
<path d="M0 0 C1.2375 0.1546875 1.2375 0.1546875 2.5 0.3125 C4.69398856 3.60348284 4.71503664 4.16082581 4.25 7.875 C4.16234375 8.66003906 4.0746875 9.44507813 3.984375 10.25390625 C3.5 12.3125 3.5 12.3125 1.5 14.3125 C-1.0625 14.0625 -1.0625 14.0625 -3.5 13.3125 C-4.67673198 10.95903604 -4.66623866 9.4318967 -4.6875 6.8125 C-4.70167969 6.0184375 -4.71585937 5.224375 -4.73046875 4.40625 C-4.3700973 1.13236697 -3.17675031 0.39709379 0 0 Z " fill="#C17E5D" transform="translate(124.5,126.6875)"/>
<path d="M0 0 C0.33 0 0.66 0 1 0 C1.5073978 4.18603182 0.47447033 7.02421184 -1.64453125 10.55078125 C-3 12 -3 12 -6.75 12.9375 C-7.8225 12.958125 -8.895 12.97875 -10 13 C-12.32590854 9.36576791 -12.16265833 6.22911669 -12 2 C-10.9275 2.165 -9.855 2.33 -8.75 2.5 C-4.96971248 3.08810915 -4.96971248 3.08810915 -1 3 C-0.67 2.01 -0.34 1.02 0 0 Z " fill="#A66E53" transform="translate(80,235)"/>
<path d="M0 0 C0.7940625 -0.01417969 1.588125 -0.02835938 2.40625 -0.04296875 C4.5 0.1875 4.5 0.1875 6.5 2.1875 C6.3125 4.6875 6.3125 4.6875 5.5 7.1875 C2.5 9.1875 2.5 9.1875 -1.0625 8.9375 C-4.5 8.1875 -4.5 8.1875 -6.5 6.1875 C-6.625 3.5625 -6.625 3.5625 -6.5 1.1875 C-4.14653604 0.01076802 -2.6193967 0.02126134 0 0 Z " fill="#E7B688" transform="translate(109.5,134.8125)"/>
<path d="M0 0 C0.33 0.99 0.66 1.98 1 3 C2.65 3.33 4.3 3.66 6 4 C4.8905928 7.48670834 3.73662334 10.77484237 2 14 C-1.37471011 12.55369567 -3.78192764 10.95742982 -6 8 C-6.0625 4.875 -6.0625 4.875 -5 2 C-2.4375 0.625 -2.4375 0.625 0 0 Z " fill="#E2E2DE" transform="translate(128,194)"/>
<path d="M0 0 C3.37961317 1.15401425 3.891517 2.82533423 5.5625 5.875 C3.77159242 7.0220194 1.97975003 8.16757935 0.1875 9.3125 C-1.30910156 10.26962891 -1.30910156 10.26962891 -2.8359375 11.24609375 C-5.4375 12.875 -5.4375 12.875 -7.4375 13.875 C-7.7675 11.565 -8.0975 9.255 -8.4375 6.875 C-7.7775 6.545 -7.1175 6.215 -6.4375 5.875 C-6.1075 5.05 -5.7775 4.225 -5.4375 3.375 C-4.13777636 0.12569089 -3.45484151 -0.17717136 0 0 Z " fill="#2DA865" transform="translate(135.4375,176.125)"/>
<path d="M0 0 C0.66 0 1.32 0 2 0 C2.33 6.6 2.66 13.2 3 20 C4.98 20.66 6.96 21.32 9 22 C7.68 22.33 6.36 22.66 5 23 C5 23.99 5 24.98 5 26 C1.62743695 24.81504541 -0.78072793 23.84604055 -3 21 C-3.3984375 18.625 -3.3984375 18.625 -3.375 16 C-3.38273437 15.13375 -3.39046875 14.2675 -3.3984375 13.375 C-2.92211817 10.53576323 -2.00524036 9.95260938 0 8 C0.3606631 5.94636394 0.3606631 5.94636394 0.1875 3.8125 C0.125625 2.554375 0.06375 1.29625 0 0 Z " fill="#DFAF83" transform="translate(66,118)"/>
<path d="M0 0 C2.91650344 2.78969894 3.90729305 4.18108859 4.375 8.3125 C4 12 4 12 1.8125 14.875 C-0.97701716 16.98263518 -2.56466156 17.70554242 -6 18 C-5.67 16.35 -5.34 14.7 -5 13 C-4.34 13 -3.68 13 -3 13 C-2.86722656 12.14535156 -2.73445312 11.29070312 -2.59765625 10.41015625 C-2.33275391 8.75306641 -2.33275391 8.75306641 -2.0625 7.0625 C-1.88847656 5.96035156 -1.71445313 4.85820312 -1.53515625 3.72265625 C-1 1 -1 1 0 0 Z " fill="#D5A77E" transform="translate(152,130)"/>
<path d="M0 0 C4.51358863 -0.36596665 4.51358863 -0.36596665 6.640625 1.234375 C8.78145965 4.01499932 8.47822023 6.4374111 8.33984375 9.8359375 C8 12 8 12 6.5 14.5625 C2.85665449 16.65742367 0.16543193 16.27769546 -4 16 C-3.38125 15.7525 -2.7625 15.505 -2.125 15.25 C0.46275992 13.72778828 1.05592658 12.83222025 2 10 C2.33083127 6.0300247 2.09972674 3.41205596 0 0 Z " fill="#FEFDFB" transform="translate(126,126)"/>
<path d="M0 0 C2.7058597 0.67646492 4.51516936 1.35717343 6.22265625 3.62109375 C9 8.40927419 9 8.40927419 9 11 C7.04072937 12.7143618 5.04119788 14.38405168 3 16 C2.79503906 15.43410156 2.59007812 14.86820313 2.37890625 14.28515625 C2.10949219 13.55167969 1.84007812 12.81820312 1.5625 12.0625 C1.29566406 11.33160156 1.02882812 10.60070312 0.75390625 9.84765625 C0.14613052 8.01694322 0.14613052 8.01694322 -1 7 C-0.71269945 4.66055264 -0.38063221 2.3260857 0 0 Z " fill="#F1CBA7" transform="translate(153,123)"/>
<path d="M0 0 C0.33 0 0.66 0 1 0 C1.60445577 12.58163487 1.60445577 12.58163487 -2 17 C-5.6875 17.875 -5.6875 17.875 -9 18 C-6 12 -3 6 0 0 Z " fill="#CEAB8A" transform="translate(47,189)"/>
<path d="M0 0 C6.02710843 0.26204819 6.02710843 0.26204819 9 1 C11.06904054 3.44522973 12 4.79091119 12 8 C8.75370153 9.08209949 8.12563502 8.78140875 5 8 C4.01 8.33 3.02 8.66 2 9 C1.34 6.03 0.68 3.06 0 0 Z " fill="#D48948" transform="translate(79,214)"/>
<path d="M0 0 C2.875 -0.1875 2.875 -0.1875 6 0 C8.67927341 4.01891012 8.15601248 6.24161923 8 11 C6.35 11 4.7 11 3 11 C0.84694043 7.14243493 -0.39253254 4.44870215 0 0 Z " fill="#239C5C" transform="translate(57,168)"/>
<path d="M0 0 C1.79068573 2.6860286 2.66055791 4.6626589 3.625 7.6875 C3.88539062 8.49574219 4.14578125 9.30398437 4.4140625 10.13671875 C4.60742188 10.75160156 4.80078125 11.36648437 5 12 C1.78147169 11.36934243 -0.50801069 10.21979305 -3.25 8.4375 C-3.95640625 7.98246094 -4.6628125 7.52742187 -5.390625 7.05859375 C-6.18726563 6.53458984 -6.18726563 6.53458984 -7 6 C-2.25 1.125 -2.25 1.125 0 0 Z " fill="#ECEDEA" transform="translate(55,168)"/>
<path d="M0 0 C4.26672384 0.47408043 6.2455048 2.88307122 9 6 C10.3125 8.3125 10.3125 8.3125 11 10 C9.02 10.33 7.04 10.66 5 11 C4.566875 10.236875 4.13375 9.47375 3.6875 8.6875 C2.26313215 6.41906232 0.96739903 4.7800277 -1 3 C-0.67 2.01 -0.34 1.02 0 0 Z " fill="#C07D43" transform="translate(84,227)"/>
<path d="M0 0 C1.58246707 -0.08153933 3.16616273 -0.13943557 4.75 -0.1875 C6.07257813 -0.23970703 6.07257813 -0.23970703 7.421875 -0.29296875 C10.55665731 0.06325651 11.81700204 0.73341879 14 3 C14.75 5.6875 14.75 5.6875 15 8 C14.26394531 7.72285156 13.52789062 7.44570312 12.76953125 7.16015625 C11.79371094 6.79792969 10.81789062 6.43570313 9.8125 6.0625 C8.84957031 5.70285156 7.88664063 5.34320313 6.89453125 4.97265625 C4.2631722 4.08843438 1.73105092 3.47431414 -1 3 C-0.67 2.01 -0.34 1.02 0 0 Z " fill="#E9C29D" transform="translate(156,189)"/>
<path d="M0 0 C0.99 0 1.98 0 3 0 C4.95021536 6.46008837 5.22262303 12.2718373 5 19 C1.42687712 15.42687712 -0.95446228 9.86887658 -1.03515625 4.78515625 C-0.75 2.875 -0.75 2.875 0 0 Z " fill="#CA815D" transform="translate(164,63)"/>
<path d="M0 0 C1.75140143 0.45294865 3.50107344 0.91258748 5.25 1.375 C6.71179688 1.75785156 6.71179688 1.75785156 8.203125 2.1484375 C10.65837303 2.89598509 12.75617405 3.77123817 15 5 C15 5.99 15 6.98 15 8 C9.54520815 7.43179252 5.08940744 6.05362055 0 4 C0 2.68 0 1.36 0 0 Z " fill="#C27D5C" transform="translate(96,148)"/>
<path d="M0 0 C2.97 0.495 2.97 0.495 6 1 C5.88590407 2.45922693 5.75834456 3.91740598 5.625 5.375 C5.55539063 6.18710938 5.48578125 6.99921875 5.4140625 7.8359375 C5 10 5 10 3 12 C0.94801218 9.94801218 -0.02083184 8.7115426 -1 6 C-0.625 2.75 -0.625 2.75 0 0 Z " fill="#D59260" transform="translate(114,209)"/>
<path d="M0 0 C-1.40552299 1.03612271 -2.82491694 2.05344925 -4.25 3.0625 C-5.43335937 3.91521484 -5.43335937 3.91521484 -6.640625 4.78515625 C-9 6 -9 6 -11.046875 5.87109375 C-13.31213639 4.86078717 -15.08761445 3.57088813 -17 2 C-14.73139163 1.4695592 -12.46001511 0.95094566 -10.1875 0.4375 C-8.29064453 0.00244141 -8.29064453 0.00244141 -6.35546875 -0.44140625 C-3 -1 -3 -1 0 0 Z " fill="#D48949" transform="translate(110,227)"/>
<path d="M0 0 C1.70840281 1.63412443 2.93453047 2.86906094 4 5 C4.04022391 7.3329866 4.04320247 9.66706666 4 12 C3.34 11.01 2.68 10.02 2 9 C0.02 9.99 0.02 9.99 -2 11 C-1.85957123 9.35369672 -1.71250671 7.70795821 -1.5625 6.0625 C-1.48128906 5.14597656 -1.40007812 4.22945312 -1.31640625 3.28515625 C-1 1 -1 1 0 0 Z " fill="#E1B185" transform="translate(152,130)"/>
<path d="M0 0 C0.33 1.65 0.66 3.3 1 5 C-0.98 5 -2.96 5 -5 5 C-5.33 5.99 -5.66 6.98 -6 8 C-6.66 7.67 -7.32 7.34 -8 7 C-8.625 4.9375 -8.625 4.9375 -9 3 C-2.25 0 -2.25 0 0 0 Z " fill="#3CAB6E" transform="translate(58,150)"/>
<path d="M0 0 C-0.33 0.99 -0.66 1.98 -1 3 C-5.31035482 4.34256953 -8.47781648 5 -13 5 C-13 4.01 -13 3.02 -13 2 C-11.39658445 1.66307215 -9.79223445 1.33058907 -8.1875 1 C-7.29417969 0.814375 -6.40085937 0.62875 -5.48046875 0.4375 C-3 0 -3 0 0 0 Z " fill="#47BE7F" transform="translate(72,151)"/>
<path d="M0 0 C0.66 1.65 1.32 3.3 2 5 C-1 7 -1 7 -4 7 C-5.6875 5 -5.6875 5 -7 3 C-3.375 0 -3.375 0 0 0 Z " fill="#C9815C" transform="translate(63,81)"/>
<path d="M0 0 C3.73487777 0.4979837 5.81237635 0.87491756 9 3 C8.34 4.32 7.68 5.64 7 7 C4.13302508 5.71480435 2.02392288 4.42870746 0 2 C0 1.34 0 0.68 0 0 Z " fill="#DDDDDB" transform="translate(123,201)"/>
<path d="M0 0 C0.33 0 0.66 0 1 0 C1 3.63 1 7.26 1 11 C-0.65 10.67 -2.3 10.34 -4 10 C-2.66666667 6.66666667 -1.33333333 3.33333333 0 0 Z " fill="#D6B493" transform="translate(47,189)"/>
<path d="M0 0 C2.31 0 4.62 0 7 0 C5.52436775 2.9512645 3.49920648 3.06923915 0.4375 4.125 C-0.57441406 4.47820312 -1.58632812 4.83140625 -2.62890625 5.1953125 C-3.41136719 5.46085938 -4.19382812 5.72640625 -5 6 C-4.67 5.01 -4.34 4.02 -4 3 C-3.01 3 -2.02 3 -1 3 C-0.67 2.01 -0.34 1.02 0 0 Z " fill="#B79E7A" transform="translate(108,164)"/>
<path d="M0 0 C2.3125 0.1875 2.3125 0.1875 5 1 C6.8125 3.5625 6.8125 3.5625 8 6 C6.68 6.33 5.36 6.66 4 7 C2.02 3.535 2.02 3.535 0 0 Z " fill="#3EAA6D" transform="translate(133,176)"/>
<path d="M0 0 C0.99 0 1.98 0 3 0 C2.88637738 1.4800841 2.75877092 2.95910074 2.625 4.4375 C2.52058594 5.67306641 2.52058594 5.67306641 2.4140625 6.93359375 C2.27742188 7.61550781 2.14078125 8.29742187 2 9 C1.01 9.495 1.01 9.495 0 10 C-0.95024979 6.30458414 -0.95024979 3.69541586 0 0 Z " fill="#DD9458" transform="translate(114,209)"/>
<path d="M0 0 C6.75 -0.125 6.75 -0.125 9 1 C8.67 2.32 8.34 3.64 8 5 C5.03 4.01 2.06 3.02 -1 2 C-0.67 1.34 -0.34 0.68 0 0 Z " fill="#EBEBE8" transform="translate(125,197)"/>
<path d="M0 0 C2.97 0 5.94 0 9 0 C8.01 0.495 8.01 0.495 7 1 C7 3.31 7 5.62 7 8 C6.01 7.67 5.02 7.34 4 7 C4.33 5.35 4.66 3.7 5 2 C3.35 1.67 1.7 1.34 0 1 C0 0.67 0 0.34 0 0 Z " fill="#76B784" transform="translate(127,164)"/>
<path d="M0 0 C1.75 0.125 1.75 0.125 4 1 C6.25 4.0625 6.25 4.0625 8 7 C6.68 7 5.36 7 4 7 C2.02 3.535 2.02 3.535 0 0 Z " fill="#BC8051" transform="translate(85,231)"/>
<path d="M0 0 C1.74627478 2.61941217 2.38722388 4.03824877 3 7 C0.13275314 6.42655063 -0.8614515 6.1385485 -3 4 C-2.01 2.68 -1.02 1.36 0 0 Z " fill="#D6DBD6" transform="translate(57,173)"/>
<path d="M0 0 C1.98 0.66 3.96 1.32 6 2 C5.67 2.66 5.34 3.32 5 4 C2.03 3.505 2.03 3.505 -1 3 C-0.67 2.01 -0.34 1.02 0 0 Z " fill="#BA7B5D" transform="translate(116,227)"/>
<path d="M0 0 C0.33 0 0.66 0 1 0 C1 1.65 1 3.3 1 5 C-0.98 5.66 -2.96 6.32 -5 7 C-5 6.01 -5 5.02 -5 4 C-4.0409375 3.8453125 -4.0409375 3.8453125 -3.0625 3.6875 C-2.381875 3.460625 -1.70125 3.23375 -1 3 C-0.67 2.01 -0.34 1.02 0 0 Z " fill="#37A166" transform="translate(65,175)"/>
</svg>
