<?xml version="1.0" encoding="UTF-8"?>
<svg version="1.1" xmlns="http://www.w3.org/2000/svg" width="376" height="252">
<path d="M0 0 C124.08 0 248.16 0 376 0 C376 83.16 376 166.32 376 252 C251.92 252 127.84 252 0 252 C0 168.84 0 85.68 0 0 Z " fill="#E0E7EF" transform="translate(0,0)"/>
<path d="M0 0 C12.54 0 25.08 0 38 0 C38 0.99 38 1.98 38 3 C39.65 3 41.3 3 43 3 C43 4.65 43 6.3 43 8 C43.99 8 44.98 8 46 8 C46 8.99 46 9.98 46 11 C46.66 11 47.32 11 48 11 C48 23.21 48 35.42 48 48 C48.99 48 49.98 48 51 48 C51 53.61 51 59.22 51 65 C51.99 65 52.98 65 54 65 C54 75.56 54 86.12 54 97 C54.66 97 55.32 97 56 97 C56 104.92 56 112.84 56 121 C56.99 121 57.98 121 59 121 C59 129.91 59 138.82 59 148 C58.01 148 57.02 148 56 148 C56 149.65 56 151.3 56 153 C55.34 153 54.68 153 54 153 C54 153.99 54 154.98 54 156 C52.02 156 50.04 156 48 156 C48 156.99 48 157.98 48 159 C41.73 159 35.46 159 29 159 C29 159.99 29 160.98 29 162 C20.09 162 11.18 162 2 162 C2 162.66 2 163.32 2 164 C-5.92 164 -13.84 164 -22 164 C-22 164.99 -22 165.98 -22 167 C-29.92 167 -37.84 167 -46 167 C-46 167.99 -46 168.98 -46 170 C-53.92 170 -61.84 170 -70 170 C-70 170.66 -70 171.32 -70 172 C-75.61 172 -81.22 172 -87 172 C-87 171.34 -87 170.68 -87 170 C-88.65 170 -90.3 170 -92 170 C-92 169.01 -92 168.02 -92 167 C-92.99 167 -93.98 167 -95 167 C-95 166.01 -95 165.02 -95 164 C-95.66 164 -96.32 164 -97 164 C-97 161.36 -97 158.72 -97 156 C-97.99 156 -98.98 156 -100 156 C-100 149.73 -100 143.46 -100 137 C-100.99 137 -101.98 137 -103 137 C-103 130.73 -103 124.46 -103 118 C-103.66 118 -104.32 118 -105 118 C-105 104.8 -105 91.6 -105 78 C-105.99 78 -106.98 78 -108 78 C-108 71.73 -108 65.46 -108 59 C-108.99 59 -109.98 59 -111 59 C-111 51.08 -111 43.16 -111 35 C-111.66 35 -112.32 35 -113 35 C-113 30.38 -113 25.76 -113 21 C-112.34 21 -111.68 21 -111 21 C-111 20.34 -111 19.68 -111 19 C-110.01 19 -109.02 19 -108 19 C-108 18.01 -108 17.02 -108 16 C-106.35 16 -104.7 16 -103 16 C-103 15.01 -103 14.02 -103 13 C-101.02 13 -99.04 13 -97 13 C-97 12.34 -97 11.68 -97 11 C-87.43 11 -77.86 11 -68 11 C-68 10.01 -68 9.02 -68 8 C-62.39 8 -56.78 8 -51 8 C-51 7.01 -51 6.02 -51 5 C-42.09 5 -33.18 5 -24 5 C-24 4.34 -24 3.68 -24 3 C-16.08 3 -8.16 3 0 3 C0 2.01 0 1.02 0 0 Z " fill="#728AE8" transform="translate(161,48)"/>
<path d="M0 0 C2.64 0 5.28 0 8 0 C8 1.65 8 3.3 8 5 C7.01 5 6.02 5 5 5 C5 6.65 5 8.3 5 10 C3.35 10 1.7 10 0 10 C0 12.97 0 15.94 0 19 C0.66 19 1.32 19 2 19 C2 18.01 2 17.02 2 16 C2.99 16 3.98 16 5 16 C5 15.01 5 14.02 5 13 C5.99 13 6.98 13 8 13 C8 13.99 8 14.98 8 16 C8.99 16 9.98 16 11 16 C11 15.01 11 14.02 11 13 C11.66 13 12.32 13 13 13 C13 12.01 13 11.02 13 10 C13.99 10 14.98 10 16 10 C16 10.99 16 11.98 16 13 C16.99 13 17.98 13 19 13 C19 12.01 19 11.02 19 10 C19.66 10 20.32 10 21 10 C21 10.99 21 11.98 21 13 C21.99 13 22.98 13 24 13 C24 12.01 24 11.02 24 10 C24.99 10 25.98 10 27 10 C27 10.99 27 11.98 27 13 C27.66 13 28.32 13 29 13 C29 12.01 29 11.02 29 10 C29.99 10 30.98 10 32 10 C32 10.99 32 11.98 32 13 C32.99 13 33.98 13 35 13 C35 12.01 35 11.02 35 10 C35.99 10 36.98 10 38 10 C38 10.99 38 11.98 38 13 C39.65 13 41.3 13 43 13 C43 12.01 43 11.02 43 10 C43.99 10 44.98 10 46 10 C46 9.34 46 8.68 46 8 C46.66 8 47.32 8 48 8 C48 8.66 48 9.32 48 10 C48.99 10 49.98 10 51 10 C51 9.34 51 8.68 51 8 C51.99 8 52.98 8 54 8 C54 8.66 54 9.32 54 10 C54.66 10 55.32 10 56 10 C56 10.99 56 11.98 56 13 C56.99 13 57.98 13 59 13 C59 21.91 59 30.82 59 40 C58.01 40 57.02 40 56 40 C56 41.65 56 43.3 56 45 C55.34 45 54.68 45 54 45 C54 45.99 54 46.98 54 48 C52.02 48 50.04 48 48 48 C48 48.99 48 49.98 48 51 C41.73 51 35.46 51 29 51 C29 51.99 29 52.98 29 54 C20.09 54 11.18 54 2 54 C2 54.66 2 55.32 2 56 C-5.92 56 -13.84 56 -22 56 C-22 56.99 -22 57.98 -22 59 C-29.92 59 -37.84 59 -46 59 C-46 59.99 -46 60.98 -46 62 C-53.92 62 -61.84 62 -70 62 C-70 62.66 -70 63.32 -70 64 C-75.61 64 -81.22 64 -87 64 C-87 63.34 -87 62.68 -87 62 C-88.65 62 -90.3 62 -92 62 C-92 61.01 -92 60.02 -92 59 C-92.99 59 -93.98 59 -95 59 C-95 58.01 -95 57.02 -95 56 C-95.66 56 -96.32 56 -97 56 C-97 53.36 -97 50.72 -97 48 C-97.99 48 -98.98 48 -100 48 C-100 41.07 -100 34.14 -100 27 C-98.35 27 -96.7 27 -95 27 C-95 26.01 -95 25.02 -95 24 C-94.01 24 -93.02 24 -92 24 C-92 24.99 -92 25.98 -92 27 C-90.35 27 -88.7 27 -87 27 C-87 26.01 -87 25.02 -87 24 C-86.01 24 -85.02 24 -84 24 C-84 23.01 -84 22.02 -84 21 C-83.01 21 -82.02 21 -81 21 C-81 21.99 -81 22.98 -81 24 C-80.01 24 -79.02 24 -78 24 C-78 23.01 -78 22.02 -78 21 C-77.34 21 -76.68 21 -76 21 C-76 21.99 -76 22.98 -76 24 C-75.01 24 -74.02 24 -73 24 C-73 23.01 -73 22.02 -73 21 C-72.01 21 -71.02 21 -70 21 C-70 21.99 -70 22.98 -70 24 C-69.34 24 -68.68 24 -68 24 C-68 23.01 -68 22.02 -68 21 C-67.01 21 -66.02 21 -65 21 C-65 21.99 -65 22.98 -65 24 C-63.35 24 -61.7 24 -60 24 C-60 23.01 -60 22.02 -60 21 C-59.01 21 -58.02 21 -57 21 C-57 20.34 -57 19.68 -57 19 C-56.01 19 -55.02 19 -54 19 C-54 20.65 -54 22.3 -54 24 C-53.01 24 -52.02 24 -51 24 C-51 22.35 -51 20.7 -51 19 C-50.34 19 -49.68 19 -49 19 C-49 19.66 -49 20.32 -49 21 C-48.01 21 -47.02 21 -46 21 C-46 20.34 -46 19.68 -46 19 C-45.01 19 -44.02 19 -43 19 C-43 19.66 -43 20.32 -43 21 C-42.34 21 -41.68 21 -41 21 C-41 20.34 -41 19.68 -41 19 C-40.01 19 -39.02 19 -38 19 C-38 18.01 -38 17.02 -38 16 C-37.01 16 -36.02 16 -35 16 C-35 16.99 -35 17.98 -35 19 C-34.34 19 -33.68 19 -33 19 C-33 18.01 -33 17.02 -33 16 C-32.01 16 -31.02 16 -30 16 C-30 16.99 -30 17.98 -30 19 C-29.01 19 -28.02 19 -27 19 C-27 18.01 -27 17.02 -27 16 C-26.01 16 -25.02 16 -24 16 C-24 16.99 -24 17.98 -24 19 C-23.34 19 -22.68 19 -22 19 C-22 18.01 -22 17.02 -22 16 C-21.01 16 -20.02 16 -19 16 C-19 14.02 -19 12.04 -19 10 C-18.01 10 -17.02 10 -16 10 C-16 9.34 -16 8.68 -16 8 C-13.36 8 -10.72 8 -8 8 C-8 7.01 -8 6.02 -8 5 C-5.36 5 -2.72 5 0 5 C0 3.35 0 1.7 0 0 Z " fill="#6D7CE9" transform="translate(161,156)"/>
<path d="M0 0 C12.54 0 25.08 0 38 0 C38 0.99 38 1.98 38 3 C39.65 3 41.3 3 43 3 C43 4.65 43 6.3 43 8 C43.99 8 44.98 8 46 8 C46 8.99 46 9.98 46 11 C46.66 11 47.32 11 48 11 C48 18.92 48 26.84 48 35 C47.34 35 46.68 35 46 35 C46 35.99 46 36.98 46 38 C45.01 38 44.02 38 43 38 C43 38.66 43 39.32 43 40 C42.01 40 41.02 40 40 40 C40 39.34 40 38.68 40 38 C39.34 38 38.68 38 38 38 C38 39.65 38 41.3 38 43 C37.01 43 36.02 43 35 43 C35 41.35 35 39.7 35 38 C34.01 38 33.02 38 32 38 C32 39.65 32 41.3 32 43 C31.01 43 30.02 43 29 43 C29 42.01 29 41.02 29 40 C28.34 40 27.68 40 27 40 C27 38.35 27 36.7 27 35 C26.01 35 25.02 35 24 35 C24 36.65 24 38.3 24 40 C23.01 40 22.02 40 21 40 C21 39.34 21 38.68 21 38 C19.35 38 17.7 38 16 38 C16 38.66 16 39.32 16 40 C15.01 40 14.02 40 13 40 C13 41.98 13 43.96 13 46 C12.34 46 11.68 46 11 46 C11 44.02 11 42.04 11 40 C10.01 40 9.02 40 8 40 C8 41.98 8 43.96 8 46 C7.01 46 6.02 46 5 46 C5 44.02 5 42.04 5 40 C4.01 40 3.02 40 2 40 C2 41.98 2 43.96 2 46 C1.34 46 0.68 46 0 46 C0 44.02 0 42.04 0 40 C-0.99 40 -1.98 40 -3 40 C-3 41.98 -3 43.96 -3 46 C-3.99 46 -4.98 46 -6 46 C-6 44.02 -6 42.04 -6 40 C-6.66 40 -7.32 40 -8 40 C-8 41.98 -8 43.96 -8 46 C-8.99 46 -9.98 46 -11 46 C-11 44.02 -11 42.04 -11 40 C-12.65 40 -14.3 40 -16 40 C-16 40.99 -16 41.98 -16 43 C-16.99 43 -17.98 43 -19 43 C-19 44.65 -19 46.3 -19 48 C-19.99 48 -20.98 48 -22 48 C-22 46.35 -22 44.7 -22 43 C-22.66 43 -23.32 43 -24 43 C-24 44.65 -24 46.3 -24 48 C-24.99 48 -25.98 48 -27 48 C-27 46.35 -27 44.7 -27 43 C-27.99 43 -28.98 43 -30 43 C-30 44.65 -30 46.3 -30 48 C-30.99 48 -31.98 48 -33 48 C-33 45.36 -33 42.72 -33 40 C-33.66 40 -34.32 40 -35 40 C-35 42.64 -35 45.28 -35 48 C-35.99 48 -36.98 48 -38 48 C-38 46.35 -38 44.7 -38 43 C-38.99 43 -39.98 43 -41 43 C-41 42.01 -41 41.02 -41 40 C-41.66 40 -42.32 40 -43 40 C-43 40.99 -43 41.98 -43 43 C-43.99 43 -44.98 43 -46 43 C-46 44.65 -46 46.3 -46 48 C-46.99 48 -47.98 48 -49 48 C-49 46.35 -49 44.7 -49 43 C-49.66 43 -50.32 43 -51 43 C-51 44.65 -51 46.3 -51 48 C-51.99 48 -52.98 48 -54 48 C-54 46.35 -54 44.7 -54 43 C-54.99 43 -55.98 43 -57 43 C-57 44.65 -57 46.3 -57 48 C-57.99 48 -58.98 48 -60 48 C-60 48.99 -60 49.98 -60 51 C-60.66 51 -61.32 51 -62 51 C-62 49.35 -62 47.7 -62 46 C-62.99 46 -63.98 46 -65 46 C-65 48.64 -65 51.28 -65 54 C-65.99 54 -66.98 54 -68 54 C-68 51.36 -68 48.72 -68 46 C-68.66 46 -69.32 46 -70 46 C-70 48.64 -70 51.28 -70 54 C-70.99 54 -71.98 54 -73 54 C-73 51.36 -73 48.72 -73 46 C-73.99 46 -74.98 46 -76 46 C-76 48.64 -76 51.28 -76 54 C-76.66 54 -77.32 54 -78 54 C-78 52.02 -78 50.04 -78 48 C-79.98 48 -81.96 48 -84 48 C-84 48.99 -84 49.98 -84 51 C-84.99 51 -85.98 51 -87 51 C-87 50.01 -87 49.02 -87 48 C-87.66 48 -88.32 48 -89 48 C-89 47.34 -89 46.68 -89 46 C-89.99 46 -90.98 46 -92 46 C-92 46.66 -92 47.32 -92 48 C-92.99 48 -93.98 48 -95 48 C-95 48.99 -95 49.98 -95 51 C-95.66 51 -96.32 51 -97 51 C-97 50.01 -97 49.02 -97 48 C-97.99 48 -98.98 48 -100 48 C-100 48.99 -100 49.98 -100 51 C-100.99 51 -101.98 51 -103 51 C-103 51.99 -103 52.98 -103 54 C-104.65 54 -106.3 54 -108 54 C-108 55.65 -108 57.3 -108 59 C-108.99 59 -109.98 59 -111 59 C-111 51.08 -111 43.16 -111 35 C-111.66 35 -112.32 35 -113 35 C-113 30.38 -113 25.76 -113 21 C-112.34 21 -111.68 21 -111 21 C-111 20.34 -111 19.68 -111 19 C-110.01 19 -109.02 19 -108 19 C-108 18.01 -108 17.02 -108 16 C-106.35 16 -104.7 16 -103 16 C-103 15.01 -103 14.02 -103 13 C-101.02 13 -99.04 13 -97 13 C-97 12.34 -97 11.68 -97 11 C-87.43 11 -77.86 11 -68 11 C-68 10.01 -68 9.02 -68 8 C-62.39 8 -56.78 8 -51 8 C-51 7.01 -51 6.02 -51 5 C-42.09 5 -33.18 5 -24 5 C-24 4.34 -24 3.68 -24 3 C-16.08 3 -8.16 3 0 3 C0 2.01 0 1.02 0 0 Z " fill="#79A2EA" transform="translate(161,48)"/>
<path d="M0 0 C0.99 0 1.98 0 3 0 C3 1.65 3 3.3 3 5 C3.66 5 4.32 5 5 5 C5 5.99 5 6.98 5 8 C5.99 8 6.98 8 8 8 C8 6.35 8 4.7 8 3 C8.99 3 9.98 3 11 3 C11 4.65 11 6.3 11 8 C11.99 8 12.98 8 14 8 C14 6.35 14 4.7 14 3 C14.66 3 15.32 3 16 3 C16 3.66 16 4.32 16 5 C16.99 5 17.98 5 19 5 C19 4.34 19 3.68 19 3 C19.99 3 20.98 3 22 3 C22 2.01 22 1.02 22 0 C22.66 0 23.32 0 24 0 C24 4.29 24 8.58 24 13 C24.99 13 25.98 13 27 13 C27.49304175 20.39562624 27.49304175 20.39562624 25.0625 23.375 C24.381875 23.91125 23.70125 24.4475 23 25 C22.67 25.66 22.34 26.32 22 27 C21.01 27 20.02 27 19 27 C19 26.01 19 25.02 19 24 C18.01 24 17.02 24 16 24 C15.67 23.34 15.34 22.68 15 22 C14.67 22.66 14.34 23.32 14 24 C13.01 24 12.02 24 11 24 C11 22.35 11 20.7 11 19 C10.34 19.33 9.68 19.66 9 20 C8.67 22.31 8.34 24.62 8 27 C2.72 27 -2.56 27 -8 27 C-8 27.99 -8 28.98 -8 30 C-2.72 30 2.56 30 8 30 C8 30.66 8 31.32 8 32 C8.99 32 9.98 32 11 32 C11 35.63 11 39.26 11 43 C10.01 43 9.02 43 8 43 C8 43.99 8 44.98 8 46 C5.36 46 2.72 46 0 46 C0 48.64 0 51.28 0 54 C-0.99 54 -1.98 54 -3 54 C-3 54.66 -3 55.32 -3 56 C-3.66 56 -4.32 56 -5 56 C-5 56.99 -5 57.98 -5 59 C-9.62 59 -14.24 59 -19 59 C-19 58.01 -19 57.02 -19 56 C-19.99 56 -20.98 56 -22 56 C-22 55.34 -22 54.68 -22 54 C-22.66 54 -23.32 54 -24 54 C-24 52.02 -24 50.04 -24 48 C-19.71 48 -15.42 48 -11 48 C-11 46.35 -11 44.7 -11 43 C-18.92 43 -26.84 43 -35 43 C-35 42.01 -35 41.02 -35 40 C-35.99 40 -36.98 40 -38 40 C-38 35.71 -38 31.42 -38 27 C-39.32 27.33 -40.64 27.66 -42 28 C-42.33 28.66 -42.66 29.32 -43 30 C-45.64 30 -48.28 30 -51 30 C-51 31.65 -51 33.3 -51 35 C-51.99 35 -52.98 35 -54 35 C-54 35.99 -54 36.98 -54 38 C-55.65 38 -57.3 38 -59 38 C-59 38.66 -59 39.32 -59 40 C-61.64 40 -64.28 40 -67 40 C-67 40.99 -67 41.98 -67 43 C-68.98 43 -70.96 43 -73 43 C-73 43.99 -73 44.98 -73 46 C-74.65 46 -76.3 46 -78 46 C-78 46.66 -78 47.32 -78 48 C-79.98 48 -81.96 48 -84 48 C-84 48.99 -84 49.98 -84 51 C-87.3 51 -90.6 51 -94 51 C-94 50.01 -94 49.02 -94 48 C-94.99 48 -95.98 48 -97 48 C-97 44.7 -97 41.4 -97 38 C-98.65 38 -100.3 38 -102 38 C-102 36.02 -102 34.04 -102 32 C-102.99 32.495 -102.99 32.495 -104 33 C-104.144375 33.804375 -104.28875 34.60875 -104.4375 35.4375 C-105 38 -105 38 -108 40 C-108.99 40 -109.98 40 -111 40 C-111 39.34 -111 38.68 -111 38 C-111.66 38 -112.32 38 -113 38 C-113 37.01 -113 36.02 -113 35 C-114.14926266 35.95421808 -115.29430541 36.91352045 -116.4375 37.875 C-117.07558594 38.40867188 -117.71367188 38.94234375 -118.37109375 39.4921875 C-120.10805004 40.9222757 -120.10805004 40.9222757 -121 43 C-121.99 43 -122.98 43 -124 43 C-124 42.01 -124 41.02 -124 40 C-125.80252869 39.29805007 -125.80252869 39.29805007 -128 39 C-129.32 39.66 -130.64 40.32 -132 41 C-132 33.74 -132 26.48 -132 19 C-130.35 19 -128.7 19 -127 19 C-127 18.01 -127 17.02 -127 16 C-126.01 16 -125.02 16 -124 16 C-124 15.01 -124 14.02 -124 13 C-123.01 13 -122.02 13 -121 13 C-121 13.99 -121 14.98 -121 16 C-120.34 16 -119.68 16 -119 16 C-119 15.01 -119 14.02 -119 13 C-118.01 13 -117.02 13 -116 13 C-116 12.34 -116 11.68 -116 11 C-115.01 11 -114.02 11 -113 11 C-113 11.66 -113 12.32 -113 13 C-112.34 13 -111.68 13 -111 13 C-111 13.99 -111 14.98 -111 16 C-110.01 16 -109.02 16 -108 16 C-108 15.01 -108 14.02 -108 13 C-106.02 13 -104.04 13 -102 13 C-102 14.98 -102 16.96 -102 19 C-101.34 19 -100.68 19 -100 19 C-100 16.36 -100 13.72 -100 11 C-99.01 11 -98.02 11 -97 11 C-97 13.64 -97 16.28 -97 19 C-96.01 19 -95.02 19 -94 19 C-94 16.36 -94 13.72 -94 11 C-93.34 11 -92.68 11 -92 11 C-92 13.64 -92 16.28 -92 19 C-91.01 19 -90.02 19 -89 19 C-89 16.36 -89 13.72 -89 11 C-88.01 11 -87.02 11 -86 11 C-86 12.65 -86 14.3 -86 16 C-85.34 16 -84.68 16 -84 16 C-84 15.01 -84 14.02 -84 13 C-83.01 13 -82.02 13 -81 13 C-81 11.35 -81 9.7 -81 8 C-80.01 8 -79.02 8 -78 8 C-78 9.65 -78 11.3 -78 13 C-77.01 13 -76.02 13 -75 13 C-75 11.35 -75 9.7 -75 8 C-74.34 8 -73.68 8 -73 8 C-73 9.65 -73 11.3 -73 13 C-72.01 13 -71.02 13 -70 13 C-70 11.35 -70 9.7 -70 8 C-69.01 8 -68.02 8 -67 8 C-67 7.01 -67 6.02 -67 5 C-66.34 5 -65.68 5 -65 5 C-65 5.99 -65 6.98 -65 8 C-64.01 8 -63.02 8 -62 8 C-62 9.65 -62 11.3 -62 13 C-61.01 13 -60.02 13 -59 13 C-59 10.36 -59 7.72 -59 5 C-58.34 5 -57.68 5 -57 5 C-57 7.64 -57 10.28 -57 13 C-56.01 13 -55.02 13 -54 13 C-54 11.35 -54 9.7 -54 8 C-53.01 8 -52.02 8 -51 8 C-51 9.65 -51 11.3 -51 13 C-50.01 13 -49.02 13 -48 13 C-48 11.35 -48 9.7 -48 8 C-47.34 8 -46.68 8 -46 8 C-46 9.65 -46 11.3 -46 13 C-45.01 13 -44.02 13 -43 13 C-43 11.35 -43 9.7 -43 8 C-42.01 8 -41.02 8 -40 8 C-40 7.01 -40 6.02 -40 5 C-38.35 5 -36.7 5 -35 5 C-35 6.98 -35 8.96 -35 11 C-34.01 11 -33.02 11 -32 11 C-32 9.02 -32 7.04 -32 5 C-31.34 5 -30.68 5 -30 5 C-30 6.98 -30 8.96 -30 11 C-29.01 11 -28.02 11 -27 11 C-27 9.02 -27 7.04 -27 5 C-26.01 5 -25.02 5 -24 5 C-24 6.98 -24 8.96 -24 11 C-23.34 11 -22.68 11 -22 11 C-22 9.02 -22 7.04 -22 5 C-21.01 5 -20.02 5 -19 5 C-19 6.98 -19 8.96 -19 11 C-18.01 11 -17.02 11 -16 11 C-16 9.02 -16 7.04 -16 5 C-15.01 5 -14.02 5 -13 5 C-13 6.98 -13 8.96 -13 11 C-12.34 11 -11.68 11 -11 11 C-11 9.02 -11 7.04 -11 5 C-10.01 5 -9.02 5 -8 5 C-8 4.34 -8 3.68 -8 3 C-6.35 3 -4.7 3 -3 3 C-3 3.66 -3 4.32 -3 5 C-2.01 5 -1.02 5 0 5 C0 3.35 0 1.7 0 0 Z " fill="#7598E9" transform="translate(185,83)"/>
<path d="M0 0 C2.64 0 5.28 0 8 0 C8 0.99 8 1.98 8 3 C8.99 3 9.98 3 11 3 C11 3.66 11 4.32 11 5 C11.99 5 12.98 5 14 5 C14 8.63 14 12.26 14 16 C13.01 16 12.02 16 11 16 C11 16.99 11 17.98 11 19 C10.01 19 9.02 19 8 19 C8 19.99 8 20.98 8 22 C7.34 22 6.68 22 6 22 C6 22.66 6 23.32 6 24 C4.02 24 2.04 24 0 24 C0 24.99 0 25.98 0 27 C-0.66 27 -1.32 27 -2 27 C-2 27.99 -2 28.98 -2 30 C-2.99 30 -3.98 30 -5 30 C-5 30.66 -5 31.32 -5 32 C-4.01 32 -3.02 32 -2 32 C-2 32.99 -2 33.98 -2 35 C-1.34 35 -0.68 35 0 35 C0 35.99 0 36.98 0 38 C0.99 38 1.98 38 3 38 C3 38.99 3 39.98 3 41 C3.99 41 4.98 41 6 41 C6 43.64 6 46.28 6 49 C5.01 49 4.02 49 3 49 C3 49.66 3 50.32 3 51 C3.99 51 4.98 51 6 51 C6 53.64 6 56.28 6 59 C5.01 59 4.02 59 3 59 C3 59.99 3 60.98 3 62 C2.01 62 1.02 62 0 62 C0 62.99 0 63.98 0 65 C-0.66 65 -1.32 65 -2 65 C-2 65.66 -2 66.32 -2 67 C-4.97 67 -7.94 67 -11 67 C-11 67.99 -11 68.98 -11 70 C-14.3 70 -17.6 70 -21 70 C-21 70.99 -21 71.98 -21 73 C-26.61 73 -32.22 73 -38 73 C-38 72.01 -38 71.02 -38 70 C-39.65 70 -41.3 70 -43 70 C-43 69.01 -43 68.02 -43 67 C-43.99 67 -44.98 67 -46 67 C-46 66.34 -46 65.68 -46 65 C-46.66 65 -47.32 65 -48 65 C-48 64.01 -48 63.02 -48 62 C-48.99 62 -49.98 62 -51 62 C-51 60.35 -51 58.7 -51 57 C-51.99 57 -52.98 57 -54 57 C-54 52.38 -54 47.76 -54 43 C-53.01 43 -52.02 43 -51 43 C-51 41.35 -51 39.7 -51 38 C-50.01 38 -49.02 38 -48 38 C-48 36.02 -48 34.04 -48 32 C-47.34 32 -46.68 32 -46 32 C-46 25.07 -46 18.14 -46 11 C-45.01 11 -44.02 11 -43 11 C-43 10.01 -43 9.02 -43 8 C-42.01 8 -41.02 8 -40 8 C-40 7.01 -40 6.02 -40 5 C-36.37 5 -32.74 5 -29 5 C-29 5.99 -29 6.98 -29 8 C-28.34 8 -27.68 8 -27 8 C-27 8.99 -27 9.98 -27 11 C-26.01 11 -25.02 11 -24 11 C-24 13.64 -24 16.28 -24 19 C-23.01 19 -22.02 19 -21 19 C-21 18.01 -21 17.02 -21 16 C-20.34 16 -19.68 16 -19 16 C-19 15.34 -19 14.68 -19 14 C-18.01 14 -17.02 14 -16 14 C-16 13.01 -16 12.02 -16 11 C-14.35 11 -12.7 11 -11 11 C-11 10.01 -11 9.02 -11 8 C-10.01 8 -9.02 8 -8 8 C-8 7.01 -8 6.02 -8 5 C-6.02 5 -4.04 5 -2 5 C-2 4.34 -2 3.68 -2 3 C-1.34 3 -0.68 3 0 3 C0 2.01 0 1.02 0 0 Z " fill="#728BE9" transform="translate(290,134)"/>
<path d="M0 0 C5.28 0 10.56 0 16 0 C16 5.28 16 10.56 16 16 C14.35 16 12.7 16 11 16 C11 16.99 11 17.98 11 19 C10.01 19 9.02 19 8 19 C8 19.99 8 20.98 8 22 C7.01 22 6.02 22 5 22 C5 22.66 5 23.32 5 24 C3.35 24 1.7 24 0 24 C0 24.99 0 25.98 0 27 C-0.99 27 -1.98 27 -3 27 C-3 27.99 -3 28.98 -3 30 C-2.01 30 -1.02 30 0 30 C0 30.99 0 31.98 0 33 C0.99 33 1.98 33 3 33 C3 33.66 3 34.32 3 35 C3.66 35 4.32 35 5 35 C5 35.99 5 36.98 5 38 C5.99 38 6.98 38 8 38 C8 44.27 8 50.54 8 57 C7.01 57 6.02 57 5 57 C5 58.65 5 60.3 5 62 C3.35 62 1.7 62 0 62 C0 62.99 0 63.98 0 65 C-2.64 65 -5.28 65 -8 65 C-8 65.99 -8 66.98 -8 68 C-9.65 68 -11.3 68 -13 68 C-13 68.66 -13 69.32 -13 70 C-20.26 70 -27.52 70 -35 70 C-35 69.34 -35 68.68 -35 68 C-36.65 68 -38.3 68 -40 68 C-40 67.01 -40 66.02 -40 65 C-40.99 65 -41.98 65 -43 65 C-43 64.01 -43 63.02 -43 62 C-43.99 62 -44.98 62 -46 62 C-46 61.34 -46 60.68 -46 60 C-46.99 60 -47.98 60 -49 60 C-49 58.02 -49 56.04 -49 54 C-49.66 54 -50.32 54 -51 54 C-51 49.71 -51 45.42 -51 41 C-50.34 41 -49.68 41 -49 41 C-49 40.01 -49 39.02 -49 38 C-48.01 38 -47.02 38 -46 38 C-46 36.35 -46 34.7 -46 33 C-45.01 33 -44.02 33 -43 33 C-43 24.75 -43 16.5 -43 8 C-42.01 8 -41.02 8 -40 8 C-40 7.34 -40 6.68 -40 6 C-39.34 6 -38.68 6 -38 6 C-38 5.01 -38 4.02 -38 3 C-34.37 3 -30.74 3 -27 3 C-27 3.99 -27 4.98 -27 6 C-26.01 6 -25.02 6 -24 6 C-24 6.66 -24 7.32 -24 8 C-23.34 8 -22.68 8 -22 8 C-22 10.64 -22 13.28 -22 16 C-21.01 16 -20.02 16 -19 16 C-19 15.34 -19 14.68 -19 14 C-18.01 14 -17.02 14 -16 14 C-16 13.01 -16 12.02 -16 11 C-14.35 11 -12.7 11 -11 11 C-11 10.01 -11 9.02 -11 8 C-10.01 8 -9.02 8 -8 8 C-8 7.34 -8 6.68 -8 6 C-7.01 6 -6.02 6 -5 6 C-5 5.01 -5 4.02 -5 3 C-3.35 3 -1.7 3 0 3 C0 2.01 0 1.02 0 0 Z " fill="#738CE9" transform="translate(301,53)"/>
<path d="M0 0 C6.27 0 12.54 0 19 0 C19 0.66 19 1.32 19 2 C20.98 2 22.96 2 25 2 C25 2.99 25 3.98 25 5 C25.66 5 26.32 5 27 5 C27 5.99 27 6.98 27 8 C27.99 8 28.98 8 30 8 C30 8.66 30 9.32 30 10 C30.99 10 31.98 10 33 10 C33 11.65 33 13.3 33 15 C-57.09 15 -147.18 15 -240 15 C-240 14.34 -240 13.68 -240 13 C-223.83 13 -207.66 13 -191 13 C-191 12.01 -191 11.02 -191 10 C-174.17 10 -157.34 10 -140 10 C-140 9.34 -140 8.68 -140 8 C-124.82 8 -109.64 8 -94 8 C-94 7.01 -94 6.02 -94 5 C-78.82 5 -63.64 5 -48 5 C-48 4.01 -48 3.02 -48 2 C-32.16 2 -16.32 2 0 2 C0 1.34 0 0.68 0 0 Z " fill="#FDE083" transform="translate(306,237)"/>
<path d="M0 0 C0.66 0 1.32 0 2 0 C2 0.66 2 1.32 2 2 C2.66 2 3.32 2 4 2 C4 3.98 4 5.96 4 8 C4.99 8 5.98 8 7 8 C7 8.66 7 9.32 7 10 C7.99 10 8.98 10 10 10 C10 10.99 10 11.98 10 13 C10.66 13 11.32 13 12 13 C12 13.99 12 14.98 12 16 C12.99 16 13.98 16 15 16 C15 16.66 15 17.32 15 18 C15.99 18 16.98 18 18 18 C18 18.99 18 19.98 18 21 C18.99 21 19.98 21 21 21 C21 21.99 21 22.98 21 24 C21.66 24 22.32 24 23 24 C23 24.99 23 25.98 23 27 C23.99 27 24.98 27 26 27 C26 27.66 26 28.32 26 29 C26.99 29 27.98 29 29 29 C29 29.99 29 30.98 29 32 C29.66 32 30.32 32 31 32 C31 32.99 31 33.98 31 35 C31.99 35 32.98 35 34 35 C34 39.29 34 43.58 34 48 C33.01 48 32.02 48 31 48 C31 48.99 31 49.98 31 51 C30.34 51 29.68 51 29 51 C29 51.99 29 52.98 29 54 C28.01 54 27.02 54 26 54 C26 54.66 26 55.32 26 56 C25.01 56 24.02 56 23 56 C23 56.99 23 57.98 23 59 C22.34 59 21.68 59 21 59 C21 59.99 21 60.98 21 62 C19.02 62 17.04 62 15 62 C15 62.66 15 63.32 15 64 C14.01 64 13.02 64 12 64 C12 64.99 12 65.98 12 67 C10.35 67 8.7 67 7 67 C7 67.99 7 68.98 7 70 C5.35 70 3.7 70 2 70 C2 70.66 2 71.32 2 72 C1.34 72 0.68 72 0 72 C0 48.24 0 24.48 0 0 Z " fill="#CDD9E7" transform="translate(0,121)"/>
<path d="M0 0 C12.54 0 25.08 0 38 0 C38 0.99 38 1.98 38 3 C39.65 3 41.3 3 43 3 C43 4.65 43 6.3 43 8 C43.99 8 44.98 8 46 8 C46 8.99 46 9.98 46 11 C46.66 11 47.32 11 48 11 C48 14.3 48 17.6 48 21 C47.34 21 46.68 21 46 21 C46 18.36 46 15.72 46 13 C45.01 13 44.02 13 43 13 C43 12.34 43 11.68 43 11 C42.01 11 41.02 11 40 11 C40 10.01 40 9.02 40 8 C36.37 8 32.74 8 29 8 C29 7.01 29 6.02 29 5 C27.35 5 25.7 5 24 5 C24 5.99 24 6.98 24 8 C16.08 8 8.16 8 0 8 C0 8.99 0 9.98 0 11 C-8.91 11 -17.82 11 -27 11 C-27 11.66 -27 12.32 -27 13 C-34.26 13 -41.52 13 -49 13 C-49 13.99 -49 14.98 -49 16 C-57.91 16 -66.82 16 -76 16 C-76 16.99 -76 17.98 -76 19 C-82.93 19 -89.86 19 -97 19 C-97 19.66 -97 20.32 -97 21 C-99.64 21 -102.28 21 -105 21 C-105 21.99 -105 22.98 -105 24 C-105.99 24 -106.98 24 -108 24 C-108 24.99 -108 25.98 -108 27 C-108.99 27 -109.98 27 -111 27 C-111 28.65 -111 30.3 -111 32 C-111.66 32 -112.32 32 -113 32 C-113 28.37 -113 24.74 -113 21 C-112.34 21 -111.68 21 -111 21 C-111 20.34 -111 19.68 -111 19 C-110.01 19 -109.02 19 -108 19 C-108 18.01 -108 17.02 -108 16 C-106.35 16 -104.7 16 -103 16 C-103 15.01 -103 14.02 -103 13 C-101.02 13 -99.04 13 -97 13 C-97 12.34 -97 11.68 -97 11 C-87.43 11 -77.86 11 -68 11 C-68 10.01 -68 9.02 -68 8 C-62.39 8 -56.78 8 -51 8 C-51 7.01 -51 6.02 -51 5 C-42.09 5 -33.18 5 -24 5 C-24 4.34 -24 3.68 -24 3 C-16.08 3 -8.16 3 0 3 C0 2.01 0 1.02 0 0 Z " fill="#94BFEE" transform="translate(161,48)"/>
<path d="M0 0 C9.9 0 19.8 0 30 0 C30 0.99 30 1.98 30 3 C35.28 3 40.56 3 46 3 C46 3.66 46 4.32 46 5 C46.99 5 47.98 5 49 5 C49 8.63 49 12.26 49 16 C48.01 16 47.02 16 46 16 C46 16.99 46 17.98 46 19 C43.36 19 40.72 19 38 19 C38 21.64 38 24.28 38 27 C37.01 27 36.02 27 35 27 C35 27.66 35 28.32 35 29 C34.34 29 33.68 29 33 29 C33 29.99 33 30.98 33 32 C28.38 32 23.76 32 19 32 C19 31.01 19 30.02 19 29 C18.01 29 17.02 29 16 29 C16 28.34 16 27.68 16 27 C15.34 27 14.68 27 14 27 C14 25.02 14 23.04 14 21 C18.29 21 22.58 21 27 21 C27 19.35 27 17.7 27 16 C19.08 16 11.16 16 3 16 C3 15.01 3 14.02 3 13 C2.01 13 1.02 13 0 13 C0 8.71 0 4.42 0 0 Z " fill="#3D465D" transform="translate(147,110)"/>
<path d="M0 0 C3.63 0 7.26 0 11 0 C11 1.98 11 3.96 11 6 C11.99 6 12.98 6 14 6 C14 8.64 14 11.28 14 14 C13.01 14 12.02 14 11 14 C11 14.99 11 15.98 11 17 C9.35 17 7.7 17 6 17 C6 17.66 6 18.32 6 19 C3.36 19 0.72 19 -2 19 C-2 19.99 -2 20.98 -2 22 C-3.98 22 -5.96 22 -8 22 C-8 22.99 -8 23.98 -8 25 C-9.65 25 -11.3 25 -13 25 C-13 25.66 -13 26.32 -13 27 C-14.98 27 -16.96 27 -19 27 C-19 27.99 -19 28.98 -19 30 C-22.3 30 -25.6 30 -29 30 C-29 29.01 -29 28.02 -29 27 C-29.99 27 -30.98 27 -32 27 C-32 23.7 -32 20.4 -32 17 C-30.35 17 -28.7 17 -27 17 C-27 16.01 -27 15.02 -27 14 C-25.02 14 -23.04 14 -21 14 C-21 13.01 -21 12.02 -21 11 C-19.35 11 -17.7 11 -16 11 C-16 10.34 -16 9.68 -16 9 C-13.36 9 -10.72 9 -8 9 C-8 8.01 -8 7.02 -8 6 C-6.02 6 -4.04 6 -2 6 C-2 5.01 -2 4.02 -2 3 C-1.34 3 -0.68 3 0 3 C0 2.01 0 1.02 0 0 Z " fill="#3F4861" transform="translate(120,104)"/>
<path d="M0 0 C2.64 0 5.28 0 8 0 C8 0.99 8 1.98 8 3 C8.99 3 9.98 3 11 3 C11 3.66 11 4.32 11 5 C11.99 5 12.98 5 14 5 C14 8.63 14 12.26 14 16 C13.01 16 12.02 16 11 16 C11 16.99 11 17.98 11 19 C10.01 19 9.02 19 8 19 C8 19.99 8 20.98 8 22 C7.34 22 6.68 22 6 22 C6 22.66 6 23.32 6 24 C5.01 24 4.02 24 3 24 C3 23.34 3 22.68 3 22 C-2.26139059 22.40472235 -4.48212072 23.10520508 -8 27 C-8.99 27 -9.98 27 -11 27 C-11 26.01 -11 25.02 -11 24 C-10.01 24 -9.02 24 -8 24 C-8 23.34 -8 22.68 -8 22 C-11.73011894 22.5021314 -15.35756596 23.05566525 -19 24 C-20.66666667 24 -22.33333333 24 -24 24 C-24 22.35 -24 20.7 -24 19 C-23.01 19 -22.02 19 -21 19 C-21 18.01 -21 17.02 -21 16 C-20.34 16 -19.68 16 -19 16 C-19 15.34 -19 14.68 -19 14 C-18.01 14 -17.02 14 -16 14 C-16 13.01 -16 12.02 -16 11 C-14.35 11 -12.7 11 -11 11 C-11 10.01 -11 9.02 -11 8 C-10.01 8 -9.02 8 -8 8 C-8 7.01 -8 6.02 -8 5 C-6.02 5 -4.04 5 -2 5 C-2 4.34 -2 3.68 -2 3 C-1.34 3 -0.68 3 0 3 C0 2.01 0 1.02 0 0 Z " fill="#779AEA" transform="translate(290,134)"/>
<path d="M0 0 C5.28 0 10.56 0 16 0 C16 5.28 16 10.56 16 16 C14.35 16 12.7 16 11 16 C11 16.99 11 17.98 11 19 C10.01 19 9.02 19 8 19 C8 19.99 8 20.98 8 22 C7.01 22 6.02 22 5 22 C5 21.01 5 20.02 5 19 C-2.59 19.33 -10.18 19.66 -18 20 C-18.33 20.66 -18.66 21.32 -19 22 C-19.99 22 -20.98 22 -22 22 C-22 20.02 -22 18.04 -22 16 C-21.01 16 -20.02 16 -19 16 C-19 15.34 -19 14.68 -19 14 C-18.01 14 -17.02 14 -16 14 C-16 13.01 -16 12.02 -16 11 C-14.35 11 -12.7 11 -11 11 C-11 10.01 -11 9.02 -11 8 C-10.01 8 -9.02 8 -8 8 C-8 7.34 -8 6.68 -8 6 C-7.01 6 -6.02 6 -5 6 C-5 5.01 -5 4.02 -5 3 C-3.35 3 -1.7 3 0 3 C0 2.01 0 1.02 0 0 Z " fill="#799CEA" transform="translate(301,53)"/>
<path d="M0 0 C6.93 0 13.86 0 21 0 C21 0.66 21 1.32 21 2 C22.98 2 24.96 2 27 2 C27 2.99 27 3.98 27 5 C27.66 5 28.32 5 29 5 C29 5.66 29 6.32 29 7 C-9.94 7 -48.88 7 -89 7 C-89 6.34 -89 5.68 -89 5 C-76.79 5 -64.58 5 -52 5 C-52 4.01 -52 3.02 -52 2 C-34.84 2 -17.68 2 0 2 C0 1.34 0 0.68 0 0 Z " fill="#FCC045" transform="translate(304,245)"/>
<path d="M0 0 C3.63 0 7.26 0 11 0 C11 0.99 11 1.98 11 3 C11.66 3 12.32 3 13 3 C13 3.99 13 4.98 13 6 C13.99 6 14.98 6 16 6 C16 8.64 16 11.28 16 14 C15.01 14 14.02 14 13 14 C13 14.99 13 15.98 13 17 C12.34 17 11.68 17 11 17 C11 17.66 11 18.32 11 19 C10.01 19 9.02 19 8 19 C8 19.99 8 20.98 8 22 C6.02 22 4.04 22 2 22 C2 22.99 2 23.98 2 25 C1.34 25 0.68 25 0 25 C0 25.66 0 26.32 0 27 C-1.98 27 -3.96 27 -6 27 C-6 20.07 -6 13.14 -6 6 C-5.01 6 -4.02 6 -3 6 C-3 5.01 -3 4.02 -3 3 C-2.01 3 -1.02 3 0 3 C0 2.01 0 1.02 0 0 Z " fill="#6D8AD0" transform="translate(250,139)"/>
<path d="M0 0 C3.63 0 7.26 0 11 0 C11 0.99 11 1.98 11 3 C11.99 3 12.98 3 14 3 C14 3.66 14 4.32 14 5 C14.66 5 15.32 5 16 5 C16 8.63 16 12.26 16 16 C14.35 16 12.7 16 11 16 C11 16.99 11 17.98 11 19 C10.01 19 9.02 19 8 19 C8 19.66 8 20.32 8 21 C7.34 21 6.68 21 6 21 C6 21.99 6 22.98 6 24 C4.02 24 2.04 24 0 24 C0 24.99 0 25.98 0 27 C-1.65 27 -3.3 27 -5 27 C-5 19.74 -5 12.48 -5 5 C-4.01 5 -3.02 5 -2 5 C-2 4.34 -2 3.68 -2 3 C-1.34 3 -0.68 3 0 3 C0 2.01 0 1.02 0 0 Z " fill="#6D8BDA" transform="translate(263,56)"/>
<path d="M0 0 C2.64 0 5.28 0 8 0 C8 3.3 8 6.6 8 10 C7.01 10 6.02 10 5 10 C5 10.99 5 11.98 5 13 C4.34 13 3.68 13 3 13 C3 13.99 3 14.98 3 16 C2.01 16 1.02 16 0 16 C0 16.99 0 17.98 0 19 C-0.99 19 -1.98 19 -3 19 C-3 19.66 -3 20.32 -3 21 C-8.28 21 -13.56 21 -19 21 C-19 20.34 -19 19.68 -19 19 C-20.65 19 -22.3 19 -24 19 C-24 18.01 -24 17.02 -24 16 C-24.99 16 -25.98 16 -27 16 C-27 15.01 -27 14.02 -27 13 C-27.99 13 -28.98 13 -30 13 C-30 12.01 -30 11.02 -30 10 C-30.66 10 -31.32 10 -32 10 C-32 8.35 -32 6.7 -32 5 C-29.36 5 -26.72 5 -24 5 C-24 5.99 -24 6.98 -24 8 C-23.34 8 -22.68 8 -22 8 C-22 8.66 -22 9.32 -22 10 C-21.01 10 -20.02 10 -19 10 C-19 10.99 -19 11.98 -19 13 C-14.38 13 -9.76 13 -5 13 C-5 12.01 -5 11.02 -5 10 C-4.34 10 -3.68 10 -3 10 C-3 9.34 -3 8.68 -3 8 C-2.01 8 -1.02 8 0 8 C0 5.36 0 2.72 0 0 Z " fill="#FAFAFC" transform="translate(185,129)"/>
<path d="M0 0 C1.98 0 3.96 0 6 0 C6 3.63 6 7.26 6 11 C5.01 11 4.02 11 3 11 C3 12.65 3 14.3 3 16 C2.01 16 1.02 16 0 16 C0 16.99 0 17.98 0 19 C-0.66 19 -1.32 19 -2 19 C-2 19.66 -2 20.32 -2 21 C-2.99 21 -3.98 21 -5 21 C-5 21.99 -5 22.98 -5 24 C-10.28 24 -15.56 24 -21 24 C-21 23.01 -21 22.02 -21 21 C-22.98 21 -24.96 21 -27 21 C-27 20.34 -27 19.68 -27 19 C-27.66 19 -28.32 19 -29 19 C-29 18.01 -29 17.02 -29 16 C-29.99 16 -30.98 16 -32 16 C-32 13.36 -32 10.72 -32 8 C-30.35 8 -28.7 8 -27 8 C-27 8.99 -27 9.98 -27 11 C-26.01 11 -25.02 11 -24 11 C-24 11.66 -24 12.32 -24 13 C-23.01 13 -22.02 13 -21 13 C-21 13.99 -21 14.98 -21 16 C-16.71 16 -12.42 16 -8 16 C-8 15.01 -8 14.02 -8 13 C-7.01 13 -6.02 13 -5 13 C-5 12.34 -5 11.68 -5 11 C-4.01 11 -3.02 11 -2 11 C-2 8.03 -2 5.06 -2 2 C-1.34 2 -0.68 2 0 2 C0 1.34 0 0.68 0 0 Z " fill="#FBFBFC" transform="translate(128,137)"/>
<path d="M0 0 C6.27 0 12.54 0 19 0 C19 0.99 19 1.98 19 3 C16.36 3 13.72 3 11 3 C11 5.64 11 8.28 11 11 C10.01 11 9.02 11 8 11 C8 11.66 8 12.32 8 13 C7.34 13 6.68 13 6 13 C6 13.99 6 14.98 6 16 C1.38 16 -3.24 16 -8 16 C-8 15.01 -8 14.02 -8 13 C-8.99 13 -9.98 13 -11 13 C-11 12.34 -11 11.68 -11 11 C-11.66 11 -12.32 11 -13 11 C-13 9.02 -13 7.04 -13 5 C-8.71 5 -4.42 5 0 5 C0 3.35 0 1.7 0 0 Z " fill="#424A61" transform="translate(174,126)"/>
<path d="M0 0 C4.62 0 9.24 0 14 0 C14 2.97 14 5.94 14 9 C13.01 9 12.02 9 11 9 C11 9.66 11 10.32 11 11 C10.01 11 9.02 11 8 11 C8 11.99 8 12.98 8 14 C3.71 14 -0.58 14 -5 14 C-5 13.01 -5 12.02 -5 11 C-5.99 11 -6.98 11 -8 11 C-8 10.34 -8 9.68 -8 9 C-8.99 9 -9.98 9 -11 9 C-11 7.02 -11 5.04 -11 3 C-7.37 3 -3.74 3 0 3 C0 2.01 0 1.02 0 0 Z " fill="#41495F" transform="translate(112,139)"/>
<path d="M0 0 C2.64 0 5.28 0 8 0 C8 1.65 8 3.3 8 5 C7.01 5 6.02 5 5 5 C5 6.65 5 8.3 5 10 C3.35 10 1.7 10 0 10 C0 10.99 0 11.98 0 13 C-0.99 13 -1.98 13 -3 13 C-3 13.99 -3 14.98 -3 16 C-8.28 16 -13.56 16 -19 16 C-19 14.02 -19 12.04 -19 10 C-18.01 10 -17.02 10 -16 10 C-16 9.34 -16 8.68 -16 8 C-13.36 8 -10.72 8 -8 8 C-8 7.01 -8 6.02 -8 5 C-5.36 5 -2.72 5 0 5 C0 3.35 0 1.7 0 0 Z " fill="#3C3E45" transform="translate(161,156)"/>
<path d="M0 0 C3.63 0 7.26 0 11 0 C11 0.99 11 1.98 11 3 C11.99 3 12.98 3 14 3 C14 3.66 14 4.32 14 5 C14.66 5 15.32 5 16 5 C16 7.64 16 10.28 16 13 C15.34 13 14.68 13 14 13 C14 12.34 14 11.68 14 11 C13.01 11 12.02 11 11 11 C11 11.66 11 12.32 11 13 C9.35 13 7.7 13 6 13 C6 12.34 6 11.68 6 11 C5.01 11 4.02 11 3 11 C3 11.66 3 12.32 3 13 C1.35 13 -0.3 13 -2 13 C-2 9.7 -2 6.4 -2 3 C-1.34 3 -0.68 3 0 3 C0 2.01 0 1.02 0 0 Z " fill="#6A88CF" transform="translate(263,56)"/>
<path d="M0 0 C0.66 0 1.32 0 2 0 C2 0.99 2 1.98 2 3 C2.99 3 3.98 3 5 3 C5 3.99 5 4.98 5 6 C5.99 6 6.98 6 8 6 C8 5.01 8 4.02 8 3 C8.99 3 9.98 3 11 3 C11 2.01 11 1.02 11 0 C11.66 0 12.32 0 13 0 C13 1.98 13 3.96 13 6 C12.34 6 11.68 6 11 6 C11 6.66 11 7.32 11 8 C10.01 8 9.02 8 8 8 C8 8.99 8 9.98 8 11 C6.02 11 4.04 11 2 11 C2 11.99 2 12.98 2 14 C1.34 14 0.68 14 0 14 C0 14.66 0 15.32 0 16 C-1.98 16 -3.96 16 -6 16 C-6 11.71 -6 7.42 -6 3 C-4.02 3 -2.04 3 0 3 C0 2.01 0 1.02 0 0 Z " fill="#6D8BDA" transform="translate(250,150)"/>
<path d="M0 0 C2.64 0 5.28 0 8 0 C8 0.99 8 1.98 8 3 C8.99 3 9.98 3 11 3 C11 3.66 11 4.32 11 5 C11.99 5 12.98 5 14 5 C14 5.99 14 6.98 14 8 C8.72 8 3.44 8 -2 8 C-2 8.99 -2 9.98 -2 11 C-2.99 11 -3.98 11 -5 11 C-5 10.01 -5 9.02 -5 8 C-5.99 8 -6.98 8 -8 8 C-8 7.01 -8 6.02 -8 5 C-6.02 5 -4.04 5 -2 5 C-2 4.34 -2 3.68 -2 3 C-1.34 3 -0.68 3 0 3 C0 2.01 0 1.02 0 0 Z " fill="#7AA1EA" transform="translate(290,134)"/>
<path d="M0 0 C6.27 0 12.54 0 19 0 C19 0.99 19 1.98 19 3 C16.36 3 13.72 3 11 3 C11 5.64 11 8.28 11 11 C10.01 11 9.02 11 8 11 C8 9.02 8 7.04 8 5 C5.36 5 2.72 5 0 5 C0 3.35 0 1.7 0 0 Z " fill="#636F96" transform="translate(174,126)"/>
<path d="M0 0 C7.92 0 15.84 0 24 0 C24 0.99 24 1.98 24 3 C16.08 3 8.16 3 0 3 C0 2.01 0 1.02 0 0 Z " fill="#F1E4B7" transform="translate(115,247)"/>
<path d="M0 0 C7.92 0 15.84 0 24 0 C24 0.99 24 1.98 24 3 C16.08 3 8.16 3 0 3 C0 2.01 0 1.02 0 0 Z " fill="#F1E4B7" transform="translate(258,239)"/>
<path d="M0 0 C7.26 0 14.52 0 22 0 C22 0.99 22 1.98 22 3 C14.74 3 7.48 3 0 3 C0 2.01 0 1.02 0 0 Z " fill="#F8E29E" transform="translate(212,242)"/>
<path d="M0 0 C0.99 0 1.98 0 3 0 C3 0.99 3 1.98 3 3 C7.29 3 11.58 3 16 3 C16 3.99 16 4.98 16 6 C10.72 6 5.44 6 0 6 C0 4.02 0 2.04 0 0 Z " fill="#4C5374" transform="translate(142,166)"/>
<path d="M0 0 C0.99 0 1.98 0 3 0 C3 6.27 3 12.54 3 19 C2.01 19 1.02 19 0 19 C0 12.73 0 6.46 0 0 Z " fill="#B8CAEC" transform="translate(53,126)"/>
<path d="M0 0 C0.99 0 1.98 0 3 0 C3 6.27 3 12.54 3 19 C2.01 19 1.02 19 0 19 C0 12.73 0 6.46 0 0 Z " fill="#99AFE6" transform="translate(258,61)"/>
<path d="M0 0 C5.28 0 10.56 0 16 0 C16 0.99 16 1.98 16 3 C10.72 3 5.44 3 0 3 C0 2.01 0 1.02 0 0 Z " fill="#CCD8EE" transform="translate(107,158)"/>
<path d="M0 0 C5.28 0 10.56 0 16 0 C16 0.99 16 1.98 16 3 C10.72 3 5.44 3 0 3 C0 2.01 0 1.02 0 0 Z " fill="#6A89D3" transform="translate(150,107)"/>
<path d="M0 0 C5.28 0 10.56 0 16 0 C16 0.99 16 1.98 16 3 C10.72 3 5.44 3 0 3 C0 2.01 0 1.02 0 0 Z " fill="#CBD8EE" transform="translate(180,45)"/>
<path d="M0 0 C4.62 0 9.24 0 14 0 C14 0.99 14 1.98 14 3 C9.38 3 4.76 3 0 3 C0 2.01 0 1.02 0 0 Z " fill="#FED05F" transform="translate(252,247)"/>
<path d="M0 0 C0.99 0 1.98 0 3 0 C3 4.62 3 9.24 3 14 C2.01 14 1.02 14 0 14 C0 9.38 0 4.76 0 0 Z " fill="#C3D1EF" transform="translate(58,185)"/>
<path d="M0 0 C4.29 0 8.58 0 13 0 C13 0.99 13 1.98 13 3 C8.71 3 4.42 3 0 3 C0 2.01 0 1.02 0 0 Z " fill="#FEC54F" transform="translate(266,247)"/>
<path d="M0 0 C4.29 0 8.58 0 13 0 C13 0.99 13 1.98 13 3 C8.71 3 4.42 3 0 3 C0 2.01 0 1.02 0 0 Z " fill="#FED871" transform="translate(239,247)"/>
<path d="M0 0 C4.29 0 8.58 0 13 0 C13 0.99 13 1.98 13 3 C8.71 3 4.42 3 0 3 C0 2.01 0 1.02 0 0 Z " fill="#97A5EB" transform="translate(177,207)"/>
<path d="M0 0 C0.99 0 1.98 0 3 0 C3 4.29 3 8.58 3 13 C2.01 13 1.02 13 0 13 C0 8.71 0 4.42 0 0 Z " fill="#C3D2EF" transform="translate(220,180)"/>
<path d="M0 0 C4.29 0 8.58 0 13 0 C13 0.99 13 1.98 13 3 C8.71 3 4.42 3 0 3 C0 2.01 0 1.02 0 0 Z " fill="#8A8F95" transform="translate(107,150)"/>
<path d="M0 0 C1.98 0 3.96 0 6 0 C6 3.63 6 7.26 6 11 C5.01 11 4.02 11 3 11 C3 8.03 3 5.06 3 2 C2.01 2 1.02 2 0 2 C0 1.34 0 0.68 0 0 Z " fill="#CAD6EE" transform="translate(128,137)"/>
<path d="M0 0 C4.29 0 8.58 0 13 0 C13 0.99 13 1.98 13 3 C8.71 3 4.42 3 0 3 C0 2.01 0 1.02 0 0 Z " fill="#525F92" transform="translate(150,123)"/>
<path d="M0 0 C0.99 0 1.98 0 3 0 C3 4.29 3 8.58 3 13 C2.01 13 1.02 13 0 13 C0 8.71 0 4.42 0 0 Z " fill="#97AFEC" transform="translate(306,91)"/>
<path d="M0 0 C4.29 0 8.58 0 13 0 C13 0.99 13 1.98 13 3 C8.71 3 4.42 3 0 3 C0 2.01 0 1.02 0 0 Z " fill="#C3D2EF" transform="translate(80,56)"/>
<path d="M0 0 C4.29 0 8.58 0 13 0 C13 0.99 13 1.98 13 3 C8.71 3 4.42 3 0 3 C0 2.01 0 1.02 0 0 Z " fill="#B7C9EE" transform="translate(110,53)"/>
<path d="M0 0 C0.66 0 1.32 0 2 0 C2 0.99 2 1.98 2 3 C2.99 3 3.98 3 5 3 C5 3.99 5 4.98 5 6 C4.01 6 3.02 6 2 6 C2 6.66 2 7.32 2 8 C1.34 8 0.68 8 0 8 C0 7.34 0 6.68 0 6 C-0.99 6 -1.98 6 -3 6 C-3 5.01 -3 4.02 -3 3 C-2.01 3 -1.02 3 0 3 C0 2.01 0 1.02 0 0 Z " fill="#000000" transform="translate(99,123)"/>
<path d="M0 0 C3.63 0 7.26 0 11 0 C11 0.99 11 1.98 11 3 C7.37 3 3.74 3 0 3 C0 2.01 0 1.02 0 0 Z " fill="#F8E29E" transform="translate(128,247)"/>
<path d="M0 0 C3.63 0 7.26 0 11 0 C11 0.99 11 1.98 11 3 C7.37 3 3.74 3 0 3 C0 2.01 0 1.02 0 0 Z " fill="#E7E5D6" transform="translate(104,247)"/>
<path d="M0 0 C3.63 0 7.26 0 11 0 C11 0.99 11 1.98 11 3 C7.37 3 3.74 3 0 3 C0 2.01 0 1.02 0 0 Z " fill="#F1E4B7" transform="translate(212,242)"/>
<path d="M0 0 C3.63 0 7.26 0 11 0 C11 0.99 11 1.98 11 3 C7.37 3 3.74 3 0 3 C0 2.01 0 1.02 0 0 Z " fill="#E7E5D6" transform="translate(201,242)"/>
<path d="M0 0 C3.63 0 7.26 0 11 0 C11 0.99 11 1.98 11 3 C7.37 3 3.74 3 0 3 C0 2.01 0 1.02 0 0 Z " fill="#F8E29E" transform="translate(271,239)"/>
<path d="M0 0 C3.63 0 7.26 0 11 0 C11 0.99 11 1.98 11 3 C7.37 3 3.74 3 0 3 C0 2.01 0 1.02 0 0 Z " fill="#E7E5D6" transform="translate(247,239)"/>
<path d="M0 0 C3.63 0 7.26 0 11 0 C11 0.99 11 1.98 11 3 C7.37 3 3.74 3 0 3 C0 2.01 0 1.02 0 0 Z " fill="#92A0EB" transform="translate(104,215)"/>
<path d="M0 0 C3.63 0 7.26 0 11 0 C11 0.99 11 1.98 11 3 C7.37 3 3.74 3 0 3 C0 2.01 0 1.02 0 0 Z " fill="#92A0EB" transform="translate(128,212)"/>
<path d="M0 0 C2.64 0 5.28 0 8 0 C8 0.99 8 1.98 8 3 C6.35 3 4.7 3 3 3 C3 3.99 3 4.98 3 6 C2.01 6 1.02 6 0 6 C0 4.02 0 2.04 0 0 Z " fill="#ACBEED" transform="translate(93,142)"/>
<path d="M0 0 C3.63 0 7.26 0 11 0 C11 0.99 11 1.98 11 3 C7.37 3 3.74 3 0 3 C0 2.01 0 1.02 0 0 Z " fill="#9CA0D4" transform="translate(250,139)"/>
<path d="M0 0 C3.63 0 7.26 0 11 0 C11 0.99 11 1.98 11 3 C7.37 3 3.74 3 0 3 C0 2.01 0 1.02 0 0 Z " fill="#5B607C" transform="translate(182,126)"/>
<path d="M0 0 C0.99 0 1.98 0 3 0 C3 3.63 3 7.26 3 11 C2.01 11 1.02 11 0 11 C0 7.37 0 3.74 0 0 Z " fill="#545F93" transform="translate(193,115)"/>
<path d="M0 0 C0.99 0 1.98 0 3 0 C3 3.63 3 7.26 3 11 C2.01 11 1.02 11 0 11 C0 7.37 0 3.74 0 0 Z " fill="#B8CBEA" transform="translate(50,107)"/>
<path d="M0 0 C3.63 0 7.26 0 11 0 C11 0.99 11 1.98 11 3 C7.37 3 3.74 3 0 3 C0 2.01 0 1.02 0 0 Z " fill="#9FA7D4" transform="translate(263,56)"/>
<path d="M0 0 C3.63 0 7.26 0 11 0 C11 0.99 11 1.98 11 3 C7.37 3 3.74 3 0 3 C0 2.01 0 1.02 0 0 Z " fill="#B4C7EE" transform="translate(161,48)"/>
<path d="M0 0 C0.99 0 1.98 0 3 0 C3 3.3 3 6.6 3 10 C2.01 10 1.02 10 0 10 C0 6.7 0 3.4 0 0 Z " fill="#CDD8EE" transform="translate(190,129)"/>
<path d="M0 0 C0.99 0 1.98 0 3 0 C3 3.3 3 6.6 3 10 C2.01 10 1.02 10 0 10 C0 6.7 0 3.4 0 0 Z " fill="#A3B7ED" transform="translate(212,113)"/>
<path d="M0 0 C0.99 0 1.98 0 3 0 C3 2.97 3 5.94 3 9 C2.01 9 1.02 9 0 9 C0 6.03 0 3.06 0 0 Z " fill="#777B85" transform="translate(123,139)"/>
<path d="M0 0 C1.98 0 3.96 0 6 0 C6 0.99 6 1.98 6 3 C5.01 3 4.02 3 3 3 C3 3.99 3 4.98 3 6 C2.01 6 1.02 6 0 6 C0 4.02 0 2.04 0 0 Z " fill="#636C89" transform="translate(101,142)"/>
<path d="M0 0 C2.64 0 5.28 0 8 0 C8 0.99 8 1.98 8 3 C5.36 3 2.72 3 0 3 C0 2.01 0 1.02 0 0 Z " fill="#C1D0EF" transform="translate(139,212)"/>
<path d="M0 0 C2.64 0 5.28 0 8 0 C8 0.99 8 1.98 8 3 C5.36 3 2.72 3 0 3 C0 2.01 0 1.02 0 0 Z " fill="#8D9BEA" transform="translate(201,204)"/>
<path d="M0 0 C0.99 0 1.98 0 3 0 C3 2.64 3 5.28 3 8 C2.01 8 1.02 8 0 8 C0 5.36 0 2.72 0 0 Z " fill="#9EB3EC" transform="translate(293,185)"/>
<path d="M0 0 C0.99 0 1.98 0 3 0 C3 2.64 3 5.28 3 8 C2.01 8 1.02 8 0 8 C0 5.36 0 2.72 0 0 Z " fill="#A8BAEC" transform="translate(293,175)"/>
<path d="M0 0 C0.99 0 1.98 0 3 0 C3 2.64 3 5.28 3 8 C2.01 8 1.02 8 0 8 C0 5.36 0 2.72 0 0 Z " fill="#889AEA" transform="translate(58,177)"/>
<path d="M0 0 C0.99 0 1.98 0 3 0 C3 2.64 3 5.28 3 8 C2.01 8 1.02 8 0 8 C0 5.36 0 2.72 0 0 Z " fill="#A9BBEC" transform="translate(217,161)"/>
<path d="M0 0 C2.64 0 5.28 0 8 0 C8 0.99 8 1.98 8 3 C5.36 3 2.72 3 0 3 C0 2.01 0 1.02 0 0 Z " fill="#57669E" transform="translate(112,139)"/>
<path d="M0 0 C2.64 0 5.28 0 8 0 C8 0.99 8 1.98 8 3 C5.36 3 2.72 3 0 3 C0 2.01 0 1.02 0 0 Z " fill="#A9C5EE" transform="translate(290,134)"/>
<path d="M0 0 C0.99 0 1.98 0 3 0 C3 2.64 3 5.28 3 8 C2.01 8 1.02 8 0 8 C0 5.36 0 2.72 0 0 Z " fill="#94AAEB" transform="translate(53,126)"/>
<path d="M0 0 C0.99 0 1.98 0 3 0 C3 2.64 3 5.28 3 8 C2.01 8 1.02 8 0 8 C0 5.36 0 2.72 0 0 Z " fill="#596CA6" transform="translate(85,121)"/>
<path d="M0 0 C2.64 0 5.28 0 8 0 C8 0.99 8 1.98 8 3 C5.36 3 2.72 3 0 3 C0 2.01 0 1.02 0 0 Z " fill="#6E89DC" transform="translate(85,118)"/>
<path d="M0 0 C2.64 0 5.28 0 8 0 C8 0.99 8 1.98 8 3 C5.36 3 2.72 3 0 3 C0 2.01 0 1.02 0 0 Z " fill="#596CA6" transform="translate(177,110)"/>
<path d="M0 0 C2.64 0 5.28 0 8 0 C8 0.99 8 1.98 8 3 C5.36 3 2.72 3 0 3 C0 2.01 0 1.02 0 0 Z " fill="#56689E" transform="translate(150,107)"/>
<path d="M0 0 C0.99 0 1.98 0 3 0 C3 2.64 3 5.28 3 8 C2.01 8 1.02 8 0 8 C0 5.36 0 2.72 0 0 Z " fill="#94AAEB" transform="translate(50,99)"/>
<path d="M0 0 C0.99 0 1.98 0 3 0 C3 2.64 3 5.28 3 8 C2.01 8 1.02 8 0 8 C0 5.36 0 2.72 0 0 Z " fill="#ACC0ED" transform="translate(209,88)"/>
<path d="M0 0 C2.64 0 5.28 0 8 0 C8 0.99 8 1.98 8 3 C5.36 3 2.72 3 0 3 C0 2.01 0 1.02 0 0 Z " fill="#8DA9EB" transform="translate(85,64)"/>
<path d="M0 0 C0.99 0 1.98 0 3 0 C3 2.64 3 5.28 3 8 C2.01 8 1.02 8 0 8 C0 5.36 0 2.72 0 0 Z " fill="#B7C9EB" transform="translate(317,56)"/>
<path d="M0 0 C1.65 0 3.3 0 5 0 C5 0.99 5 1.98 5 3 C4.01 3 3.02 3 2 3 C2 3.99 2 4.98 2 6 C1.34 6 0.68 6 0 6 C0 4.02 0 2.04 0 0 Z " fill="#606E96" transform="translate(161,131)"/>
<path d="M0 0 C1.65 0 3.3 0 5 0 C5 1.65 5 3.3 5 5 C4.34 5 3.68 5 3 5 C3 4.34 3 3.68 3 3 C2.01 3 1.02 3 0 3 C0 2.01 0 1.02 0 0 Z " fill="#6B8AD6" transform="translate(169,126)"/>
<path d="M0 0 C1.98 0 3.96 0 6 0 C6 0.99 6 1.98 6 3 C4.02 3 2.04 3 0 3 C0 2.01 0 1.02 0 0 Z " fill="#BDCDEF" transform="translate(190,207)"/>
<path d="M0 0 C0.99 0 1.98 0 3 0 C3 1.98 3 3.96 3 6 C2.01 6 1.02 6 0 6 C0 4.02 0 2.04 0 0 Z " fill="#AEBDEE" transform="translate(61,204)"/>
<path d="M0 0 C1.98 0 3.96 0 6 0 C6 0.99 6 1.98 6 3 C4.02 3 2.04 3 0 3 C0 2.01 0 1.02 0 0 Z " fill="#96A6EB" transform="translate(252,204)"/>
<path d="M0 0 C1.98 0 3.96 0 6 0 C6 0.99 6 1.98 6 3 C4.02 3 2.04 3 0 3 C0 2.01 0 1.02 0 0 Z " fill="#C4D3ED" transform="translate(279,201)"/>
<path d="M0 0 C0.99 0 1.98 0 3 0 C3 1.98 3 3.96 3 6 C2.01 6 1.02 6 0 6 C0 4.02 0 2.04 0 0 Z " fill="#8A9FEA" transform="translate(236,185)"/>
<path d="M0 0 C0.99 0 1.98 0 3 0 C3 1.98 3 3.96 3 6 C2.01 6 1.02 6 0 6 C0 4.02 0 2.04 0 0 Z " fill="#A6B7EC" transform="translate(58,185)"/>
<path d="M0 0 C0.99 0 1.98 0 3 0 C3 1.98 3 3.96 3 6 C2.01 6 1.02 6 0 6 C0 4.02 0 2.04 0 0 Z " fill="#8A9FEA" transform="translate(236,177)"/>
<path d="M0 0 C0.99 0 1.98 0 3 0 C3 1.98 3 3.96 3 6 C2.01 6 1.02 6 0 6 C0 4.02 0 2.04 0 0 Z " fill="#8796EA" transform="translate(217,169)"/>
<path d="M0 0 C0.99 0 1.98 0 3 0 C3 1.98 3 3.96 3 6 C2.01 6 1.02 6 0 6 C0 4.02 0 2.04 0 0 Z " fill="#56629A" transform="translate(142,166)"/>
<path d="M0 0 C1.98 0 3.96 0 6 0 C6 0.99 6 1.98 6 3 C4.02 3 2.04 3 0 3 C0 2.01 0 1.02 0 0 Z " fill="#667FC7" transform="translate(163,153)"/>
<path d="M0 0 C1.98 0 3.96 0 6 0 C6 0.99 6 1.98 6 3 C4.02 3 2.04 3 0 3 C0 2.01 0 1.02 0 0 Z " fill="#737680" transform="translate(166,139)"/>
<path d="M0 0 C1.98 0 3.96 0 6 0 C6 0.99 6 1.98 6 3 C4.02 3 2.04 3 0 3 C0 2.01 0 1.02 0 0 Z " fill="#667FC7" transform="translate(112,126)"/>
<path d="M0 0 C0.99 0 1.98 0 3 0 C3 1.98 3 3.96 3 6 C2.01 6 1.02 6 0 6 C0 4.02 0 2.04 0 0 Z " fill="#C6D5E6" transform="translate(212,107)"/>
<path d="M0 0 C1.98 0 3.96 0 6 0 C6 0.99 6 1.98 6 3 C4.02 3 2.04 3 0 3 C0 2.01 0 1.02 0 0 Z " fill="#56629A" transform="translate(120,104)"/>
<path d="M0 0 C0.99 0 1.98 0 3 0 C3 1.98 3 3.96 3 6 C2.01 6 1.02 6 0 6 C0 4.02 0 2.04 0 0 Z " fill="#8DA9EB" transform="translate(209,96)"/>
<path d="M0 0 C1.98 0 3.96 0 6 0 C6 0.99 6 1.98 6 3 C4.02 3 2.04 3 0 3 C0 2.01 0 1.02 0 0 Z " fill="#8DA9EB" transform="translate(112,61)"/>
<path d="M0 0 C1.98 0 3.96 0 6 0 C6 0.99 6 1.98 6 3 C4.02 3 2.04 3 0 3 C0 2.01 0 1.02 0 0 Z " fill="#AEC3EE" transform="translate(93,56)"/>
<path d="M0 0 C1.98 0 3.96 0 6 0 C6 0.99 6 1.98 6 3 C4.02 3 2.04 3 0 3 C0 2.01 0 1.02 0 0 Z " fill="#CDDAF0" transform="translate(104,53)"/>
<path d="M0 0 C1.98 0 3.96 0 6 0 C6 0.99 6 1.98 6 3 C4.02 3 2.04 3 0 3 C0 2.01 0 1.02 0 0 Z " fill="#CDDAF0" transform="translate(155,48)"/>
</svg>
