<?xml version="1.0" encoding="UTF-8"?>
<svg version="1.1" xmlns="http://www.w3.org/2000/svg" width="192" height="256">
<path d="M0 0 C7.69822661 9.36034372 11.18931229 19.97138856 11 32 C9.79225364 44.19113389 4.60176441 55.23976491 -2.875 64.875 C-5.50080931 68.73648428 -7.26840382 72.24421974 -7 77 C-5.38806425 79.79437546 -3.31958032 81.79058444 -1 84 C1.40018697 88.80037395 0.49622483 95.42375644 -1.0625 100.375 C-3.58492917 103.79248468 -6.10618808 106.22938868 -10 108 C-12.81568861 108.38888007 -15.13980455 108.25089434 -18 108 C-17.2368139 109.60781893 -16.46412942 111.21113138 -15.6875 112.8125 C-15.25824219 113.70582031 -14.82898438 114.59914063 -14.38671875 115.51953125 C-12.67509732 118.58116395 -11.13762599 120.43118701 -8 122 C-5.80515784 123.09742108 -4.49678005 124.05418594 -3 126 C-3 127.32 -3 128.64 -3 130 C-0.92902303 132.04331967 -0.92902303 132.04331967 2 133 C4.93744278 132.30883699 7.31419929 131.34290035 10 130 C19.70400773 129.0604056 19.70400773 129.0604056 23.5 131.8125 C23.995 132.534375 24.49 133.25625 25 134 C27.59072324 136.94400369 30.45789478 138.34701756 34 140 C33.51061677 147.4630943 32.49302866 155.84859944 27.5078125 161.7734375 C23.46969822 165.2490284 19.79624351 166.34773604 14.515625 166.2890625 C6.09734343 165.32174443 -4.11761155 162.33850948 -10 156 C-11.76522701 154.57087658 -13.55981943 153.17761525 -15.375 151.8125 C-16.31085938 151.09707031 -17.24671875 150.38164062 -18.2109375 149.64453125 C-21.19806108 147.88321609 -22.61816778 147.73112641 -26 148 C-26.33 147.67 -26.66 147.34 -27 147 C-27.97041254 149.91123763 -28.28311609 152.26004234 -28.53515625 155.3046875 C-28.66712402 156.8832251 -28.66712402 156.8832251 -28.80175781 158.49365234 C-29.14950964 163.00335537 -29.46886432 167.51469549 -29.77587891 172.02734375 C-29.9559993 174.41639155 -30.19191077 176.77887677 -30.48046875 179.15625 C-30.9042412 184.21695285 -30.88719899 186.82120414 -27.765625 190.96875 C-25.99037368 192.92358621 -24.17550583 194.60559345 -22.1875 196.3671875 C-20 199 -20 199 -20 206 C-31.88 206 -43.76 206 -56 206 C-56 194.12 -56 182.24 -56 170 C-57.32 170 -58.64 170 -60 170 C-60 181.88 -60 193.76 -60 206 C-71.88 206 -83.76 206 -96 206 C-96 199 -96 199 -94.57421875 196.92578125 C-93.95160156 196.39339844 -93.32898438 195.86101562 -92.6875 195.3125 C-87.69544619 191.07753289 -87.69544619 191.07753289 -85.6015625 185.08203125 C-85.64494818 179.0297288 -86.04002126 174.20416012 -88.26953125 168.59375 C-89.46736095 164.34049373 -89.53396201 159.97565888 -89.70874023 155.58276367 C-89.84135504 152.26658724 -90.00268072 149.17997705 -91 146 C-91.94875 146.20625 -92.8975 146.4125 -93.875 146.625 C-94.90625 146.74875 -95.9375 146.8725 -97 147 C-97.99 146.01 -97.99 146.01 -99 145 C-99.92232422 145.433125 -99.92232422 145.433125 -100.86328125 145.875 C-101.67152344 146.24625 -102.47976562 146.6175 -103.3125 147 C-104.11300781 147.37125 -104.91351563 147.7425 -105.73828125 148.125 C-108 149 -108 149 -111 149 C-111.33 149.99 -111.66 150.98 -112 152 C-120.92242839 156.69949863 -131.00002198 158.72824412 -141 157 C-144.86453742 154.60355501 -146.65574378 152.43494628 -148.1875 148.1875 C-148.66316406 146.87265625 -148.66316406 146.87265625 -149.1484375 145.53125 C-149.42945313 144.6959375 -149.71046875 143.860625 -150 143 C-150.23976562 142.3296875 -150.47953125 141.659375 -150.7265625 140.96875 C-151.92301441 137.33153618 -152.70665609 134.5081264 -151 131 C-149.02093786 129.83075103 -147.04862029 128.93203376 -144.91015625 128.08984375 C-142.53014732 126.73192455 -142.19742497 125.4089373 -141 123 C-137.17459764 120.34848721 -133.88294189 120.97901787 -129.45703125 121.50390625 C-127 122 -127 122 -123.8125 123.625 C-120.13817 125.42133911 -117.91930471 124.90445493 -114 124 C-111.8435566 123.18964132 -111.8435566 123.18964132 -111.1875 121.125 C-109.6028455 118.28930248 -107.90552193 117.38358187 -105 116 C-103.68 116 -102.36 116 -101 116 C-96.96809198 113.03536175 -96.09948516 109.76443568 -95 105 C-94.34 105 -93.68 105 -93 105 C-92.67 103.35 -92.34 101.7 -92 100 C-92.86625 99.773125 -93.7325 99.54625 -94.625 99.3125 C-99.28853691 97.49890231 -102.73784419 95.06534587 -105.375 90.75 C-106.56806635 85.50050805 -106.67035034 80.83464304 -104.8125 75.75 C-102.13702741 71.69066228 -99.68463155 68.56154385 -95 67 C-94.03476071 56.79795692 -94.70501958 49.67669849 -100.2421875 40.87475586 C-102.96495471 36.52662651 -102.96495471 36.52662651 -103.14453125 33.828125 C-101.32463401 30.92125841 -98.56609652 29.58411079 -95.625 28 C-94.67596802 27.47672119 -94.67596802 27.47672119 -93.70776367 26.94287109 C-76.82194761 17.84380054 -60.09954592 15.90632586 -41.6640625 20.83203125 C-38 22 -38 22 -34.7734375 23.69921875 C-32.21089223 25.19804793 -32.21089223 25.19804793 -30.05004883 24.77270508 C-27.62744062 23.8595748 -26.29510927 22.72415941 -24.42578125 20.9375 C-23.76215576 20.3091626 -23.09853027 19.6808252 -22.41479492 19.03344727 C-21.7210376 18.36240967 -21.02728027 17.69137207 -20.3125 17 C-19.60005127 16.32316162 -18.88760254 15.64632324 -18.15356445 14.94897461 C-13.5496736 10.55775638 -9.05080755 6.08367092 -4.69921875 1.44140625 C-3 0 -3 0 0 0 Z " fill="#228F55" transform="translate(154,50)"/>
<path d="M0 0 C7.69822661 9.36034372 11.18931229 19.97138856 11 32 C9.79761548 44.13701085 4.65421105 55.26653598 -2.875 64.8125 C-5.67927965 69.01891948 -6.33265439 73.04969004 -7 78 C-7.66 78 -8.32 78 -9 78 C-9.18175781 79.32064453 -9.18175781 79.32064453 -9.3671875 80.66796875 C-9.53476563 81.82941406 -9.70234375 82.99085938 -9.875 84.1875 C-10.03742188 85.33605469 -10.19984375 86.48460937 -10.3671875 87.66796875 C-11.16449662 91.86614577 -11.95050452 94.95050452 -15 98 C-17.5 98.25 -17.5 98.25 -20 98 C-22 96 -22 96 -22.30859375 93.09765625 C-22.15107669 87.71280321 -20.49889772 82.59472659 -19.0625 77.4375 C-16.64207221 68.80456073 -16.64207221 68.80456073 -15 60 C-24.03358778 57.93830101 -24.03358778 57.93830101 -33 59.375 C-50.05308237 64.93470376 -68.31190445 60.21139192 -84 53 C-83.98952637 54.0194873 -83.97905273 55.03897461 -83.96826172 56.08935547 C-83.93211273 59.86503602 -83.90911823 63.64070121 -83.89013672 67.41650391 C-83.88006746 69.05194672 -83.86641119 70.68737149 -83.84912109 72.32275391 C-83.82491295 74.6709437 -83.81352643 77.01889588 -83.8046875 79.3671875 C-83.79436493 80.10057343 -83.78404236 80.83395935 -83.77340698 81.58956909 C-83.77300632 83.39462697 -83.87787245 85.1990783 -84 87 C-86 89 -86 89 -89 89.3125 C-89.99 89.209375 -90.98 89.10625 -92 89 C-94.42526361 85.36210458 -94.213547 82.76851554 -94.1328125 78.578125 C-94.13362085 77.0611959 -94.13629002 75.54426687 -94.140625 74.02734375 C-94.13868282 71.65739502 -94.12578658 69.28992299 -94.07910156 66.92041016 C-93.88715767 55.86022849 -95.42908099 48.43646207 -101.37841797 39.03027344 C-103 36 -103 36 -102.91601562 33.71191406 C-101.34497929 30.77585149 -98.46114975 29.52758517 -95.625 28 C-94.99231201 27.65114746 -94.35962402 27.30229492 -93.70776367 26.94287109 C-76.82194761 17.84380054 -60.09954592 15.90632586 -41.6640625 20.83203125 C-38 22 -38 22 -34.7734375 23.69921875 C-32.21089223 25.19804793 -32.21089223 25.19804793 -30.05004883 24.77270508 C-27.62744062 23.8595748 -26.29510927 22.72415941 -24.42578125 20.9375 C-23.76215576 20.3091626 -23.09853027 19.6808252 -22.41479492 19.03344727 C-21.7210376 18.36240967 -21.02728027 17.69137207 -20.3125 17 C-19.60005127 16.32316162 -18.88760254 15.64632324 -18.15356445 14.94897461 C-13.5496736 10.55775638 -9.05080755 6.08367092 -4.69921875 1.44140625 C-3 0 -3 0 0 0 Z " fill="#BD7857" transform="translate(154,50)"/>
<path d="M0 0 C0.57137695 0.19118408 1.14275391 0.38236816 1.73144531 0.5793457 C3.3471321 1.1190846 4.96337664 1.65715577 6.58007812 2.19384766 C8.53016395 2.84348279 10.47662065 3.50400636 12.421875 4.16796875 C25.75117301 8.25123962 40.3281187 9.0813917 53.63671875 4.5390625 C58.89132982 3.34049006 64.02838591 5.3427953 69 7 C68.62025215 14.72153964 66.87185813 21.74298579 64.7277832 29.1340332 C63.37985169 33.92334549 62.64094614 38.01894366 63 43 C64.05310277 44.27003323 64.05310277 44.27003323 66.4375 44.1875 C69.16734675 44.26839983 69.16734675 44.26839983 71 42 C71.64021247 40.17414039 71.64021247 40.17414039 72.0703125 38.0859375 C72.24433594 37.32539063 72.41835937 36.56484375 72.59765625 35.78125 C72.77167969 34.9871875 72.94570312 34.193125 73.125 33.375 C73.30675781 32.57320312 73.48851562 31.77140625 73.67578125 30.9453125 C74.12370789 28.96500524 74.56270604 26.9826823 75 25 C79.21690386 25.78680177 80.52843079 27.5057125 83 31 C85.40018697 35.80037395 84.49622483 42.42375644 82.9375 47.375 C80.41507083 50.79248468 77.89381192 53.22938868 74 55 C71.18431139 55.38888007 68.86019545 55.25089434 66 55 C65.690625 55.8353125 65.690625 55.8353125 65.375 56.6875 C63.48373564 59.86826278 61.19819616 62.1732723 58 64 C55.1436784 64.15510763 52.80001823 64.10219014 50 63.8125 C42.45376192 63.35714482 37.75466533 64.91612005 31.64257812 69.33129883 C28.88655814 71.26009011 27.54346768 72.08435693 24.15625 71.55859375 C20.04842209 69.53009952 16.11022165 67.30183436 12.1875 64.9375 C11.41212891 64.47794922 10.63675781 64.01839844 9.83789062 63.54492188 C4.16502638 60.16502638 4.16502638 60.16502638 3 59 C1.15108054 58.76636119 -0.70488031 58.58696365 -2.5625 58.4375 C-4.356875 58.293125 -6.15125 58.14875 -8 58 C-8 54.37 -8 50.74 -8 47 C-8.86625 46.773125 -9.7325 46.54625 -10.625 46.3125 C-15.28853691 44.49890231 -18.73784419 42.06534587 -21.375 37.75 C-22.56806635 32.50050805 -22.67035034 27.83464304 -20.8125 22.75 C-18.44752489 19.16176191 -16.11170112 15.62243632 -11.83984375 14.36328125 C-11.23269531 14.24339844 -10.62554687 14.12351562 -10 14 C-9.97494385 14.56509277 -9.9498877 15.13018555 -9.92407227 15.71240234 C-9.80820044 18.26683742 -9.68543463 20.8208955 -9.5625 23.375 C-9.52318359 24.26445313 -9.48386719 25.15390625 -9.44335938 26.0703125 C-9.38051758 27.34648437 -9.38051758 27.34648437 -9.31640625 28.6484375 C-9.27974854 29.43395996 -9.24309082 30.21948242 -9.20532227 31.02880859 C-9.109109 33.07523496 -9.109109 33.07523496 -8 35 C-6.00045254 35.04254356 -3.99958364 35.04080783 -2 35 C-0.02170928 33.02170928 -0.74496068 29.17672973 -0.68359375 26.46484375 C-0.66281265 25.71159317 -0.64203156 24.95834259 -0.62062073 24.18226624 C-0.55504575 21.7674401 -0.49620379 19.35250202 -0.4375 16.9375 C-0.3943223 15.30402471 -0.35070827 13.6705609 -0.30664062 12.03710938 C-0.19935638 8.02485536 -0.09811179 4.01248836 0 0 Z " fill="#F9D2AD" transform="translate(70,103)"/>
<path d="M0 0 C19.8 0 39.6 0 60 0 C60 16.38422131 60 16.38422131 59.26171875 22.73828125 C59.17535156 23.48464844 59.08898437 24.23101562 59 25 C58.86207031 26.00417969 58.72414063 27.00835937 58.58203125 28.04296875 C58.15378148 33.33712891 57.99978365 36.64068671 61.23046875 41.03125 C63.9418083 43.88491159 63.9418083 43.88491159 66.8125 46.3671875 C69 49 69 49 69 56 C57.12 56 45.24 56 33 56 C33 44.12 33 32.24 33 20 C31.68 20 30.36 20 29 20 C29 31.88 29 43.76 29 56 C17.12 56 5.24 56 -7 56 C-7 49 -7 49 -5.57421875 46.92578125 C-4.95160156 46.39339844 -4.32898437 45.86101562 -3.6875 45.3125 C1.30455381 41.07753289 1.30455381 41.07753289 3.3984375 35.08203125 C3.39423981 27.7220881 3.39423981 27.7220881 1.5 20.6875 C0 16 0 16 0 0 Z " fill="#E69C5E" transform="translate(65,200)"/>
<path d="M0 0 C2.56541501 1.00311569 5.00972043 2.00523408 7.4375 3.3125 C10.08531312 4.33315798 10.08531312 4.33315798 12.625 2.625 C17.39146059 0.33003749 21.79204391 0.24900947 27 1 C29.5 2.8125 29.5 2.8125 31 5 C33.59072324 7.94400369 36.45789478 9.34701756 40 11 C39.51061677 18.4630943 38.49302866 26.84859944 33.5078125 32.7734375 C29.46969822 36.2490284 25.79624351 37.34773604 20.515625 37.2890625 C11.98855589 36.309244 2.03860208 33.28320368 -4 27 C-6.21308501 25.40426373 -8.43175032 23.84484567 -10.6875 22.3125 C-11.29400391 21.89677734 -11.90050781 21.48105469 -12.52539062 21.05273438 C-14.01497948 20.03230736 -15.50722877 19.01576587 -17 18 C-11.72898586 11.58930713 -5.90871848 5.81409488 0 0 Z " fill="#EEC9A6" transform="translate(148,179)"/>
<path d="M0 0 C1.051875 0.53625 2.10375 1.0725 3.1875 1.625 C6.89066708 3.43543724 9.03063672 2.8660429 13 2 C14.66620403 1.66436178 16.33278752 1.33059256 18 1 C19.87074721 4.09445902 21.71863501 7.20196039 23.5625 10.3125 C24.09552734 11.19357422 24.62855469 12.07464844 25.17773438 12.98242188 C25.67724609 13.82998047 26.17675781 14.67753906 26.69140625 15.55078125 C27.15748291 16.33106689 27.62355957 17.11135254 28.10375977 17.9152832 C29 20 29 20 28 23 C26.0390625 24.16796875 26.0390625 24.16796875 23.625 25.1875 C22.83351562 25.53167969 22.04203125 25.87585938 21.2265625 26.23046875 C19 27 19 27 16 27 C15.505 28.485 15.505 28.485 15 30 C6.07757161 34.69949863 -4.00002198 36.72824412 -14 35 C-17.86453742 32.60355501 -19.65574378 30.43494628 -21.1875 26.1875 C-21.50460938 25.3109375 -21.82171875 24.434375 -22.1484375 23.53125 C-22.42945313 22.6959375 -22.71046875 21.860625 -23 21 C-23.23976563 20.3296875 -23.47953125 19.659375 -23.7265625 18.96875 C-24.92301441 15.33153618 -25.70665609 12.5081264 -24 9 C-22.02093786 7.83075103 -20.04862029 6.93203376 -17.91015625 6.08984375 C-15.53014732 4.73192455 -15.19742497 3.4089373 -14 1 C-9.62547638 -2.03212689 -4.9670818 -1.00289251 0 0 Z " fill="#EEC9A6" transform="translate(27,172)"/>
<path d="M0 0 C8.14104957 9.89877618 11.75575052 21.5600975 10.83203125 34.3203125 C10.6128617 35.88943941 10.31749965 37.44777948 10 39 C9.67 39 9.34 39 9 39 C8.814375 38.00033203 8.814375 38.00033203 8.625 36.98046875 C6.81600152 28.8965068 3.19397621 23.37835083 -2 17 C-5.96575725 17.59860487 -8.37012339 19.57686972 -11.5 22 C-12.01755859 22.39429199 -12.53511719 22.78858398 -13.06835938 23.19482422 C-15.84152568 25.30982349 -18.58333561 27.46144534 -21.3125 29.6328125 C-21.84681641 30.05046875 -22.38113281 30.468125 -22.93164062 30.8984375 C-24.43088115 32.07094441 -25.91886442 33.25780304 -27.40625 34.4453125 C-30 36 -30 36 -31.92578125 35.90234375 C-32.61027344 35.60457031 -33.29476562 35.30679688 -34 35 C-43.76286587 31.1379065 -52.22434814 29.51332659 -62.75 29.5 C-63.77826904 29.49411865 -64.80653809 29.4882373 -65.8659668 29.48217773 C-74.10792453 29.61452842 -82.01005318 30.9365846 -89.65917969 34.09960938 C-92 35 -92 35 -95 35 C-95 34.01 -95 33.02 -95 32 C-98.35595828 32.59927826 -100.37801226 33.84622436 -103 36 C-102.8984375 34.25 -102.8984375 34.25 -102 32 C-99.8786447 30.47023393 -97.90982883 29.23063693 -95.625 28 C-94.99231201 27.65114746 -94.35962402 27.30229492 -93.70776367 26.94287109 C-76.82194761 17.84380054 -60.09954592 15.90632586 -41.6640625 20.83203125 C-38 22 -38 22 -34.7734375 23.69921875 C-32.21089223 25.19804793 -32.21089223 25.19804793 -30.05004883 24.77270508 C-27.62744062 23.8595748 -26.29510927 22.72415941 -24.42578125 20.9375 C-23.76215576 20.3091626 -23.09853027 19.6808252 -22.41479492 19.03344727 C-21.7210376 18.36240967 -21.02728027 17.69137207 -20.3125 17 C-19.60005127 16.32316162 -18.88760254 15.64632324 -18.15356445 14.94897461 C-13.5496736 10.55775638 -9.05080755 6.08367092 -4.69921875 1.44140625 C-3 0 -3 0 0 0 Z " fill="#D8865E" transform="translate(154,50)"/>
<path d="M0 0 C0.89203125 0.51691406 1.7840625 1.03382813 2.703125 1.56640625 C3.88505442 2.2324141 5.06736637 2.89774341 6.25 3.5625 C6.83652344 3.90474609 7.42304687 4.24699219 8.02734375 4.59960938 C11.45549881 6.5414049 11.45549881 6.5414049 15.29296875 6.76171875 C15.85628906 6.51035156 16.41960937 6.25898438 17 6 C19.0625 5.25 19.0625 5.25 21 5 C22.62109375 6.484375 22.62109375 6.484375 24 8 C25.24716797 7.24203125 25.24716797 7.24203125 26.51953125 6.46875 C27.60621094 5.8190625 28.69289062 5.169375 29.8125 4.5 C30.89144531 3.8503125 31.97039062 3.200625 33.08203125 2.53125 C36 1 36 1 39 1 C39.83806616 3.93622464 40.67062444 6.87382067 41.5 9.8125 C41.73847656 10.64587891 41.97695312 11.47925781 42.22265625 12.33789062 C42.44824219 13.14033203 42.67382812 13.94277344 42.90625 14.76953125 C43.11572266 15.50792236 43.32519531 16.24631348 43.54101562 17.00708008 C44 19 44 19 44 22 C45.65 22 47.3 22 49 22 C49 23.32 49 24.64 49 26 C28.54 26 8.08 26 -13 26 C-13 24.35 -13 22.7 -13 21 C-10.69 21.33 -8.38 21.66 -6 22 C-5.5978125 20.14375 -5.5978125 20.14375 -5.1875 18.25 C-4.31204766 14.32297094 -3.3913107 10.40875364 -2.4375 6.5 C-2.18871094 5.4790625 -1.93992187 4.458125 -1.68359375 3.40625 C-1 1 -1 1 0 0 Z " fill="#3DB676" transform="translate(77,174)"/>
<path d="M0 0 C19.8 0 39.6 0 60 0 C60 3.3 60 6.6 60 10 C40.2 10 20.4 10 0 10 C0 6.7 0 3.4 0 0 Z " fill="#BE7957" transform="translate(65,200)"/>
<path d="M0 0 C0.33 1.32 0.66 2.64 1 4 C1.70495605 3.94239502 2.40991211 3.88479004 3.13623047 3.82543945 C24.46339131 2.30756044 24.46339131 2.30756044 29.88671875 6.203125 C35.12563303 11.80149763 36 14.0453567 36 22 C24.12 22 12.24 22 0 22 C0 14.74 0 7.48 0 0 Z " fill="#AE6F51" transform="translate(98,234)"/>
<path d="M0 0 C1.03165283 0.02094727 2.06330566 0.04189453 3.1262207 0.06347656 C4.24448242 0.07636719 5.36274414 0.08925781 6.51489258 0.10253906 C7.68213867 0.13605469 8.84938477 0.16957031 10.05200195 0.20410156 C11.23084961 0.22214844 12.40969727 0.24019531 13.62426758 0.25878906 C16.53849121 0.30598297 19.45109226 0.37181079 22.36450195 0.45410156 C24.26479433 6.15497869 23.36450195 12.44484944 23.36450195 18.45410156 C11.48450195 18.45410156 -0.39549805 18.45410156 -12.63549805 18.45410156 C-12.63549805 11.45410156 -12.63549805 11.45410156 -11.2097168 9.37988281 C-10.58709961 8.8475 -9.96448242 8.31511719 -9.32299805 7.76660156 C-6.54268991 5.33679672 -6.54268991 5.33679672 -4.3815918 2.3737793 C-2.63549805 0.45410156 -2.63549805 0.45410156 0 0 Z " fill="#AC6E51" transform="translate(70.635498046875,237.5458984375)"/>
<path d="M0 0 C0.33 0 0.66 0 1 0 C1 2.64 1 5.28 1 8 C4.63 8 8.26 8 12 8 C12 8.33 12 8.66 12 9 C10.35 9 8.7 9 7 9 C6.34 10.98 5.68 12.96 5 15 C5.66 15.33 6.32 15.66 7 16 C4.69 24.91 2.38 33.82 0 43 C-1.98 43.495 -1.98 43.495 -4 44 C-4.44730469 43.0821875 -4.89460938 42.164375 -5.35546875 41.21875 C-9.33864539 33.06554302 -9.33864539 33.06554302 -13.9375 25.25 C-16 22 -16 22 -16 20 C-16.66 20 -17.32 20 -18 20 C-17.8125 18.1875 -17.8125 18.1875 -17 16 C-13.65188866 13.46629412 -12.29875783 13 -8 13 C-3.96809198 10.03536175 -3.09948516 6.76443568 -2 2 C-1.34 2 -0.68 2 0 2 C0 1.34 0 0.68 0 0 Z " fill="#29A061" transform="translate(61,153)"/>
<path d="M0 0 C2.63567806 2.35328398 4.38870933 4.58001086 6 7.6875 C7.57230334 11.09209679 7.57230334 11.09209679 10 11.6875 C10.99 11.8421875 10.99 11.8421875 12 12 C14.25 14.0625 14.25 14.0625 16 16 C14.89973587 19.3007924 14.17290663 19.92480282 11.5625 22.0625 C2.70181616 29.13962806 2.70181616 29.13962806 -4 38 C-5.32 37.67 -6.64 37.34 -8 37 C-8 36.34 -8 35.68 -8 35 C-7.01 34.34 -6.02 33.68 -5 33 C-5.22719727 32.18378174 -5.22719727 32.18378174 -5.45898438 31.35107422 C-6.14724424 28.86116182 -6.82369611 26.36818517 -7.5 23.875 C-7.73847656 23.0190625 -7.97695312 22.163125 -8.22265625 21.28125 C-9.44460283 16.74259129 -10.31133062 12.74779188 -10 8 C-11.65 8 -13.3 8 -15 8 C-15 7.67 -15 7.34 -15 7 C-14.33613281 6.91363281 -13.67226562 6.82726562 -12.98828125 6.73828125 C-6.97700641 5.78174263 -3.80408362 4.81850592 0 0 Z " fill="#3EB877" transform="translate(135,160)"/>
<path d="M0 0 C4.43090471 1.20842856 6.98112756 2.51668565 10 6 C9.18844632 8.93776444 8.37579766 11.87521836 7.5625 14.8125 C7.33240234 15.64587891 7.10230469 16.47925781 6.86523438 17.33789062 C6.64287109 18.14033203 6.42050781 18.94277344 6.19140625 19.76953125 C5.98717041 20.50792236 5.78293457 21.24631348 5.57250977 22.00708008 C5.0907348 23.68415002 4.55178535 25.34464396 4 27 C-3.75 27.125 -3.75 27.125 -6 26 C-4.60213923 17.15301274 -2.39537771 8.61638292 0 0 Z " fill="#B27454" transform="translate(67,169)"/>
<path d="M0 0 C1.98 7.92 3.96 15.84 6 24 C1.78492722 27.16130459 0.93928888 27.3367697 -4 27 C-6.57281882 19.77160428 -8.36695592 12.49347179 -10 5 C-8.71186658 4.16121545 -7.41936744 3.32913217 -6.125 2.5 C-5.40570313 2.0359375 -4.68640625 1.571875 -3.9453125 1.09375 C-2 0 -2 0 0 0 Z " fill="#AF7353" transform="translate(125,169)"/>
<path d="M0 0 C7.92 0 15.84 0 24 0 C24.93491183 4.67455917 25.07972012 8.2965127 25 13 C24.67 12.01 24.34 11.02 24 10 C16.08 10 8.16 10 0 10 C0 6.7 0 3.4 0 0 Z " fill="#D2894A" transform="translate(69,228)"/>
<path d="M0 0 C7.92 0 15.84 0 24 0 C24 3.3 24 6.6 24 10 C16.08 10 8.16 10 0 10 C-1 5 -1 5 0 0 Z " fill="#D38949" transform="translate(99,228)"/>
<path d="M0 0 C0 0.33 0 0.66 0 1 C-1.65 1 -3.3 1 -5 1 C-5.66 2.98 -6.32 4.96 -7 7 C-6.34 7.33 -5.68 7.66 -5 8 C-5.61811082 10.43943734 -6.24415261 12.87635529 -6.875 15.3125 C-7.04902344 16.00279297 -7.22304687 16.69308594 -7.40234375 17.40429688 C-8.26698516 20.71875562 -9.08185702 23.12278553 -11 26 C-15.95 18.08 -15.95 18.08 -21 10 C-19.35 8.35 -17.7 6.7 -16 5 C-15.29875 4.071875 -14.5975 3.14375 -13.875 2.1875 C-9.52586461 -1.12162475 -5.28038839 -0.41614269 0 0 Z " fill="#3DB876" transform="translate(73,161)"/>
<path d="M0 0 C0.99 0 1.98 0 3 0 C4.36621094 1.6965332 4.36621094 1.6965332 5.734375 4.05078125 C6.47107422 5.31631836 6.47107422 5.31631836 7.22265625 6.60742188 C7.72667969 7.50009766 8.23070312 8.39277344 8.75 9.3125 C9.26949219 10.19357422 9.78898437 11.07464844 10.32421875 11.98242188 C13.14824525 16.90761398 13.14824525 16.90761398 14 19 C13 22 13 22 11.0390625 23.16796875 C10.24242187 23.50441406 9.44578125 23.84085938 8.625 24.1875 C7.83351563 24.53167969 7.04203125 24.87585938 6.2265625 25.23046875 C4 26 4 26 1 26 C-0.01973129 22.94080612 -0.11533602 20.87581975 -0.09765625 17.67578125 C-0.09443359 16.64775391 -0.09121094 15.61972656 -0.08789062 14.56054688 C-0.07951172 13.48869141 -0.07113281 12.41683594 -0.0625 11.3125 C-0.05798828 10.22904297 -0.05347656 9.14558594 -0.04882812 8.02929688 C-0.03703743 5.35280915 -0.02058063 2.67643223 0 0 Z " fill="#F8F9F7" transform="translate(42,173)"/>
<path d="M0 0 C12.38907454 0.99586513 24.72506234 2.00027012 37 4 C33.95616416 6.49284271 30.93450289 8.84338329 27.5625 10.875 C26.84191406 11.32617188 26.12132813 11.77734375 25.37890625 12.2421875 C21.90276655 13.34952921 20.32455523 12.47360811 17 11 C13.9834919 9.40551429 11.05144783 7.69088865 8.125 5.9375 C7.34125 5.47794922 6.5575 5.01839844 5.75 4.54492188 C1.50437107 2.02639112 1.50437107 2.02639112 0 1 C0 0.67 0 0.34 0 0 Z " fill="#B79877" transform="translate(74,162)"/>
<path d="M0 0 C1.32 0.99 2.64 1.98 4 3 C3.48550594 7.01106823 2.57005112 8.91443782 -0.34375 11.69921875 C-1.01277344 12.35083984 -1.68179688 13.00246094 -2.37109375 13.67382812 C-3.07363281 14.33833984 -3.77617187 15.00285156 -4.5 15.6875 C-5.88738419 17.02269817 -7.27289663 18.35984483 -8.65625 19.69921875 C-9.27306641 20.28533936 -9.88988281 20.87145996 -10.52539062 21.4753418 C-12.10099237 22.95168868 -12.10099237 22.95168868 -13 25 C-14.32 24.67 -15.64 24.34 -17 24 C-17 23.34 -17 22.68 -17 22 C-16.01 21.34 -15.02 20.68 -14 20 C-14.226875 18.906875 -14.45375 17.81375 -14.6875 16.6875 C-15 13 -15 13 -13.8125 11.0625 C-12 10 -12 10 -8 10 C-7.79375 9.46375 -7.5875 8.9275 -7.375 8.375 C-5.42003056 4.9982346 -2.81776305 2.69525161 0 0 Z " fill="#28A764" transform="translate(144,173)"/>
<path d="M0 0 C0.99 0.33 1.98 0.66 3 1 C1.83795007 7.54849313 0.26616615 13.74538144 -2 20 C-5.59391114 18.66511872 -8.75490696 17.03977277 -12 15 C-11.58685438 10.55073948 -8.49538473 8.15899896 -5.4375 5.25 C-4.91736328 4.74339844 -4.39722656 4.23679688 -3.86132812 3.71484375 C-2.58089916 2.46965595 -1.29132446 1.23388498 0 0 Z " fill="#FAF8F5" transform="translate(148,179)"/>
<path d="M0 0 C2.31 0 4.62 0 7 0 C7.33 1.65 7.66 3.3 8 5 C0.82139755 11.41492134 0.82139755 11.41492134 -4.125 11.625 C-8.44722169 10.92786747 -10.65638045 9.78634963 -14 7 C-14.66 6.01 -15.32 5.02 -16 4 C-10.72 4.33 -5.44 4.66 0 5 C0 3.35 0 1.7 0 0 Z " fill="#C3805F" transform="translate(105,150)"/>
<path d="M0 0 C0 2.31 0 4.62 0 7 C-3.171738 8.585869 -6.63513822 8.37866445 -10.125 8.5625 C-10.87910156 8.60568359 -11.63320312 8.64886719 -12.41015625 8.69335938 C-14.27321888 8.7994832 -16.13658524 8.90025001 -18 9 C-18.33 6.69 -18.66 4.38 -19 2 C-16.58374679 1.66340751 -14.16707192 1.33061612 -11.75 1 C-10.72712891 0.85691406 -10.72712891 0.85691406 -9.68359375 0.7109375 C-6.40628012 0.2654774 -3.31615847 0 0 0 Z " fill="#C27D5C" transform="translate(96,112)"/>
<path d="M0 0 C4.20671184 0.53663333 8.2702157 1.51349957 12.375 2.5625 C13.43460938 2.83191406 14.49421875 3.10132812 15.5859375 3.37890625 C16.38257813 3.58386719 17.17921875 3.78882812 18 4 C17.67 5.98 17.34 7.96 17 10 C13.02692066 11.32435978 10.19025432 10.18129186 6.3125 9.0625 C5.61060547 8.86720703 4.90871094 8.67191406 4.18554688 8.47070312 C2.45491056 7.98800864 0.72715934 7.49499154 -1 7 C-1.04254356 5.00045254 -1.04080783 2.99958364 -1 1 C-0.67 0.67 -0.34 0.34 0 0 Z " fill="#C17D5B" transform="translate(113,120)"/>
<path d="M0 0 C2.9375 2.0625 2.9375 2.0625 5 5 C5.55147685 8.92927257 5.59311615 11.03618625 3.5 14.4375 C3.005 14.953125 2.51 15.46875 2 16 C1.34 15.67 0.68 15.34 0 15 C0.66 14.01 1.32 13.02 2 12 C2.31254378 9.27716095 2.13333428 6.75557514 2 4 C0.93354885 2.70366379 0.93354885 2.70366379 -1.5625 2.9375 C-2.366875 2.958125 -3.17125 2.97875 -4 3 C-5.12256131 5.24512262 -5.13413762 6.51456649 -5.125 9 C-5.12757812 9.70125 -5.13015625 10.4025 -5.1328125 11.125 C-5.11377236 13.09153775 -5.11377236 13.09153775 -4 15 C-3.01 15.66 -2.02 16.32 -1 17 C-4.41756151 17.31068741 -6.40106977 17.3625104 -9.375 15.5625 C-11.7776838 11.77365246 -11.77693727 8.36526609 -11 4 C-8.21528417 -0.56693397 -5.09718974 -0.80481943 0 0 Z " fill="#FBF5F1" transform="translate(88,124)"/>
<path d="M0 0 C2.5 -0.3125 2.5 -0.3125 5 0 C7 2 7 2 7.375 5.875 C7.29539852 8.99651532 7.08015312 9.88263293 5.25 12.5625 C3 14 3 14 0.8125 13.875 C-1 13 -1 13 -2 11 C-2.35555556 3.53333333 -2.35555556 3.53333333 0 0 Z " fill="#C07D5D" transform="translate(84,126)"/>
<path d="M0 0 C5.09639817 0.01539697 9.9383069 0.25931153 14.9609375 1.1328125 C14.9609375 3.1128125 14.9609375 5.0928125 14.9609375 7.1328125 C9.50323939 7.24419409 4.34584391 7.04939231 -1.0390625 6.1328125 C-1.6990625 4.4828125 -2.3590625 2.8328125 -3.0390625 1.1328125 C-2.0390625 0.1328125 -2.0390625 0.1328125 0 0 Z " fill="#FEFCFB" transform="translate(90.0390625,147.8671875)"/>
<path d="M0 0 C2.375 1.5 2.375 1.5 4 3 C3.625 5.4375 3.625 5.4375 3 8 C-0.1818216 9.5909108 -3.53636204 9.39584434 -7 9 C-9.0625 7.75 -9.0625 7.75 -10 6 C-9.875 3.9375 -9.875 3.9375 -9 2 C-5.51131349 -0.32579101 -4.10281481 -0.41865457 0 0 Z " fill="#E7B689" transform="translate(104,136)"/>
<path d="M0 0 C0.94875 0.04125 1.8975 0.0825 2.875 0.125 C4.11121824 2.59743647 3.85908601 3.89817939 3.5625 6.625 C3.44455078 7.81609375 3.44455078 7.81609375 3.32421875 9.03125 C2.875 11.125 2.875 11.125 0.875 13.125 C-3.68055556 12.56944444 -3.68055556 12.56944444 -5.125 11.125 C-5.29296875 9.12890625 -5.29296875 9.12890625 -5.3125 6.6875 C-5.32667969 5.88441406 -5.34085937 5.08132812 -5.35546875 4.25390625 C-4.95233539 0.53004721 -3.56877574 0.14275103 0 0 Z " fill="#C07B5A" transform="translate(117.125,129.875)"/>
<path d="M0 0 C0.33 0 0.66 0 1 0 C1.309375 1.134375 1.61875 2.26875 1.9375 3.4375 C2.62924531 6.78775099 2.62924531 6.78775099 4 8 C4.14538541 11.11630468 3.86008985 14.00017443 3 17 C-0.58255728 20.26410774 -2.1262474 21 -7 21 C-7 19.68 -7 18.36 -7 17 C-6.37609375 16.57074219 -5.7521875 16.14148438 -5.109375 15.69921875 C-2.00341634 13.1971965 -1.95675292 10.66430341 -1.25 6.8125 C-1.00765625 5.54019531 -0.7653125 4.26789063 -0.515625 2.95703125 C-0.34546875 1.98121094 -0.1753125 1.00539062 0 0 Z " fill="#D9AB82" transform="translate(144,131)"/>
<path d="M0 0 C2.875 0.3125 2.875 0.3125 6 1 C8.5099972 4.76499581 8.61476744 6.54293606 8 11 C4.94950217 14.41365233 3.22488246 15.88658496 -1.375 16.3125 C-2.24125 16.209375 -3.1075 16.10625 -4 16 C-3.360625 15.525625 -2.72125 15.05125 -2.0625 14.5625 C0.81459145 10.98793184 1.04160103 7.51787194 1 3 C0.67 2.01 0.34 1.02 0 0 Z " fill="#FCF8F4" transform="translate(119,129)"/>
<path d="M0 0 C0.33 1.32 0.66 2.64 1 4 C15.85 3.505 15.85 3.505 31 3 C30.505 1.515 30.505 1.515 30 0 C30.99 0 31.98 0 33 0 C33.042721 1.66611905 33.04063832 3.33382885 33 5 C32 6 32 6 28.76538086 6.11352539 C27.33185874 6.11336631 25.89833088 6.10767407 24.46484375 6.09765625 C23.33496788 6.09553383 23.33496788 6.09553383 22.18226624 6.09336853 C19.7673044 6.08775376 17.35243399 6.07519883 14.9375 6.0625 C13.30403779 6.0574869 11.67057414 6.05292366 10.03710938 6.04882812 C6.02470415 6.03777954 2.01236759 6.02050506 -2 6 C-2 4.35 -2 2.7 -2 1 C-1.34 0.67 -0.68 0.34 0 0 Z " fill="#A16C53" transform="translate(100,250)"/>
<path d="M0 0 C0.06058594 0.77085938 0.12117188 1.54171875 0.18359375 2.3359375 C0.26738281 3.33882812 0.35117187 4.34171875 0.4375 5.375 C0.51871094 6.37273437 0.59992187 7.37046875 0.68359375 8.3984375 C0.84965626 10.97927613 0.84965626 10.97927613 2 13 C4.52733235 13.65555119 4.52733235 13.65555119 7 14 C5.68 14.33 4.36 14.66 3 15 C3 15.99 3 16.98 3 18 C0.44609016 17.63515574 -1.0891745 16.94055033 -3.25 15.5 C-5.8404978 11.79928885 -5.68385084 8.3846907 -5 4 C-2.85365854 0 -2.85365854 0 0 0 Z " fill="#DAAA80" transform="translate(60,125)"/>
<path d="M0 0 C2.0625 2.3125 2.0625 2.3125 4 5 C3 8 3 8 1.0390625 9.16796875 C0.24242187 9.50441406 -0.55421875 9.84085938 -1.375 10.1875 C-2.16648437 10.53167969 -2.95796875 10.87585938 -3.7734375 11.23046875 C-6 12 -6 12 -9 12 C-9.33 10.35 -9.66 8.7 -10 7 C-6.79663178 4.16625119 -4.21912747 3.4794463 0 3 C0 2.01 0 1.02 0 0 Z " fill="#D8D7D4" transform="translate(52,187)"/>
<path d="M0 0 C0.33 0.66 0.66 1.32 1 2 C2.65697379 2.69040574 4.3255761 3.3530635 6 4 C7.6829392 4.97236487 9.35443434 5.96564444 11 7 C10.34 8.98 9.68 10.96 9 13 C3.91061189 11.40956621 0.12543357 8.2553049 -4 5 C-2.68 3.35 -1.36 1.7 0 0 Z " fill="#D8D6D3" transform="translate(135,192)"/>
<path d="M0 0 C2.6875 1.875 2.6875 1.875 4 4 C4 4.66 4 5.32 4 6 C-2.6 5.34 -9.2 4.68 -16 4 C-11.11587716 -0.88412284 -6.70635095 -0.74294878 0 0 Z " fill="#EAC39D" transform="translate(175,180)"/>
<path d="M0 0 C0.78375 0.474375 1.5675 0.94875 2.375 1.4375 C-0.56311384 2.41687128 -2.2146412 2.48581469 -5.25 2.375 C-10.28371162 2.30837735 -14.78168901 3.12723229 -19.625 4.4375 C-18.15755132 -0.20942082 -18.15755132 -0.20942082 -15.8515625 -1.73828125 C-10.65531748 -3.66180353 -4.91300428 -2.11767426 0 0 Z " fill="#EAC39F" transform="translate(30.625,173.5625)"/>
<path d="M0 0 C2.31 0.33 4.62 0.66 7 1 C7 6.30479934 5.4637943 7.18982627 2 11 C0.68 10.67 -0.64 10.34 -2 10 C-2 9.34 -2 8.68 -2 8 C-1.01 7.34 -0.02 6.68 1 6 C0.67 4.02 0.34 2.04 0 0 Z " fill="#2E995E" transform="translate(129,187)"/>
<path d="M0 0 C2 2 2 2 2 7 C-1.3 8.32 -4.6 9.64 -8 11 C-8 9.35 -8 7.7 -8 6 C-7.195625 5.731875 -6.39125 5.46375 -5.5625 5.1875 C-4.716875 4.795625 -3.87125 4.40375 -3 4 C-2.67 3.01 -2.34 2.02 -2 1 C-1.34 0.67 -0.68 0.34 0 0 Z " fill="#E7E9E7" transform="translate(50,183)"/>
<path d="M0 0 C0.33 0 0.66 0 1 0 C1 2.97 1 5.94 1 9 C0.01 9.33 -0.98 9.66 -2 10 C-2.28875 10.61875 -2.5775 11.2375 -2.875 11.875 C-4.35958123 14.67920898 -6.23974247 15.54723288 -9 17 C-9 16.01 -9 15.02 -9 14 C-8.21625 13.2575 -7.4325 12.515 -6.625 11.75 C-3.45125811 8.42512754 -2.95052803 6.40699361 -2 2 C-1.34 2 -0.68 2 0 2 C0 1.34 0 0.68 0 0 Z " fill="#48BB7D" transform="translate(61,153)"/>
<path d="M0 0 C2.97 1.98 5.94 3.96 9 6 C8.67 7.32 8.34 8.64 8 10 C4.40608886 8.66511872 1.24509304 7.03977277 -2 5 C-1.125 1.125 -1.125 1.125 0 0 Z " fill="#E9E8E7" transform="translate(138,189)"/>
<path d="M0 0 C5.2278483 0.6474858 7.83996925 4.58836923 11.13671875 8.34375 C12.93494383 10.90725746 13.59391123 12.05926371 13.5625 15.125 C13.376875 16.07375 13.19125 17.0225 13 18 C12.34 17.67 11.68 17.34 11 17 C11.33 15.35 11.66 13.7 12 12 C9.525 11.01 9.525 11.01 7 10 C7 9.34 7 8.68 7 8 C6.01 7.67 5.02 7.34 4 7 C4 6.34 4 5.68 4 5 C3.34 5 2.68 5 2 5 C1.34 3.35 0.68 1.7 0 0 Z " fill="#AB7459" transform="translate(121,238)"/>
<path d="M0 0 C3.23475448 1.61737724 4.70572021 2.47629223 7 5 C6.67 5.99 6.34 6.98 6 8 C5.34 8 4.68 8 4 8 C2.375 5.5 2.375 5.5 1 3 C-0.12894876 3.93274109 -1.25300876 4.87140122 -2.375 5.8125 C-3.00148437 6.33457031 -3.62796875 6.85664063 -4.2734375 7.39453125 C-6.2221048 9.08225739 -6.2221048 9.08225739 -8 12 C-8.99 11.67 -9.98 11.34 -11 11 C-7.37 7.37 -3.74 3.74 0 0 Z " fill="#2AAB67" transform="translate(144,171)"/>
<path d="M0 0 C2.64389311 1.12165162 4.15345436 2.76141376 6.0625 4.875 C5.7325 5.535 5.4025 6.195 5.0625 6.875 C4.7325 6.545 4.4025 6.215 4.0625 5.875 C1.60440002 5.6249227 1.60440002 5.6249227 -0.9375 5.875 C-1.5975 6.535 -2.2575 7.195 -2.9375 7.875 C-3.5975 5.895 -4.2575 3.915 -4.9375 1.875 C-1.9375 -0.125 -1.9375 -0.125 0 0 Z " fill="#25A361" transform="translate(54.9375,179.125)"/>
<path d="M0 0 C3.96 0.33 7.92 0.66 12 1 C11.67 1.99 11.34 2.98 11 4 C4.64102564 5.34516765 4.64102564 5.34516765 1.5625 3.6875 C0 2 0 2 0 0 Z " fill="#B08F70" transform="translate(91,164)"/>
<path d="M0 0 C3.67882073 3.28466137 5.75150101 6.66360908 8 11 C8 11.66 8 12.32 8 13 C7.01 13 6.02 13 5 13 C3.61328125 11.3203125 3.61328125 11.3203125 2.3125 9.125 C1.87550781 8.40570313 1.43851563 7.68640625 0.98828125 6.9453125 C0 5 0 5 0 3 C-0.66 2.67 -1.32 2.34 -2 2 C-1.34 1.34 -0.68 0.68 0 0 Z " fill="#4BAE77" transform="translate(135,160)"/>
<path d="M0 0 C0.33 0 0.66 0 1 0 C1.309375 1.134375 1.61875 2.26875 1.9375 3.4375 C2.62924531 6.78775099 2.62924531 6.78775099 4 8 C4.04080783 9.99958364 4.04254356 12.00045254 4 14 C3.34 13.01 2.68 12.02 2 11 C0.02 11.99 0.02 11.99 -2 13 C-1.34 8.71 -0.68 4.42 0 0 Z " fill="#E2B488" transform="translate(144,131)"/>
<path d="M0 0 C0 3.3 0 6.6 0 10 C-3 9 -3 9 -4.375 6.6875 C-5 4 -5 4 -3.75 1.6875 C-2 0 -2 0 0 0 Z " fill="#E3B486" transform="translate(60,125)"/>
<path d="M0 0 C0.33 1.32 0.66 2.64 1 4 C-4.625 7 -4.625 7 -8 7 C-7.8125 5.1875 -7.8125 5.1875 -7 3 C-2.82142857 0 -2.82142857 0 0 0 Z " fill="#3FAA6E" transform="translate(51,166)"/>
<path d="M0 0 C1.32 0.33 2.64 0.66 4 1 C1.66666667 3.33333333 -0.66666667 5.66666667 -3 8 C-3.99 7.67 -4.98 7.34 -6 7 C-4.02 4.69 -2.04 2.38 0 0 Z " fill="#B77E60" transform="translate(68,238)"/>
<path d="M0 0 C1.875 0.3125 1.875 0.3125 4 1 C6 4 6 4 5.625 6.1875 C5.41875 6.785625 5.2125 7.38375 5 8 C4.67 7.01 4.34 6.02 4 5 C3.34 5 2.68 5 2 5 C1.34 3.35 0.68 1.7 0 0 Z " fill="#B87F60" transform="translate(121,238)"/>
<path d="M0 0 C3.23475448 1.61737724 4.70572021 2.47629223 7 5 C6.67 5.99 6.34 6.98 6 8 C5.34 8 4.68 8 4 8 C2.68 5.36 1.36 2.72 0 0 Z " fill="#46AD72" transform="translate(144,171)"/>
<path d="M0 0 C0.33 0 0.66 0 1 0 C1 2.31 1 4.62 1 7 C-0.32 7.33 -1.64 7.66 -3 8 C-2.67 6.02 -2.34 4.04 -2 2 C-1.34 2 -0.68 2 0 2 C0 1.34 0 0.68 0 0 Z " fill="#1F1F1F" transform="translate(61,153)"/>
</svg>
