<?xml version="1.0" encoding="UTF-8"?>
<svg version="1.1" xmlns="http://www.w3.org/2000/svg" width="192" height="256">
<path d="M0,0 L5,0 L5,3 L6,3 L6,8 L7,8 L7,12 L8,12 L8,16 L9,16 L9,21 L10,21 L10,25 L11,25 L11,29 L12,29 L12,31 L13,31 L13,34 L14,34 L14,37 L15,37 L15,40 L16,40 L16,42 L47,42 L47,41 L48,41 L48,39 L49,39 L49,37 L50,37 L50,25 L51,25 L51,18 L54,18 L54,19 L63,19 L63,20 L73,20 L73,21 L82,21 L82,22 L87,22 L87,27 L86,27 L86,30 L84,30 L84,31 L83,31 L83,32 L82,32 L82,33 L81,33 L81,34 L80,34 L80,35 L79,35 L79,36 L78,36 L78,37 L76,37 L76,38 L75,38 L75,39 L74,39 L74,42 L73,42 L73,46 L72,46 L72,48 L71,48 L71,51 L70,51 L70,53 L69,53 L69,54 L68,54 L68,56 L67,56 L67,57 L66,57 L66,59 L65,59 L65,60 L64,60 L64,61 L63,61 L63,62 L62,62 L62,63 L60,63 L60,64 L59,64 L59,65 L57,65 L57,66 L56,66 L56,68 L57,68 L57,70 L56,70 L56,74 L57,74 L57,76 L58,76 L58,78 L59,78 L59,77 L60,77 L60,76 L61,76 L61,75 L63,75 L63,74 L64,74 L64,73 L66,73 L66,72 L67,72 L67,71 L68,71 L68,70 L70,70 L70,69 L71,69 L71,68 L72,68 L72,67 L74,67 L74,66 L75,66 L75,65 L77,65 L77,64 L78,64 L78,63 L79,63 L79,64 L80,64 L80,66 L81,66 L81,67 L82,67 L82,69 L83,69 L83,72 L84,72 L84,74 L85,74 L85,78 L86,78 L86,83 L87,83 L87,95 L86,95 L86,99 L85,99 L85,103 L84,103 L84,105 L83,105 L83,107 L85,107 L85,108 L86,108 L86,109 L87,109 L87,110 L88,110 L88,111 L89,111 L89,112 L90,112 L90,113 L89,113 L89,114 L88,114 L88,115 L89,115 L89,116 L90,116 L90,117 L91,117 L91,118 L92,118 L92,119 L93,119 L93,120 L94,120 L94,121 L95,121 L95,122 L96,122 L96,124 L97,124 L97,125 L98,125 L98,126 L99,126 L99,128 L100,128 L100,129 L101,129 L101,130 L103,130 L103,131 L104,131 L104,133 L105,133 L105,134 L106,134 L106,136 L107,136 L107,138 L108,138 L108,140 L109,140 L109,142 L110,142 L110,144 L111,144 L111,147 L112,147 L112,152 L113,152 L113,156 L112,156 L112,160 L111,160 L111,162 L110,162 L110,163 L109,163 L109,164 L108,164 L108,165 L107,165 L107,166 L106,166 L106,167 L104,167 L104,168 L101,168 L101,169 L99,169 L99,170 L97,170 L97,171 L95,171 L95,172 L89,172 L89,171 L88,171 L88,170 L87,170 L87,168 L86,168 L86,166 L85,166 L85,165 L84,165 L84,164 L82,164 L82,163 L80,163 L80,162 L79,162 L79,161 L78,161 L78,160 L77,160 L77,156 L76,156 L76,153 L77,153 L77,147 L78,147 L78,144 L79,144 L79,141 L78,141 L78,140 L77,140 L77,138 L76,138 L76,137 L75,137 L75,136 L74,136 L74,135 L72,135 L72,136 L70,136 L70,135 L69,135 L69,134 L67,134 L67,133 L66,133 L66,132 L64,132 L64,134 L63,134 L63,137 L62,137 L62,140 L63,140 L63,141 L64,141 L64,142 L65,142 L65,144 L66,144 L66,146 L67,146 L67,149 L68,149 L68,156 L67,156 L67,159 L66,159 L66,161 L65,161 L65,162 L64,162 L64,164 L63,164 L63,165 L62,165 L62,166 L60,166 L60,167 L58,167 L58,168 L56,168 L56,169 L46,169 L46,171 L45,171 L45,172 L44,172 L44,173 L43,173 L43,174 L42,174 L42,175 L40,175 L40,176 L30,176 L30,175 L26,175 L26,174 L22,174 L22,173 L19,173 L19,172 L15,172 L15,171 L11,171 L11,170 L8,170 L8,169 L4,169 L4,168 L0,168 L0,167 L-3,167 L-3,166 L-7,166 L-7,165 L-11,165 L-11,164 L-14,164 L-14,163 L-18,163 L-18,162 L-22,162 L-22,161 L-25,161 L-25,160 L-26,160 L-26,154 L-25,154 L-25,149 L-27,149 L-27,148 L-29,148 L-29,147 L-31,147 L-31,146 L-32,146 L-32,145 L-33,145 L-33,143 L-34,143 L-34,142 L-35,142 L-35,140 L-36,140 L-36,137 L-37,137 L-37,134 L-38,134 L-38,135 L-39,135 L-39,136 L-40,136 L-40,148 L-41,148 L-41,152 L-42,152 L-42,153 L-43,153 L-43,155 L-45,155 L-45,156 L-50,156 L-50,157 L-51,157 L-51,158 L-52,158 L-52,159 L-54,159 L-54,160 L-55,160 L-55,161 L-56,161 L-56,162 L-57,162 L-57,163 L-61,163 L-61,162 L-62,162 L-62,161 L-63,161 L-63,160 L-65,160 L-65,159 L-66,159 L-66,158 L-67,158 L-67,157 L-68,157 L-68,156 L-70,156 L-70,155 L-71,155 L-71,154 L-72,154 L-72,153 L-73,153 L-73,152 L-74,152 L-74,151 L-75,151 L-75,148 L-76,148 L-76,139 L-75,139 L-75,136 L-74,136 L-74,134 L-73,134 L-73,133 L-72,133 L-72,131 L-71,131 L-71,130 L-70,130 L-70,128 L-69,128 L-69,127 L-68,127 L-68,126 L-67,126 L-67,125 L-66,125 L-66,124 L-65,124 L-65,123 L-64,123 L-64,122 L-63,122 L-63,121 L-62,121 L-62,120 L-61,120 L-61,119 L-58,119 L-58,118 L-56,118 L-56,117 L-55,117 L-55,116 L-54,116 L-54,115 L-53,115 L-53,114 L-51,114 L-51,113 L-50,113 L-50,112 L-48,112 L-48,111 L-47,111 L-47,110 L-45,110 L-45,109 L-43,109 L-43,106 L-44,106 L-44,105 L-42,105 L-42,104 L-40,104 L-40,103 L-38,103 L-38,102 L-35,102 L-35,104 L-34,104 L-34,105 L-33,105 L-33,104 L-29,104 L-29,103 L-24,103 L-24,102 L-20,102 L-20,101 L-21,101 L-21,98 L-22,98 L-22,95 L-23,95 L-23,92 L-24,92 L-24,89 L-25,89 L-25,87 L-26,87 L-26,84 L-27,84 L-27,82 L-25,82 L-25,81 L-23,81 L-23,80 L-21,80 L-21,79 L-19,79 L-19,78 L-16,78 L-16,77 L-13,77 L-13,70 L-14,70 L-14,68 L-13,68 L-13,67 L-11,67 L-11,65 L-10,65 L-10,44 L-11,44 L-11,40 L-12,40 L-12,35 L-13,35 L-13,31 L-14,31 L-14,27 L-15,27 L-15,24 L-16,24 L-16,23 L-18,23 L-18,22 L-19,22 L-19,21 L-21,21 L-21,20 L-22,20 L-22,19 L-24,19 L-24,18 L-26,18 L-26,17 L-27,17 L-27,16 L-29,16 L-29,14 L-30,14 L-30,10 L-31,10 L-31,9 L-30,9 L-30,8 L-26,8 L-26,7 L-22,7 L-22,6 L-19,6 L-19,5 L-15,5 L-15,4 L-11,4 L-11,3 L-7,3 L-7,2 L-4,2 L-4,1 L0,1 Z " fill="#C37C58" transform="translate(77,39)"/>
<path d="M0,0 L2,0 L2,1 L4,1 L4,2 L5,2 L5,3 L7,3 L7,4 L8,4 L8,5 L10,5 L10,6 L12,6 L12,7 L14,7 L14,8 L16,8 L16,9 L18,9 L18,10 L21,10 L21,11 L26,11 L26,12 L31,12 L31,13 L34,13 L34,14 L52,14 L52,13 L59,13 L59,14 L61,14 L61,15 L64,15 L64,16 L66,16 L66,17 L68,17 L68,20 L67,20 L67,22 L66,22 L66,24 L65,24 L65,27 L64,27 L64,29 L63,29 L63,32 L62,32 L62,35 L61,35 L61,37 L60,37 L60,40 L59,40 L59,42 L58,42 L58,45 L57,45 L57,47 L56,47 L56,52 L57,52 L57,53 L58,53 L58,54 L64,54 L64,53 L65,53 L65,51 L66,51 L66,49 L67,49 L67,46 L68,46 L68,44 L69,44 L69,41 L70,41 L70,39 L71,39 L71,36 L72,36 L72,35 L73,35 L73,36 L74,36 L74,37 L75,37 L75,38 L76,38 L76,40 L77,40 L77,42 L78,42 L78,45 L79,45 L79,52 L78,52 L78,55 L77,55 L77,57 L76,57 L76,58 L75,58 L75,60 L74,60 L74,61 L73,61 L73,62 L71,62 L71,63 L69,63 L69,64 L67,64 L67,65 L57,65 L57,67 L56,67 L56,68 L55,68 L55,69 L54,69 L54,70 L53,70 L53,71 L51,71 L51,72 L41,72 L41,71 L37,71 L37,70 L33,70 L33,69 L30,69 L30,68 L26,68 L26,67 L22,67 L22,66 L19,66 L19,65 L15,65 L15,64 L11,64 L11,63 L8,63 L8,62 L4,62 L4,61 L0,61 L0,60 L-3,60 L-3,59 L-7,59 L-7,58 L-11,58 L-11,57 L-14,57 L-14,56 L-15,56 L-15,50 L-14,50 L-14,45 L-16,45 L-16,44 L-18,44 L-18,43 L-20,43 L-20,42 L-21,42 L-21,41 L-22,41 L-22,39 L-23,39 L-23,38 L-24,38 L-24,36 L-25,36 L-25,33 L-26,33 L-26,30 L-27,30 L-27,31 L-28,31 L-28,32 L-29,32 L-29,44 L-30,44 L-30,48 L-31,48 L-31,49 L-32,49 L-32,51 L-34,51 L-34,52 L-39,52 L-39,53 L-40,53 L-40,54 L-41,54 L-41,55 L-43,55 L-43,56 L-44,56 L-44,57 L-45,57 L-45,58 L-46,58 L-46,59 L-50,59 L-50,58 L-51,58 L-51,57 L-52,57 L-52,56 L-54,56 L-54,55 L-55,55 L-55,54 L-56,54 L-56,53 L-57,53 L-57,52 L-59,52 L-59,51 L-60,51 L-60,50 L-61,50 L-61,49 L-62,49 L-62,48 L-63,48 L-63,47 L-64,47 L-64,44 L-65,44 L-65,35 L-64,35 L-64,32 L-63,32 L-63,30 L-62,30 L-62,29 L-61,29 L-61,27 L-60,27 L-60,26 L-59,26 L-59,24 L-58,24 L-58,23 L-57,23 L-57,22 L-56,22 L-56,21 L-55,21 L-55,20 L-54,20 L-54,19 L-53,19 L-53,18 L-52,18 L-52,17 L-51,17 L-51,16 L-50,16 L-50,15 L-47,15 L-47,14 L-45,14 L-45,13 L-44,13 L-44,12 L-43,12 L-43,11 L-42,11 L-42,10 L-40,10 L-40,9 L-39,9 L-39,8 L-37,8 L-37,7 L-36,7 L-36,6 L-34,6 L-34,5 L-32,5 L-32,4 L-31,4 L-31,6 L-30,6 L-30,8 L-29,8 L-29,10 L-28,10 L-28,12 L-27,12 L-27,15 L-26,15 L-26,17 L-25,17 L-25,18 L-24,18 L-24,21 L-23,21 L-23,20 L-22,20 L-22,19 L-21,19 L-21,18 L-20,18 L-20,17 L-19,17 L-19,16 L-18,16 L-18,15 L-16,15 L-16,14 L-14,14 L-14,13 L-11,13 L-11,16 L-12,16 L-12,21 L-13,21 L-13,26 L-14,26 L-14,33 L-13,33 L-13,34 L-12,34 L-12,35 L-11,35 L-11,36 L-7,36 L-7,35 L-5,35 L-5,33 L-4,33 L-4,29 L-3,29 L-3,22 L-2,22 L-2,17 L-1,17 L-1,8 L0,8 Z " fill="#F8D2AE" transform="translate(66,143)"/>
<path d="M0,0 L2,0 L2,1 L3,1 L3,2 L4,2 L4,3 L5,3 L5,4 L6,4 L6,5 L7,5 L7,6 L8,6 L8,7 L9,7 L9,9 L10,9 L10,10 L11,10 L11,11 L12,11 L12,13 L13,13 L13,14 L14,14 L14,15 L16,15 L16,16 L17,16 L17,18 L18,18 L18,19 L19,19 L19,21 L20,21 L20,23 L21,23 L21,25 L22,25 L22,27 L23,27 L23,29 L24,29 L24,32 L25,32 L25,37 L26,37 L26,41 L25,41 L25,45 L24,45 L24,47 L23,47 L23,48 L22,48 L22,49 L21,49 L21,50 L20,50 L20,51 L19,51 L19,52 L17,52 L17,53 L14,53 L14,54 L12,54 L12,55 L10,55 L10,56 L8,56 L8,57 L2,57 L2,56 L1,56 L1,55 L0,55 L0,53 L-1,53 L-1,51 L-2,51 L-2,50 L-3,50 L-3,49 L-5,49 L-5,48 L-7,48 L-7,47 L-8,47 L-8,46 L-9,46 L-9,45 L-10,45 L-10,41 L-11,41 L-11,38 L-10,38 L-10,32 L-9,32 L-9,29 L-8,29 L-8,26 L-9,26 L-9,25 L-10,25 L-10,23 L-11,23 L-11,22 L-12,22 L-12,21 L-13,21 L-13,20 L-14,20 L-14,17 L-13,17 L-13,16 L-12,16 L-12,15 L-11,15 L-11,14 L-10,14 L-10,12 L-9,12 L-9,11 L-8,11 L-8,10 L-7,10 L-7,9 L-6,9 L-6,7 L-5,7 L-5,6 L-4,6 L-4,5 L-3,5 L-3,4 L-2,4 L-2,2 L-1,2 L-1,1 L0,1 Z " fill="#F8D1AD" transform="translate(164,154)"/>
<path d="M0,0 L1,0 L1,1 L2,1 L2,2 L3,2 L3,3 L4,3 L4,5 L5,5 L5,7 L6,7 L6,10 L7,10 L7,17 L6,17 L6,20 L5,20 L5,22 L4,22 L4,23 L3,23 L3,25 L2,25 L2,26 L1,26 L1,27 L-1,27 L-1,28 L-3,28 L-3,29 L-5,29 L-5,30 L-15,30 L-15,32 L-16,32 L-16,33 L-17,33 L-17,34 L-18,34 L-18,35 L-19,35 L-19,36 L-21,36 L-21,37 L-31,37 L-31,36 L-35,36 L-35,35 L-39,35 L-39,34 L-42,34 L-42,33 L-46,33 L-46,32 L-50,32 L-50,31 L-53,31 L-53,30 L-57,30 L-57,29 L-61,29 L-61,28 L-64,28 L-64,27 L-68,27 L-68,26 L-72,26 L-72,25 L-75,25 L-75,24 L-79,24 L-79,23 L-83,23 L-83,22 L-86,22 L-86,21 L-87,21 L-87,15 L-86,15 L-86,13 L-85,13 L-85,15 L-80,15 L-80,16 L-79,16 L-79,17 L-74,17 L-74,18 L-72,18 L-72,19 L-64,19 L-64,20 L-60,20 L-60,21 L-56,21 L-56,17 L-55,17 L-55,16 L-54,16 L-54,15 L-47,15 L-47,16 L-46,16 L-46,22 L-47,22 L-47,23 L-48,23 L-48,24 L-53,24 L-53,25 L-51,25 L-51,26 L-47,26 L-47,27 L-43,27 L-43,28 L-40,28 L-40,29 L-36,29 L-36,30 L-31,30 L-31,31 L-30,31 L-30,30 L-29,30 L-29,31 L-28,31 L-28,30 L-27,30 L-27,31 L-26,31 L-26,30 L-25,30 L-25,31 L-24,31 L-24,30 L-20,30 L-20,29 L-18,29 L-18,28 L-16,28 L-16,27 L-14,27 L-14,26 L-12,26 L-12,25 L-10,25 L-10,24 L-11,24 L-11,23 L-12,23 L-12,22 L-11,22 L-11,20 L-12,20 L-12,19 L-8,19 L-8,18 L-7,18 L-7,16 L-6,16 L-6,14 L-5,14 L-5,11 L-4,11 L-4,9 L-3,9 L-3,6 L-2,6 L-2,4 L-1,4 L-1,1 L0,1 Z " fill="#D7B697" transform="translate(138,178)"/>
<path d="M0,0 L2,0 L2,2 L3,2 L3,4 L4,4 L4,7 L5,7 L5,10 L6,10 L6,13 L7,13 L7,15 L39,15 L39,16 L40,16 L40,17 L42,17 L42,18 L45,18 L45,19 L47,19 L47,20 L49,20 L49,21 L50,21 L50,22 L49,22 L49,23 L48,23 L48,24 L47,24 L47,25 L46,25 L46,26 L45,26 L45,27 L44,27 L44,29 L43,29 L43,31 L42,31 L42,25 L-13,25 L-13,11 L-14,11 L-14,10 L-13,10 L-13,9 L-14,9 L-14,5 L-13,5 L-13,4 L-12,4 L-12,3 L-8,3 L-8,2 L-4,2 L-4,1 L0,1 Z " fill="#ECA060" transform="translate(86,66)"/>
<path d="M0,0 L60,0 L60,1 L61,1 L61,4 L56,4 L56,8 L55,8 L55,11 L54,11 L54,17 L53,17 L53,20 L50,20 L50,19 L49,19 L49,18 L47,18 L47,17 L45,17 L45,16 L43,16 L43,15 L40,15 L40,14 L38,14 L38,13 L33,13 L33,12 L28,12 L28,11 L12,11 L12,12 L8,12 L8,8 L7,8 L7,4 L2,4 L2,5 L-1,5 L-1,3 L0,3 Z " fill="#3BAB6E" transform="translate(67,101)"/>
<path d="M0,0 L1,0 L1,2 L2,2 L2,4 L3,4 L3,6 L4,6 L4,8 L5,8 L5,11 L6,11 L6,13 L7,13 L7,14 L8,14 L8,19 L7,19 L7,22 L5,22 L5,21 L4,21 L4,20 L2,20 L2,19 L-1,19 L-1,21 L-2,21 L-2,23 L-3,23 L-3,27 L-4,27 L-4,30 L-5,30 L-5,33 L-7,33 L-7,35 L-10,35 L-10,36 L-12,36 L-12,37 L-15,37 L-15,39 L-16,39 L-16,38 L-17,38 L-17,36 L-19,36 L-19,35 L-23,35 L-23,31 L-24,31 L-24,29 L-26,29 L-26,22 L-25,22 L-25,20 L-24,20 L-24,19 L-23,19 L-23,18 L-22,18 L-22,17 L-21,17 L-21,16 L-19,16 L-19,15 L-17,15 L-17,14 L-16,14 L-16,13 L-15,13 L-15,12 L-14,12 L-14,10 L-13,10 L-13,9 L-12,9 L-12,8 L-11,8 L-11,7 L-10,7 L-10,6 L-8,6 L-8,5 L-7,5 L-7,4 L-5,4 L-5,3 L-4,3 L-4,2 L-2,2 L-2,1 L0,1 Z " fill="#FDD5B0" transform="translate(34,147)"/>
<path d="M0,0 L60,0 L60,9 L0,9 Z " fill="#BC7757" transform="translate(67,92)"/>
<path d="M0,0 L1,0 L1,9 L3,9 L3,12 L4,12 L4,13 L5,13 L5,14 L6,14 L6,15 L7,15 L7,16 L9,16 L9,17 L10,17 L10,19 L15,19 L15,18 L16,18 L16,19 L17,19 L17,18 L20,18 L20,17 L23,17 L23,16 L24,16 L24,15 L26,15 L26,14 L27,14 L27,13 L28,13 L28,12 L29,12 L29,10 L34,10 L34,14 L33,14 L33,18 L32,18 L32,20 L31,20 L31,21 L30,21 L30,22 L29,22 L29,23 L28,23 L28,24 L27,24 L27,25 L25,25 L25,26 L22,26 L22,27 L20,27 L20,28 L18,28 L18,29 L16,29 L16,30 L10,30 L10,29 L9,29 L9,28 L8,28 L8,26 L7,26 L7,24 L6,24 L6,23 L5,23 L5,22 L3,22 L3,21 L1,21 L1,20 L0,20 L0,19 L-1,19 L-1,18 L-2,18 L-2,14 L-3,14 L-3,11 L-2,11 L-2,5 L-1,5 L-1,2 L0,2 Z " fill="#DAB898" transform="translate(156,181)"/>
<path d="M0,0 L3,0 L3,1 L2,1 L2,13 L1,13 L1,17 L0,17 L0,18 L-1,18 L-1,20 L-3,20 L-3,21 L-8,21 L-8,22 L-9,22 L-9,23 L-10,23 L-10,24 L-12,24 L-12,25 L-13,25 L-13,26 L-14,26 L-14,27 L-15,27 L-15,28 L-19,28 L-19,27 L-20,27 L-20,26 L-21,26 L-21,25 L-23,25 L-23,24 L-24,24 L-24,23 L-25,23 L-25,22 L-26,22 L-26,21 L-28,21 L-28,20 L-29,20 L-29,19 L-30,19 L-30,18 L-31,18 L-31,17 L-32,17 L-32,16 L-33,16 L-33,13 L-34,13 L-34,7 L-32,7 L-32,6 L-31,6 L-31,7 L-30,7 L-30,8 L-29,8 L-29,9 L-28,9 L-28,10 L-27,10 L-27,11 L-26,11 L-26,12 L-25,12 L-25,13 L-24,13 L-24,14 L-22,14 L-22,15 L-20,15 L-20,16 L-14,16 L-14,15 L-11,15 L-11,14 L-10,14 L-10,13 L-8,13 L-8,12 L-6,12 L-6,11 L-4,11 L-4,10 L-3,10 L-3,8 L-2,8 L-2,5 L0,5 L0,2 L-1,2 L-1,1 L0,1 Z " fill="#DAB897" transform="translate(35,174)"/>
<path d="M0,0 L3,0 L3,2 L4,2 L4,3 L5,3 L5,2 L9,2 L9,1 L14,1 L14,0 L18,0 L18,3 L17,3 L17,8 L16,8 L16,15 L13,15 L13,16 L11,16 L11,17 L9,17 L9,18 L8,18 L8,19 L7,19 L7,20 L6,20 L6,21 L5,21 L5,22 L4,22 L4,23 L3,23 L3,20 L2,20 L2,19 L1,19 L1,17 L0,17 L0,14 L-1,14 L-1,12 L-2,12 L-2,10 L-3,10 L-3,8 L-4,8 L-4,6 L-5,6 L-5,4 L-6,4 L-6,3 L-4,3 L-4,2 L-2,2 L-2,1 L0,1 Z " fill="#2EAA68" transform="translate(39,141)"/>
<path d="M0,0 L1,0 L1,5 L2,5 L2,9 L3,9 L3,11 L1,11 L1,12 L-3,12 L-3,13 L-7,13 L-7,14 L-11,14 L-11,15 L-14,15 L-14,16 L-17,16 L-17,17 L-21,17 L-21,15 L-22,15 L-22,11 L-23,11 L-23,8 L-24,8 L-24,7 L-19,7 L-19,6 L-15,6 L-15,5 L-12,5 L-12,4 L-8,4 L-8,3 L-4,3 L-4,2 L0,2 Z " fill="#CF874A" transform="translate(85,55)"/>
<path d="M0,0 L3,0 L3,1 L4,1 L4,2 L5,2 L5,3 L6,3 L6,4 L7,4 L7,5 L8,5 L8,6 L7,6 L7,7 L6,7 L6,8 L5,8 L5,9 L4,9 L4,10 L3,10 L3,12 L2,12 L2,13 L1,13 L1,14 L0,14 L0,15 L-1,15 L-1,17 L-2,17 L-2,18 L-3,18 L-3,19 L-4,19 L-4,20 L-5,20 L-5,22 L-6,22 L-6,23 L-7,23 L-7,24 L-8,24 L-8,25 L-9,25 L-9,28 L-10,28 L-10,29 L-12,29 L-12,28 L-13,28 L-13,27 L-15,27 L-15,26 L-16,26 L-16,25 L-17,25 L-17,22 L-16,22 L-16,21 L-15,21 L-15,20 L-14,20 L-14,19 L-13,19 L-13,18 L-12,18 L-12,17 L-11,17 L-11,16 L-10,16 L-10,15 L-9,15 L-9,13 L-8,13 L-8,12 L-7,12 L-7,11 L-6,11 L-6,10 L-5,10 L-5,8 L-4,8 L-4,7 L-3,7 L-3,5 L-2,5 L-2,3 L-1,3 L-1,2 L0,2 Z " fill="#2EA363" transform="translate(159,146)"/>
<path d="M0,0 L2,0 L2,1 L3,1 L3,2 L4,2 L4,3 L5,3 L5,4 L6,4 L6,5 L7,5 L7,6 L8,6 L8,7 L9,7 L9,9 L10,9 L10,10 L11,10 L11,11 L10,11 L10,12 L8,12 L8,13 L5,13 L5,14 L3,14 L3,15 L0,15 L0,16 L-3,16 L-3,17 L-5,17 L-5,18 L-7,18 L-7,19 L-10,19 L-10,20 L-14,20 L-14,17 L-13,17 L-13,16 L-12,16 L-12,15 L-11,15 L-11,14 L-10,14 L-10,12 L-9,12 L-9,11 L-8,11 L-8,10 L-7,10 L-7,9 L-6,9 L-6,7 L-5,7 L-5,6 L-4,6 L-4,5 L-3,5 L-3,4 L-2,4 L-2,2 L-1,2 L-1,1 L0,1 Z " fill="#FBFAF9" transform="translate(164,154)"/>
<path d="M0,0 L1,0 L1,2 L4,2 L4,1 L5,1 L5,3 L6,3 L6,5 L5,5 L5,9 L6,9 L6,11 L7,11 L7,13 L6,13 L6,14 L5,14 L5,15 L4,15 L4,16 L3,16 L3,17 L2,17 L2,18 L0,18 L0,19 L-1,19 L-1,20 L-3,20 L-3,21 L-5,21 L-5,20 L-7,20 L-7,19 L-8,19 L-8,18 L-10,18 L-10,17 L-8,17 L-8,14 L-7,14 L-7,8 L-6,8 L-6,5 L-5,5 L-5,1 L0,1 Z " fill="#AB6E50" transform="translate(128,104)"/>
<path d="M0,0 L1,0 L1,2 L2,2 L2,4 L3,4 L3,6 L4,6 L4,8 L5,8 L5,11 L6,11 L6,13 L7,13 L7,14 L8,14 L8,19 L7,19 L7,22 L5,22 L5,21 L4,21 L4,20 L2,20 L2,19 L1,19 L1,18 L0,18 L0,17 L-2,17 L-2,16 L-3,16 L-3,15 L-4,15 L-4,14 L-6,14 L-6,13 L-7,13 L-7,12 L-8,12 L-8,11 L-10,11 L-10,10 L-11,10 L-11,9 L-12,9 L-12,8 L-11,8 L-11,7 L-10,7 L-10,6 L-8,6 L-8,5 L-7,5 L-7,4 L-5,4 L-5,3 L-4,3 L-4,2 L-2,2 L-2,1 L0,1 Z " fill="#FAF9F8" transform="translate(34,147)"/>
<path d="M0,0 L2,0 L2,1 L1,1 L1,6 L0,6 L0,13 L1,13 L1,14 L2,14 L2,18 L-1,18 L-1,17 L-3,17 L-3,18 L-2,18 L-2,24 L-4,24 L-4,23 L-6,23 L-6,22 L-7,22 L-7,21 L-8,21 L-8,19 L-9,19 L-9,18 L-10,18 L-10,16 L-11,16 L-11,13 L-12,13 L-12,10 L-11,10 L-11,12 L-10,12 L-10,11 L-8,11 L-8,12 L-5,12 L-5,6 L-4,6 L-4,4 L-3,4 L-3,3 L-2,3 L-2,2 L-1,2 L-1,1 L0,1 Z " fill="#DFB690" transform="translate(52,163)"/>
<path d="M0,0 L4,0 L4,3 L3,3 L3,8 L2,8 L2,15 L-1,15 L-1,16 L-3,16 L-3,17 L-4,17 L-4,16 L-5,16 L-5,14 L-6,14 L-6,12 L-7,12 L-7,10 L-8,10 L-8,7 L-9,7 L-9,6 L-10,6 L-10,3 L-9,3 L-9,2 L-5,2 L-5,1 L0,1 Z " fill="#40BD7B" transform="translate(53,141)"/>
<path d="M0,0 L3,0 L3,1 L5,1 L5,2 L8,2 L8,3 L10,3 L10,4 L12,4 L12,5 L15,5 L15,6 L17,6 L17,7 L18,7 L18,9 L17,9 L17,11 L16,11 L16,13 L13,13 L13,12 L10,12 L10,11 L8,11 L8,10 L6,10 L6,9 L3,9 L3,8 L1,8 L1,7 L-1,7 L-1,3 L0,3 Z " fill="#C17C5B" transform="translate(108,158)"/>
<path d="M0,0 L19,0 L19,7 L0,7 Z " fill="#C27E5C" transform="translate(71,157)"/>
<path d="M0,0 L1,0 L1,1 L2,1 L2,2 L3,2 L3,3 L4,3 L4,5 L5,5 L5,7 L6,7 L6,10 L7,10 L7,16 L4,16 L4,17 L2,17 L2,18 L1,18 L1,19 L0,19 L0,21 L-2,21 L-2,22 L-3,22 L-3,20 L-2,20 L-2,19 L-1,19 L-1,16 L0,16 L0,10 L-1,10 L-1,8 L-2,8 L-2,4 L-1,4 L-1,1 L0,1 Z " fill="#EBC7A4" transform="translate(138,178)"/>
<path d="M0,0 L5,0 L5,1 L6,1 L6,5 L7,5 L7,6 L6,6 L6,10 L5,10 L5,12 L4,12 L4,13 L2,13 L2,14 L-1,14 L-1,13 L-2,13 L-2,12 L-3,12 L-3,4 L-2,4 L-2,2 L-1,2 L-1,1 L0,1 Z " fill="#C27F5F" transform="translate(77,168)"/>
<path d="M0,0 L7,0 L7,1 L8,1 L8,2 L9,2 L9,3 L10,3 L10,5 L11,5 L11,7 L10,7 L10,8 L9,8 L9,9 L8,9 L8,10 L2,10 L2,9 L0,9 L0,8 L-1,8 L-1,7 L-2,7 L-2,5 L-3,5 L-3,3 L-2,3 L-2,1 L0,1 Z " fill="#E8B78A" transform="translate(88,180)"/>
<path d="M0,0 L5,0 L5,1 L6,1 L6,3 L7,3 L7,8 L6,8 L6,10 L5,10 L5,11 L4,11 L4,12 L3,12 L3,13 L-2,13 L-2,11 L-3,11 L-3,4 L-2,4 L-2,2 L-1,2 L-1,1 L0,1 Z " fill="#C17E5E" transform="translate(106,176)"/>
<path d="M0,0 L7,0 L7,1 L9,1 L9,2 L10,2 L10,3 L11,3 L11,5 L12,5 L12,11 L11,11 L11,13 L10,13 L10,14 L9,14 L9,15 L8,15 L8,16 L6,16 L6,17 L0,17 L0,16 L-1,16 L-1,15 L2,15 L2,14 L3,14 L3,13 L4,13 L4,12 L5,12 L5,11 L6,11 L6,9 L7,9 L7,4 L6,4 L6,2 L5,2 L5,1 L0,1 Z " fill="#FDFBF9" transform="translate(106,175)"/>
<path d="M0,0 L5,0 L5,4 L6,4 L6,8 L2,8 L2,9 L-1,9 L-1,10 L-3,10 L-3,11 L-5,11 L-5,4 L-6,4 L-6,2 L-5,2 L-5,1 L0,1 Z " fill="#B37E5B" transform="translate(69,105)"/>
<path d="M0,0 L1,0 L1,2 L2,2 L2,4 L3,4 L3,10 L2,10 L2,13 L1,13 L1,14 L0,14 L0,15 L-1,15 L-1,16 L-3,16 L-3,17 L-9,17 L-9,16 L-8,16 L-8,14 L-9,14 L-9,13 L-5,13 L-5,12 L-4,12 L-4,10 L-3,10 L-3,8 L-2,8 L-2,5 L-1,5 L-1,3 L0,3 Z " fill="#D8A97E" transform="translate(135,184)"/>
<path d="M0,0 L7,0 L7,1 L8,1 L8,7 L7,7 L7,8 L6,8 L6,9 L1,9 L1,8 L0,8 L0,7 L-1,7 L-1,6 L-2,6 L-2,2 L-1,2 L-1,1 L0,1 Z " fill="#B77657" transform="translate(84,193)"/>
<path d="M0,0 L1,0 L1,2 L4,2 L4,1 L5,1 L5,3 L6,3 L6,5 L4,5 L4,3 L3,3 L3,10 L2,10 L2,12 L1,12 L1,4 L0,4 L0,5 L-1,5 L-1,4 L-2,4 L-2,3 L-5,3 L-5,1 L0,1 Z " fill="#B27B59" transform="translate(128,104)"/>
<path d="M0,0 L1,0 L1,2 L0,2 L0,5 L1,5 L1,7 L3,7 L3,8 L1,8 L1,9 L-2,9 L-2,10 L-6,10 L-6,7 L-5,7 L-5,6 L-4,6 L-4,5 L-3,5 L-3,4 L-2,4 L-2,2 L-1,2 L-1,1 L0,1 Z " fill="#ECEDEA" transform="translate(156,164)"/>
<path d="M0,0 L1,0 L1,2 L2,2 L2,6 L3,6 L3,8 L4,8 L4,10 L3,10 L3,11 L2,11 L2,12 L1,12 L1,13 L0,13 L0,14 L-1,14 L-1,7 L0,7 Z " fill="#6E664D" transform="translate(131,107)"/>
<path d="M0,0 L1,0 L1,1 L2,1 L2,2 L3,2 L3,4 L2,4 L2,5 L-2,5 L-2,2 L-1,2 L-1,1 L0,1 Z " fill="#DCE0DE" transform="translate(152,169)"/>
</svg>
