<?xml version="1.0" encoding="UTF-8"?>
<svg version="1.1" xmlns="http://www.w3.org/2000/svg" width="192" height="256">
<path d="M0 0 C0.63164062 0.45117188 1.26328125 0.90234375 1.9140625 1.3671875 C9.90431599 7.59747326 16.10132307 17.02608598 18 27 C18.20127931 31.00688334 18.14483848 35.0055662 17.94116211 39.01147461 C17.73201735 44.24555425 18.54946372 48.08723818 20.37036133 52.98681641 C21.2149267 55.68719875 21.00408557 57.65270777 20.3125 60.375 C20.12300781 61.18710938 19.93351563 61.99921875 19.73828125 62.8359375 C19 65 19 65 17 68 C17.27332518 71.96321518 19.73446421 74.86822994 22 78 C22.598125 78.515625 23.19625 79.03125 23.8125 79.5625 C25 81 25 81 24.8125 83.625 C24 86 24 86 22 87 C19.91854396 87.09774794 17.83374453 87.12975741 15.75 87.125 C14.63109375 87.12757813 13.5121875 87.13015625 12.359375 87.1328125 C9.15392456 87.00608539 6.14755311 86.6008965 3 86 C4.07686178 94.21107107 7.35720633 99.92863972 13 106 C15.3951239 107.59514288 17.18504833 108.18799471 20 109 C20.99 109.680625 20.99 109.680625 22 110.375 C24.84257691 111.26330528 26.36415312 109.9922486 28.9296875 108.75390625 C32.76113933 107.35867945 37.02471452 107.11737543 41 108 C44 111.17608696 44 111.17608696 44 114 C45.11375 114.185625 45.11375 114.185625 46.25 114.375 C48.80141485 114.95486701 50.7267573 115.73708739 53 117 C53.40774783 124.3394609 52.68380275 131.66557841 47.9375 137.5625 C43.81436485 140.62160027 39.97102348 140.70733931 35 140 C30.21798755 138.59818075 25.61329635 136.68051799 21.00048828 134.80810547 C14.29952296 132.06141298 14.29952296 132.06141298 7.25 130.5 C3.89558082 129.98393551 2.46031155 129.26348663 0 127 C0.33 125.68 0.66 124.36 1 123 C0.443125 122.79375 -0.11375 122.5875 -0.6875 122.375 C-2.94696811 121.03153247 -3.9998656 119.94842298 -5.625 117.9375 C-7.67119397 114.99175287 -7.67119397 114.99175287 -10 114 C-10.22142255 115.95689659 -10.4267568 117.91561952 -10.625 119.875 C-10.79902344 121.51082031 -10.79902344 121.51082031 -10.9765625 123.1796875 C-10.98429687 124.11039063 -10.99203125 125.04109375 -11 126 C-10.34 126.66 -9.68 127.32 -9 128 C-8.86474609 130.1003418 -8.86474609 130.1003418 -9.0234375 132.69921875 C-9.07540283 133.65449463 -9.12736816 134.60977051 -9.1809082 135.59399414 C-9.2449585 136.61485107 -9.30900879 137.63570801 -9.375 138.6875 C-9.48232928 140.78375973 -9.58779568 142.88011567 -9.69140625 144.9765625 C-9.77092529 146.51812012 -9.77092529 146.51812012 -9.85205078 148.09082031 C-10.04658706 151.91605836 -10.2169586 155.73320086 -10.3125 159.5625 C-10.36857422 161.23505859 -10.36857422 161.23505859 -10.42578125 162.94140625 C-9.88278797 166.84199097 -8.44637149 168.94969423 -6 172 C-4.9275 172.66 -3.855 173.32 -2.75 174 C-1.8425 174.66 -0.935 175.32 0 176 C0 177.98 0 179.96 0 182 C-9.9 182 -19.8 182 -30 182 C-30.33 170.12 -30.66 158.24 -31 146 C-35.62 146 -40.24 146 -45 146 C-45.33 157.88 -45.66 169.76 -46 182 C-55.9 182 -65.8 182 -76 182 C-76 176 -76 176 -74.3203125 174.2421875 C-73.59585938 173.79101562 -72.87140625 173.33984375 -72.125 172.875 C-68.98645838 170.8838822 -67.20052174 169.58290427 -66 166 C-65.71882676 162.73729925 -65.71882676 162.73729925 -65.8125 159.125 C-65.82325562 158.13850464 -65.82325562 158.13850464 -65.83422852 157.13208008 C-65.99687706 147.0538941 -66.91532481 137.01593685 -68 127 C-67.34 127 -66.68 127 -66 127 C-67.485 120.565 -67.485 120.565 -69 114 C-71.00753698 115.09040327 -73.00588751 116.19773572 -75 117.3125 C-76.11375 117.92738281 -77.2275 118.54226562 -78.375 119.17578125 C-79.24125 119.77777344 -80.1075 120.37976563 -81 121 C-81 121.99 -81 122.98 -81 124 C-85.455 124.99 -85.455 124.99 -90 126 C-90 125.34 -90 124.68 -90 124 C-96.28824564 125.55149238 -102.18444655 127.31511628 -108.02734375 130.1328125 C-112.35349874 132.03460737 -116.28087466 132.33116669 -121 132 C-124.46342452 130.58314451 -125.72530618 129.44764918 -127.6875 126.25 C-130.07617909 120.3351756 -131.26157211 115.40851675 -131 109 C-125.375 106 -125.375 106 -122 106 C-121.5978125 104.824375 -121.5978125 104.824375 -121.1875 103.625 C-120 101 -120 101 -117 99 C-111.75876083 98.7207155 -107.22935501 99.64231899 -102.6875 102.25 C-100.81168001 103.35317101 -100.81168001 103.35317101 -99 104 C-96.33790071 102.95335182 -96.33790071 102.95335182 -94 101 C-92.9275 100.7525 -91.855 100.505 -90.75 100.25 C-85.69820912 98.56606971 -81.73528382 95.79614385 -78 92 C-76.7265098 89.38517699 -76.7265098 89.38517699 -76 87 C-76.62648437 87.01160156 -77.25296875 87.02320313 -77.8984375 87.03515625 C-78.71570313 87.04417969 -79.53296875 87.05320312 -80.375 87.0625 C-81.18710938 87.07410156 -81.99921875 87.08570313 -82.8359375 87.09765625 C-85 87 -85 87 -87 86 C-87.48815723 81.89947929 -87.30931077 80.40382239 -84.75 77.0625 C-84.29753906 76.57652344 -83.84507813 76.09054688 -83.37890625 75.58984375 C-81.11779343 72.98283831 -79.63554313 70.02878357 -78 67 C-78.804375 66.855625 -79.60875 66.71125 -80.4375 66.5625 C-83 66 -83 66 -84 65 C-83.9666974 63.03514682 -83.93321321 61.07029641 -83.8984375 59.10546875 C-83.90282815 56.81928737 -83.90282815 56.81928737 -85.0625 54.125 C-86.39857019 49.6714327 -86.06481671 45.50939157 -85 41 C-84.505 40.21882813 -84.01 39.43765625 -83.5 38.6328125 C-81.61752908 35.32868385 -81.48547959 32.71588124 -81.1875 28.9375 C-79.86256529 16.74571074 -74.48163005 7.69523598 -65 0 C-45.84681394 -13.54085712 -19.12294593 -14.14671465 0 0 Z " fill="#BC7959" transform="translate(134,74)"/>
<path d="M0 0 C0.66 0 1.32 0 2 0 C3.40234375 1.86328125 3.40234375 1.86328125 4.9375 4.3125 C7.05623514 7.68415055 7.05623514 7.68415055 9.703125 10.62890625 C10.13109375 11.08136719 10.5590625 11.53382813 11 12 C10.8125 14.625 10.8125 14.625 10 17 C7.20518141 18.3974093 4.86675981 18.13211589 1.75 18.125 C0.63109375 18.12757813 -0.4878125 18.13015625 -1.640625 18.1328125 C-4.84607544 18.00608539 -7.85244689 17.6008965 -11 17 C-9.92313822 25.21107107 -6.64279367 30.92863972 -1 37 C1.3951239 38.59514288 3.18504833 39.18799471 6 40 C6.99 40.680625 6.99 40.680625 8 41.375 C10.84257691 42.26330528 12.36415312 40.9922486 14.9296875 39.75390625 C18.76113933 38.35867945 23.02471452 38.11737543 27 39 C30 42.17608696 30 42.17608696 30 45 C31.11375 45.185625 31.11375 45.185625 32.25 45.375 C34.80141485 45.95486701 36.7267573 46.73708739 39 48 C39.40774783 55.3394609 38.68380275 62.66557841 33.9375 68.5625 C29.81436485 71.62160027 25.97102348 71.70733931 21 71 C16.21798755 69.59818075 11.61329635 67.68051799 7.00048828 65.80810547 C0.29952296 63.06141298 0.29952296 63.06141298 -6.75 61.5 C-10.10441918 60.98393551 -11.53968845 60.26348663 -14 58 C-13.67 56.68 -13.34 55.36 -13 54 C-13.556875 53.79375 -14.11375 53.5875 -14.6875 53.375 C-16.94696811 52.03153247 -17.9998656 50.94842298 -19.625 48.9375 C-21.67119397 45.99175287 -21.67119397 45.99175287 -24 45 C-24.22142255 46.95689659 -24.4267568 48.91561952 -24.625 50.875 C-24.79902344 52.51082031 -24.79902344 52.51082031 -24.9765625 54.1796875 C-24.98429687 55.11039063 -24.99203125 56.04109375 -25 57 C-24.34 57.66 -23.68 58.32 -23 59 C-22.86474609 61.1003418 -22.86474609 61.1003418 -23.0234375 63.69921875 C-23.07540283 64.65449463 -23.12736816 65.60977051 -23.1809082 66.59399414 C-23.2449585 67.61485107 -23.30900879 68.63570801 -23.375 69.6875 C-23.48232928 71.78375973 -23.58779568 73.88011567 -23.69140625 75.9765625 C-23.74441895 77.00426758 -23.79743164 78.03197266 -23.85205078 79.09082031 C-24.04658706 82.91605836 -24.2169586 86.73320086 -24.3125 90.5625 C-24.34988281 91.67753906 -24.38726562 92.79257813 -24.42578125 93.94140625 C-23.88278797 97.84199097 -22.44637149 99.94969423 -20 103 C-18.9275 103.66 -17.855 104.32 -16.75 105 C-15.8425 105.66 -14.935 106.32 -14 107 C-14 108.98 -14 110.96 -14 113 C-23.9 113 -33.8 113 -44 113 C-44.33 101.12 -44.66 89.24 -45 77 C-49.62 77 -54.24 77 -59 77 C-59.33 88.88 -59.66 100.76 -60 113 C-69.9 113 -79.8 113 -90 113 C-90 107 -90 107 -88.3203125 105.2421875 C-87.59585938 104.79101562 -86.87140625 104.33984375 -86.125 103.875 C-82.98645838 101.8838822 -81.20052174 100.58290427 -80 97 C-79.71882676 93.73729925 -79.71882676 93.73729925 -79.8125 90.125 C-79.82325562 89.13850464 -79.82325562 89.13850464 -79.83422852 88.13208008 C-79.99687706 78.0538941 -80.91532481 68.01593685 -82 58 C-81.34 58 -80.68 58 -80 58 C-80.99 53.71 -81.98 49.42 -83 45 C-85.00753698 46.09040327 -87.00588751 47.19773572 -89 48.3125 C-90.11375 48.92738281 -91.2275 49.54226562 -92.375 50.17578125 C-93.24125 50.77777344 -94.1075 51.37976563 -95 52 C-95 52.99 -95 53.98 -95 55 C-97.97 55.66 -100.94 56.32 -104 57 C-104 56.34 -104 55.68 -104 55 C-110.28824564 56.55149238 -116.18444655 58.31511628 -122.02734375 61.1328125 C-126.35349874 63.03460737 -130.28087466 63.33116669 -135 63 C-138.46342452 61.58314451 -139.72530618 60.44764918 -141.6875 57.25 C-144.07617909 51.3351756 -145.26157211 46.40851675 -145 40 C-139.375 37 -139.375 37 -136 37 C-135.731875 36.21625 -135.46375 35.4325 -135.1875 34.625 C-134 32 -134 32 -131 30 C-125.75876083 29.7207155 -121.22935501 30.64231899 -116.6875 33.25 C-114.81168001 34.35317101 -114.81168001 34.35317101 -113 35 C-110.33790071 33.95335182 -110.33790071 33.95335182 -108 32 C-106.9275 31.7525 -105.855 31.505 -104.75 31.25 C-100.32143152 29.77381051 -97.55466384 27.53460368 -94.015625 24.55859375 C-92 23 -92 23 -89 22 C-88.69835937 21.34773438 -88.39671875 20.69546875 -88.0859375 20.0234375 C-87 18 -87 18 -84.9765625 17.1015625 C-84.20054688 16.94429687 -83.42453125 16.78703125 -82.625 16.625 C-81.85414062 16.45226562 -81.08328125 16.27953125 -80.2890625 16.1015625 C-77.61133701 15.98275557 -76.26377509 16.62519595 -74 18 C-74.04640625 18.65226562 -74.0928125 19.30453125 -74.140625 19.9765625 C-74.3217079 24.3613556 -74.3065292 27.33789693 -72.4375 31.375 C-69.48656349 34.55293162 -66.87096001 36.06451999 -63 38 C-62.34 38.33 -61.68 38.66 -61 39 C-48.3549015 39.88846567 -48.3549015 39.88846567 -37 35 C-36.21625 34.484375 -35.4325 33.96875 -34.625 33.4375 C-32.73444669 30.60167004 -32.75082413 28.98074689 -32.4375 25.625 C-31.90326519 21.92946746 -31.65082105 20.49863901 -28.64453125 18.1953125 C-26.70406198 17.22638722 -24.74484535 16.29418937 -22.76953125 15.3984375 C-17.43216755 12.70340759 -14.50589018 8.2889295 -12 3 C-10.35 3 -8.7 3 -7 3 C-6.67 4.65 -6.34 6.3 -6 8 C-4.02 7.34 -2.04 6.68 0 6 C0 4.02 0 2.04 0 0 Z " fill="#38AB6F" transform="translate(148,143)"/>
<path d="M0 0 C0.63164062 0.45117188 1.26328125 0.90234375 1.9140625 1.3671875 C9.95400311 7.63621608 15.97476051 17.00720153 18 27 C18.51129763 32.6595809 18.53854724 38.345254 18 44 C17.01 44.99 17.01 44.99 16 46 C15.566875 45.525625 15.13375 45.05125 14.6875 44.5625 C12.97690387 42.76313043 12.97690387 42.76313043 10 42 C9.814375 43.8253125 9.814375 43.8253125 9.625 45.6875 C9.21108694 49.06479059 8.45426549 51.89756695 7 55 C4.66705225 55.04241723 2.33297433 55.04092937 0 55 C-1 54 -1 54 -1.125 50.1875 C-1.09401243 47.31082025 -0.91742334 44.75227001 0 42 C-0.99 42 -1.98 42 -3 42 C-3 43.32 -3 44.64 -3 46 C-9.11485027 46.09706112 -14.93303301 45.77040851 -21 45 C-21 44.01 -21 43.02 -21 42 C-21.66 41.95875 -22.32 41.9175 -23 41.875 C-29.79772779 39.89232939 -34.92199068 34.60726281 -39 29 C-39 28.34 -39 27.68 -39 27 C-39.64324219 27.27714844 -40.28648438 27.55429688 -40.94921875 27.83984375 C-48.32465955 30.79633286 -55.08243447 31.74824911 -63 32 C-62.97679688 32.91523437 -62.95359375 33.83046875 -62.9296875 34.7734375 C-62.90261719 36.55621094 -62.90261719 36.55621094 -62.875 38.375 C-62.85179688 39.55835938 -62.82859375 40.74171875 -62.8046875 41.9609375 C-63 45 -63 45 -65 47 C-68.5625 46.75 -68.5625 46.75 -72 46 C-73.38226016 43.23547967 -73.09525387 40.9538637 -73.0625 37.875 C-73.05347656 36.77929688 -73.04445313 35.68359375 -73.03515625 34.5546875 C-73.02355469 33.71164063 -73.01195312 32.86859375 -73 32 C-76.96 33.98 -76.96 33.98 -81 36 C-81.73825441 25.39784644 -79.64872489 16.31185218 -72.81640625 7.97265625 C-53.96062354 -12.50512928 -23.0548142 -17.05542017 0 0 Z " fill="#404347" transform="translate(134,74)"/>
<path d="M0 0 C-0.04640625 0.65226563 -0.0928125 1.30453125 -0.140625 1.9765625 C-0.3217079 6.3613556 -0.3065292 9.33789693 1.5625 13.375 C4.50096672 16.53950262 7.17583717 18.01710075 11 20 C11.99 20.99 11.99 20.99 13 22 C12.37351562 22.06058594 11.74703125 22.12117188 11.1015625 22.18359375 C10.28429687 22.26738281 9.46703125 22.35117188 8.625 22.4375 C7.40683594 22.55931641 7.40683594 22.55931641 6.1640625 22.68359375 C3.95727195 22.89090114 3.95727195 22.89090114 2 24 C2 24.66 2 25.32 2 26 C15.99838451 28.25910528 28.93434636 27.91377796 43 27 C42.67 31.29 42.34 35.58 42 40 C26.16 40 10.32 40 -6 40 C-6.99 35.71 -7.98 31.42 -9 27 C-11.00753698 28.09040327 -13.00588751 29.19773572 -15 30.3125 C-16.11375 30.92738281 -17.2275 31.54226562 -18.375 32.17578125 C-19.24125 32.77777344 -20.1075 33.37976563 -21 34 C-21 34.99 -21 35.98 -21 37 C-23.97 37.66 -26.94 38.32 -30 39 C-30 38.34 -30 37.68 -30 37 C-36.28824564 38.55149238 -42.18444655 40.31511628 -48.02734375 43.1328125 C-52.35349874 45.03460737 -56.28087466 45.33116669 -61 45 C-64.46342452 43.58314451 -65.72530618 42.44764918 -67.6875 39.25 C-70.07617909 33.3351756 -71.26157211 28.40851675 -71 22 C-65.375 19 -65.375 19 -62 19 C-61.731875 18.21625 -61.46375 17.4325 -61.1875 16.625 C-60 14 -60 14 -57 12 C-51.75876083 11.7207155 -47.22935501 12.64231899 -42.6875 15.25 C-40.81168001 16.35317101 -40.81168001 16.35317101 -39 17 C-36.33790071 15.95335182 -36.33790071 15.95335182 -34 14 C-32.9275 13.7525 -31.855 13.505 -30.75 13.25 C-26.32143152 11.77381051 -23.55466384 9.53460368 -20.015625 6.55859375 C-18 5 -18 5 -15 4 C-14.7525 3.360625 -14.505 2.72125 -14.25 2.0625 C-13 0 -13 0 -9.75 -1.375 C-5.7090976 -2.04848373 -3.70226799 -1.62538595 0 0 Z " fill="#3AB675" transform="translate(74,161)"/>
<path d="M0 0 C0.33 0 0.66 0 1 0 C0.97905273 0.96824707 0.95810547 1.93649414 0.93652344 2.93408203 C0.86381488 6.54574645 0.81808944 10.15734691 0.78027344 13.76953125 C0.76022778 15.32921244 0.73298343 16.88881913 0.69824219 18.44824219 C0.64940874 20.69745314 0.62696185 22.9456659 0.609375 25.1953125 C0.58872986 25.8861795 0.56808472 26.57704651 0.54681396 27.28884888 C0.54450858 32.32680677 1.81391738 35.14342622 5 39 C6.0725 39.66 7.145 40.32 8.25 41 C9.1575 41.66 10.065 42.32 11 43 C11 44.98 11 46.96 11 49 C1.1 49 -8.8 49 -19 49 C-19.33 37.12 -19.66 25.24 -20 13 C-24.62 13 -29.24 13 -34 13 C-34.33 24.88 -34.66 36.76 -35 49 C-44.9 49 -54.8 49 -65 49 C-65 43 -65 43 -63.3203125 41.2421875 C-62.59585938 40.79101562 -61.87140625 40.33984375 -61.125 39.875 C-57.9281306 37.84687856 -56.36211119 36.55985967 -55 33 C-54.72455865 29.80305813 -54.72455865 29.80305813 -54.8046875 26.265625 C-54.80968262 25.09805664 -54.81467773 23.93048828 -54.81982422 22.72753906 C-54.83803223 21.24995117 -54.85624023 19.77236328 -54.875 18.25 C-54.91625 13.5475 -54.9575 8.845 -55 4 C-36.85 4 -18.7 4 0 4 C0 2.68 0 1.36 0 0 Z " fill="#6063B5" transform="translate(123,207)"/>
<path d="M0 0 C2.125 1.5 2.125 1.5 4 4 C3.78995085 6.82147101 2.94322917 9.34478262 2 12 C1.67 12.99 1.34 13.98 1 15 C1.66 15 2.32 15 3 15 C2.9071875 16.1446875 2.9071875 16.1446875 2.8125 17.3125 C2.74162517 20.01382875 2.74162517 20.01382875 4.375 21.6875 C4.91125 22.120625 5.4475 22.55375 6 23 C6.99 23.99 6.99 23.99 8 25 C7.01 25 6.02 25 5 25 C6.65296434 29.09305456 8.13546142 32.58983503 11 36 C7.18447383 34.50104329 5.46254954 32.2013144 3 29 C2.34 28.67 1.68 28.34 1 28 C0.77857745 29.95689659 0.5732432 31.91561952 0.375 33.875 C0.25898437 34.96554688 0.14296875 36.05609375 0.0234375 37.1796875 C0.01570313 38.11039063 0.00796875 39.04109375 0 40 C0.66 40.66 1.32 41.32 2 42 C1.34 44.97 0.68 47.94 0 51 C-18.48 51 -36.96 51 -56 51 C-56.33 47.7 -56.66 44.4 -57 41 C-40.5 41 -24 41 -7 41 C-7 37.04 -7 33.08 -7 29 C-9.57167969 29.14308594 -9.57167969 29.14308594 -12.1953125 29.2890625 C-35.7517036 30.47462521 -35.7517036 30.47462521 -47 28 C-47 26.68 -47 25.36 -47 24 C-44.41956322 22.70978161 -42.50429291 22.85701068 -39.6171875 22.82421875 C-37.98910156 22.78844727 -37.98910156 22.78844727 -36.328125 22.75195312 C-34.04966175 22.70942525 -31.77096215 22.67793847 -29.4921875 22.65820312 C-21.30446585 22.45061348 -16.47755307 20.9457586 -9.625 16.4375 C-7.75072877 13.62609315 -7.57977099 11.76082644 -7.125 8.4375 C-6.703125 5.5078125 -6.703125 5.5078125 -6 3 C-2.875 0.8125 -2.875 0.8125 0 0 Z " fill="#38AD70" transform="translate(123,160)"/>
<path d="M0 0 C3 3.23076923 3 3.23076923 3 6 C3.7425 6.12375 4.485 6.2475 5.25 6.375 C7.80141485 6.95486701 9.7267573 7.73708739 12 9 C12.40774783 16.3394609 11.68380275 23.66557841 6.9375 29.5625 C2.81314043 32.62250871 -1.02752305 32.70284681 -6 32 C-11.45114092 30.28006139 -16.713905 28.16663292 -22 26 C-23.99977742 25.20777125 -25.9997364 24.4160004 -28 23.625 C-29.33409714 23.08521728 -30.66778619 22.5444143 -32 22 C-28.92591136 13.5843019 -24.09700666 6.62724587 -16.125 2.3125 C-10.99201736 0.06803991 -5.55313305 -1.62273717 0 0 Z " fill="#B07153" transform="translate(175,182)"/>
<path d="M0 0 C5.11543592 1.1515267 9.78548846 3.48873259 13.328125 7.3984375 C14.9938642 10.06928279 15.88760913 12.67128977 16.83203125 15.671875 C17.16460937 16.71472656 17.4971875 17.75757813 17.83984375 18.83203125 C18.12601563 19.74855469 18.4121875 20.66507813 18.70703125 21.609375 C19.20203125 23.094375 19.20203125 23.094375 19.70703125 24.609375 C19.01738281 24.77953125 18.32773437 24.9496875 17.6171875 25.125 C12.03777349 26.56386123 6.87275764 28.23786583 1.6796875 30.7421875 C-2.64646749 32.64398237 -6.57384341 32.94054169 -11.29296875 32.609375 C-14.75639327 31.19251951 -16.01827493 30.05702418 -17.98046875 26.859375 C-20.36914784 20.9445506 -21.55454086 16.01789175 -21.29296875 9.609375 C-15.66796875 6.609375 -15.66796875 6.609375 -12.29296875 6.609375 C-12.02484375 5.825625 -11.75671875 5.041875 -11.48046875 4.234375 C-8.96781957 -1.31990214 -5.24229004 -0.6447326 0 0 Z " fill="#B07153" transform="translate(24.29296875,173.390625)"/>
<path d="M0 0 C2.375 0.20703125 2.375 0.20703125 5 1 C6.1875 3.07421875 6.1875 3.07421875 7 5.6875 C9.76995402 13.35394753 13.96739185 17.63260253 21 21.609375 C32.35020645 26.87066861 44.73334004 28.72592443 57 26 C57 29.31306572 56.54757211 31.38206232 54.328125 33.88671875 C47.78937925 39.74946635 42.79106687 41.49188422 34.00390625 41.30859375 C27.8171165 40.67301977 23.7673837 38.10822115 19.5625 33.625 C17.10438862 30.54070307 16.19522725 28.0021586 16 24 C11.07116994 22.79784633 7.73676739 23.17816639 3 25 C2.34 25.99 1.68 26.98 1 28 C0.34 27.67 -0.32 27.34 -1 27 C-0.67 26.01 -0.34 25.02 0 24 C-0.62648438 24.01160156 -1.25296875 24.02320313 -1.8984375 24.03515625 C-2.71570312 24.04417969 -3.53296875 24.05320313 -4.375 24.0625 C-5.18710937 24.07410156 -5.99921875 24.08570313 -6.8359375 24.09765625 C-9 24 -9 24 -11 23 C-11.3125 20.375 -11.3125 20.375 -11 17 C-9.8800354 15.58357418 -8.74542293 14.17401219 -7.51171875 12.85546875 C-4.37218736 9.00203875 -2.2775533 4.39857373 0 0 Z " fill="#996146" transform="translate(58,137)"/>
<path d="M0 0 C0.87914063 0.01200439 1.75828125 0.02400879 2.6640625 0.03637695 C15.65577212 0.31864875 29.02015909 2.58614562 38.7890625 11.90234375 C43.125 16.47916667 43.125 16.47916667 43.125 21.3125 C39.68394291 20.28018287 36.54902318 19.05705111 33.38671875 17.375 C21.68303316 11.48699338 9.00552116 10.9537602 -3.875 10.9375 C-5.10307373 10.93588867 -6.33114746 10.93427734 -7.59643555 10.93261719 C-14.57536241 11.01802115 -21.09809837 11.61632272 -27.875 13.3125 C-27.11774908 9.75351215 -26.32886826 8.44781865 -23.375 6.25 C-22.7459375 5.76402344 -22.116875 5.27804688 -21.46875 4.77734375 C-14.52446607 0.85549665 -7.88648688 -0.16810509 0 0 Z " fill="#6F9EB9" transform="translate(96.875,80.6875)"/>
<path d="M0 0 C19.47 0 38.94 0 59 0 C58.34 3.3 57.68 6.6 57 10 C38.52 10 20.04 10 1 10 C0.67 6.7 0.34 3.4 0 0 Z " fill="#3B3D40" transform="translate(66,201)"/>
<path d="M0 0 C6.27 0 12.54 0 19 0 C19 5.94 19 11.88 19 18 C9.1 18 -0.8 18 -11 18 C-11 12 -11 12 -9.35546875 10.3125 C-8.64003906 9.879375 -7.92460938 9.44625 -7.1875 9 C-2.77665818 6.3004684 -2.65094933 5.30189867 0 0 Z " fill="#ADBECC" transform="translate(69,238)"/>
<path d="M0 0 C3.06627706 -0.21665549 6.11727238 -0.37459318 9.1875 -0.5 C10.05181641 -0.56703125 10.91613281 -0.6340625 11.80664062 -0.703125 C14.42376535 -0.78334338 16.4868787 -0.75115122 19 0 C20.76661711 1.90810696 21.81902516 3.71385607 22.92773438 6.06005859 C24.00635885 8.37459019 24.00635885 8.37459019 27.3125 10.125 C28.6428125 11.053125 28.6428125 11.053125 30 12 C30 13.98 30 15.96 30 18 C20.1 18 10.2 18 0 18 C0 12.06 0 6.12 0 0 Z " fill="#B4C7D7" transform="translate(104,238)"/>
<path d="M0 0 C2.375 0.20703125 2.375 0.20703125 5 1 C6.1875 3.07421875 6.1875 3.07421875 7 5.6875 C8.79626334 10.78421469 10.92114873 15.46057437 16 18 C16 19.98 16 21.96 16 24 C15.154375 23.79375 14.30875 23.5875 13.4375 23.375 C9.39639137 22.93415179 6.77828718 23.54681262 3 25 C2.34 25.99 1.68 26.98 1 28 C0.34 27.67 -0.32 27.34 -1 27 C-0.67 26.01 -0.34 25.02 0 24 C-0.62648438 24.01160156 -1.25296875 24.02320313 -1.8984375 24.03515625 C-2.71570312 24.04417969 -3.53296875 24.05320313 -4.375 24.0625 C-5.18710937 24.07410156 -5.99921875 24.08570313 -6.8359375 24.09765625 C-9 24 -9 24 -11 23 C-11.3125 20.375 -11.3125 20.375 -11 17 C-9.8800354 15.58357418 -8.74542293 14.17401219 -7.51171875 12.85546875 C-4.37218736 9.00203875 -2.2775533 4.39857373 0 0 Z " fill="#3A3C3E" transform="translate(58,137)"/>
<path d="M0 0 C0.66 0 1.32 0 2 0 C3.40234375 1.86328125 3.40234375 1.86328125 4.9375 4.3125 C7.05623514 7.68415055 7.05623514 7.68415055 9.703125 10.62890625 C10.13109375 11.08136719 10.5590625 11.53382813 11 12 C10.8125 14.625 10.8125 14.625 10 17 C7.20518141 18.3974093 4.86675981 18.13211589 1.75 18.125 C0.63109375 18.12757813 -0.4878125 18.13015625 -1.640625 18.1328125 C-4.84607544 18.00608539 -7.85244689 17.6008965 -11 17 C-11.66 17.99 -12.32 18.98 -13 20 C-15.64 18.68 -18.28 17.36 -21 16 C-20.60167969 15.48050781 -20.20335938 14.96101562 -19.79296875 14.42578125 C-19.26316406 13.72839844 -18.73335937 13.03101563 -18.1875 12.3125 C-17.63578125 11.58675781 -17.0840625 10.86101562 -16.515625 10.11328125 C-14.87166215 7.92630286 -14.87166215 7.92630286 -13.4375 5 C-12.7259375 4.01 -12.7259375 4.01 -12 3 C-9.3125 2.6875 -9.3125 2.6875 -7 3 C-6.67 4.65 -6.34 6.3 -6 8 C-4.02 7.34 -2.04 6.68 0 6 C0 4.02 0 2.04 0 0 Z " fill="#3B3B3D" transform="translate(148,143)"/>
<path d="M0 0 C0.33 0 0.66 0 1 0 C1.0269501 2.93756119 1.04681474 5.87487555 1.0625 8.8125 C1.07087891 9.64587891 1.07925781 10.47925781 1.08789062 11.33789062 C1.09272461 12.54155273 1.09272461 12.54155273 1.09765625 13.76953125 C1.10551147 14.87711792 1.10551147 14.87711792 1.11352539 16.00708008 C1 18 1 18 0 21 C-4.95 21 -9.9 21 -15 21 C-15.45572917 17.74479167 -15.91145833 14.48958333 -16.3671875 11.234375 C-16.89747009 7.75980694 -16.89747009 7.75980694 -19 4 C-12.73 4 -6.46 4 0 4 C0 2.68 0 1.36 0 0 Z " fill="#6467BF" transform="translate(123,207)"/>
<path d="M0 0 C6.6 0 13.2 0 20 0 C19.01 2.64 18.02 5.28 17 8 C16.45578127 10.65501037 16.45578127 10.65501037 16.3125 13 C16.209375 14.32 16.10625 15.64 16 17 C11.05 17 6.1 17 1 17 C-0.80878388 11.57364835 -0.05200784 5.66885438 0 0 Z " fill="#6467BF" transform="translate(68,211)"/>
<path d="M0 0 C0.33 0.66 0.66 1.32 1 2 C1.66 2 2.32 2 3 2 C4.33203125 3.72265625 4.33203125 3.72265625 5.8125 6.0625 C8.4332641 10.13208947 11.16313828 14.07845586 14 18 C11.69 20.64 9.38 23.28 7 26 C1.86673768 23.43336884 -2.35827693 20.47977649 -6 16 C-7.09994153 11.68377376 -6.38704664 8.16113992 -5 4 C-3 2 -3 2 0 0 Z " fill="#3DBA79" transform="translate(135,165)"/>
<path d="M0 0 C0.33 0 0.66 0 1 0 C1.44497608 8.75119617 1.44497608 8.75119617 -2 13 C-9.29647545 19.82061836 -15.51648803 20.55182496 -25.1015625 20.3125 C-31.69425404 19.78402773 -35.62657792 17.81560732 -39.9375 12.875 C-43.03442268 8.55807748 -43.0983194 6.30924783 -43 1 C-42.34 1 -41.68 1 -41 1 C-40.67 1.86625 -40.34 2.7325 -40 3.625 C-36.99192056 8.70113405 -32.61158574 12.12947142 -27 14 C-19.58343141 14.67023805 -13.10540064 14.61800605 -7 10 C-3.97528167 7.10679116 -1.63688438 3.86899946 0 0 Z " fill="#DADCDB" transform="translate(116,163)"/>
<path d="M0 0 C1.45668271 2.91336542 1.43028143 5.70055457 1.6875 8.9375 C1.79449219 10.18402344 1.90148437 11.43054688 2.01171875 12.71484375 C2 16 2 16 0 19 C-2.0234375 20.0625 -2.0234375 20.0625 -4.375 21 C-7.05594064 22.11276222 -9.05329592 23.0406732 -11.375 24.8125 C-11.91125 25.204375 -12.4475 25.59625 -13 26 C-13.99 25.67 -14.98 25.34 -16 25 C-16.94921875 22.93359375 -16.94921875 22.93359375 -17.6875 20.4375 C-17.93886719 19.61121094 -18.19023438 18.78492188 -18.44921875 17.93359375 C-18.63097656 17.29550781 -18.81273437 16.65742188 -19 16 C-16.87996003 14.16064138 -14.75442773 12.32843267 -12.625 10.5 C-12.02171875 9.97535156 -11.4184375 9.45070312 -10.796875 8.91015625 C-6.2265625 5 -6.2265625 5 -4 5 C-3.71125 4.360625 -3.4225 3.72125 -3.125 3.0625 C-2 1 -2 1 0 0 Z " fill="#3DBA79" transform="translate(63,160)"/>
<path d="M0 0 C4.36027202 0.89988593 6.22469837 2.42132158 9 6 C10.89669647 10.97242048 11.58228804 15.37066267 9.75 20.4375 C8 24 8 24 6 27 C5.34 27 4.68 27 4 27 C3.67 25.35 3.34 23.7 3 22 C1.02 21.67 -0.96 21.34 -3 21 C-3.33 21.99 -3.66 22.98 -4 24 C-4.66 24 -5.32 24 -6 24 C-5.6074487 18.03051298 -4.4989358 13.49765875 -2 8 C-1.23161146 5.34812249 -0.61435293 2.69370129 0 0 Z " fill="#B37556" transform="translate(144,116)"/>
<path d="M0 0 C0.04898438 0.99902344 0.09796875 1.99804688 0.1484375 3.02734375 C0.22320312 4.31769531 0.29796875 5.60804687 0.375 6.9375 C0.44460937 8.22527344 0.51421875 9.51304688 0.5859375 10.83984375 C0.72257812 11.88269531 0.85921875 12.92554687 1 14 C1.66 14.33 2.32 14.66 3 15 C2.67 18.3 2.34 21.6 2 25 C1.34 25 0.68 25 0 25 C0 24.01 0 23.02 0 22 C-0.66 22 -1.32 22 -2 22 C-2 21.34 -2 20.68 -2 20 C-3.65 20.33 -5.3 20.66 -7 21 C-7.66 22.98 -8.32 24.96 -9 27 C-12.7055771 22.64344314 -13.14695699 18.61029934 -13 13 C-11.94974962 8.40840951 -9.63865161 4.97707859 -6 2 C-3.7859478 0.69761635 -2.56707742 0 0 0 Z " fill="#B57557" transform="translate(61,106)"/>
<path d="M0 0 C0.74472061 -0.0033284 1.48944122 -0.0066568 2.25672913 -0.01008606 C3.83284894 -0.01515151 5.40897948 -0.0174945 6.98510742 -0.01733398 C9.39715235 -0.01951947 11.80873922 -0.03767593 14.22070312 -0.05664062 C15.75130052 -0.05957482 17.28190008 -0.06155944 18.8125 -0.0625 C19.53445053 -0.06968552 20.25640106 -0.07687103 21.00022888 -0.08427429 C24.71509087 -0.06731753 26.29753881 0.05122379 29.47265625 2.16796875 C29.47265625 2.82796875 29.47265625 3.48796875 29.47265625 4.16796875 C17.95246932 9.92806221 2.55402655 7.11769998 -9.52734375 5.16796875 C-9.52734375 3.84796875 -9.52734375 2.52796875 -9.52734375 1.16796875 C-6.49077516 -0.35031554 -3.33129107 0.00512054 0 0 Z " fill="#25A05F" transform="translate(85.52734375,182.83203125)"/>
<path d="M0 0 C2.9375 2.0625 2.9375 2.0625 5 5 C5.5625 8.5625 5.5625 8.5625 5 12 C3.13291495 14.36497439 1.67938569 15.66030715 -1 17 C-4.46500939 17.37663145 -6.36348003 17.38526209 -9.375 15.5625 C-11.7776838 11.77365246 -11.77693727 8.36526609 -11 4 C-8.21528417 -0.56693397 -5.09718974 -0.80481943 0 0 Z " fill="#F0EDEB" transform="translate(121,123)"/>
<path d="M0 0 C0.17208984 1.29744141 0.17208984 1.29744141 0.34765625 2.62109375 C1.00953999 6.04941371 2.04772718 8.86643491 3.4375 12.0625 C3.86933594 13.06410156 4.30117188 14.06570312 4.74609375 15.09765625 C5.15988281 16.05542969 5.57367188 17.01320312 6 18 C6.67251869 19.66431392 7.34126471 21.33018263 8 23 C5.03 23.66 2.06 24.32 -1 25 C-1.95899351 22.29189883 -2.91721447 19.58352839 -3.875 16.875 C-4.14441406 16.11445313 -4.41382813 15.35390625 -4.69140625 14.5703125 C-6.16791649 10.39286889 -7.61494964 6.20893943 -9 2 C-5.86501708 0.14223235 -3.62528568 -0.20140476 0 0 Z " fill="#299C5F" transform="translate(45,175)"/>
<path d="M0 0 C6.27 0 12.54 0 19 0 C19 3.3 19 6.6 19 10 C12.73 10 6.46 10 0 10 C0 6.7 0 3.4 0 0 Z " fill="#B97656" transform="translate(104,228)"/>
<path d="M0 0 C6.27 0 12.54 0 19 0 C19 3.3 19 6.6 19 10 C12.73 10 6.46 10 0 10 C0 6.7 0 3.4 0 0 Z " fill="#B97656" transform="translate(69,228)"/>
<path d="M0 0 C9.9 0 19.8 0 30 0 C30 1.98 30 3.96 30 6 C20.1 6 10.2 6 0 6 C0 4.02 0 2.04 0 0 Z " fill="#D5D6D6" transform="translate(58,250)"/>
<path d="M0 0 C9.9 0 19.8 0 30 0 C30 1.98 30 3.96 30 6 C20.1 6 10.2 6 0 6 C0 4.02 0 2.04 0 0 Z " fill="#D5D6D6" transform="translate(104,250)"/>
<path d="M0 0 C3.79588866 0.54226981 5.47211993 2.20127563 8 5 C6.700625 6.4540625 6.700625 6.4540625 5.375 7.9375 C2.30158815 11.46649996 -0.07795717 15.22810535 -2.41015625 19.27734375 C-4 21 -4 21 -6.55859375 21.37890625 C-9 21 -9 21 -11 19 C-10.80656914 14.30930159 -8.49806951 11.81898491 -5.5 8.375 C-2.10873403 4.55606511 -2.10873403 4.55606511 0 0 Z " fill="#279C5E" transform="translate(148,181)"/>
<path d="M0 0 C2.31 0.33 4.62 0.66 7 1 C7.33 1.99 7.66 2.98 8 4 C5.38224933 8.18840107 2.65939749 10.38713164 -2 12 C-6.8854394 12 -9.69446907 11.58750623 -13.5 8.5 C-14.325 7.675 -15.15 6.85 -16 6 C-16 5.67 -16 5.34 -16 5 C-10.84828377 4.90961901 -6.08086796 5.15318867 -1 6 C-0.67 4.02 -0.34 2.04 0 0 Z " fill="#AA6443" transform="translate(104,145)"/>
<path d="M0 0 C1.65 0.33 3.3 0.66 5 1 C5.8125 2.6875 5.8125 2.6875 6 5 C4 7.25 4 7.25 2.6015625 8.51171875 C0.72257744 10.25779999 -0.93940938 12.12945033 -2.625 14.0625 C-3.19476563 14.71347656 -3.76453125 15.36445313 -4.3515625 16.03515625 C-5.47854171 17.37845137 -6.55552405 18.76487178 -7.5859375 20.18359375 C-9 22 -9 22 -11 23 C-11.3125 20.375 -11.3125 20.375 -11 17 C-9.8800354 15.58357418 -8.74542293 14.17401219 -7.51171875 12.85546875 C-4.37218736 9.00203875 -2.2775533 4.39857373 0 0 Z " fill="#484D52" transform="translate(58,137)"/>
<path d="M0 0 C1.65 0 3.3 0 5 0 C6.38766322 6.05525768 5.49118146 9.32010626 3 15 C0.625 15.125 0.625 15.125 -2 15 C-4 13 -4 13 -4.375 10.875 C-3.84102464 6.78118891 -1.98833905 3.57723499 0 0 Z " fill="#DB955C" transform="translate(54,126)"/>
<path d="M0 0 C2.4375 0.375 2.4375 0.375 4.4375 2.375 C4.77305022 5.99894236 4.85828956 8.51127406 3.25 11.8125 C1.4375 13.375 1.4375 13.375 -1.125 13.8125 C-1.929375 13.668125 -2.73375 13.52375 -3.5625 13.375 C-5.88829101 9.88631349 -5.98115457 8.47781481 -5.5625 4.375 C-4.03959587 1.32919175 -3.40573808 0.4984007 0 0 Z " fill="#45474A" transform="translate(116.5625,124.625)"/>
<path d="M0 0 C0.763125 0.0825 1.52625 0.165 2.3125 0.25 C3.47593227 2.57686453 3.51145988 4.09721413 3.5625 6.6875 C3.60117188 7.86119141 3.60117188 7.86119141 3.640625 9.05859375 C3.3125 11.25 3.3125 11.25 1.9609375 13.046875 C0.3125 14.25 0.3125 14.25 -2.3125 14.0625 C-4.6875 13.25 -4.6875 13.25 -5.6875 11.25 C-5.95419049 7.64967833 -6.09685434 5.09025365 -4.5 1.8125 C-2.6875 0.25 -2.6875 0.25 0 0 Z " fill="#434548" transform="translate(86.6875,120.75)"/>
<path d="M0 0 C5.28 0 10.56 0 16 0 C15.01 2.31 14.02 4.62 13 7 C11.58566794 7.2236337 10.16832382 7.42826476 8.75 7.625 C7.96109375 7.74101562 7.1721875 7.85703125 6.359375 7.9765625 C3.64133319 8.00356292 2.25966165 7.47960028 0 6 C-0.8125 4 -0.8125 4 -1 2 C-0.67 1.34 -0.34 0.68 0 0 Z " fill="#B8CBDC" transform="translate(69,238)"/>
<path d="M0 0 C1.98 0 3.96 0 6 0 C8.47120419 7.87696335 8.47120419 7.87696335 8 12 C6 14 6 14 3.375 14.125 C2.59125 14.08375 1.8075 14.0425 1 14 C-0.79217969 8.83430559 -1.12029814 5.48946087 0 0 Z " fill="#E79C5D" transform="translate(141,137)"/>
<path d="M0 0 C6.11090483 -0.09945415 11.97403427 -0.0712828 18 1 C17.67 2.98 17.34 4.96 17 7 C11.72 6.67 6.44 6.34 1 6 C0.67 4.02 0.34 2.04 0 0 Z " fill="#FCF9F8" transform="translate(86,144)"/>
<path d="M0 0 C3.80827705 3.80827705 4.57999344 6.8563887 5.1171875 12.01171875 C5 14 5 14 3 16 C2.34 16.144375 1.68 16.28875 1 16.4375 C-1.38640738 16.87458708 -1.38640738 16.87458708 -3 20 C-3.66 20 -4.32 20 -5 20 C-4.60580832 14.00556787 -3.55557315 9.43059295 -1 4 C-0.62691369 2.67723944 -0.26953585 1.34767923 0 0 Z " fill="#A55F3F" transform="translate(143,120)"/>
<path d="M0 0 C3.7109611 0.31991044 4.99743948 0.7900419 7.625 3.3125 C7.25 5.75 7.25 5.75 6.625 8.3125 C3.60631566 9.82184217 0.95202771 9.48760672 -2.375 9.3125 C-3.365 8.6525 -4.355 7.9925 -5.375 7.3125 C-5.6875 4.8125 -5.6875 4.8125 -5.375 2.3125 C-3.375 0.3125 -3.375 0.3125 0 0 Z " fill="#975536" transform="translate(99.375,130.6875)"/>
<path d="M0 0 C0.12375 1.134375 0.2475 2.26875 0.375 3.4375 C0.684375 5.2009375 0.684375 5.2009375 1 7 C1.66 7.33 2.32 7.66 3 8 C2.67 11.3 2.34 14.6 2 18 C1.34 18 0.68 18 0 18 C0 17.01 0 16.02 0 15 C-0.66 15 -1.32 15 -2 15 C-2 14.34 -2 13.68 -2 13 C-3.32 12.67 -4.64 12.34 -6 12 C-6.32644414 7.83783725 -6.40650982 5.63686538 -4.125 2.0625 C-2 0 -2 0 0 0 Z " fill="#A7603F" transform="translate(61,113)"/>
<path d="M0 0 C0.33 0.66 0.66 1.32 1 2 C0.030625 2.28875 -0.93875 2.5775 -1.9375 2.875 C-5.10664203 3.64214682 -5.10664203 3.64214682 -6 6 C-6.3052622 10.65275976 -6.3052622 10.65275976 -5 15 C-2.98330173 16.13350534 -2.98330173 16.13350534 -1 17 C-4.25 17.3125 -4.25 17.3125 -8 17 C-11.18533648 14.30471529 -11.90100875 12.61594555 -12.5625 8.5 C-12 5 -12 5 -9.9375 2.0625 C-6.35134537 -0.45543836 -4.29107165 -0.4206933 0 0 Z " fill="#F4F2F0" transform="translate(88,119)"/>
<path d="M0 0 C0.66 0 1.32 0 2 0 C3.40234375 1.86328125 3.40234375 1.86328125 4.9375 4.3125 C7.05623514 7.68415055 7.05623514 7.68415055 9.703125 10.62890625 C10.13109375 11.08136719 10.5590625 11.53382813 11 12 C10.8125 14.625 10.8125 14.625 10 17 C7.11584117 18.44207941 4.58278472 18.09394887 1.375 18.0625 C0.18648437 18.05347656 -1.00203125 18.04445312 -2.2265625 18.03515625 C-3.14179688 18.02355469 -4.05703125 18.01195312 -5 18 C-5.33 17.34 -5.66 16.68 -6 16 C-1.71 16 2.58 16 7 16 C4.39056587 11.65094312 2.91131361 9.85420182 -1 7 C-0.67 6.67 -0.34 6.34 0 6 C0.04080783 4.00041636 0.04254356 1.99954746 0 0 Z " fill="#484B4F" transform="translate(148,143)"/>
<path d="M0 0 C6.35450323 1.24702151 12.68327435 2.57364259 19 4 C18.67 5.32 18.34 6.64 18 8 C11.4491015 7.54240047 5.3246158 6.7899856 -1 5 C-0.67 3.35 -0.34 1.7 0 0 Z " fill="#464242" transform="translate(75,109)"/>
<path d="M0 0 C1.49574876 2.99149753 0.64805018 5.29881021 0.125 8.5625 C-0.05804688 9.73941406 -0.24109375 10.91632813 -0.4296875 12.12890625 C-1 15 -1 15 -2 16 C-3.99958364 16.04080783 -6.00045254 16.04254356 -8 16 C-8.50731767 10.67316448 -7.26718004 8.17473006 -4 4 C-2.70317626 2.63113049 -1.38176866 1.2830709 0 0 Z " fill="#2AA062" transform="translate(124,185)"/>
<path d="M0 0 C4.44350783 2.22175391 6.7819424 4.56388481 9 9 C9.039992 10.99960012 9.04346799 13.00047242 9 15 C7.02 15 5.04 15 3 15 C2.01 10.05 1.02 5.1 0 0 Z " fill="#29A061" transform="translate(65,186)"/>
<path d="M0 0 C1.33597652 0.80814651 2.668725 1.62163181 4 2.4375 C4.7425 2.88996094 5.485 3.34242188 6.25 3.80859375 C7.11625 4.39833984 7.11625 4.39833984 8 5 C8 5.33 8 5.66 8 6 C-1.57 6 -11.14 6 -21 6 C-20.67 4.35 -20.34 2.7 -20 1 C-19.071875 1.33 -18.14375 1.66 -17.1875 2 C-12.07562522 3.47699661 -4.8684684 4.4342342 0 2 C0 1.34 0 0.68 0 0 Z " fill="#AAB9C6" transform="translate(125,244)"/>
<path d="M0 0 C3.125 1.5 3.125 1.5 5 3 C5 3.33 5 3.66 5 4 C-4.405 4.495 -4.405 4.495 -14 5 C-12.04901707 -2.80393172 -6.55356464 -1.30445156 0 0 Z " fill="#AC6C4F" transform="translate(27,174)"/>
<path d="M0 0 C1.8046875 2.0234375 1.8046875 2.0234375 3 4 C2.67 4.66 2.34 5.32 2 6 C1.42024414 5.83701416 0.84048828 5.67402832 0.24316406 5.50610352 C-3.22673123 4.72322444 -6.712623 4.89687641 -10.25 4.9375 C-11.36761719 4.94426758 -11.36761719 4.94426758 -12.5078125 4.95117188 C-14.3385764 4.96290754 -16.16929873 4.9808415 -18 5 C-13.1221162 -0.07244326 -6.90587023 -1.38117405 0 0 Z " fill="#AB6B4C" transform="translate(175,182)"/>
<path d="M0 0 C0.33 0 0.66 0 1 0 C1.25 7.625 1.25 7.625 -1 11 C-1.33 10.01 -1.66 9.02 -2 8 C-2.515625 8.99 -3.03125 9.98 -3.5625 11 C-4.366875 11.99 -5.17125 12.98 -6 14 C-9.75 14.375 -9.75 14.375 -13 14 C-12.46375 13.608125 -11.9275 13.21625 -11.375 12.8125 C-10.199375 11.9153125 -10.199375 11.9153125 -9 11 C-7.989375 10.236875 -6.97875 9.47375 -5.9375 8.6875 C-2.94061544 5.94566945 -1.55440967 3.71331199 0 0 Z " fill="#CECECA" transform="translate(116,163)"/>
<path d="M0 0 C0.74507812 0.00451172 1.49015625 0.00902344 2.2578125 0.01367188 C4.0885764 0.02540754 5.91929873 0.0433415 7.75 0.0625 C3.65110327 2.79509782 1.71744169 3.22027308 -3.1875 3.25 C-4.24839844 3.26417969 -5.30929688 3.27835938 -6.40234375 3.29296875 C-9.25 3.0625 -9.25 3.0625 -12.25 1.0625 C-8.15996141 -0.08732602 -4.21822949 -0.04844256 0 0 Z " fill="#A97760" transform="translate(98.25,174.9375)"/>
<path d="M0 0 C5.75 0.875 5.75 0.875 8 2 C7.67 3.32 7.34 4.64 7 6 C4.36 4.68 1.72 3.36 -1 2 C-0.67 1.34 -0.34 0.68 0 0 Z " fill="#171717" transform="translate(128,157)"/>
<path d="M0 0 C0.33 0 0.66 0 1 0 C1.125 2.375 1.125 2.375 1 5 C-1 7 -1 7 -3.625 7.125 C-4.40875 7.08375 -5.1925 7.0425 -6 7 C-6.33 5.68 -6.66 4.36 -7 3 C-4.69 3.33 -2.38 3.66 0 4 C0 2.68 0 1.36 0 0 Z " fill="#CF8E59" transform="translate(148,144)"/>
<path d="M0 0 C2.64 0.99 5.28 1.98 8 3 C8 3.33 8 3.66 8 4 C4.7 4 1.4 4 -2 4 C-1.34 2.68 -0.68 1.36 0 0 Z " fill="#B17255" transform="translate(118,111)"/>
<path d="M0 0 C2.64 0 5.28 0 8 0 C6.02 2.97 6.02 2.97 4 6 C0 1.125 0 1.125 0 0 Z " fill="#474444" transform="translate(123,124)"/>
<path d="M0 0 C1.98 0 3.96 0 6 0 C6 0.99 6 1.98 6 3 C5.01 3.66 4.02 4.32 3 5 C2.01 3.35 1.02 1.7 0 0 Z " fill="#414042" transform="translate(73,118)"/>
</svg>
