<?xml version="1.0" encoding="UTF-8"?>
<svg version="1.1" xmlns="http://www.w3.org/2000/svg" width="192" height="256">
<path d="M0,0 L4,0 L4,1 L5,1 L5,2 L6,2 L6,3 L7,3 L7,4 L8,4 L8,5 L9,5 L9,6 L10,6 L10,7 L12,7 L12,8 L13,8 L13,9 L14,9 L14,10 L16,10 L16,11 L18,11 L18,12 L20,12 L20,13 L31,13 L31,12 L37,12 L37,11 L42,11 L42,10 L47,10 L47,9 L49,9 L49,10 L50,10 L50,11 L51,11 L51,13 L52,13 L52,15 L53,15 L53,18 L54,18 L54,22 L55,22 L55,28 L56,28 L56,35 L55,35 L55,40 L54,40 L54,43 L53,43 L53,45 L52,45 L52,48 L51,48 L51,50 L50,50 L50,52 L49,52 L49,55 L48,55 L48,57 L47,57 L47,63 L46,63 L46,68 L47,68 L47,69 L49,69 L49,70 L51,70 L51,71 L52,71 L52,70 L53,70 L53,69 L54,69 L54,67 L55,67 L55,66 L56,66 L56,70 L58,70 L58,69 L62,69 L62,68 L66,68 L66,66 L67,66 L67,65 L70,65 L70,64 L73,64 L73,63 L76,63 L76,62 L80,62 L80,61 L95,61 L95,62 L97,62 L97,63 L99,63 L99,64 L100,64 L100,65 L101,65 L101,66 L102,66 L102,68 L103,68 L103,70 L104,70 L104,75 L105,75 L105,80 L106,80 L106,88 L105,88 L105,89 L102,89 L102,90 L99,90 L99,91 L97,91 L97,92 L96,92 L96,93 L95,93 L95,95 L93,95 L93,96 L92,96 L92,97 L85,97 L85,96 L82,96 L82,95 L80,95 L80,94 L78,94 L78,93 L76,93 L76,92 L75,92 L75,91 L72,91 L72,92 L68,92 L68,93 L69,93 L69,94 L61,94 L61,95 L59,95 L59,96 L57,96 L57,97 L55,97 L55,98 L54,98 L54,99 L52,99 L52,100 L51,100 L51,101 L49,101 L49,102 L48,102 L48,103 L49,103 L49,106 L50,106 L50,109 L51,109 L51,112 L52,112 L52,114 L53,114 L53,117 L54,117 L54,119 L71,119 L71,120 L73,120 L73,121 L76,121 L76,122 L78,122 L78,123 L80,123 L80,124 L82,124 L82,125 L86,125 L86,124 L94,124 L94,123 L100,123 L100,124 L101,124 L101,125 L102,125 L102,126 L104,126 L104,128 L103,128 L103,129 L102,129 L102,131 L101,131 L101,132 L100,132 L100,134 L99,134 L99,135 L98,135 L98,136 L97,136 L97,138 L96,138 L96,139 L95,139 L95,140 L94,140 L94,142 L93,142 L93,143 L92,143 L92,145 L91,145 L91,146 L90,146 L90,147 L89,147 L89,149 L88,149 L88,150 L87,150 L87,152 L86,152 L86,153 L85,153 L85,154 L84,154 L84,156 L81,156 L81,155 L80,155 L80,154 L79,154 L79,153 L78,153 L78,152 L76,152 L76,151 L75,151 L75,150 L74,150 L74,149 L73,149 L73,148 L71,148 L71,147 L70,147 L70,146 L69,146 L69,145 L67,145 L67,144 L64,144 L64,143 L60,143 L60,144 L57,144 L57,145 L55,145 L55,146 L54,146 L54,147 L52,147 L52,148 L51,148 L51,149 L49,149 L49,150 L48,150 L48,151 L46,151 L46,152 L45,152 L45,153 L43,153 L43,154 L41,154 L41,155 L40,155 L40,156 L38,156 L38,157 L37,157 L37,158 L35,158 L35,159 L34,159 L34,160 L32,160 L32,161 L31,161 L31,162 L29,162 L29,163 L28,163 L28,164 L26,164 L26,165 L24,165 L24,166 L23,166 L23,167 L21,167 L21,168 L20,168 L20,169 L18,169 L18,170 L16,170 L16,169 L14,169 L14,170 L12,170 L12,171 L10,171 L10,172 L7,172 L7,173 L4,173 L4,174 L2,174 L2,175 L1,175 L1,177 L0,177 L0,178 L-1,178 L-1,179 L-2,179 L-2,180 L-3,180 L-3,182 L-4,182 L-4,183 L-5,183 L-5,184 L-6,184 L-6,185 L-7,185 L-7,187 L-14,187 L-14,185 L-15,185 L-15,179 L-16,179 L-16,173 L-17,173 L-17,167 L-18,167 L-18,161 L-19,161 L-19,155 L-20,155 L-20,152 L-18,152 L-18,151 L-9,151 L-9,150 L-2,150 L-2,149 L-3,149 L-3,148 L-4,148 L-4,147 L-5,147 L-5,146 L-6,146 L-6,145 L-7,145 L-7,144 L-8,144 L-8,143 L-9,143 L-9,142 L-10,142 L-10,141 L-11,141 L-11,140 L-12,140 L-12,139 L-13,139 L-13,138 L-14,138 L-14,137 L-15,137 L-15,136 L-16,136 L-16,135 L-17,135 L-17,134 L-18,134 L-18,133 L-19,133 L-19,134 L-20,134 L-20,135 L-22,135 L-22,136 L-23,136 L-23,137 L-24,137 L-24,138 L-25,138 L-25,139 L-26,139 L-26,141 L-27,141 L-27,142 L-29,142 L-29,143 L-30,143 L-30,144 L-31,144 L-31,145 L-32,145 L-32,147 L-31,147 L-31,150 L-30,150 L-30,155 L-29,155 L-29,160 L-30,160 L-30,163 L-31,163 L-31,165 L-32,165 L-32,166 L-34,166 L-34,167 L-37,167 L-37,168 L-38,168 L-38,169 L-39,169 L-39,171 L-40,171 L-40,172 L-41,172 L-41,174 L-42,174 L-42,175 L-48,175 L-48,174 L-50,174 L-50,173 L-52,173 L-52,172 L-54,172 L-54,171 L-56,171 L-56,170 L-58,170 L-58,169 L-60,169 L-60,168 L-61,168 L-61,167 L-62,167 L-62,166 L-63,166 L-63,165 L-64,165 L-64,163 L-65,163 L-65,150 L-64,150 L-64,148 L-63,148 L-63,145 L-62,145 L-62,143 L-61,143 L-61,141 L-60,141 L-60,140 L-59,140 L-59,138 L-58,138 L-58,137 L-57,137 L-57,135 L-56,135 L-56,134 L-55,134 L-55,133 L-54,133 L-54,132 L-52,132 L-52,130 L-51,130 L-51,129 L-50,129 L-50,128 L-49,128 L-49,127 L-48,127 L-48,126 L-47,126 L-47,124 L-46,124 L-46,123 L-45,123 L-45,122 L-43,122 L-43,121 L-42,121 L-42,120 L-41,120 L-41,119 L-44,119 L-44,118 L-45,118 L-45,117 L-40,117 L-40,116 L-37,116 L-37,115 L-35,115 L-35,114 L-34,114 L-34,113 L-32,113 L-32,109 L-33,109 L-33,104 L-38,104 L-38,103 L-41,103 L-41,102 L-43,102 L-43,101 L-44,101 L-44,100 L-45,100 L-45,99 L-46,99 L-46,98 L-47,98 L-47,97 L-48,97 L-48,96 L-49,96 L-49,93 L-50,93 L-50,82 L-49,82 L-49,79 L-48,79 L-48,78 L-47,78 L-47,77 L-46,77 L-46,75 L-45,75 L-45,74 L-43,74 L-43,73 L-42,73 L-42,72 L-41,72 L-41,69 L-42,69 L-42,63 L-43,63 L-43,58 L-44,58 L-44,53 L-45,53 L-45,41 L-44,41 L-44,37 L-43,37 L-43,34 L-42,34 L-42,31 L-41,31 L-41,28 L-36,28 L-36,29 L-27,29 L-27,28 L-24,28 L-24,27 L-22,27 L-22,26 L-20,26 L-20,25 L-19,25 L-19,24 L-18,24 L-18,23 L-17,23 L-17,22 L-16,22 L-16,21 L-14,21 L-14,20 L-13,20 L-13,19 L-12,19 L-12,18 L-11,18 L-11,16 L-10,16 L-10,15 L-9,15 L-9,14 L-8,14 L-8,12 L-7,12 L-7,11 L-6,11 L-6,9 L-5,9 L-5,8 L-4,8 L-4,6 L-3,6 L-3,4 L-2,4 L-2,2 L-1,2 L-1,1 L0,1 Z " fill="#3CBB9B" transform="translate(84,62)"/>
<path d="M0,0 L3,0 L3,1 L7,1 L7,2 L8,2 L8,6 L7,6 L7,7 L6,7 L6,9 L5,9 L5,12 L7,12 L7,13 L9,13 L9,14 L12,14 L12,15 L13,15 L13,16 L5,16 L5,17 L3,17 L3,18 L1,18 L1,19 L-1,19 L-1,20 L-2,20 L-2,21 L-4,21 L-4,22 L-5,22 L-5,23 L-7,23 L-7,24 L-8,24 L-8,25 L-7,25 L-7,28 L-6,28 L-6,31 L-5,31 L-5,34 L-4,34 L-4,36 L-3,36 L-3,39 L-2,39 L-2,41 L15,41 L15,42 L17,42 L17,43 L20,43 L20,44 L22,44 L22,45 L24,45 L24,46 L26,46 L26,47 L30,47 L30,46 L38,46 L38,45 L44,45 L44,46 L45,46 L45,47 L46,47 L46,48 L48,48 L48,50 L47,50 L47,51 L46,51 L46,53 L45,53 L45,54 L44,54 L44,56 L43,56 L43,57 L42,57 L42,58 L41,58 L41,60 L40,60 L40,61 L39,61 L39,62 L38,62 L38,64 L37,64 L37,65 L36,65 L36,67 L35,67 L35,68 L34,68 L34,69 L33,69 L33,71 L32,71 L32,72 L31,72 L31,74 L30,74 L30,75 L29,75 L29,76 L28,76 L28,78 L25,78 L25,77 L24,77 L24,76 L23,76 L23,75 L22,75 L22,74 L20,74 L20,73 L19,73 L19,72 L18,72 L18,71 L17,71 L17,70 L15,70 L15,69 L14,69 L14,68 L13,68 L13,67 L11,67 L11,66 L8,66 L8,65 L4,65 L4,66 L1,66 L1,67 L-1,67 L-1,68 L-2,68 L-2,69 L-4,69 L-4,70 L-5,70 L-5,71 L-7,71 L-7,72 L-8,72 L-8,73 L-10,73 L-10,74 L-11,74 L-11,75 L-13,75 L-13,76 L-15,76 L-15,77 L-16,77 L-16,78 L-18,78 L-18,79 L-19,79 L-19,80 L-21,80 L-21,81 L-22,81 L-22,82 L-24,82 L-24,83 L-25,83 L-25,84 L-27,84 L-27,85 L-28,85 L-28,86 L-30,86 L-30,87 L-32,87 L-32,88 L-33,88 L-33,89 L-35,89 L-35,90 L-36,90 L-36,91 L-38,91 L-38,92 L-40,92 L-40,91 L-42,91 L-42,92 L-44,92 L-44,93 L-46,93 L-46,94 L-49,94 L-49,95 L-52,95 L-52,96 L-54,96 L-54,97 L-55,97 L-55,99 L-56,99 L-56,100 L-57,100 L-57,101 L-58,101 L-58,102 L-59,102 L-59,104 L-60,104 L-60,105 L-61,105 L-61,106 L-62,106 L-62,107 L-63,107 L-63,109 L-70,109 L-70,107 L-71,107 L-71,101 L-72,101 L-72,95 L-73,95 L-73,89 L-74,89 L-74,83 L-75,83 L-75,77 L-76,77 L-76,74 L-74,74 L-74,73 L-65,73 L-65,72 L-58,72 L-58,71 L-59,71 L-59,70 L-60,70 L-60,69 L-61,69 L-61,68 L-62,68 L-62,67 L-63,67 L-63,66 L-64,66 L-64,65 L-65,65 L-65,64 L-66,64 L-66,63 L-67,63 L-67,62 L-68,62 L-68,61 L-69,61 L-69,60 L-70,60 L-70,59 L-71,59 L-71,58 L-72,58 L-72,57 L-73,57 L-73,56 L-74,56 L-74,55 L-75,55 L-75,56 L-76,56 L-76,57 L-78,57 L-78,58 L-79,58 L-79,59 L-80,59 L-80,60 L-81,60 L-81,61 L-82,61 L-82,63 L-83,63 L-83,64 L-85,64 L-85,65 L-86,65 L-86,66 L-87,66 L-87,67 L-88,67 L-88,69 L-87,69 L-87,72 L-86,72 L-86,77 L-85,77 L-85,82 L-86,82 L-86,85 L-87,85 L-87,87 L-88,87 L-88,88 L-90,88 L-90,89 L-93,89 L-93,90 L-94,90 L-94,91 L-95,91 L-95,93 L-96,93 L-96,94 L-97,94 L-97,96 L-98,96 L-98,97 L-104,97 L-104,96 L-106,96 L-106,95 L-108,95 L-108,94 L-110,94 L-110,93 L-112,93 L-112,92 L-114,92 L-114,91 L-116,91 L-116,90 L-117,90 L-117,89 L-118,89 L-118,88 L-119,88 L-119,87 L-120,87 L-120,85 L-121,85 L-121,72 L-120,72 L-120,70 L-119,70 L-119,67 L-118,67 L-118,65 L-117,65 L-117,63 L-116,63 L-116,62 L-115,62 L-115,60 L-114,60 L-114,59 L-113,59 L-113,57 L-112,57 L-112,56 L-111,56 L-111,55 L-110,55 L-110,54 L-108,54 L-108,52 L-107,52 L-107,51 L-106,51 L-106,50 L-105,50 L-105,49 L-104,49 L-104,48 L-103,48 L-103,46 L-102,46 L-102,45 L-101,45 L-101,44 L-99,44 L-99,43 L-98,43 L-98,42 L-97,42 L-97,41 L-100,41 L-100,40 L-101,40 L-101,39 L-96,39 L-96,38 L-93,38 L-93,37 L-91,37 L-91,36 L-90,36 L-90,35 L-87,35 L-87,36 L-66,36 L-66,35 L-52,35 L-52,34 L-27,34 L-27,33 L-24,33 L-24,32 L-22,32 L-22,31 L-20,31 L-20,30 L-19,30 L-19,29 L-18,29 L-18,27 L-17,27 L-17,25 L-16,25 L-16,22 L-11,22 L-11,21 L-9,21 L-9,20 L-7,20 L-7,19 L-6,19 L-6,18 L-5,18 L-5,17 L-4,17 L-4,16 L-3,16 L-3,15 L-2,15 L-2,14 L-1,14 L-1,12 L0,12 Z " fill="#6266BC" transform="translate(140,140)"/>
<path d="M0,0 L4,0 L4,1 L5,1 L5,2 L6,2 L6,3 L7,3 L7,4 L8,4 L8,5 L9,5 L9,6 L10,6 L10,7 L12,7 L12,8 L13,8 L13,9 L14,9 L14,10 L16,10 L16,11 L18,11 L18,12 L20,12 L20,13 L31,13 L31,12 L37,12 L37,11 L42,11 L42,10 L47,10 L47,9 L49,9 L49,10 L50,10 L50,11 L51,11 L51,13 L52,13 L52,15 L53,15 L53,18 L54,18 L54,22 L55,22 L55,28 L56,28 L56,35 L55,35 L55,40 L54,40 L54,43 L53,43 L53,45 L52,45 L52,48 L51,48 L51,50 L50,50 L50,52 L49,52 L49,55 L48,55 L48,57 L47,57 L47,63 L46,63 L46,69 L45,69 L45,80 L44,80 L44,81 L43,81 L43,82 L38,82 L38,81 L36,81 L36,79 L35,79 L35,72 L36,72 L36,58 L37,58 L37,52 L29,52 L29,51 L24,51 L24,52 L22,52 L22,53 L20,53 L20,54 L18,54 L18,55 L15,55 L15,56 L12,56 L12,57 L10,57 L10,58 L6,58 L6,59 L0,59 L0,60 L-21,60 L-21,59 L-24,59 L-24,58 L-27,58 L-27,57 L-31,57 L-31,56 L-33,56 L-33,60 L-32,60 L-32,66 L-31,66 L-31,72 L-30,72 L-30,81 L-31,81 L-31,82 L-32,82 L-32,83 L-37,83 L-37,82 L-38,82 L-38,81 L-39,81 L-39,77 L-40,77 L-40,73 L-41,73 L-41,69 L-42,69 L-42,63 L-43,63 L-43,58 L-44,58 L-44,53 L-45,53 L-45,41 L-44,41 L-44,37 L-43,37 L-43,34 L-42,34 L-42,31 L-41,31 L-41,28 L-36,28 L-36,29 L-27,29 L-27,28 L-24,28 L-24,27 L-22,27 L-22,26 L-20,26 L-20,25 L-19,25 L-19,24 L-18,24 L-18,23 L-17,23 L-17,22 L-16,22 L-16,21 L-14,21 L-14,20 L-13,20 L-13,19 L-12,19 L-12,18 L-11,18 L-11,16 L-10,16 L-10,15 L-9,15 L-9,14 L-8,14 L-8,12 L-7,12 L-7,11 L-6,11 L-6,9 L-5,9 L-5,8 L-4,8 L-4,6 L-3,6 L-3,4 L-2,4 L-2,2 L-1,2 L-1,1 L0,1 Z " fill="#3C3F41" transform="translate(84,62)"/>
<path d="M0,0 L17,0 L17,1 L19,1 L19,2 L22,2 L22,3 L24,3 L24,4 L26,4 L26,5 L28,5 L28,6 L32,6 L32,5 L40,5 L40,4 L46,4 L46,5 L47,5 L47,6 L48,6 L48,7 L50,7 L50,9 L49,9 L49,10 L48,10 L48,12 L47,12 L47,13 L46,13 L46,15 L45,15 L45,16 L44,16 L44,17 L43,17 L43,19 L42,19 L42,20 L41,20 L41,21 L40,21 L40,23 L39,23 L39,24 L38,24 L38,26 L37,26 L37,27 L36,27 L36,28 L35,28 L35,30 L34,30 L34,31 L33,31 L33,33 L32,33 L32,34 L31,34 L31,35 L30,35 L30,37 L27,37 L27,36 L26,36 L26,35 L25,35 L25,34 L24,34 L24,33 L22,33 L22,32 L21,32 L21,31 L20,31 L20,30 L19,30 L19,29 L17,29 L17,28 L16,28 L16,27 L15,27 L15,26 L13,26 L13,25 L10,25 L10,24 L6,24 L6,25 L3,25 L3,26 L1,26 L1,27 L0,27 L0,28 L-2,28 L-2,29 L-3,29 L-3,30 L-5,30 L-5,31 L-6,31 L-6,32 L-8,32 L-8,33 L-9,33 L-9,34 L-11,34 L-11,35 L-13,35 L-13,36 L-14,36 L-14,37 L-16,37 L-16,38 L-17,38 L-17,39 L-19,39 L-19,40 L-20,40 L-20,41 L-22,41 L-22,42 L-23,42 L-23,43 L-25,43 L-25,44 L-26,44 L-26,45 L-28,45 L-28,46 L-30,46 L-30,47 L-31,47 L-31,48 L-33,48 L-33,49 L-34,49 L-34,50 L-36,50 L-36,51 L-38,51 L-38,50 L-40,50 L-40,48 L-41,48 L-41,47 L-42,47 L-42,46 L-43,46 L-43,45 L-44,45 L-44,43 L-43,43 L-43,42 L-42,42 L-42,41 L-40,41 L-40,40 L-39,40 L-39,39 L-37,39 L-37,38 L-36,38 L-36,37 L-34,37 L-34,36 L-33,36 L-33,35 L-31,35 L-31,34 L-30,34 L-30,33 L-28,33 L-28,32 L-27,32 L-27,31 L-25,31 L-25,30 L-24,30 L-24,29 L-22,29 L-22,28 L-20,28 L-20,27 L-19,27 L-19,26 L-17,26 L-17,25 L-16,25 L-16,24 L-14,24 L-14,23 L-13,23 L-13,19 L-12,19 L-12,14 L-11,14 L-11,11 L-8,11 L-8,12 L-5,12 L-5,13 L0,13 L0,14 L1,14 L1,13 L3,13 L3,12 L5,12 L5,9 L4,9 L4,7 L3,7 L3,6 L2,6 L2,4 L1,4 L1,2 L0,2 Z " fill="#D5925A" transform="translate(138,181)"/>
<path d="M0,0 L1,0 L1,1 L3,1 L3,2 L5,2 L5,3 L7,3 L7,4 L6,4 L6,6 L5,6 L5,14 L13,14 L13,23 L12,23 L12,24 L11,24 L11,25 L10,25 L10,26 L9,26 L9,28 L10,28 L10,31 L11,31 L11,36 L12,36 L12,41 L11,41 L11,44 L10,44 L10,46 L9,46 L9,47 L7,47 L7,48 L4,48 L4,49 L3,49 L3,50 L2,50 L2,52 L1,52 L1,53 L0,53 L0,55 L-1,55 L-1,56 L-7,56 L-7,55 L-9,55 L-9,54 L-11,54 L-11,53 L-13,53 L-13,52 L-15,52 L-15,51 L-17,51 L-17,50 L-19,50 L-19,49 L-20,49 L-20,48 L-21,48 L-21,47 L-22,47 L-22,46 L-23,46 L-23,44 L-24,44 L-24,31 L-23,31 L-23,29 L-22,29 L-22,26 L-21,26 L-21,24 L-20,24 L-20,22 L-19,22 L-19,21 L-18,21 L-18,19 L-17,19 L-17,18 L-16,18 L-16,16 L-15,16 L-15,15 L-14,15 L-14,14 L-13,14 L-13,13 L-11,13 L-11,11 L-10,11 L-10,10 L-9,10 L-9,9 L-8,9 L-8,8 L-7,8 L-7,7 L-6,7 L-6,5 L-5,5 L-5,4 L-4,4 L-4,3 L-2,3 L-2,2 L-1,2 L-1,1 L0,1 Z " fill="#3BB596" transform="translate(43,181)"/>
<path d="M0,0 L15,0 L15,1 L17,1 L17,2 L19,2 L19,3 L20,3 L20,4 L21,4 L21,5 L22,5 L22,7 L23,7 L23,9 L24,9 L24,14 L25,14 L25,19 L26,19 L26,27 L25,27 L25,28 L22,28 L22,29 L19,29 L19,30 L17,30 L17,31 L16,31 L16,32 L15,32 L15,34 L13,34 L13,35 L12,35 L12,36 L5,36 L5,35 L2,35 L2,34 L0,34 L0,33 L-2,33 L-2,32 L-4,32 L-4,31 L-5,31 L-5,30 L-8,30 L-8,31 L-15,31 L-15,30 L-17,30 L-17,29 L-19,29 L-19,26 L-18,26 L-18,24 L-17,24 L-17,23 L-16,23 L-16,19 L-17,19 L-17,18 L-21,18 L-21,17 L-25,17 L-25,15 L-26,15 L-26,13 L-27,13 L-27,12 L-28,12 L-28,11 L-29,11 L-29,10 L-28,10 L-28,9 L-27,9 L-27,8 L-26,8 L-26,6 L-25,6 L-25,5 L-24,5 L-24,9 L-22,9 L-22,8 L-18,8 L-18,7 L-14,7 L-14,5 L-13,5 L-13,4 L-10,4 L-10,3 L-7,3 L-7,2 L-4,2 L-4,1 L0,1 Z " fill="#3CB697" transform="translate(164,123)"/>
<path d="M0,0 L2,0 L2,1 L1,1 L1,2 L2,2 L2,4 L3,4 L3,5 L4,5 L4,6 L3,6 L3,7 L4,7 L4,8 L3,8 L3,10 L2,10 L2,11 L1,11 L1,12 L0,12 L0,13 L-1,13 L-1,14 L-3,14 L-3,15 L-4,15 L-4,16 L-5,16 L-5,17 L-6,17 L-6,26 L-7,26 L-7,28 L-8,28 L-8,31 L-9,31 L-9,33 L-10,33 L-10,35 L-12,35 L-12,28 L-11,28 L-11,22 L-10,22 L-10,19 L-9,19 L-9,17 L-14,17 L-14,18 L-15,18 L-15,17 L-16,17 L-16,18 L-17,18 L-17,17 L-18,17 L-18,18 L-19,18 L-19,17 L-20,17 L-20,18 L-21,18 L-21,17 L-28,17 L-28,16 L-45,16 L-45,11 L-47,11 L-47,12 L-49,12 L-49,13 L-51,13 L-51,14 L-52,14 L-52,15 L-53,15 L-53,19 L-52,19 L-52,20 L-51,20 L-51,22 L-50,22 L-50,23 L-51,23 L-51,24 L-52,24 L-52,25 L-54,25 L-54,26 L-55,26 L-55,27 L-56,27 L-56,28 L-57,28 L-57,29 L-58,29 L-58,31 L-59,31 L-59,32 L-60,32 L-60,23 L-68,23 L-68,15 L-67,15 L-67,13 L-66,13 L-66,12 L-68,12 L-68,11 L-70,11 L-70,10 L-72,10 L-72,9 L-76,9 L-76,8 L-77,8 L-77,7 L-72,7 L-72,6 L-69,6 L-69,5 L-67,5 L-67,4 L-66,4 L-66,3 L-63,3 L-63,4 L-42,4 L-42,3 L-28,3 L-28,2 L-3,2 L-3,1 L0,1 Z " fill="#45479C" transform="translate(116,172)"/>
<path d="M0,0 L4,0 L4,1 L5,1 L5,2 L6,2 L6,3 L7,3 L7,4 L8,4 L8,5 L9,5 L9,6 L10,6 L10,7 L12,7 L12,8 L13,8 L13,9 L14,9 L14,10 L16,10 L16,11 L18,11 L18,12 L20,12 L20,13 L31,13 L31,12 L37,12 L37,11 L42,11 L42,10 L47,10 L47,9 L49,9 L49,10 L50,10 L50,11 L51,11 L51,13 L52,13 L52,15 L53,15 L53,18 L54,18 L54,22 L55,22 L55,24 L53,24 L53,21 L50,21 L50,22 L42,22 L42,26 L41,26 L41,30 L40,30 L40,33 L39,33 L39,34 L38,34 L38,36 L37,36 L37,37 L36,37 L36,39 L34,39 L34,40 L33,40 L33,41 L32,41 L32,42 L31,42 L31,43 L29,43 L29,44 L28,44 L28,29 L27,29 L27,26 L26,26 L26,24 L24,24 L24,23 L22,23 L22,22 L20,22 L20,21 L18,21 L18,20 L16,20 L16,19 L15,19 L15,18 L14,18 L14,17 L12,17 L12,16 L11,16 L11,15 L10,15 L10,14 L9,14 L9,13 L8,13 L8,12 L7,12 L7,11 L6,11 L6,10 L2,10 L2,11 L1,11 L1,12 L0,12 L0,13 L-1,13 L-1,15 L-2,15 L-2,16 L-3,16 L-3,18 L-4,18 L-4,19 L-5,19 L-5,21 L-6,21 L-6,22 L-7,22 L-7,23 L-8,23 L-8,24 L-9,24 L-9,26 L-10,26 L-10,27 L-11,27 L-11,28 L-12,28 L-12,29 L-13,29 L-13,30 L-14,30 L-14,31 L-15,31 L-15,32 L-16,32 L-16,33 L-17,33 L-17,34 L-18,34 L-18,35 L-19,35 L-19,36 L-20,36 L-20,37 L-23,37 L-23,36 L-26,36 L-26,35 L-28,35 L-28,34 L-30,34 L-30,33 L-32,33 L-32,32 L-34,32 L-34,31 L-36,31 L-36,30 L-38,30 L-38,31 L-39,31 L-39,32 L-40,32 L-40,33 L-41,33 L-41,35 L-42,35 L-42,36 L-43,36 L-43,34 L-42,34 L-42,31 L-41,31 L-41,28 L-36,28 L-36,29 L-27,29 L-27,28 L-24,28 L-24,27 L-22,27 L-22,26 L-20,26 L-20,25 L-19,25 L-19,24 L-18,24 L-18,23 L-17,23 L-17,22 L-16,22 L-16,21 L-14,21 L-14,20 L-13,20 L-13,19 L-12,19 L-12,18 L-11,18 L-11,16 L-10,16 L-10,15 L-9,15 L-9,14 L-8,14 L-8,12 L-7,12 L-7,11 L-6,11 L-6,9 L-5,9 L-5,8 L-4,8 L-4,6 L-3,6 L-3,4 L-2,4 L-2,2 L-1,2 L-1,1 L0,1 Z " fill="#464B52" transform="translate(84,62)"/>
<path d="M0,0 L3,0 L3,1 L6,1 L6,2 L8,2 L8,3 L10,3 L10,4 L12,4 L12,5 L16,5 L16,4 L24,4 L24,3 L30,3 L30,4 L31,4 L31,5 L32,5 L32,6 L34,6 L34,8 L33,8 L33,9 L32,9 L32,11 L31,11 L31,12 L30,12 L30,14 L29,14 L29,15 L28,15 L28,16 L27,16 L27,18 L26,18 L26,19 L25,19 L25,20 L24,20 L24,22 L23,22 L23,23 L22,23 L22,25 L21,25 L21,26 L20,26 L20,27 L19,27 L19,29 L18,29 L18,30 L17,30 L17,32 L16,32 L16,33 L15,33 L15,34 L14,34 L14,36 L11,36 L11,35 L10,35 L10,34 L9,34 L9,33 L8,33 L8,32 L6,32 L6,31 L5,31 L5,30 L4,30 L4,29 L3,29 L3,28 L1,28 L1,27 L0,27 L0,26 L-1,26 L-1,24 L0,24 L0,15 L-1,15 L-1,14 L-2,14 L-2,13 L-3,13 L-3,12 L-4,12 L-4,10 L-3,10 L-3,8 L-2,8 L-2,5 L-1,5 L-1,3 L0,3 Z " fill="#3A3C3F" transform="translate(154,182)"/>
<path d="M0,0 L7,0 L7,1 L8,1 L8,9 L9,9 L9,14 L10,14 L10,17 L11,17 L11,25 L10,25 L10,27 L9,27 L9,28 L8,28 L8,29 L7,29 L7,30 L6,30 L6,32 L5,32 L5,33 L4,33 L4,34 L3,34 L3,35 L2,35 L2,37 L-5,37 L-5,35 L-6,35 L-6,29 L-7,29 L-7,23 L-8,23 L-8,17 L-9,17 L-9,11 L-10,11 L-10,5 L-11,5 L-11,2 L-9,2 L-9,1 L0,1 Z " fill="#3A3D3F" transform="translate(75,212)"/>
<path d="M0,0 L1,0 L1,2 L2,2 L2,8 L-2,8 L-2,10 L1,10 L1,11 L2,11 L2,12 L3,12 L3,13 L5,13 L5,15 L7,15 L7,16 L6,16 L6,26 L5,26 L5,28 L4,28 L4,29 L3,29 L3,30 L2,30 L2,31 L1,31 L1,32 L-1,32 L-1,33 L-10,33 L-10,32 L-11,32 L-11,31 L-13,31 L-13,30 L-14,30 L-14,29 L-15,29 L-15,27 L-16,27 L-16,25 L-17,25 L-17,16 L-16,16 L-16,14 L-15,14 L-15,13 L-14,13 L-14,12 L-13,12 L-13,11 L-16,11 L-16,8 L-17,8 L-17,4 L-15,4 L-15,3 L-10,3 L-10,2 L-5,2 L-5,1 L0,1 Z " fill="#2EA683" transform="translate(115,128)"/>
<path d="M0,0 L3,0 L3,1 L6,1 L6,2 L12,2 L12,3 L15,3 L15,4 L18,4 L18,9 L17,9 L17,11 L16,11 L16,12 L17,12 L17,14 L18,14 L18,16 L19,16 L19,25 L18,25 L18,27 L17,27 L17,28 L16,28 L16,29 L15,29 L15,30 L14,30 L14,31 L13,31 L13,32 L11,32 L11,33 L5,33 L5,32 L3,32 L3,31 L1,31 L1,30 L-1,30 L-1,29 L-2,29 L-2,27 L-3,27 L-3,24 L-4,24 L-4,15 L-3,15 L-3,13 L-2,13 L-2,12 L-1,12 L-1,11 L0,11 L0,10 L1,10 L1,9 L2,9 L2,8 L-1,8 L-1,3 L0,3 Z " fill="#2FA782" transform="translate(61,123)"/>
<path d="M0,0 L2,0 L2,1 L1,1 L1,2 L2,2 L2,4 L3,4 L3,5 L4,5 L4,6 L3,6 L3,7 L4,7 L4,8 L3,8 L3,10 L2,10 L2,11 L1,11 L1,12 L0,12 L0,13 L-1,13 L-1,14 L-3,14 L-3,15 L-4,15 L-4,16 L-5,16 L-5,17 L-6,17 L-6,26 L-7,26 L-7,28 L-8,28 L-8,31 L-9,31 L-9,33 L-10,33 L-10,35 L-12,35 L-12,28 L-11,28 L-11,22 L-10,22 L-10,19 L-9,19 L-9,17 L-14,17 L-14,18 L-15,18 L-15,17 L-16,17 L-16,18 L-17,18 L-17,17 L-18,17 L-18,18 L-19,18 L-19,17 L-20,17 L-20,18 L-21,18 L-21,17 L-28,17 L-28,16 L-20,16 L-20,15 L-15,15 L-15,7 L-31,7 L-31,8 L-40,8 L-40,7 L-41,7 L-41,5 L-42,5 L-42,3 L-28,3 L-28,2 L-3,2 L-3,1 L0,1 Z " fill="#5256A1" transform="translate(116,172)"/>
<path d="M0,0 L3,0 L3,1 L17,1 L17,2 L16,2 L16,3 L15,3 L15,4 L14,4 L14,5 L15,5 L15,6 L13,6 L13,8 L12,8 L12,10 L11,10 L11,9 L10,9 L10,10 L9,10 L9,11 L8,11 L8,12 L7,12 L7,13 L6,13 L6,14 L5,14 L5,15 L4,15 L4,16 L3,16 L3,17 L2,17 L2,18 L1,18 L1,19 L-2,19 L-2,12 L-1,12 L-1,10 L0,10 L0,9 L-2,9 L-2,8 L-4,8 L-4,7 L-6,7 L-6,6 L-10,6 L-10,5 L-11,5 L-11,4 L-6,4 L-6,3 L-3,3 L-3,2 L-1,2 L-1,1 L0,1 Z " fill="#4A4EA8" transform="translate(50,175)"/>
<path d="M0,0 L3,0 L3,1 L6,1 L6,2 L8,2 L8,3 L10,3 L10,4 L12,4 L12,7 L11,7 L11,8 L10,8 L10,10 L9,10 L9,11 L8,11 L8,13 L7,13 L7,14 L6,14 L6,15 L5,15 L5,17 L4,17 L4,18 L3,18 L3,20 L2,20 L2,21 L1,21 L1,22 L0,22 L0,15 L-1,15 L-1,14 L-2,14 L-2,13 L-3,13 L-3,12 L-4,12 L-4,10 L-3,10 L-3,8 L-2,8 L-2,5 L-1,5 L-1,3 L0,3 Z " fill="#41B899" transform="translate(154,182)"/>
<path d="M0,0 L2,0 L2,1 L3,1 L3,2 L4,2 L4,3 L5,3 L5,4 L6,4 L6,5 L7,5 L7,7 L8,7 L8,8 L9,8 L9,10 L10,10 L10,11 L11,11 L11,12 L12,12 L12,14 L13,14 L13,15 L14,15 L14,16 L15,16 L15,17 L16,17 L16,20 L14,20 L14,21 L12,21 L12,22 L9,22 L9,23 L6,23 L6,24 L4,24 L4,17 L3,17 L3,14 L2,14 L2,9 L1,9 L1,1 L0,1 Z " fill="#3CAA8E" transform="translate(82,212)"/>
<path d="M0,0 L3,0 L3,1 L7,1 L7,2 L8,2 L8,6 L7,6 L7,7 L6,7 L6,9 L5,9 L5,12 L7,12 L7,13 L9,13 L9,14 L12,14 L12,15 L13,15 L13,16 L5,16 L5,17 L3,17 L3,18 L1,18 L1,19 L-1,19 L-1,20 L-2,20 L-2,21 L-4,21 L-4,22 L-5,22 L-5,23 L-7,23 L-7,24 L-9,24 L-9,20 L-7,20 L-7,19 L-6,19 L-6,18 L-5,18 L-5,17 L-4,17 L-4,16 L-3,16 L-3,15 L-2,15 L-2,14 L-1,14 L-1,12 L0,12 Z " fill="#454F99" transform="translate(140,140)"/>
<path d="M0,0 L5,0 L5,1 L7,1 L7,2 L8,2 L8,3 L9,3 L9,11 L8,11 L8,12 L7,12 L7,13 L6,13 L6,14 L0,14 L0,13 L-1,13 L-1,12 L-2,12 L-2,11 L-3,11 L-3,9 L-4,9 L-4,4 L-3,4 L-3,3 L-2,3 L-2,2 L-1,2 L-1,1 L0,1 Z " fill="#F8CA04" transform="translate(106,139)"/>
<path d="M0,0 L7,0 L7,1 L8,1 L8,2 L9,2 L9,3 L10,3 L10,10 L9,10 L9,11 L8,11 L8,12 L7,12 L7,13 L0,13 L0,12 L-1,12 L-1,11 L-2,11 L-2,9 L-3,9 L-3,3 L-2,3 L-2,2 L-1,2 L-1,1 L0,1 Z " fill="#FACB02" transform="translate(65,134)"/>
<path d="M0,0 L6,0 L6,1 L7,1 L7,3 L8,3 L8,4 L9,4 L9,6 L10,6 L10,8 L11,8 L11,11 L12,11 L12,12 L13,12 L13,14 L14,14 L14,15 L15,15 L15,18 L16,18 L16,19 L17,19 L17,21 L10,21 L10,20 L8,20 L8,19 L6,19 L6,16 L7,16 L7,14 L8,14 L8,13 L9,13 L9,9 L8,9 L8,8 L4,8 L4,7 L0,7 L0,5 L-1,5 L-1,4 L0,4 Z " fill="#289178" transform="translate(139,133)"/>
<path d="M0,0 L3,0 L3,1 L6,1 L6,2 L12,2 L12,3 L15,3 L15,4 L18,4 L18,9 L17,9 L17,11 L13,11 L13,10 L8,10 L8,9 L3,9 L3,8 L-1,8 L-1,3 L0,3 Z " fill="#435054" transform="translate(61,123)"/>
<path d="M0,0 L1,0 L1,1 L3,1 L3,2 L5,2 L5,3 L7,3 L7,4 L6,4 L6,6 L5,6 L5,14 L13,14 L13,23 L12,23 L12,24 L9,24 L9,22 L8,22 L8,21 L7,21 L7,19 L6,19 L6,18 L5,18 L5,16 L4,16 L4,15 L3,15 L3,13 L2,13 L2,12 L1,12 L1,10 L0,10 L0,8 L-1,8 L-1,7 L-2,7 L-2,5 L-3,5 L-3,4 L-2,4 L-2,2 L-1,2 L-1,1 L0,1 Z " fill="#2BA387" transform="translate(43,181)"/>
<path d="M0,0 L16,0 L16,8 L1,8 L1,7 L0,7 L0,5 L-2,5 L-2,4 L-3,4 L-3,1 L0,1 Z " fill="#3A3D84" transform="translate(85,179)"/>
<path d="M0,0 L1,0 L1,2 L2,2 L2,8 L-4,8 L-4,9 L-8,9 L-8,10 L-13,10 L-13,11 L-16,11 L-16,8 L-17,8 L-17,4 L-15,4 L-15,3 L-10,3 L-10,2 L-5,2 L-5,1 L0,1 Z " fill="#444E53" transform="translate(115,128)"/>
<path d="M0,0 L15,0 L15,1 L14,1 L14,3 L13,3 L13,5 L-3,5 L-3,6 L-12,6 L-12,5 L-13,5 L-13,3 L-14,3 L-14,1 L0,1 Z " fill="#258B75" transform="translate(88,174)"/>
<path d="M0,0 L1,0 L1,7 L2,7 L2,8 L3,8 L3,9 L4,9 L4,11 L5,11 L5,19 L4,19 L4,21 L3,21 L3,22 L2,22 L2,23 L0,23 L0,24 L-4,24 L-4,13 L-2,13 L-2,12 L-1,12 L-1,11 L0,11 Z " fill="#29A384" transform="translate(129,131)"/>
<path d="M0,0 L1,0 L1,4 L2,4 L2,5 L3,5 L3,6 L4,6 L4,9 L5,9 L5,16 L6,16 L6,21 L5,21 L5,20 L2,20 L2,19 L1,19 L1,18 L-1,18 L-1,17 L-2,17 L-2,15 L-3,15 L-3,12 L-4,12 L-4,8 L-3,8 L-3,6 L-2,6 L-2,4 L-1,4 L-1,3 L0,3 Z " fill="#289E80" transform="translate(44,139)"/>
<path d="M0,0 L8,0 L8,1 L9,1 L9,2 L10,2 L10,3 L11,3 L11,6 L10,6 L10,7 L9,7 L9,8 L7,8 L7,9 L0,9 L0,8 L-2,8 L-2,7 L-3,7 L-3,3 L-2,3 L-2,2 L-1,2 L-1,1 L0,1 Z " fill="#2AA787" transform="translate(84,146)"/>
<path d="M0,0 L3,0 L3,1 L15,1 L15,0 L16,0 L16,1 L17,1 L17,0 L20,0 L20,2 L19,2 L19,4 L17,4 L17,5 L16,5 L16,6 L9,6 L9,5 L6,5 L6,4 L4,4 L4,3 L2,3 L2,2 L0,2 Z " fill="#32947C" transform="translate(160,153)"/>
<path d="M0,0 L4,0 L4,3 L0,3 L0,4 L-1,4 L-1,6 L-2,6 L-2,8 L-3,8 L-3,10 L-4,10 L-4,11 L-5,11 L-5,13 L-6,13 L-6,14 L-7,14 L-7,16 L-8,16 L-8,17 L-9,17 L-9,18 L-10,18 L-10,19 L-11,19 L-11,20 L-12,20 L-12,21 L-13,21 L-13,22 L-14,22 L-14,23 L-15,23 L-15,24 L-16,24 L-16,25 L-17,25 L-17,26 L-18,26 L-18,27 L-20,27 L-20,28 L-22,28 L-22,26 L-20,26 L-20,25 L-19,25 L-19,24 L-18,24 L-18,23 L-17,23 L-17,22 L-16,22 L-16,21 L-14,21 L-14,20 L-13,20 L-13,19 L-12,19 L-12,18 L-11,18 L-11,16 L-10,16 L-10,15 L-9,15 L-9,14 L-8,14 L-8,12 L-7,12 L-7,11 L-6,11 L-6,9 L-5,9 L-5,8 L-4,8 L-4,6 L-3,6 L-3,4 L-2,4 L-2,2 L-1,2 L-1,1 L0,1 Z " fill="#4F535B" transform="translate(84,62)"/>
<path d="M0,0 L2,0 L2,10 L1,10 L1,12 L0,12 L0,15 L-1,15 L-1,17 L-2,17 L-2,19 L-4,19 L-4,12 L-3,12 L-3,6 L-2,6 L-2,3 L-1,3 L-1,1 L0,1 Z " fill="#3DAE9B" transform="translate(108,188)"/>
<path d="M0,0 L6,0 L6,1 L7,1 L7,3 L8,3 L8,4 L9,4 L9,6 L10,6 L10,8 L11,8 L11,10 L10,10 L10,11 L9,11 L9,9 L8,9 L8,8 L4,8 L4,7 L0,7 L0,5 L-1,5 L-1,4 L0,4 Z " fill="#2AA487" transform="translate(139,133)"/>
<path d="M0,0 L1,0 L1,2 L2,2 L2,7 L3,7 L3,12 L2,12 L2,15 L1,15 L1,17 L-3,17 L-3,18 L-5,18 L-5,17 L-4,17 L-4,15 L-3,15 L-3,11 L-2,11 L-2,8 L-1,8 L-1,6 L0,6 Z " fill="#2A9379" transform="translate(52,210)"/>
<path d="M0,0 L5,0 L5,1 L8,1 L8,2 L10,2 L10,3 L12,3 L12,4 L13,4 L13,5 L15,5 L15,6 L16,6 L16,7 L17,7 L17,9 L13,9 L13,8 L10,8 L10,7 L9,7 L9,6 L6,6 L6,5 L5,5 L5,4 L3,4 L3,3 L2,3 L2,2 L0,2 Z " fill="#3DB69C" transform="translate(80,194)"/>
<path d="M0,0 L5,0 L5,3 L4,3 L4,4 L1,4 L1,5 L-2,5 L-2,6 L-5,6 L-5,7 L-10,7 L-10,4 L-9,4 L-9,3 L-6,3 L-6,2 L-3,2 L-3,1 L0,1 Z " fill="#1B8368" transform="translate(91,157)"/>
<path d="M0,0 L7,0 L7,9 L6,9 L6,10 L3,10 L3,8 L2,8 L2,7 L1,7 L1,5 L0,5 Z " fill="#2A9A7E" transform="translate(49,195)"/>
<path d="M0,0 L9,0 L9,1 L8,1 L8,3 L7,3 L7,5 L6,5 L6,7 L5,7 L5,8 L3,8 L3,7 L1,7 L1,6 L-1,6 L-1,5 L-2,5 L-2,3 L-1,3 L-1,1 L0,1 Z " fill="#393B82" transform="translate(103,174)"/>
<path d="M0,0 L5,0 L5,1 L4,1 L4,3 L3,3 L3,5 L-12,5 L-12,4 L-10,4 L-10,2 L-7,2 L-7,1 L0,1 Z " fill="#1F7B66" transform="translate(98,174)"/>
<path d="M0,0 L1,0 L1,2 L2,2 L2,3 L1,3 L1,4 L0,4 L0,5 L-2,5 L-2,6 L-3,6 L-3,7 L-4,7 L-4,8 L-5,8 L-5,9 L-6,9 L-6,11 L-7,11 L-7,12 L-8,12 L-8,3 L-16,3 L-16,2 L-7,2 L-7,7 L-6,7 L-6,6 L-5,6 L-5,5 L-4,5 L-4,4 L-3,4 L-3,3 L-2,3 L-2,2 L0,2 Z " fill="#475995" transform="translate(64,192)"/>
<path d="M0,0 L6,0 L6,3 L7,3 L7,4 L9,4 L9,6 L10,6 L10,7 L4,7 L4,6 L3,6 L3,5 L2,5 L2,6 L1,6 L1,5 L0,5 L0,4 L1,4 L1,3 L0,3 L0,2 L1,2 L1,1 L0,1 Z " fill="#414292" transform="translate(76,180)"/>
<path d="M0,0 L1,0 L1,1 L3,1 L3,2 L4,2 L4,3 L5,3 L5,4 L7,4 L7,5 L9,5 L9,6 L11,6 L11,7 L20,7 L20,8 L19,8 L19,9 L17,9 L17,10 L16,10 L16,9 L10,9 L10,8 L9,8 L9,7 L7,7 L7,6 L5,6 L5,5 L3,5 L3,4 L2,4 L2,3 L1,3 L1,2 L0,2 Z " fill="#4F545A" transform="translate(93,68)"/>
<path d="M0,0 L1,0 L1,1 L4,1 L4,2 L2,2 L2,3 L0,3 L0,4 L-2,4 L-2,5 L-3,5 L-3,6 L-5,6 L-5,7 L-6,7 L-6,8 L-8,8 L-8,9 L-10,9 L-10,5 L-8,5 L-8,4 L-4,4 L-4,3 L-3,3 L-3,2 L-2,2 L-2,1 L0,1 Z " fill="#4C4E8D" transform="translate(141,155)"/>
<path d="M0,0 L1,0 L1,1 L2,1 L2,7 L3,7 L3,13 L4,13 L4,15 L8,15 L8,14 L9,14 L9,13 L10,13 L10,11 L11,11 L11,10 L13,10 L13,9 L14,9 L14,11 L13,11 L13,12 L12,12 L12,13 L11,13 L11,14 L10,14 L10,16 L3,16 L3,14 L2,14 L2,8 L1,8 L1,2 L0,2 Z " fill="#44464A" transform="translate(67,233)"/>
<path d="M0,0 L3,0 L3,1 L8,1 L8,2 L2,2 L2,3 L0,3 L0,4 L-2,4 L-2,5 L-4,5 L-4,6 L-10,6 L-10,5 L-11,5 L-11,4 L-6,4 L-6,3 L-3,3 L-3,2 L-1,2 L-1,1 L0,1 Z " fill="#5565A8" transform="translate(50,175)"/>
<path d="M0,0 L2,0 L2,1 L1,1 L1,3 L0,3 L0,5 L-1,5 L-1,8 L-2,8 L-2,9 L-3,9 L-3,11 L-4,11 L-4,12 L-3,12 L-3,15 L-4,15 L-4,18 L-5,18 L-5,8 L-4,8 L-4,5 L-3,5 L-3,4 L-2,4 L-2,3 L-1,3 L-1,1 L0,1 Z " fill="#45B196" transform="translate(39,136)"/>
<path d="M0,0 L1,0 L1,2 L2,2 L2,7 L3,7 L3,12 L2,12 L2,15 L1,15 L1,17 L0,17 L0,14 L1,14 L1,9 L0,9 Z " fill="#3B9D85" transform="translate(52,210)"/>
<path d="M0,0 L2,0 L2,1 L1,1 L1,2 L0,2 L0,4 L-1,4 L-1,5 L-7,5 L-7,4 L-9,4 L-9,3 L-8,3 L-8,2 L-1,2 L-1,1 L0,1 Z " fill="#41A38B" transform="translate(43,232)"/>
<path d="M0,0 L4,0 L4,1 L3,1 L3,3 L2,3 L2,4 L1,4 L1,7 L0,7 L0,10 L-1,10 L-1,4 L-2,4 L-2,1 L0,1 Z " fill="#46484C" transform="translate(66,213)"/>
<path d="M0,0 L2,0 L2,1 L1,1 L1,2 L0,2 L0,3 L-1,3 L-1,4 L-2,4 L-2,2 L-1,2 L-1,1 L0,1 Z M-3,4 L-2,4 L-2,5 L-1,5 L-1,6 L-2,6 L-2,7 L-3,7 L-3,9 L-4,9 L-4,11 L-5,11 L-5,13 L-7,13 L-7,10 L-6,10 L-6,8 L-5,8 L-5,7 L-4,7 L-4,5 L-3,5 Z " fill="#48B89C" transform="translate(29,195)"/>
<path d="M0,0 L2,0 L2,1 L1,1 L1,3 L0,3 L0,4 L-1,4 L-1,6 L-2,6 L-2,7 L-3,7 L-3,8 L-4,8 L-4,10 L-5,10 L-5,11 L-6,11 L-6,8 L-5,8 L-5,7 L-4,7 L-4,5 L-3,5 L-3,4 L-2,4 L-2,2 L-1,2 L-1,1 L0,1 Z " fill="#434549" transform="translate(177,201)"/>
<path d="M0,0 L4,0 L4,1 L5,1 L5,2 L8,2 L8,3 L7,3 L7,8 L6,8 L6,3 L1,3 L1,2 L-2,2 L-2,1 L0,1 Z " fill="#44AC93" transform="translate(45,163)"/>
<path d="M0,0 L6,0 L6,1 L7,1 L7,2 L8,2 L8,3 L10,3 L10,5 L9,5 L9,6 L8,6 L8,5 L7,5 L7,3 L5,3 L5,2 L4,2 L4,1 L3,1 L3,2 L0,2 Z " fill="#48494E" transform="translate(178,185)"/>
<path d="M0,0 L3,0 L3,2 L2,2 L2,4 L0,4 L0,5 L-1,5 L-1,6 L-8,6 L-8,5 L-2,5 L-2,3 L-1,3 L-1,2 L0,2 Z " fill="#389880" transform="translate(177,153)"/>
<path d="M0,0 L1,0 L1,5 L0,5 L0,9 L-1,9 L-1,8 L-2,8 L-2,7 L-3,7 L-3,6 L-4,6 L-4,5 L-3,5 L-3,4 L-2,4 L-2,3 L-1,3 L-1,1 L0,1 Z " fill="#5863AC" transform="translate(139,128)"/>
<path d="M0,0 L2,0 L2,1 L3,1 L3,2 L4,2 L4,3 L5,3 L5,4 L6,4 L6,5 L7,5 L7,7 L8,7 L8,8 L6,8 L6,7 L5,7 L5,6 L3,6 L3,4 L2,4 L2,3 L1,3 L1,1 L0,1 Z " fill="#DA9D64" transform="translate(82,212)"/>
<path d="M0,0 L2,0 L2,1 L1,1 L1,3 L0,3 L0,4 L-1,4 L-1,5 L-2,5 L-2,6 L-3,6 L-3,7 L-4,7 L-4,8 L-5,8 L-5,9 L-6,9 L-6,10 L-7,10 L-7,8 L-6,8 L-6,7 L-5,7 L-5,6 L-4,6 L-4,5 L-3,5 L-3,4 L-2,4 L-2,2 L-1,2 L-1,1 L0,1 Z " fill="#4BB59B" transform="translate(39,184)"/>
<path d="M0,0 L3,0 L3,3 L2,3 L2,4 L0,4 L0,5 L-2,5 L-2,1 L0,1 Z " fill="#4E599D" transform="translate(133,159)"/>
<path d="M0,0 L1,0 L1,1 L2,1 L2,2 L1,2 L1,3 L-1,3 L-1,4 L-6,4 L-6,3 L-8,3 L-8,2 L-2,2 L-2,1 L0,1 Z " fill="#248D72" transform="translate(175,153)"/>
</svg>
